<?xml version="1.0" encoding="UTF-8"?> <svg xmlns="http://www.w3.org/2000/svg" xmlns:xlink="http://www.w3.org/1999/xlink" version="1.1" id="Layer_1" x="0px" y="0px" viewBox="0 0 129.5 129.5" xml:space="preserve"> <g> <g> <g> <g> <path fill="#231F20" d="M122.6,9.4c-0.2,0-0.4-0.1-0.5-0.2c-0.3-0.3-0.3-0.8,0-1.1l1.3-1.3c0.3-0.3,0.8-0.3,1.1,0 c0.3,0.3,0.3,0.8,0,1.1l-1.3,1.3C122.9,9.3,122.7,9.4,122.6,9.4z"></path> </g> <g> <path fill="#231F20" d="M118.5,13.4c-0.2,0-0.4-0.1-0.5-0.2c-0.3-0.3-0.3-0.8,0-1.1l1.3-1.3c0.3-0.3,0.8-0.3,1.1,0 c0.3,0.3,0.3,0.8,0,1.1l-1.3,1.3C118.9,13.4,118.7,13.4,118.5,13.4z"></path> </g> <g> <path fill="#231F20" d="M123.8,13.4c-0.2,0-0.4-0.1-0.5-0.2l-1.3-1.3c-0.3-0.3-0.3-0.8,0-1.1c0.3-0.3,0.8-0.3,1.1,0l1.3,1.3 c0.3,0.3,0.3,0.8,0,1.1C124.2,13.4,124,13.4,123.8,13.4z"></path> </g> <g> <path fill="#231F20" d="M119.8,9.4c-0.2,0-0.4-0.1-0.5-0.2L118,7.9c-0.3-0.3-0.3-0.8,0-1.1c0.3-0.3,0.8-0.3,1.1,0l1.3,1.3 c0.3,0.3,0.3,0.8,0,1.1C120.2,9.3,120,9.4,119.8,9.4z"></path> </g> </g> <g> <g> <path fill="#231F20" d="M26.4,2.8c-0.2,0-0.4-0.1-0.5-0.2c-0.3-0.3-0.3-0.8,0-1.1l1.3-1.3c0.3-0.3,0.8-0.3,1.1,0 c0.3,0.3,0.3,0.8,0,1.1l-1.3,1.3C26.8,2.7,26.6,2.8,26.4,2.8z"></path> </g> <g> <path fill="#231F20" d="M22.4,6.8c-0.2,0-0.4-0.1-0.5-0.2c-0.3-0.3-0.3-0.8,0-1.1l1.3-1.3c0.3-0.3,0.8-0.3,1.1,0 c0.3,0.3,0.3,0.8,0,1.1l-1.3,1.3C22.7,6.7,22.6,6.8,22.4,6.8z"></path> </g> <g> <path fill="#231F20" d="M27.7,6.8c-0.2,0-0.4-0.1-0.5-0.2l-1.3-1.3c-0.3-0.3-0.3-0.8,0-1.1c0.3-0.3,0.8-0.3,1.1,0l1.3,1.3 c0.3,0.3,0.3,0.8,0,1.1C28.1,6.7,27.9,6.8,27.7,6.8z"></path> </g> <g> <path fill="#231F20" d="M23.6,2.8c-0.2,0-0.4-0.1-0.5-0.2l-1.3-1.3c-0.3-0.3-0.3-0.8,0-1.1c0.3-0.3,0.8-0.3,1.1,0l1.3,1.3 c0.3,0.3,0.3,0.8,0,1.1C24,2.7,23.8,2.8,23.6,2.8z"></path> </g> </g> <g> <g> <path fill="#231F20" d="M122.6,118.5c-0.2,0-0.4-0.1-0.5-0.2c-0.3-0.3-0.3-0.8,0-1.1l1.3-1.3c0.3-0.3,0.8-0.3,1.1,0 c0.3,0.3,0.3,0.8,0,1.1l-1.3,1.3C122.9,118.4,122.7,118.5,122.6,118.5z"></path> </g> <g> <path fill="#231F20" d="M118.5,122.5c-0.2,0-0.4-0.1-0.5-0.2c-0.3-0.3-0.3-0.8,0-1.1l1.3-1.3c0.3-0.3,0.8-0.3,1.1,0 c0.3,0.3,0.3,0.8,0,1.1l-1.3,1.3C118.9,122.5,118.7,122.5,118.5,122.5z"></path> </g> <g> <path fill="#231F20" d="M123.8,122.5c-0.2,0-0.4-0.1-0.5-0.2L122,121c-0.3-0.3-0.3-0.8,0-1.1c0.3-0.3,0.8-0.3,1.1,0l1.3,1.3 c0.3,0.3,0.3,0.8,0,1.1C124.2,122.5,124,122.5,123.8,122.5z"></path> </g> <g> <path fill="#231F20" d="M119.8,118.5c-0.2,0-0.4-0.1-0.5-0.2L118,117c-0.3-0.3-0.3-0.8,0-1.1c0.3-0.3,0.8-0.3,1.1,0l1.3,1.3 c0.3,0.3,0.3,0.8,0,1.1C120.2,118.4,120,118.5,119.8,118.5z"></path> </g> </g> <g> <circle fill="#84DBFF" cx="88.7" cy="7.4" r="2.5"></circle> </g> <g> <circle fill="#E6E9EE" cx="5.3" cy="93.4" r="2.5"></circle> </g> <g> <circle fill="#FF7058" cx="120.1" cy="31" r="2.5"></circle> </g> <g> <polygon fill="#FFFFFF" points="46.4,91.5 46.4,91.5 46.4,91.5 "></polygon> <path fill="#231F20" d="M46.4,92.3L46.4,92.3c-0.4,0-0.8-0.3-0.8-0.8c0-0.4,0.3-0.8,0.8-0.8c0,0,0,0,0,0c0.4,0,0.8,0.3,0.8,0.8 C47.2,92,46.8,92.3,46.4,92.3z"></path> </g> <path fill="#FFFFFF" d="M54.4,99.5c0-2.2-0.9-4.2-2.3-5.7c-1.5-1.5-3.5-2.3-5.7-2.3c-2.2,0-4.2,0.9-5.7,2.3 c-1.4,1.4-2.3,3.5-2.3,5.7v9.9c0,2.2-0.9,4.2-2.3,5.7c-1.4,1.4-3.4,2.3-5.6,2.3h71.5c4.3,0,7.9-3.5,7.9-7.9v-6.1H54.4V99.5z"></path> <g> <path fill="#FFD05B" d="M38,115.7c1.4-1.7,2.2-3.9,2.2-6.2v-9.9c0-1.6,0.6-3.2,1.8-4.4c1.2-1.2,2.7-1.8,4.4-1.8 c1.6,0,3.2,0.6,4.4,1.8c1.2,1.2,1.8,2.7,1.8,4.4v5.8H108v4.2c0,3.3-2.7,6-6,6H38z"></path> </g> <path fill="#FFFFFF" d="M118,91.5H96.6H46.4h0c2.2,0,4.2,0.9,5.7,2.3c1.5,1.5,2.3,3.5,2.3,5.7v4h55.4h16.1v-4.1 C125.9,95.1,122.4,91.5,118,91.5z"></path> <path fill="#FFFFFF" d="M38.4,109.5v-9.9c0-2.2,0.9-4.2,2.3-5.7c1.4-1.5,3.5-2.3,5.7-2.3h50.1V25.2H22.4v84.3c0,4.4,3.6,8,8,8h0.1 c2.2,0,4.2-0.9,5.6-2.3C37.5,113.7,38.4,111.7,38.4,109.5z"></path> <rect x="32.4" y="50.8" fill="#FFFFFF" width="7.5" height="7.5"></rect> <rect x="32.4" y="64.6" fill="#FFFFFF" width="7.5" height="7.5"></rect> <rect x="32.4" y="78.5" fill="#FFFFFF" width="7.5" height="7.5"></rect> <path fill="#84DBFF" d="M64.7,16.1c0-2.6-2.1-4.7-4.7-4.7c-2.6,0-4.7,2.1-4.7,4.7H42.5v13.4h34.9V16.1H64.7z"></path> <circle fill="#FFFFFF" cx="99.4" cy="57.5" r="23"></circle> <g> <path fill="#231F20" d="M39.8,50h-7.5c-0.4,0-0.8,0.3-0.8,0.8v7.5c0,0.4,0.3,0.8,0.8,0.8h7.5c0.4,0,0.8-0.3,0.8-0.8v-7.5 C40.6,50.4,40.2,50,39.8,50z M39.1,57.5h-6v-6h6V57.5z"></path> <path fill="#231F20" d="M39.8,63.9h-7.5c-0.4,0-0.8,0.3-0.8,0.8v7.5c0,0.4,0.3,0.8,0.8,0.8h7.5c0.4,0,0.8-0.3,0.8-0.8v-7.5 C40.6,64.2,40.2,63.9,39.8,63.9z M39.1,71.3h-6v-6h6V71.3z"></path> <path fill="#231F20" d="M39.8,77.7h-7.5c-0.4,0-0.8,0.3-0.8,0.8v7.5c0,0.4,0.3,0.8,0.8,0.8h7.5c0.4,0,0.8-0.3,0.8-0.8v-7.5 C40.6,78.1,40.2,77.7,39.8,77.7z M39.1,85.2h-6v-6h6V85.2z"></path> <rect x="44.4" y="69.7" fill="#231F20" width="31" height="1.5"></rect> <rect x="44.4" y="79.5" fill="#231F20" width="44.6" height="1.5"></rect> <rect x="44.4" y="83.7" fill="#231F20" width="31" height="1.5"></rect> <path fill="#231F20" d="M118,90.8h-13.2V80.7c10.5-2.4,18.4-11.9,18.4-23.2c0-11.3-7.9-20.7-18.4-23.2v-14c0-0.4-0.3-0.8-0.8-0.8 H78.2v-3.4c0-0.4-0.3-0.7-0.8-0.7h-12c-0.4-2.7-2.7-4.7-5.4-4.7c-2.8,0-5.1,2.1-5.4,4.7h-12c-0.4,0-0.8,0.3-0.8,0.7v3.4H15.8 c-0.4,0-0.8,0.3-0.8,0.8v108.4c0,0.4,0.3,0.8,0.8,0.8H104c0.4,0,0.8-0.3,0.8-0.8v-11c3.4-1.2,5.8-4.4,5.8-8.1v-5.3h15.3 c0.4,0,0.8-0.3,0.8-0.8v-4.1C126.6,94.7,122.8,90.8,118,90.8z M121.7,57.5c0,12.3-10,22.3-22.3,22.3c-12.3,0-22.3-10-22.3-22.3 c0-12.3,10-22.3,22.3-22.3C111.7,35.2,121.7,45.2,121.7,57.5z M103.3,81v9.8h-6v-9.6c0.7,0.1,1.4,0.1,2.1,0.1 C100.8,81.3,102,81.2,103.3,81z M78.2,21.1h25.1V34c-1.3-0.2-2.5-0.3-3.8-0.3c-0.7,0-1.4,0-2.1,0.1v-8.6c0-0.4-0.3-0.8-0.8-0.8 H78.2V21.1z M43.2,16.9h12c0.4,0,0.8-0.3,0.8-0.8c0-2.2,1.8-4,4-4s4,1.8,4,4c0,0.4,0.3,0.8,0.8,0.8h12v11.9H43.2V16.9z M42.5,30.3h34.9c0.4,0,0.8-0.3,0.8-0.8v-3.6h17.6V34c-9.4,1.4-17,8.4-19.4,17.5h-32V53h31.7c-0.2,0.9-0.3,1.8-0.4,2.7H44.4v1.5 h31.2c0,0.1,0,0.2,0,0.3c0,2.8,0.5,5.5,1.4,8H44.4V67h33.2c3.2,7.3,10,12.7,18.1,14v9.8H46.4h0h0c-2.4,0-4.6,0.9-6.2,2.6 c-1.7,1.7-2.6,3.9-2.6,6.2v9.9c0,2-0.8,3.8-2.1,5.1c-1.4,1.4-3.1,2.1-5.1,2.1c0,0,0,0-0.1,0l0,0c-4,0-7.3-3.3-7.3-7.3V25.9h18.6 v3.6C41.7,29.9,42,30.3,42.5,30.3z M103.3,128H16.6V21.1h25.1v3.3H22.4c-0.4,0-0.8,0.3-0.8,0.8v84.3c0,4.8,3.9,8.8,8.8,8.8h71.6 c0.5,0,0.9,0,1.4-0.1V128z M109.1,109.6c0,3.9-3.2,7.1-7.1,7.1H35.3c0.5-0.3,0.9-0.7,1.3-1.1c1.7-1.6,2.6-3.9,2.6-6.2v-9.9 c0-1.9,0.8-3.8,2.1-5.1c1.4-1.4,3.2-2.1,5.1-2.1c1.9,0,3.8,0.8,5.1,2.1c1.4,1.4,2.1,3.2,2.1,5.1v4c0,0.4,0.3,0.8,0.8,0.8h54.7 V109.6z M125.1,102.8h-70v-3.3c0-2.3-0.9-4.5-2.6-6.2c-0.4-0.4-0.8-0.8-1.3-1.1l0,0H118c3.9,0,7.1,3.2,7.1,7.1V102.8z"></path> </g> <g> <circle fill="#E6E9EE" cx="99.4" cy="57.5" r="19.9"></circle> </g> <g> <line fill="#FFFFFF" x1="88.7" y1="60.2" x2="110.3" y2="60.2"></line> <path fill="#231F20" d="M110.3,61H88.7c-0.4,0-0.8-0.3-0.8-0.8c0-0.4,0.3-0.8,0.8-0.8h21.6c0.4,0,0.8,0.3,0.8,0.8 C111,60.6,110.7,61,110.3,61z"></path> </g> <g> <line fill="#FFFFFF" x1="88.7" y1="63.8" x2="110.3" y2="63.8"></line> <path fill="#231F20" d="M110.3,64.6H88.7c-0.4,0-0.8-0.3-0.8-0.8c0-0.4,0.3-0.8,0.8-0.8h21.6c0.4,0,0.8,0.3,0.8,0.8 C111,64.2,110.7,64.6,110.3,64.6z"></path> </g> <g> <line fill="#FFFFFF" x1="88.7" y1="67.4" x2="100.3" y2="67.4"></line> <path fill="#231F20" d="M100.3,68.1H88.7c-0.4,0-0.8-0.3-0.8-0.8c0-0.4,0.3-0.8,0.8-0.8h11.6c0.4,0,0.8,0.3,0.8,0.8 C101.1,67.8,100.7,68.1,100.3,68.1z"></path> </g> <g> <rect x="94.4" y="47.3" fill="#E6E9EE" width="7.9" height="7.9"></rect> <path fill="#231F20" d="M102.3,56h-7.9c-0.4,0-0.8-0.3-0.8-0.8v-7.9c0-0.4,0.3-0.8,0.8-0.8h7.9c0.4,0,0.8,0.3,0.8,0.8v7.9 C103.1,55.6,102.7,56,102.3,56z M95.2,54.5h6.4V48h-6.4V54.5z"></path> </g> <g> <path fill="#231F20" d="M99.1,53.1c-0.2,0-0.4-0.1-0.5-0.2L96,50.3c-0.3-0.3-0.3-0.8,0-1.1c0.3-0.3,0.8-0.3,1.1,0l2,2l8-8 c0.3-0.3,0.8-0.3,1.1,0s0.3,0.8,0,1.1l-8.5,8.5C99.5,53,99.3,53.1,99.1,53.1z"></path> </g> </g> </g> </svg> 