<?xml version="1.0" encoding="UTF-8"?> <svg xmlns="http://www.w3.org/2000/svg" xmlns:xlink="http://www.w3.org/1999/xlink" viewBox="0 0 129.5 129.5"><style>.B{fill:#231f20}.C{fill:#fff}.D{fill:#ffd05b}</style><path fill="#e6e9ee" d="M60 19.1L41.6 37.5V19.1z"></path><path d="M60 .7v18.4H41.7z" class="C"></path><path d="M60 19.8H41.7c-.3 0-.6-.2-.7-.5s-.1-.6.2-.8L59.5.2c.2-.2.5-.3.8-.1.3.1.5.4.5.7v18.3c0 .4-.4.7-.8.7zm-16.5-1.5h15.8V2.6L43.5 18.3z" class="B"></path><path fill="#ff7058" d="M57.9 17V5.9L46.8 17z"></path><path d="M87.8,128.7v-73c0-2,0.8-3.8,2.1-5.2c1.3-1.3,3.2-2.1,5.2-2.1H19.6c-4,0-7.2,3.2-7.2,7.2v73.1H87.8z" class="C"></path><path d="M78.7 0h3.1v1.5h-3.1zM117 0H85v1.5h31.2v79.7c0 3.6-2.9 6.6-6.6 6.6-1.7 0-3.4-.7-4.6-1.9s-1.9-2.9-1.9-4.6V55.8c0-2.1-.8-4.2-2.4-5.7-1.5-1.5-3.5-2.4-5.7-2.4H42.4V19.8H60c.4 0 .8-.3.8-.8V1.5h14.7V0H60c-.2 0-.4.1-.5.2L41.1 18.6c-.1.1-.2.3-.2.5v28.7H19.6a7.92 7.92 0 0 0-7.9 7.9v73.1c0 .4.3.8.8.8h75.4c.4 0 .8-.3.8-.8V89.2h21.1c4.4 0 8.1-3.6 8.1-8.1V.7c-.1-.4-.4-.7-.9-.7zM59.3 2.6v15.8H43.5L59.3 2.6zm27.8 53.2V128H13.2V55.7c0-3.5 2.9-6.4 6.4-6.4h70.8c-.4.3-.7.5-1 .9-1.5 1.4-2.3 3.4-2.3 5.6zm1.5 31.9V55.8c0-1.7.7-3.4 1.9-4.6s2.9-1.9 4.6-1.9a6.42 6.42 0 0 1 4.6 1.9c1.2 1.2 1.9 2.9 1.9 4.6v25.4c0 2.2.8 4.2 2.4 5.7.3.3.7.6 1 .9H88.6z" class="B"></path><path fill="#84dbff" d="M101.9 86.4c-1-1.5-1.5-3.3-1.5-5.2V55.8c0-1.4-.5-2.7-1.5-3.7s-2.3-1.5-3.7-1.5-2.7.5-3.7 1.5-1.5 2.3-1.5 3.7v30.6h11.9z"></path><path d="M17.7 99.7h6.8v15.1h-6.8z" class="D"></path><path d="M24.6 115.5h-6.8c-.4 0-.8-.3-.8-.8v-15c0-.4.3-.8.8-.8h6.8c.4 0 .8.3.8.8v15.1c-.1.3-.4.7-.8.7zm-6.1-1.5h5.3v-13.6h-5.3V114z" class="B"></path><path d="M28.9 84.6h6.8v30.1h-6.8z" class="D"></path><path d="M35.7 115.5h-6.8c-.4 0-.7-.3-.7-.8V84.6c0-.4.3-.8.7-.8h6.8c.4 0 .8.3.8.8v30.1c-.1.4-.4.8-.8.8zm-6.1-1.5h5.3V85.4h-5.3V114z" class="B"></path><path d="M40 69.9h6.8v44.9H40z" class="D"></path><path d="M46.8 115.5H40c-.4 0-.8-.3-.8-.8V69.9c0-.4.3-.8.8-.8h6.8c.4 0 .8.3.8.8v44.9c0 .3-.4.7-.8.7zm-6.1-1.5H46V70.6h-5.3V114z" class="B"></path><path d="M51.1 95.4h6.8v19.3h-6.8z" class="D"></path><path d="M57.9 115.5h-6.8c-.4 0-.8-.3-.8-.8V95.4c0-.4.3-.8.8-.8h6.8c.4 0 .8.3.8.8v19.3c0 .4-.4.8-.8.8zm-6.1-1.5h5.3V96.2h-5.3V114z" class="B"></path><path d="M62.2 81.8H69v32.9h-6.8z" class="D"></path><path d="M69 115.5h-6.8c-.4 0-.8-.3-.8-.8V81.8c0-.4.3-.8.8-.8H69c.4 0 .8.3.8.8v32.9c0 .4-.4.8-.8.8zm-6.1-1.5h5.3V82.6h-5.3V114z" class="B"></path><path d="M73.3 86.8h6.8v27.9h-6.8z" class="D"></path><path d="M80.1 115.5h-6.8c-.4 0-.8-.3-.8-.8V86.8c0-.4.3-.8.8-.8h6.8c.4 0 .8.3.8.8v27.9c0 .4-.4.8-.8.8zM74 114h5.3V87.5H74V114z" class="B"></path><path d="M17.7 118.2h6.8v5.6h-6.8z" class="C"></path><path d="M24.6 124.5h-6.8c-.4 0-.8-.3-.8-.8v-5.6c0-.4.3-.8.8-.8h6.8c.4 0 .8.3.8.8v5.6c-.1.5-.4.8-.8.8zm-6.1-1.5h5.3v-4.1h-5.3v4.1z" class="B"></path><path d="M28.9 118.2h6.8v5.6h-6.8z" class="C"></path><path d="M35.7 124.5h-6.8c-.4 0-.7-.3-.7-.8v-5.6c0-.4.3-.8.7-.8h6.8c.4 0 .8.3.8.8v5.6c-.1.5-.4.8-.8.8zm-6.1-1.5h5.3v-4.1h-5.3v4.1z" class="B"></path><path d="M40 118.2h6.8v5.6H40z" class="C"></path><path d="M46.8 124.5H40c-.4 0-.8-.3-.8-.8v-5.6c0-.4.3-.8.8-.8h6.8c.4 0 .8.3.8.8v5.6c0 .5-.4.8-.8.8zm-6.1-1.5H46v-4.1h-5.3v4.1z" class="B"></path><path d="M51.1 118.2h6.8v5.6h-6.8z" class="C"></path><path d="M57.9 124.5h-6.8c-.4 0-.8-.3-.8-.8v-5.6c0-.4.3-.8.8-.8h6.8c.4 0 .8.3.8.8v5.6c0 .5-.4.8-.8.8zm-6.1-1.5h5.3v-4.1h-5.3v4.1z" class="B"></path><path d="M62.2 118.2H69v5.6h-6.8z" class="C"></path><path d="M69 124.5h-6.8c-.4 0-.8-.3-.8-.8v-5.6c0-.4.3-.8.8-.8H69c.4 0 .8.3.8.8v5.6c0 .5-.4.8-.8.8zm-6.1-1.5h5.3v-4.1h-5.3v4.1z" class="B"></path><path d="M73.3 118.2h6.8v5.6h-6.8z" class="C"></path><path d="M80.1 124.5h-6.8c-.4 0-.8-.3-.8-.8v-5.6c0-.4.3-.8.8-.8h6.8c.4 0 .8.3.8.8v5.6c0 .5-.4.8-.8.8zM74 123h5.3v-4.1H74v4.1z" class="B"></path><path d="M53.8 27.2h48.1" class="C"></path><path d="M53.8 26.4h48.1v1.5H53.8z" class="B"></path><path d="M53.8 31.4h48.1" class="C"></path><path d="M53.8 30.7h48.1v1.5H53.8z" class="B"></path><path d="M53.8 35.7h48.1" class="C"></path><path d="M53.8 34.9h48.1v1.5H53.8z" class="B"></path><path d="M53.8 39.9h27.9" class="C"></path><path d="M53.8 39.2h27.9v1.5H53.8z" class="B"></path><circle cx="123.6" cy="19.2" r="1.8" class="D"></circle><circle fill="#ff7058" cx="5.9" cy="74" r="1.8"></circle><circle fill="#84dbff" cx="34.1" cy="9.9" r="1.8"></circle><g class="B"><path d="M16.8 15.3c-.2 0-.4-.1-.5-.2-.3-.3-.3-.8 0-1.1l1.3-1.3c.3-.3.8-.3 1.1 0s.3.8 0 1.1L17.3 15a.55.55 0 0 1-.5.3zm-4 4c-.2 0-.4-.1-.5-.2-.3-.3-.3-.8 0-1.1l1.3-1.3c.3-.3.8-.3 1.1 0s.3.8 0 1.1l-1.3 1.3c-.2.1-.4.2-.6.2z"></path><use xlink:href="#B"></use><path d="M14.1 15.3c-.2 0-.4-.1-.5-.2l-1.3-1.3c-.3-.3-.3-.8 0-1.1s.8-.3 1.1 0l1.3 1.3c.3.3.3.8 0 1.1-.3.1-.4.2-.6.2zm99.7 90.3c-.2 0-.4-.1-.5-.2-.3-.3-.3-.8 0-1.1l1.3-1.3c.3-.3.8-.3 1.1 0s.3.8 0 1.1l-1.3 1.3c-.3.1-.4.2-.6.2z"></path><use xlink:href="#C"></use><use xlink:href="#D"></use><use xlink:href="#B" x="92.9" y="86.3"></use><path d="M103.2 13.9c-.2 0-.4-.1-.5-.2-.3-.3-.3-.8 0-1.1l1.3-1.3c.3-.3.8-.3 1.1 0s.3.8 0 1.1l-1.3 1.3c-.2.1-.4.2-.6.2z"></path><use xlink:href="#C" x="-10.5" y="-91.7"></use><use xlink:href="#D" x="-10.5" y="-91.7"></use><use xlink:href="#B" x="82.4" y="-5.4"></use><path d="M21.4 34.6h-8.1c-.4 0-.8-.3-.8-.8 0-.4.3-.8.8-.8h8.1c.4 0 .8.3.8.8s-.4.8-.8.8zm3.2 3h-4c-.4 0-.8-.3-.8-.8 0-.4.3-.8.8-.8h4c.4 0 .8.3.8.8-.1.4-.4.8-.8.8zm4.3-3h-3.8c-.4 0-.8-.3-.8-.8 0-.4.3-.8.8-.8h3.8c.4 0 .8.3.8.8-.1.5-.4.8-.8.8zm-11.2 3H17c-.4 0-.8-.3-.8-.8 0-.4.3-.8.8-.8h.8c.4 0 .8.3.8.8-.1.4-.4.8-.9.8z"></path></g><defs><path id="B" d="M18.1 19.3c-.2 0-.4-.1-.5-.2l-1.3-1.3c-.3-.3-.3-.8 0-1.1s.8-.3 1.1 0l1.3 1.3c.3.3.3.8 0 1.1-.2.1-.4.2-.6.2z"></path><path id="C" d="M109.7 109.6c-.2 0-.4-.1-.5-.2-.3-.3-.3-.8 0-1.1l1.3-1.3c.3-.3.8-.3 1.1 0s.3.8 0 1.1l-1.3 1.3c-.2.2-.4.2-.6.2z"></path><path id="D" d="M115 109.6c-.2 0-.4-.1-.5-.2l-1.3-1.3c-.3-.3-.3-.8 0-1.1s.8-.3 1.1 0l1.3 1.3c.3.3.3.8 0 1.1-.2.2-.4.2-.6.2z"></path></defs></svg> 