<?xml version="1.0" encoding="UTF-8"?> <svg xmlns="http://www.w3.org/2000/svg" xmlns:xlink="http://www.w3.org/1999/xlink" viewBox="0 0 129.5 129.5"><path d="M86.2 70.2h28.7v28.7H86.2zm-35.8 0h28.7v28.7H50.4zm-35.9 0h28.7v28.7H14.5zm0-33.1h28.7v28.7H14.5zm35.9 0h28.7v28.7H50.4z" fill="#FFD05B"></path><g fill="#231F20"><path d="M116.1 129.5H13.4c-7.4 0-13.4-6-13.4-13.4s6-13.4 13.4-13.4h102.7c7.4 0 13.4 6 13.4 13.4s-6 13.4-13.4 13.4zM13.4 104.2c-6.6 0-11.9 5.3-11.9 11.9S6.8 128 13.4 128h102.7c6.6 0 11.9-5.3 11.9-11.9s-5.3-11.9-11.9-11.9H13.4zm102.7 20.3h-.2V123h.9l.2 1.5h-.9zm-2.2 0h-1V123h1v1.5zm-3 0h-1V123h1v1.5zm-3 0h-1V123h1v1.5zm-3 0h-1V123h1v1.5zm-3 0h-1V123h1v1.5zm-3 0h-1V123h1v1.5zm-3 0h-1V123h1v1.5zm-3 0h-1V123h1v1.5zm-3 0h-1V123h1v1.5zm-3 0h-1V123h1v1.5zm-3 0h-1V123h1v1.5zm-3 0h-1V123h1v1.5zm-3 0h-1V123h1v1.5zm-3 0h-1V123h1v1.5zm-3 0h-1V123h1v1.5zm-3 0h-1V123h1v1.5zm-3 0h-1V123h1v1.5zm-3 0h-1V123h1v1.5zm-3 0h-1V123h1v1.5zm-3 0h-1V123h1v1.5zm-3 0h-1V123h1v1.5zm-3 0h-1V123h1v1.5zm-3 0h-1V123h1v1.5zm-3 0h-1V123h1v1.5zm-3 0h-1V123h1v1.5zm-3 0h-1V123h1v1.5zm-3 0h-1V123h1v1.5zm-3 0h-1V123h1v1.5zm-3 0h-1V123h1v1.5zm-3 0h-1V123h1v1.5zm-3 0h-1V123h1v1.5zm-3 0h-1V123h1v1.5zm-3 0h-1V123h1v1.5zm-3 0h-1V123h1v1.5zm-1.5 0c-.4 0-.7 0-1.1-.1l.2-1.5c.3 0 .6.1.9.1v1.5zm105.7-.5l-.5-1.4c.3-.1.6-.2.8-.4l.7 1.3c-.3.2-.7.3-1 .5zm-108.9-.1a4.67 4.67 0 0 1-1-.5l.8-1.3c.3.1.5.3.8.4l-.6 1.4zm111.6-1.7l-1-1.1c.2-.2.4-.4.6-.7l1.2 1c-.2.3-.5.6-.8.8zM7.5 122c-.3-.3-.5-.5-.7-.8l1.2-.9c.2.2.4.5.6.7l-1.1 1zm116.3-2.4l-1.4-.6.3-.8 1.4.4-.3 1zm-118.2-.3c-.1-.3-.3-.7-.4-1l1.4-.4.3.8-1.3.6zm118.9-2.9l-1.5-.1v-.9l1.5-.1v1.1zM5 116.1c0-.4 0-.7.1-1.1l1.5.2c0 .3-.1.6-.1.9H5zm117.6-2.4c-.1-.3-.2-.6-.4-.8l1.3-.7c.2.3.3.7.5 1l-1.4.5zM7 113.5l-1.4-.6a4.67 4.67 0 0 1 .5-1l1.3.7c-.1.3-.3.6-.4.9zm114.1-2.1a4.35 4.35 0 0 0-.7-.6l1-1.2c.3.2.5.5.8.8l-1.1 1zm-112.6-.2l-1.1-1.1c.3-.3.5-.5.8-.7l.9 1.2-.6.6zm110.5-1.4l-.8-.3.4-1.4c.3.1.7.2 1 .4l-.6 1.3zm-108.3-.1l-.6-1.4c.3-.1.7-.3 1-.4l.4 1.4c-.2.2-.5.3-.8.4zm105.6-.5h-1v-1.5h1v1.5zm-2.9 0h-1v-1.5h1v1.5zm-3 0h-1v-1.5h1v1.5zm-3 0h-1v-1.5h1v1.5zm-3 0h-1v-1.5h1v1.5zm-3 0h-1v-1.5h1v1.5zm-3 0h-1v-1.5h1v1.5zm-3 0h-1v-1.5h1v1.5zm-3 0h-1v-1.5h1v1.5zm-3 0h-1v-1.5h1v1.5zm-3 0h-1v-1.5h1v1.5zm-3 0h-1v-1.5h1v1.5zm-3 0h-1v-1.5h1v1.5zm-3 0h-1v-1.5h1v1.5zm-3 0h-1v-1.5h1v1.5zm-3 0h-1v-1.5h1v1.5zm-3 0h-1v-1.5h1v1.5zm-3 0h-1v-1.5h1v1.5zm-3 0h-1v-1.5h1v1.5zm-3 0h-1v-1.5h1v1.5zm-3 0h-1v-1.5h1v1.5zm-3 0h-1v-1.5h1v1.5zm-3 0h-1v-1.5h1v1.5zm-3 0h-1v-1.5h1v1.5zm-3 0h-1v-1.5h1v1.5zm-3 0h-1v-1.5h1v1.5zm-3 0h-1v-1.5h1v1.5zm-3 0h-1v-1.5h1v1.5zm-3 0h-1v-1.5h1v1.5zm-3 0h-1v-1.5h1v1.5zm-3 0h-1v-1.5h1v1.5zm-3 0h-1v-1.5h1v1.5zm-3 0h-1v-1.5h1v1.5zm-3 0h-1v-1.5h1v1.5zm-3 0h-1v-1.5h1v1.5z"></path><use xlink:href="#B"></use><path d="M90.4 121.5c-3 0-5.4-2.4-5.4-5.4s2.4-5.4 5.4-5.4 5.4 2.4 5.4 5.4-2.4 5.4-5.4 5.4zm0-9.3c-2.1 0-3.9 1.7-3.9 3.9 0 2.1 1.7 3.9 3.9 3.9 2.1 0 3.9-1.7 3.9-3.9 0-2.1-1.7-3.9-3.9-3.9z"></path><use xlink:href="#C"></use><use xlink:href="#C" x="-25.7"></use><use xlink:href="#B" x="-102.7"></use></g><path d="M25.2 70.2h7.3v5h-7.3zm35.9 0h7.3v5h-7.3zm35.8 0h7.3v5h-7.3zM25.2 37.1h7.3v5h-7.3zm35.9 0h7.3v5h-7.3z" fill="#fff"></path><path d="M34.4 55.4h8.9v1.5h-8.9zM21.6 60h21.6v1.5H21.6zm48.8-4.6h8.9v1.5h-8.9zM57.6 60h21.6v1.5H57.6zM34.4 88.7h8.9v1.5h-8.9zm-12.8 4.5h21.6v1.5H21.6zm48.8-4.5h8.9v1.5h-8.9zm-12.8 4.5h21.6v1.5H57.6zm48.6-4.5h8.9v1.5h-8.9zm-12.8 4.5H115v1.5H93.4z" fill="#231F20"></path><circle cx="89.2" cy="8.1" r="2.2" fill="#84DBFF"></circle><circle cx="113" cy="26.7" r="2.2" fill="#FFD05B"></circle><g fill="#FF7058"><circle cx="120.7" cy="87.9" r="2.2"></circle><circle cx="32.4" cy="26.7" r="2.2"></circle></g><g fill="#231F20"><path d="M43.3 99.7H14.5c-.4 0-.8-.3-.8-.8V70.2c0-.4.3-.8.8-.8h28.7c.4 0 .8.3.8.8V99a.68.68 0 0 1-.7.7zm-28-1.5h27.2V71H15.3v27.2zm63.8 1.5H50.4c-.4 0-.8-.3-.8-.8V70.2c0-.4.3-.8.8-.8h28.7c.4 0 .8.3.8.8V99c0 .4-.4.7-.8.7zm-28-1.5h27.2V71H51.1v27.2zm63.9 1.5H86.2c-.4 0-.8-.3-.8-.8V70.2c0-.4.3-.8.8-.8H115c.4 0 .8.3.8.8V99c-.1.4-.4.7-.8.7zm-28-1.5h27.2V71H87v27.2zM43.3 66.5H14.5c-.4 0-.8-.3-.8-.8V37.1c0-.4.3-.8.8-.8h28.7c.4 0 .8.3.8.8v28.7a.68.68 0 0 1-.7.7zm-28-1.5h27.2V37.8H15.3V65zm63.8 1.5H50.4c-.4 0-.8-.3-.8-.8V37.1c0-.4.3-.8.8-.8h28.7c.4 0 .8.3.8.8v28.7c0 .4-.4.7-.8.7zm-28-1.5h27.2V37.8H51.1V65zm60.7-62.2c-.2 0-.4-.1-.5-.2-.3-.3-.3-.8 0-1.1l1.3-1.3c.3-.3.8-.3 1.1 0s.3.8 0 1.1l-1.3 1.3c-.3.1-.5.2-.6.2zm-4.1 4c-.2 0-.4-.1-.5-.2-.3-.3-.3-.8 0-1.1l1.3-1.3c.3-.3.8-.3 1.1 0s.3.8 0 1.1l-1.3 1.3c-.2.1-.4.2-.6.2z"></path><use xlink:href="#D"></use><use xlink:href="#D" x="-4" y="-4"></use><path d="M16.4 21.2c-.2 0-.4-.1-.5-.2-.3-.3-.3-.8 0-1.1l1.3-1.3c.3-.3.8-.3 1.1 0s.3.8 0 1.1L16.9 21c-.1.2-.3.2-.5.2zm-4 4.1c-.2 0-.4-.1-.5-.2-.3-.3-.3-.8 0-1.1l1.3-1.3c.3-.3.8-.3 1.1 0s.3.8 0 1.1L12.9 25c-.2.2-.3.3-.5.3z"></path><use xlink:href="#D" x="-95.3" y="18.5"></use><path d="M13.6 21.2c-.2 0-.4-.1-.5-.2l-1.3-1.3c-.3-.3-.3-.8 0-1.1s.8-.3 1.1 0l1.3 1.3c.3.3.3.8 0 1.1-.2.2-.4.2-.6.2zm102.9 27c-.2 0-.4-.1-.5-.2-.3-.3-.3-.8 0-1.1l1.3-1.3c.3-.3.8-.3 1.1 0s.3.8 0 1.1l-1.3 1.3c-.3.1-.4.2-.6.2zm-4.1 4c-.2 0-.4-.1-.5-.2-.3-.3-.3-.8 0-1.1l1.3-1.3c.3-.3.8-.3 1.1 0s.3.8 0 1.1L113 52c-.2.1-.4.2-.6.2z"></path><use xlink:href="#D" x="4.7" y="45.4"></use><use xlink:href="#D" x="0.7" y="41.4"></use><path d="M53.8 14h-8.1c-.4 0-.8-.3-.8-.8 0-.4.3-.8.8-.8h8.1c.4 0 .8.3.8.8-.1.5-.4.8-.8.8zm3.2 3h-4c-.4 0-.8-.3-.8-.8 0-.4.3-.7.8-.7h4c.4 0 .8.3.8.7-.1.5-.4.8-.8.8zm4.2-3h-3.8c-.4 0-.8-.3-.8-.8 0-.4.3-.8.8-.8h3.8c.4 0 .8.3.8.8s-.3.8-.8.8zm-11.1 3h-.8c-.4 0-.8-.3-.8-.8 0-.4.3-.7.8-.7h.8c.4 0 .8.3.8.7 0 .5-.4.8-.8.8zm47.2 40h-8.1c-.4 0-.8-.3-.8-.8 0-.4.3-.8.8-.8h8.1c.4 0 .8.3.8.8-.1.4-.4.8-.8.8zm3.1 2.9h-4c-.4 0-.8-.3-.8-.8 0-.4.3-.8.8-.8h4c.4 0 .8.3.8.8s-.3.8-.8.8zm4.3-2.9h-3.8c-.4 0-.8-.3-.8-.8 0-.4.3-.8.8-.8h3.8c.4 0 .8.3.8.8 0 .4-.4.8-.8.8zm-11.1 2.9h-.8c-.4 0-.8-.3-.8-.8 0-.4.3-.8.8-.8h.8c.4 0 .8.3.8.8-.1.5-.4.8-.8.8z"></path></g><defs><path id="B" d="M116.1 121.5c-3 0-5.4-2.4-5.4-5.4s2.4-5.4 5.4-5.4 5.4 2.4 5.4 5.4-2.4 5.4-5.4 5.4zm0-9.3c-2.1 0-3.9 1.7-3.9 3.9 0 2.1 1.7 3.9 3.9 3.9 2.1 0 3.9-1.7 3.9-3.9 0-2.1-1.8-3.9-3.9-3.9z"></path><path id="C" d="M64.8 121.5c-3 0-5.4-2.4-5.4-5.4s2.4-5.4 5.4-5.4 5.4 2.4 5.4 5.4c-.1 3-2.5 5.4-5.4 5.4zm0-9.3c-2.1 0-3.9 1.7-3.9 3.9 0 2.1 1.7 3.9 3.9 3.9 2.1 0 3.9-1.7 3.9-3.9-.1-2.1-1.8-3.9-3.9-3.9z"></path><path id="D" d="M113 6.8c-.2 0-.4-.1-.5-.2l-1.3-1.3c-.3-.3-.3-.8 0-1.1s.8-.3 1.1 0l1.3 1.3c.3.3.3.8 0 1.1-.2.1-.4.2-.6.2z"></path></defs></svg> 