<?xml version="1.0" encoding="UTF-8"?> <svg xmlns="http://www.w3.org/2000/svg" xmlns:xlink="http://www.w3.org/1999/xlink" version="1.1" id="Layer_1" x="0px" y="0px" viewBox="0 0 129.5 129.5" xml:space="preserve"> <g> <g> <g> <path fill="#231F20" d="M81.1,5.9c-0.2,0-0.4-0.1-0.5-0.2c-0.3-0.3-0.3-0.8,0-1.1l1.3-1.3c0.3-0.3,0.8-0.3,1.1,0 c0.3,0.3,0.3,0.8,0,1.1l-1.3,1.3C81.5,5.8,81.3,5.9,81.1,5.9z"></path> </g> <g> <path fill="#231F20" d="M77.1,10c-0.2,0-0.4-0.1-0.5-0.2c-0.3-0.3-0.3-0.8,0-1.1l1.3-1.3c0.3-0.3,0.8-0.3,1.1,0 c0.3,0.3,0.3,0.8,0,1.1l-1.3,1.3C77.4,9.9,77.2,10,77.1,10z"></path> </g> <g> <path fill="#231F20" d="M82.4,10c-0.2,0-0.4-0.1-0.5-0.2l-1.3-1.3c-0.3-0.3-0.3-0.8,0-1.1c0.3-0.3,0.8-0.3,1.1,0l1.3,1.3 c0.3,0.3,0.3,0.8,0,1.1C82.8,9.9,82.6,10,82.4,10z"></path> </g> <g> <path fill="#231F20" d="M78.3,5.9c-0.2,0-0.4-0.1-0.5-0.2l-1.3-1.3c-0.3-0.3-0.3-0.8,0-1.1c0.3-0.3,0.8-0.3,1.1,0l1.3,1.3 c0.3,0.3,0.3,0.8,0,1.1C78.7,5.8,78.5,5.9,78.3,5.9z"></path> </g> <g> <path fill="#231F20" d="M26,53.8c-0.2,0-0.4-0.1-0.5-0.2c-0.3-0.3-0.3-0.8,0-1.1l1.3-1.3c0.3-0.3,0.8-0.3,1.1,0 c0.3,0.3,0.3,0.8,0,1.1l-1.3,1.3C26.4,53.7,26.2,53.8,26,53.8z"></path> </g> <g> <path fill="#231F20" d="M21.9,57.9c-0.2,0-0.4-0.1-0.5-0.2c-0.3-0.3-0.3-0.8,0-1.1l1.3-1.3c0.3-0.3,0.8-0.3,1.1,0 c0.3,0.3,0.3,0.8,0,1.1l-1.3,1.3C22.3,57.8,22.1,57.9,21.9,57.9z"></path> </g> <g> <path fill="#231F20" d="M27.3,57.9c-0.2,0-0.4-0.1-0.5-0.2l-1.3-1.3c-0.3-0.3-0.3-0.8,0-1.1c0.3-0.3,0.8-0.3,1.1,0l1.3,1.3 c0.3,0.3,0.3,0.8,0,1.1C27.7,57.8,27.5,57.9,27.3,57.9z"></path> </g> <g> <path fill="#231F20" d="M23.2,53.8c-0.2,0-0.4-0.1-0.5-0.2l-1.3-1.3c-0.3-0.3-0.3-0.8,0-1.1c0.3-0.3,0.8-0.3,1.1,0l1.3,1.3 c0.3,0.3,0.3,0.8,0,1.1C23.6,53.7,23.4,53.8,23.2,53.8z"></path> </g> <g> <path fill="#231F20" d="M122,39.2c-0.2,0-0.4-0.1-0.5-0.2c-0.3-0.3-0.3-0.8,0-1.1l1.3-1.3c0.3-0.3,0.8-0.3,1.1,0 c0.3,0.3,0.3,0.8,0,1.1l-1.3,1.3C122.4,39.1,122.2,39.2,122,39.2z"></path> </g> <g> <path fill="#231F20" d="M118,43.2c-0.2,0-0.4-0.1-0.5-0.2c-0.3-0.3-0.3-0.8,0-1.1l1.3-1.3c0.3-0.3,0.8-0.3,1.1,0 c0.3,0.3,0.3,0.8,0,1.1l-1.3,1.3C118.4,43.2,118.2,43.2,118,43.2z"></path> </g> <g> <path fill="#231F20" d="M123.3,43.2c-0.2,0-0.4-0.1-0.5-0.2l-1.3-1.3c-0.3-0.3-0.3-0.8,0-1.1c0.3-0.3,0.8-0.3,1.1,0l1.3,1.3 c0.3,0.3,0.3,0.8,0,1.1C123.7,43.2,123.5,43.2,123.3,43.2z"></path> </g> <g> <path fill="#231F20" d="M119.3,39.2c-0.2,0-0.4-0.1-0.5-0.2l-1.3-1.3c-0.3-0.3-0.3-0.8,0-1.1c0.3-0.3,0.8-0.3,1.1,0l1.3,1.3 c0.3,0.3,0.3,0.8,0,1.1C119.7,39.1,119.5,39.2,119.3,39.2z"></path> </g> <g> <path fill="#231F20" d="M48.7,101h-8.2c-0.4,0-0.8-0.3-0.8-0.8c0-0.4,0.3-0.8,0.8-0.8h8.2c0.4,0,0.8,0.3,0.8,0.8 C49.5,100.6,49.1,101,48.7,101z"></path> </g> <g> <path fill="#231F20" d="M51.9,103.9h-4c-0.4,0-0.8-0.3-0.8-0.8c0-0.4,0.3-0.8,0.8-0.8h4c0.4,0,0.8,0.3,0.8,0.8 C52.7,103.6,52.3,103.9,51.9,103.9z"></path> </g> <g> <path fill="#231F20" d="M56.2,101h-3.8c-0.4,0-0.8-0.3-0.8-0.8c0-0.4,0.3-0.8,0.8-0.8h3.8c0.4,0,0.8,0.3,0.8,0.8 C57,100.6,56.6,101,56.2,101z"></path> </g> <g> <path fill="#231F20" d="M45,103.9h-0.8c-0.4,0-0.8-0.3-0.8-0.8c0-0.4,0.3-0.8,0.8-0.8H45c0.4,0,0.8,0.3,0.8,0.8 C45.8,103.6,45.4,103.9,45,103.9z"></path> </g> <path fill="#231F20" d="M51.9,126.1c-2.2,0-4.1-1.8-4.1-4.1s1.8-4.1,4.1-4.1c2.2,0,4.1,1.8,4.1,4.1S54.2,126.1,51.9,126.1z M51.9,119.5c-1.4,0-2.6,1.2-2.6,2.6s1.2,2.6,2.6,2.6c1.4,0,2.6-1.2,2.6-2.6S53.3,119.5,51.9,119.5z"></path> <g> <rect x="0.8" y="73.4" fill="#FFFFFF" width="32.9" height="44.6"></rect> <path fill="#231F20" d="M33.6,118.7H0.8c-0.4,0-0.8-0.3-0.8-0.8V73.4c0-0.4,0.3-0.8,0.8-0.8h32.9c0.4,0,0.8,0.3,0.8,0.8V118 C34.4,118.4,34.1,118.7,33.6,118.7z M1.5,117.2h31.4V74.1H1.5V117.2z"></path> </g> <g> <rect x="5" y="77.8" fill="#FFD05B" width="24.4" height="13.2"></rect> </g> <g> <g> <g> <line fill="#FFFFFF" x1="5.3" y1="95.7" x2="8.9" y2="95.7"></line> <rect x="5.3" y="94.9" fill="#231F20" width="3.6" height="1.5"></rect> </g> <g> <line fill="#FFFFFF" x1="12.1" y1="95.7" x2="15.6" y2="95.7"></line> <rect x="12.1" y="94.9" fill="#231F20" width="3.6" height="1.5"></rect> </g> <g> <line fill="#FFFFFF" x1="18.8" y1="95.7" x2="22.3" y2="95.7"></line> <rect x="18.8" y="94.9" fill="#231F20" width="3.6" height="1.5"></rect> </g> <g> <line fill="#FFFFFF" x1="25.5" y1="95.7" x2="29.1" y2="95.7"></line> <rect x="25.5" y="94.9" fill="#231F20" width="3.6" height="1.5"></rect> </g> </g> <g> <g> <line fill="#FFFFFF" x1="5.3" y1="101.1" x2="8.9" y2="101.1"></line> <rect x="5.3" y="100.4" fill="#231F20" width="3.6" height="1.5"></rect> </g> <g> <line fill="#FFFFFF" x1="12.1" y1="101.1" x2="15.6" y2="101.1"></line> <rect x="12.1" y="100.4" fill="#231F20" width="3.6" height="1.5"></rect> </g> <g> <line fill="#FFFFFF" x1="18.8" y1="101.1" x2="22.3" y2="101.1"></line> <rect x="18.8" y="100.4" fill="#231F20" width="3.6" height="1.5"></rect> </g> <g> <line fill="#FFFFFF" x1="25.5" y1="101.1" x2="29.1" y2="101.1"></line> <rect x="25.5" y="100.4" fill="#231F20" width="3.6" height="1.5"></rect> </g> </g> <g> <g> <line fill="#FFFFFF" x1="5.3" y1="106.5" x2="8.9" y2="106.5"></line> <rect x="5.3" y="105.8" fill="#231F20" width="3.6" height="1.5"></rect> </g> <g> <line fill="#FFFFFF" x1="12.1" y1="106.5" x2="15.6" y2="106.5"></line> <rect x="12.1" y="105.8" fill="#231F20" width="3.6" height="1.5"></rect> </g> <g> <line fill="#FFFFFF" x1="18.8" y1="106.5" x2="22.3" y2="106.5"></line> <rect x="18.8" y="105.8" fill="#231F20" width="3.6" height="1.5"></rect> </g> <g> <line fill="#FFFFFF" x1="25.5" y1="106.5" x2="29.1" y2="106.5"></line> <rect x="25.5" y="105.8" fill="#231F20" width="3.6" height="1.5"></rect> </g> </g> <g> <g> <line fill="#FFFFFF" x1="5.3" y1="112" x2="8.9" y2="112"></line> <rect x="5.3" y="111.2" fill="#231F20" width="3.6" height="1.5"></rect> </g> <g> <line fill="#FFFFFF" x1="12.1" y1="112" x2="15.6" y2="112"></line> <rect x="12.1" y="111.2" fill="#231F20" width="3.6" height="1.5"></rect> </g> <g> <line fill="#FFFFFF" x1="18.8" y1="112" x2="22.3" y2="112"></line> <rect x="18.8" y="111.2" fill="#231F20" width="3.6" height="1.5"></rect> </g> <g> <line fill="#FFFFFF" x1="25.5" y1="112" x2="29.1" y2="112"></line> <rect x="25.5" y="111.2" fill="#231F20" width="3.6" height="1.5"></rect> </g> </g> </g> <g> <polygon fill="#FFFFFF" points="83.5,20.4 83.5,36.2 99.3,36.2 "></polygon> <path fill="#231F20" d="M99.3,37H83.5c-0.4,0-0.8-0.3-0.8-0.8V20.4c0-0.3,0.2-0.6,0.5-0.7c0.3-0.1,0.6-0.1,0.8,0.2l15.8,15.8 c0.2,0.2,0.3,0.5,0.2,0.8C99.9,36.8,99.6,37,99.3,37z M84.3,35.5h13.3L84.3,22.2V35.5z"></path> </g> <g> <polygon fill="#ACB3BA" points="85.3,34.4 85.3,24.8 94.9,34.4 "></polygon> </g> <path fill="#FFFFFF" d="M124.5,74.2v53.1H64.1v-53c0-1.7-0.7-3.3-1.8-4.4c-1.1-1.1-2.7-1.8-4.4-1.8h60.6 C121.7,68.1,124.5,70.8,124.5,74.2z"></path> <g> <path fill="#ACB3BA" d="M52,86.6c0.9-1.3,1.3-2.9,1.3-4.5v-7.8c0-1.2,0.5-2.3,1.3-3.2c0.8-0.8,2-1.3,3.2-1.3 c1.2,0,2.3,0.5,3.2,1.3c0.8,0.8,1.3,2,1.3,3.2v12.3H52z"></path> </g> <g> <rect x="109.9" y="91.7" fill="#FFFFFF" width="7.1" height="27.3"></rect> <path fill="#231F20" d="M117,119.8h-7.1c-0.4,0-0.8-0.3-0.8-0.8V91.7c0-0.4,0.3-0.8,0.8-0.8h7.1c0.4,0,0.8,0.3,0.8,0.8V119 C117.7,119.4,117.4,119.8,117,119.8z M110.6,118.3h5.6V92.4h-5.6V118.3z"></path> </g> <g> <rect x="97.5" y="99.4" fill="#FFFFFF" width="7.1" height="19.6"></rect> <path fill="#231F20" d="M104.5,119.8h-7.1c-0.4,0-0.8-0.3-0.8-0.8V99.4c0-0.4,0.3-0.8,0.8-0.8h7.1c0.4,0,0.8,0.3,0.8,0.8V119 C105.3,119.4,104.9,119.8,104.5,119.8z M98.2,118.3h5.6v-18.1h-5.6V118.3z"></path> </g> <g> <rect x="85" y="104.9" fill="#FFFFFF" width="7.1" height="14.1"></rect> <path fill="#231F20" d="M92.1,119.8H85c-0.4,0-0.8-0.3-0.8-0.8v-14.1c0-0.4,0.3-0.8,0.8-0.8h7.1c0.4,0,0.8,0.3,0.8,0.8V119 C92.8,119.4,92.5,119.8,92.1,119.8z M85.8,118.3h5.6v-12.6h-5.6V118.3z"></path> </g> <g> <rect x="72.6" y="108.9" fill="#FFFFFF" width="7.1" height="10.1"></rect> <path fill="#231F20" d="M79.6,119.8h-7.1c-0.4,0-0.8-0.3-0.8-0.8v-10.1c0-0.4,0.3-0.7,0.8-0.7h7.1c0.4,0,0.8,0.3,0.8,0.7V119 C80.4,119.4,80.1,119.8,79.6,119.8z M73.3,118.3h5.6v-8.6h-5.6V118.3z"></path> </g> <g> <circle fill="#FFD05B" cx="109.3" cy="16.7" r="15.2"></circle> </g> <g> <path fill="#231F20" d="M97,16.7h-1.5c0-0.4,0-0.7,0-1.1l1.5,0.1C97.1,16,97,16.4,97,16.7z M97.4,13.9l-1.5-0.3 c0.1-0.3,0.2-0.7,0.3-1l1.4,0.5C97.5,13.3,97.4,13.6,97.4,13.9z M98.3,11.2L97,10.5c0.2-0.3,0.3-0.6,0.5-0.9l1.3,0.8 C98.6,10.7,98.5,10.9,98.3,11.2z M99.9,8.8l-1.2-1c0.2-0.3,0.5-0.5,0.7-0.8l1.1,1C100.3,8.4,100.1,8.6,99.9,8.8z M101.9,6.9 L101,5.7c0.3-0.2,0.6-0.4,0.9-0.6l0.8,1.3C102.4,6.5,102.1,6.7,101.9,6.9z M104.3,5.4l-0.6-1.4c0.3-0.1,0.6-0.3,1-0.4l0.5,1.4 C104.9,5.2,104.6,5.3,104.3,5.4z M107,4.6l-0.3-1.5c0.3-0.1,0.7-0.1,1-0.2l0.2,1.5C107.6,4.5,107.3,4.5,107,4.6z"></path> </g> <g> <path fill="#231F20" d="M109.3,30.5c-7.2,0-13.3-5.6-13.8-12.8l1.5-0.1c0.4,6.4,5.8,11.4,12.3,11.4c6.8,0,12.3-5.5,12.3-12.3 c0-6.5-5-11.8-11.5-12.3l0.1-1.5c7.2,0.5,12.9,6.5,12.9,13.8C123.1,24.3,116.9,30.5,109.3,30.5z"></path> </g> <g> <path fill="#231F20" d="M112.5,23.6h-6.4c-1.5,0-2.8-1.2-2.8-2.8c0-0.4,0.3-0.8,0.8-0.8c0.4,0,0.8,0.3,0.8,0.8 c0,0.7,0.6,1.3,1.3,1.3h6.4c0.7,0,1.3-0.6,1.3-1.3v-2.1c0-0.7-0.6-1.3-1.3-1.3h-6.4c-1.5,0-2.8-1.2-2.8-2.8v-2.1 c0-1.5,1.2-2.8,2.8-2.8h6.4c1.5,0,2.8,1.2,2.8,2.8c0,0.4-0.3,0.8-0.8,0.8c-0.4,0-0.8-0.3-0.8-0.8c0-0.7-0.6-1.3-1.3-1.3h-6.4 c-0.7,0-1.3,0.6-1.3,1.3v2.1c0,0.7,0.6,1.3,1.3,1.3h6.4c1.5,0,2.8,1.2,2.8,2.8v2.1C115.3,22.3,114,23.6,112.5,23.6z"></path> </g> <g> <path fill="#231F20" d="M109.3,25.9c-0.4,0-0.8-0.3-0.8-0.8v-17c0-0.4,0.3-0.8,0.8-0.8c0.4,0,0.8,0.3,0.8,0.8v17 C110.1,25.6,109.7,25.9,109.3,25.9z"></path> </g> <path fill="#FFFFFF" d="M125.5,53l-32.7,0v6.5l32.7,0c1.8,0,3.2-1.4,3.2-3.2l0,0C128.8,54.5,127.3,53,125.5,53z"></path> <polygon fill="#FFFFFF" points="92.9,59.5 85,56.3 92.9,53 "></polygon> <rect x="4.9" y="11" fill="#FFFFFF" width="46.8" height="33"></rect> <rect x="4.9" y="2.1" fill="#FFFFFF" width="46.8" height="8.9"></rect> <path fill="#231F20" d="M125.5,52.3h-25.5v-16c0-0.2-0.1-0.4-0.2-0.5L84,19.9c-0.1-0.1-0.3-0.2-0.5-0.2H52.4V2.1 c0-0.4-0.3-0.8-0.8-0.8H4.9c-0.4,0-0.8,0.3-0.8,0.8V44c0,0.4,0.3,0.8,0.8,0.8h33.2v37.4c0,3.9,3.2,7.1,7.1,7.1h18.1v38.2 c0,0.4,0.3,0.8,0.8,0.8h60.5c0.4,0,0.8-0.3,0.8-0.8V74.2c0-3.8-3.1-6.9-6.9-6.9h-18.2v-7.1h19.8V61h-10.5c-0.4,0-0.8,0.3-0.8,0.8 c0,0.4,0.3,0.8,0.8,0.8h11.3c0.4,0,0.8-0.3,0.8-0.8v-1.5h4.1c2.2,0,4-1.8,4-4C129.5,54.1,127.7,52.3,125.5,52.3z M84.3,22.2 l13.3,13.3H84.3V22.2z M5.7,2.9h45.3v7.4H5.7V2.9z M5.7,43.3V11.7h45.3v31.5H5.7z M45.2,87.7c-3.1,0-5.6-2.5-5.6-5.6V44.8h12 c0.4,0,0.8-0.3,0.8-0.8V21.2h30.3v15.1c0,0.4,0.3,0.8,0.8,0.8h15.1v15.3h-5.7c-0.1,0-0.2,0-0.3,0.1c0,0,0,0,0,0l0,0c0,0,0,0,0,0 l-7.8,3.2c-0.3,0.1-0.5,0.4-0.5,0.7c0,0.3,0.2,0.6,0.5,0.7l7.8,3.2c0,0,0,0,0,0l0,0c0.1,0,0.1,0,0.2,0c0,0,0.1,0,0.1,0h5.7v7.1 H57.8c-1.9,0-3.7,0.7-5,2.1c-1.3,1.3-2.1,3.1-2.1,5v7.8c0,1.5-0.6,2.9-1.6,3.9C48,87.1,46.7,87.7,45.2,87.7z M92.1,54.2v4.2 L87,56.3L92.1,54.2z M63.3,87.7H49.5c0.2-0.2,0.4-0.4,0.6-0.6c1.3-1.3,2.1-3.1,2.1-5v-7.8c0-1.5,0.6-2.9,1.6-3.9 c1-1,2.4-1.6,3.9-1.6c1.5,0,2.9,0.6,3.9,1.6c1,1,1.6,2.4,1.6,3.9V87.7z M118.3,68.8c3,0,5.4,2.4,5.4,5.4v52.4h-59V74.4 c0-1.9-0.7-3.6-2.1-5c-0.2-0.2-0.4-0.4-0.6-0.6H118.3z M119.9,58.7H93.6v-5h26.3V58.7z M125.5,58.7h-4.1v-5h4.1 c1.4,0,2.5,1.1,2.5,2.5C128,57.6,126.9,58.7,125.5,58.7z"></path> <g> <g> <rect x="22.4" y="17.9" fill="#84DBFF" width="4.4" height="4.4"></rect> </g> <g> <rect x="29.8" y="17.9" fill="#84DBFF" width="4.4" height="4.4"></rect> </g> <g> <rect x="37.1" y="17.9" fill="#84DBFF" width="4.4" height="4.4"></rect> </g> <g> <rect x="15.1" y="25.3" fill="#84DBFF" width="4.4" height="4.4"></rect> </g> <g> <rect x="22.4" y="25.3" fill="#84DBFF" width="4.4" height="4.4"></rect> </g> <g> <rect x="29.8" y="25.3" fill="#84DBFF" width="4.4" height="4.4"></rect> </g> <g> <rect x="37.1" y="25.3" fill="#84DBFF" width="4.4" height="4.4"></rect> </g> <g> <rect x="15.1" y="32.7" fill="#84DBFF" width="4.4" height="4.4"></rect> </g> <g> <rect x="22.4" y="32.7" fill="#84DBFF" width="4.4" height="4.4"></rect> </g> <g> <rect x="29.8" y="32.7" fill="#84DBFF" width="4.4" height="4.4"></rect> </g> </g> <g> <g> <circle fill="#ACB3BA" cx="41.6" cy="6.6" r="1.9"></circle> </g> </g> <g> <circle fill="#ACB3BA" cx="15" cy="6.6" r="1.9"></circle> </g> <g> <path fill="#84DBFF" d="M64.3,46.3L61,43c-1.4,1.7-2.4,3.8-2.5,6.1h4.7C63.3,48.1,63.7,47.1,64.3,46.3z"></path> </g> <g> <path fill="#FFD05B" d="M75,50.7c-0.1,1-0.6,2-1.2,2.8l3.3,3.3c1.4-1.7,2.4-3.8,2.5-6.1H75z"></path> </g> <g> <path fill="#E6E9EE" d="M63.2,50.7h-4.7c0.4,5.2,4.6,9.4,9.8,9.8v-4.7C65.6,55.5,63.5,53.4,63.2,50.7z"></path> </g> <g> <path fill="#FF7058" d="M69.1,44c3,0,5.5,2.3,5.9,5.2h4.7c-0.4-5.5-5-9.9-10.6-9.9c-2.7,0-5.1,1-6.9,2.6l3.3,3.3 C66.5,44.4,67.7,44,69.1,44z"></path> </g> <g> <path fill="#FFD05B" d="M69.9,55.9v4.7c2.3-0.2,4.5-1.1,6.1-2.5l-3.3-3.3C71.9,55.3,71,55.7,69.9,55.9z"></path> </g> <circle fill="#84DBFF" cx="63.4" cy="8.9" r="2.5"></circle> <circle fill="#FF7058" cx="8.9" cy="61.7" r="2.5"></circle> <circle fill="#E6E9EE" cx="88.5" cy="80.8" r="2.5"></circle> <circle fill="#FFD05B" cx="38.9" cy="113.9" r="2.5"></circle> </g> </g> </svg> 