<?xml version="1.0" encoding="UTF-8"?> <svg xmlns="http://www.w3.org/2000/svg" xmlns:xlink="http://www.w3.org/1999/xlink" version="1.1" id="Layer_1" x="0px" y="0px" viewBox="0 0 129.5 129.5" xml:space="preserve"> <g> <g> <g> <g> <path fill="#231F20" d="M120.7,6.7c-0.2,0-0.4-0.1-0.5-0.2c-0.3-0.3-0.3-0.8,0-1.1l1.3-1.3c0.3-0.3,0.8-0.3,1.1,0 c0.3,0.3,0.3,0.8,0,1.1l-1.3,1.3C121,6.7,120.8,6.7,120.7,6.7z"></path> </g> <g> <path fill="#231F20" d="M116.6,10.8c-0.2,0-0.4-0.1-0.5-0.2c-0.3-0.3-0.3-0.8,0-1.1l1.3-1.3c0.3-0.3,0.8-0.3,1.1,0 c0.3,0.3,0.3,0.8,0,1.1l-1.3,1.3C117,10.8,116.8,10.8,116.6,10.8z"></path> </g> <g> <path fill="#231F20" d="M122,10.8c-0.2,0-0.4-0.1-0.5-0.2l-1.3-1.3c-0.3-0.3-0.3-0.8,0-1.1c0.3-0.3,0.8-0.3,1.1,0l1.3,1.3 c0.3,0.3,0.3,0.8,0,1.1C122.3,10.8,122.2,10.8,122,10.8z"></path> </g> <g> <path fill="#231F20" d="M117.9,6.7c-0.2,0-0.4-0.1-0.5-0.2L116,5.2c-0.3-0.3-0.3-0.8,0-1.1c0.3-0.3,0.8-0.3,1.1,0l1.3,1.3 c0.3,0.3,0.3,0.8,0,1.1C118.3,6.7,118.1,6.7,117.9,6.7z"></path> </g> </g> <g> <g> <path fill="#231F20" d="M9,8.1c-0.2,0-0.4-0.1-0.5-0.2c-0.3-0.3-0.3-0.8,0-1.1l1.3-1.3c0.3-0.3,0.8-0.3,1.1,0 c0.3,0.3,0.3,0.8,0,1.1L9.5,7.9C9.3,8.1,9.2,8.1,9,8.1z"></path> </g> <g> <path fill="#231F20" d="M4.9,12.2c-0.2,0-0.4-0.1-0.5-0.2c-0.3-0.3-0.3-0.8,0-1.1l1.3-1.3c0.3-0.3,0.8-0.3,1.1,0 c0.3,0.3,0.3,0.8,0,1.1L5.4,12C5.3,12.1,5.1,12.2,4.9,12.2z"></path> </g> <g> <path fill="#231F20" d="M10.3,12.2c-0.2,0-0.4-0.1-0.5-0.2l-1.3-1.3c-0.3-0.3-0.3-0.8,0-1.1c0.3-0.3,0.8-0.3,1.1,0l1.3,1.3 c0.3,0.3,0.3,0.8,0,1.1C10.6,12.1,10.5,12.2,10.3,12.2z"></path> </g> <g> <path fill="#231F20" d="M6.2,8.1C6,8.1,5.8,8.1,5.6,7.9L4.3,6.6C4,6.3,4,5.8,4.3,5.6c0.3-0.3,0.8-0.3,1.1,0l1.3,1.3 C7,7.1,7,7.6,6.7,7.9C6.6,8.1,6.4,8.1,6.2,8.1z"></path> </g> </g> <g> <g> <path fill="#231F20" d="M120.7,118.6c-0.2,0-0.4-0.1-0.5-0.2c-0.3-0.3-0.3-0.8,0-1.1l1.3-1.3c0.3-0.3,0.8-0.3,1.1,0 c0.3,0.3,0.3,0.8,0,1.1l-1.3,1.3C121,118.6,120.8,118.6,120.7,118.6z"></path> </g> <g> <path fill="#231F20" d="M116.6,122.7c-0.2,0-0.4-0.1-0.5-0.2c-0.3-0.3-0.3-0.8,0-1.1l1.3-1.3c0.3-0.3,0.8-0.3,1.1,0 c0.3,0.3,0.3,0.8,0,1.1l-1.3,1.3C117,122.6,116.8,122.7,116.6,122.7z"></path> </g> <g> <path fill="#231F20" d="M122,122.7c-0.2,0-0.4-0.1-0.5-0.2l-1.3-1.3c-0.3-0.3-0.3-0.8,0-1.1c0.3-0.3,0.8-0.3,1.1,0l1.3,1.3 c0.3,0.3,0.3,0.8,0,1.1C122.3,122.6,122.2,122.7,122,122.7z"></path> </g> <g> <path fill="#231F20" d="M117.9,118.6c-0.2,0-0.4-0.1-0.5-0.2l-1.3-1.3c-0.3-0.3-0.3-0.8,0-1.1c0.3-0.3,0.8-0.3,1.1,0l1.3,1.3 c0.3,0.3,0.3,0.8,0,1.1C118.3,118.6,118.1,118.6,117.9,118.6z"></path> </g> </g> <g> <circle fill="#FF7058" cx="9.6" cy="116.6" r="2.2"></circle> </g> <g> <circle fill="#F1543F" cx="105.5" cy="4.6" r="2.2"></circle> </g> <g> <path fill="#231F20" d="M64.8,125.4l0-1.5c0.3,0,0.7,0,1,0l0,1.5C65.5,125.4,65.2,125.4,64.8,125.4z M62.8,125.4 c-0.3,0-0.7,0-1,0l0.1-1.5c0.3,0,0.7,0,1,0L62.8,125.4z M67.9,125.3l-0.1-1.5c0.3,0,0.7,0,1-0.1l0.1,1.5 C68.6,125.3,68.2,125.3,67.9,125.3z M59.8,125.2c-0.3,0-0.7-0.1-1-0.1l0.1-1.5c0.3,0,0.7,0.1,1,0.1L59.8,125.2z M70.9,125.1 l-0.1-1.5c0.3,0,0.7-0.1,1-0.1l0.2,1.5C71.6,125,71.2,125,70.9,125.1z M56.8,124.9c-0.3,0-0.7-0.1-1-0.1l0.2-1.5 c0.3,0,0.7,0.1,1,0.1L56.8,124.9z M73.9,124.7l-0.2-1.5c0.3,0,0.7-0.1,1-0.2l0.2,1.5C74.6,124.6,74.3,124.6,73.9,124.7z M53.8,124.4c-0.3-0.1-0.7-0.1-1-0.2l0.3-1.5c0.3,0.1,0.6,0.1,1,0.2L53.8,124.4z M76.9,124.2l-0.3-1.5c0.3-0.1,0.6-0.1,1-0.2 l0.3,1.5C77.6,124,77.2,124.1,76.9,124.2z M50.8,123.8c-0.3-0.1-0.7-0.2-1-0.2l0.4-1.5c0.3,0.1,0.6,0.2,1,0.2L50.8,123.8z M79.9,123.5l-0.4-1.5c0.3-0.1,0.6-0.2,1-0.3l0.4,1.4C80.5,123.3,80.2,123.4,79.9,123.5z M47.9,123c-0.3-0.1-0.6-0.2-1-0.3 l0.4-1.4c0.3,0.1,0.6,0.2,0.9,0.3L47.9,123z M82.8,122.7l-0.4-1.4c0.3-0.1,0.6-0.2,0.9-0.3l0.5,1.4 C83.4,122.5,83.1,122.6,82.8,122.7z M45,122.1c-0.3-0.1-0.6-0.2-1-0.3l0.5-1.4c0.3,0.1,0.6,0.2,0.9,0.3L45,122.1z M85.7,121.7 l-0.5-1.4c0.3-0.1,0.6-0.2,0.9-0.3l0.5,1.4C86.3,121.4,86,121.6,85.7,121.7z M42.1,121c-0.3-0.1-0.6-0.3-0.9-0.4l0.6-1.4 c0.3,0.1,0.6,0.3,0.9,0.4L42.1,121z M88.5,120.6l-0.6-1.4c0.3-0.1,0.6-0.3,0.9-0.4l0.6,1.4C89.1,120.3,88.8,120.4,88.5,120.6z M39.3,119.8c-0.3-0.1-0.6-0.3-0.9-0.4L39,118c0.3,0.1,0.6,0.3,0.9,0.4L39.3,119.8z M91.2,119.3l-0.7-1.3 c0.3-0.1,0.6-0.3,0.9-0.4l0.7,1.3C91.8,119,91.5,119.2,91.2,119.3z M36.6,118.5c-0.3-0.2-0.6-0.3-0.9-0.5l0.7-1.3 c0.3,0.2,0.6,0.3,0.9,0.5L36.6,118.5z M93.9,117.9l-0.7-1.3c0.3-0.2,0.6-0.3,0.9-0.5l0.7,1.3C94.5,117.6,94.2,117.8,93.9,117.9z M33.9,117c-0.3-0.2-0.6-0.3-0.9-0.5l0.8-1.3c0.3,0.2,0.6,0.3,0.8,0.5L33.9,117z M96.5,116.4l-0.8-1.3c0.3-0.2,0.6-0.3,0.8-0.5 l0.8,1.3C97.1,116,96.8,116.2,96.5,116.4z M31.3,115.4c-0.3-0.2-0.6-0.4-0.8-0.6l0.8-1.2c0.3,0.2,0.5,0.4,0.8,0.6L31.3,115.4z M99.1,114.7l-0.8-1.2c0.3-0.2,0.5-0.4,0.8-0.6l0.9,1.2C99.6,114.4,99.4,114.5,99.1,114.7z M28.9,113.6c-0.3-0.2-0.5-0.4-0.8-0.6 l0.9-1.2c0.3,0.2,0.5,0.4,0.8,0.6L28.9,113.6z M101.5,113l-0.9-1.2c0.3-0.2,0.5-0.4,0.8-0.6l0.9,1.2 C102.1,112.5,101.8,112.7,101.5,113z M26.5,111.8c-0.3-0.2-0.5-0.4-0.8-0.6l1-1.1c0.3,0.2,0.5,0.4,0.8,0.6L26.5,111.8z M103.9,111.1l-1-1.1c0.3-0.2,0.5-0.4,0.7-0.6l1,1.1C104.4,110.6,104.2,110.8,103.9,111.1z M24.2,109.8c-0.3-0.2-0.5-0.5-0.7-0.7 l1-1.1c0.2,0.2,0.5,0.4,0.7,0.7L24.2,109.8z M106.2,109l-1-1.1c0.2-0.2,0.5-0.5,0.7-0.7l1,1.1C106.7,108.6,106.4,108.8,106.2,109 z M21.9,107.7c-0.2-0.2-0.5-0.5-0.7-0.7l1.1-1c0.2,0.2,0.5,0.5,0.7,0.7L21.9,107.7z M108.3,106.9l-1.1-1c0.2-0.2,0.5-0.5,0.7-0.7 l1.1,1C108.8,106.4,108.6,106.7,108.3,106.9z M19.9,105.5c-0.2-0.2-0.5-0.5-0.7-0.8l1.1-1c0.2,0.2,0.4,0.5,0.7,0.7L19.9,105.5z M110.4,104.7l-1.1-1c0.2-0.2,0.4-0.5,0.6-0.8l1.1,1C110.8,104.2,110.6,104.4,110.4,104.7z M17.9,103.2c-0.2-0.3-0.4-0.5-0.6-0.8 l1.2-0.9c0.2,0.3,0.4,0.5,0.6,0.8L17.9,103.2z M112.3,102.3l-1.2-0.9c0.2-0.3,0.4-0.5,0.6-0.8l1.2,0.9 C112.8,101.8,112.5,102.1,112.3,102.3z M16,100.8c-0.2-0.3-0.4-0.5-0.6-0.8l1.2-0.9c0.2,0.3,0.4,0.5,0.6,0.8L16,100.8z M114.2,99.9l-1.2-0.9c0.2-0.3,0.4-0.5,0.6-0.8l1.2,0.9C114.6,99.4,114.4,99.6,114.2,99.9z M14.3,98.3c-0.2-0.3-0.4-0.6-0.6-0.8 l1.3-0.8c0.2,0.3,0.4,0.5,0.5,0.8L14.3,98.3z M115.9,97.4l-1.3-0.8c0.2-0.3,0.4-0.6,0.5-0.8l1.3,0.8 C116.2,96.8,116,97.1,115.9,97.4z M12.6,95.8c-0.2-0.3-0.3-0.6-0.5-0.9l1.3-0.7c0.2,0.3,0.3,0.6,0.5,0.9L12.6,95.8z M117.4,94.8 l-1.3-0.7c0.2-0.3,0.3-0.6,0.5-0.9l1.3,0.7C117.8,94.2,117.6,94.5,117.4,94.8z M11.2,93.1c-0.2-0.3-0.3-0.6-0.5-0.9l1.3-0.7 c0.1,0.3,0.3,0.6,0.5,0.9L11.2,93.1z M118.9,92.1l-1.3-0.7c0.1-0.3,0.3-0.6,0.4-0.9l1.3,0.7C119.2,91.5,119,91.8,118.9,92.1z M9.8,90.4c-0.1-0.3-0.3-0.6-0.4-0.9l1.4-0.6c0.1,0.3,0.3,0.6,0.4,0.9L9.8,90.4z M120.2,89.4l-1.4-0.6c0.1-0.3,0.3-0.6,0.4-0.9 l1.4,0.6C120.5,88.7,120.3,89,120.2,89.4z M8.6,87.6c-0.1-0.3-0.3-0.6-0.4-0.9l1.4-0.5c0.1,0.3,0.2,0.6,0.4,0.9L8.6,87.6z M121.4,86.5L120,86c0.1-0.3,0.2-0.6,0.3-0.9l1.4,0.5C121.6,85.9,121.5,86.2,121.4,86.5z M7.5,84.8c-0.1-0.3-0.2-0.6-0.3-1 l1.4-0.5c0.1,0.3,0.2,0.6,0.3,0.9L7.5,84.8z M122.4,83.7l-1.4-0.5c0.1-0.3,0.2-0.6,0.3-0.9l1.4,0.4 C122.6,83,122.5,83.4,122.4,83.7z M6.6,81.9c-0.1-0.3-0.2-0.6-0.3-1l1.4-0.4c0.1,0.3,0.2,0.6,0.3,0.9L6.6,81.9z M123.3,80.8 l-1.4-0.4c0.1-0.3,0.2-0.6,0.3-1l1.5,0.4C123.4,80.1,123.3,80.4,123.3,80.8z M5.8,79c-0.1-0.3-0.2-0.7-0.2-1L7,77.7 c0.1,0.3,0.1,0.6,0.2,1L5.8,79z M124,77.8l-1.5-0.3c0.1-0.3,0.1-0.6,0.2-1l1.5,0.3C124.1,77.2,124,77.5,124,77.8z M5.2,76 C5.1,75.7,5,75.3,5,75l1.5-0.3c0.1,0.3,0.1,0.6,0.2,1L5.2,76z M124.6,74.8l-1.5-0.2c0.1-0.3,0.1-0.7,0.2-1l1.5,0.2 C124.7,74.2,124.6,74.5,124.6,74.8z M4.7,73c0-0.3-0.1-0.7-0.1-1L6,71.8c0,0.3,0.1,0.7,0.1,1L4.7,73z M125,71.8l-1.5-0.2 c0-0.3,0.1-0.7,0.1-1l1.5,0.1C125.1,71.2,125,71.5,125,71.8z M4.3,70c0-0.3-0.1-0.7-0.1-1l1.5-0.1c0,0.3,0,0.7,0.1,1L4.3,70z M125.3,68.8l-1.5-0.1c0-0.3,0-0.7,0.1-1l1.5,0.1C125.3,68.1,125.3,68.5,125.3,68.8z M4.2,67c0-0.3,0-0.7,0-1l1.5,0 c0,0.3,0,0.7,0,1L4.2,67z M125.4,65.8l-1.5,0c0-0.3,0-0.7,0-1h1.5C125.4,65.1,125.4,65.4,125.4,65.8z M123.9,64.4 c0-0.3,0-0.7,0-1l1.5,0c0,0.3,0,0.7,0,1L123.9,64.4z M5.6,63.9l-1.5,0c0-0.3,0-0.7,0-1l1.5,0C5.6,63.3,5.6,63.6,5.6,63.9z M123.8,61.4c0-0.3,0-0.7-0.1-1l1.5-0.1c0,0.3,0,0.7,0.1,1L123.8,61.4z M5.7,61l-1.5-0.1c0-0.3,0-0.7,0.1-1L5.8,60 C5.8,60.3,5.8,60.7,5.7,61z M123.6,58.5c0-0.3-0.1-0.7-0.1-1l1.5-0.2c0,0.3,0.1,0.7,0.1,1L123.6,58.5z M6,58l-1.5-0.2 c0-0.3,0.1-0.7,0.1-1l1.5,0.2C6.1,57.4,6,57.7,6,58z M123.2,55.5c-0.1-0.3-0.1-0.7-0.2-1l1.5-0.3c0.1,0.3,0.1,0.7,0.2,1 L123.2,55.5z M6.4,55.1l-1.5-0.2c0.1-0.3,0.1-0.7,0.2-1l1.5,0.3C6.5,54.5,6.5,54.8,6.4,55.1z M122.6,52.6c-0.1-0.3-0.1-0.6-0.2-1 l1.5-0.3c0.1,0.3,0.1,0.7,0.2,1L122.6,52.6z M7,52.2l-1.5-0.3c0.1-0.3,0.1-0.7,0.2-1l1.5,0.3C7.1,51.6,7,51.9,7,52.2z M122,49.8 c-0.1-0.3-0.2-0.6-0.3-1l1.4-0.4c0.1,0.3,0.2,0.7,0.3,1L122,49.8z M7.7,49.3l-1.4-0.4c0.1-0.3,0.2-0.7,0.3-1l1.4,0.4 C7.8,48.7,7.7,49,7.7,49.3z M121.1,46.9c-0.1-0.3-0.2-0.6-0.3-0.9l1.4-0.5c0.1,0.3,0.2,0.6,0.3,1L121.1,46.9z M8.5,46.5L7.1,46 c0.1-0.3,0.2-0.6,0.3-1l1.4,0.5C8.7,45.8,8.6,46.2,8.5,46.5z M120.2,44.1c-0.1-0.3-0.2-0.6-0.4-0.9l1.4-0.5 c0.1,0.3,0.2,0.6,0.4,0.9L120.2,44.1z M9.5,43.7l-1.4-0.5c0.1-0.3,0.2-0.6,0.4-0.9l1.4,0.6C9.7,43.1,9.6,43.4,9.5,43.7z M119.1,41.4c-0.1-0.3-0.3-0.6-0.4-0.9l1.4-0.6c0.1,0.3,0.3,0.6,0.4,0.9L119.1,41.4z M10.6,40.9l-1.4-0.6 c0.1-0.3,0.3-0.6,0.4-0.9L11,40C10.9,40.3,10.8,40.6,10.6,40.9z M117.8,38.7c-0.1-0.3-0.3-0.6-0.4-0.9l1.3-0.7 c0.2,0.3,0.3,0.6,0.5,0.9L117.8,38.7z M11.9,38.2l-1.3-0.7c0.2-0.3,0.3-0.6,0.5-0.9l1.3,0.7C12.2,37.7,12,37.9,11.9,38.2z M116.5,36.1c-0.2-0.3-0.3-0.6-0.5-0.9l1.3-0.8c0.2,0.3,0.3,0.6,0.5,0.9L116.5,36.1z M13.3,35.6L12,34.9c0.2-0.3,0.3-0.6,0.5-0.9 l1.3,0.8C13.6,35.1,13.4,35.3,13.3,35.6z M115,33.5c-0.2-0.3-0.3-0.6-0.5-0.8l1.3-0.8c0.2,0.3,0.4,0.6,0.5,0.9L115,33.5z M14.8,33.1l-1.3-0.8c0.2-0.3,0.4-0.6,0.6-0.9l1.3,0.8C15.2,32.5,15,32.8,14.8,33.1z M113.3,31.1c-0.2-0.3-0.4-0.5-0.6-0.8 l1.2-0.9c0.2,0.3,0.4,0.5,0.6,0.8L113.3,31.1z M16.5,30.6l-1.2-0.9c0.2-0.3,0.4-0.6,0.6-0.8l1.2,0.9 C16.8,30.1,16.7,30.4,16.5,30.6z M111.6,28.7c-0.2-0.3-0.4-0.5-0.6-0.8l1.2-0.9c0.2,0.3,0.4,0.5,0.6,0.8L111.6,28.7z M18.2,28.2 l-1.2-0.9c0.2-0.3,0.4-0.5,0.6-0.8l1.2,0.9C18.6,27.7,18.4,28,18.2,28.2z M109.7,26.4c-0.2-0.2-0.4-0.5-0.6-0.7l1.1-1 c0.2,0.3,0.4,0.5,0.7,0.8L109.7,26.4z M20.1,26L19,25c0.2-0.3,0.4-0.5,0.7-0.8l1.1,1C20.6,25.5,20.3,25.7,20.1,26z M107.8,24.2 c-0.2-0.2-0.5-0.5-0.7-0.7l1.1-1c0.2,0.2,0.5,0.5,0.7,0.7L107.8,24.2z M22.1,23.8l-1.1-1c0.2-0.2,0.5-0.5,0.7-0.7l1.1,1.1 C22.6,23.3,22.4,23.5,22.1,23.8z M105.7,22.1c-0.2-0.2-0.5-0.5-0.7-0.7l1-1.1c0.2,0.2,0.5,0.5,0.7,0.7L105.7,22.1z M24.2,21.7 l-1-1.1c0.2-0.2,0.5-0.5,0.7-0.7l1,1.1C24.7,21.2,24.5,21.5,24.2,21.7z M103.5,20.1c-0.2-0.2-0.5-0.4-0.8-0.6l1-1.1 c0.3,0.2,0.5,0.4,0.8,0.7L103.5,20.1z M26.4,19.7l-1-1.1c0.3-0.2,0.5-0.4,0.8-0.6l1,1.2C26.9,19.3,26.7,19.5,26.4,19.7z M101.2,18.2c-0.3-0.2-0.5-0.4-0.8-0.6l0.9-1.2c0.3,0.2,0.5,0.4,0.8,0.6L101.2,18.2z M28.7,17.9l-0.9-1.2 c0.3-0.2,0.5-0.4,0.8-0.6l0.9,1.2C29.3,17.5,29,17.7,28.7,17.9z M98.8,16.4c-0.3-0.2-0.5-0.4-0.8-0.6l0.8-1.2 c0.3,0.2,0.6,0.4,0.8,0.6L98.8,16.4z M31.1,16.1l-0.9-1.2c0.3-0.2,0.6-0.4,0.8-0.6l0.8,1.2C31.7,15.7,31.4,15.9,31.1,16.1z M96.4,14.8c-0.3-0.2-0.6-0.4-0.8-0.5l0.8-1.3c0.3,0.2,0.6,0.4,0.9,0.5L96.4,14.8z M33.6,14.5l-0.8-1.3c0.3-0.2,0.6-0.4,0.9-0.5 l0.8,1.3C34.2,14.1,33.9,14.3,33.6,14.5z M93.8,13.2c-0.3-0.2-0.6-0.3-0.9-0.5l0.7-1.3c0.3,0.2,0.6,0.3,0.9,0.5L93.8,13.2z M36.1,13l-0.7-1.3c0.3-0.2,0.6-0.3,0.9-0.5l0.7,1.3C36.7,12.7,36.4,12.8,36.1,13z M91.2,11.8c-0.3-0.1-0.6-0.3-0.9-0.4l0.6-1.4 c0.3,0.1,0.6,0.3,0.9,0.4L91.2,11.8z M38.8,11.6l-0.7-1.3c0.3-0.1,0.6-0.3,0.9-0.4l0.6,1.4C39.4,11.3,39.1,11.5,38.8,11.6z M88.5,10.6c-0.3-0.1-0.6-0.3-0.9-0.4l0.6-1.4c0.3,0.1,0.6,0.3,0.9,0.4L88.5,10.6z M41.4,10.4L40.9,9c0.3-0.1,0.6-0.3,0.9-0.4 l0.6,1.4C42,10.1,41.7,10.3,41.4,10.4z M85.8,9.5c-0.3-0.1-0.6-0.2-0.9-0.3l0.5-1.4c0.3,0.1,0.6,0.2,1,0.4L85.8,9.5z M44.2,9.3 l-0.5-1.4c0.3-0.1,0.6-0.2,1-0.3L45.1,9C44.8,9.1,44.5,9.2,44.2,9.3z M82.9,8.5c-0.3-0.1-0.6-0.2-0.9-0.3l0.4-1.4 c0.3,0.1,0.6,0.2,1,0.3L82.9,8.5z M47,8.3l-0.5-1.4c0.3-0.1,0.6-0.2,1-0.3L47.9,8C47.6,8.1,47.3,8.2,47,8.3z M80.1,7.6 c-0.3-0.1-0.6-0.2-1-0.2l0.4-1.5c0.3,0.1,0.7,0.2,1,0.3L80.1,7.6z M49.8,7.5l-0.4-1.5c0.3-0.1,0.7-0.2,1-0.2l0.4,1.5 C50.5,7.4,50.2,7.4,49.8,7.5z M77.2,6.9c-0.3-0.1-0.6-0.1-1-0.2l0.3-1.5c0.3,0.1,0.7,0.1,1,0.2L77.2,6.9z M52.7,6.8l-0.3-1.5 c0.3-0.1,0.7-0.1,1-0.2l0.3,1.5C53.4,6.7,53,6.8,52.7,6.8z M74.3,6.4c-0.3-0.1-0.6-0.1-1-0.2l0.2-1.5c0.3,0,0.7,0.1,1,0.2 L74.3,6.4z M55.6,6.3l-0.2-1.5c0.3-0.1,0.7-0.1,1-0.1l0.2,1.5C56.3,6.2,56,6.3,55.6,6.3z M71.4,6c-0.3,0-0.7-0.1-1-0.1l0.1-1.5 c0.3,0,0.7,0.1,1,0.1L71.4,6z M58.6,5.9l-0.2-1.5c0.3,0,0.7-0.1,1-0.1l0.1,1.5C59.2,5.9,58.9,5.9,58.6,5.9z M68.4,5.7 c-0.3,0-0.7,0-1-0.1l0.1-1.5c0.3,0,0.7,0,1,0.1L68.4,5.7z M61.5,5.7l-0.1-1.5c0.3,0,0.7,0,1,0l0.1,1.5 C62.2,5.7,61.9,5.7,61.5,5.7z M65.5,5.6l-0.7,0l-0.3,0l0-1.5l0.3,0l0.7,0L65.5,5.6z"></path> </g> <g> <path fill="#FFD05B" d="M64.8,117.2c-28.9,0-52.5-23.5-52.5-52.5c0-28.9,23.5-52.5,52.5-52.5c28.9,0,52.5,23.5,52.5,52.5 C117.2,93.7,93.7,117.2,64.8,117.2z"></path> </g> <path fill="#231F20" d="M64.8,9.5C34.3,9.5,9.5,34.3,9.5,64.8S34.3,120,64.8,120S120,95.2,120,64.8S95.2,9.5,64.8,9.5z M118.5,65.5c-0.2,14.3-6,27.2-15.2,36.7l-4.4-4.4l-1.1,1.1l4.4,4.4c-9.5,9.3-22.4,15-36.7,15.2v-6.3H64v6.3 c-14.3-0.2-27.2-6-36.7-15.2l4.4-4.4l-1.1-1.1l-4.4,4.4C17,92.7,11.2,79.8,11,65.5h6.3V64H11c0.2-14.3,6-27.2,15.2-36.7l4.4,4.4 l1.1-1.1l-4.4-4.4C36.8,17,49.7,11.2,64,11v6.3h1.5V11c14.3,0.2,27.2,6,36.7,15.2l-4.4,4.4l1.1,1.1l4.4-4.4 c9.3,9.5,15,22.4,15.2,36.7h-6.3v1.5H118.5z"></path> <g> <path fill="#231F20" d="M1.5,54L0,53.8C4.6,26.2,26.2,4.6,53.8,0L54,1.5C27.1,6,6,27.1,1.5,54z"></path> </g> <g> <path fill="#231F20" d="M128,54c-4.5-26.9-25.6-48-52.5-52.5L75.7,0c27.5,4.6,49.1,26.2,53.8,53.8L128,54z"></path> </g> <g> <path fill="#231F20" d="M53.8,129.5C26.2,124.9,4.6,103.3,0,75.7l1.5-0.2C6,102.4,27.1,123.5,54,128L53.8,129.5z"></path> </g> <g> <path fill="#231F20" d="M75.7,129.5l-0.2-1.5c26.9-4.5,48-25.6,52.5-52.5l1.5,0.2C124.9,103.3,103.3,124.9,75.7,129.5z"></path> </g> <path fill="#FFFFFF" d="M103,67.8v18.4H73V67.8c0-4.4,3.5-7.9,7.9-7.9h0.2c2.3,0,4.2-1.9,4.2-4.2l0,0c0.8,0.6,1.7,0.9,2.7,0.9 c0.9,0,1.8-0.3,2.7-0.9l0,0c0,2.3,1.9,4.2,4.2,4.2h0.2C99.4,59.9,103,63.5,103,67.8z"></path> <path fill="#FFFFFF" d="M95.2,45.9c0,4.8-3.2,10.7-7.2,10.7c-4,0-7.2-5.9-7.2-10.7c0-4.8,3.2-6.7,7.2-6.7 C92,39.3,95.2,41.2,95.2,45.9z"></path> <path fill="#FFFFFF" d="M88,66.4l6.5-6.5c-2.2-0.2-3.9-2-3.9-4.2c-0.8,0.6-1.7,0.9-2.7,0.9c-0.9,0-1.8-0.3-2.7-0.9 c0,2.2-1.7,4-3.9,4.2L88,66.4z"></path> <path fill="#FFFFFF" d="M56.5,67.8v18.4h-30V67.8c0-4.4,3.5-7.9,7.9-7.9h0.2c2.3,0,4.2-1.9,4.2-4.2l0,0c0.8,0.6,1.7,0.9,2.7,0.9 c0.9,0,1.8-0.3,2.7-0.9l0,0c0,2.3,1.9,4.2,4.2,4.2h0.2C53,59.9,56.5,63.5,56.5,67.8z"></path> <path fill="#FFFFFF" d="M48.7,45.9c0,4.8-3.2,10.7-7.2,10.7c-4,0-7.2-5.9-7.2-10.7c0-4.8,3.2-6.7,7.2-6.7 C45.5,39.3,48.7,41.2,48.7,45.9z"></path> <path fill="#FFFFFF" d="M41.5,66.4l6.5-6.5c-2.2-0.2-3.9-2-3.9-4.2c-0.8,0.6-1.7,0.9-2.7,0.9c-0.9,0-1.8-0.3-2.7-0.9 c0,2.2-1.7,4-3.9,4.2L41.5,66.4z"></path> <path fill="#FFFFFF" d="M83,71v22.4H46.5V71c0-5.3,4.3-9.6,9.6-9.6h0.2c2.8,0,5.1-2.3,5.1-5.1l0,0c1,0.7,2.1,1.1,3.3,1.1 c1.2,0,2.3-0.4,3.3-1.1l0,0c0,2.8,2.3,5.1,5.1,5.1h0.2C78.7,61.3,83,65.6,83,71z"></path> <path fill="#FFFFFF" d="M73.5,44.3c0,5.8-3.9,13-8.8,13c-4.9,0-8.8-7.2-8.8-13s3.9-8.1,8.8-8.1C69.6,36.1,73.5,38.4,73.5,44.3z"></path> <path fill="#FFFFFF" d="M64.8,69.3l8-8c-2.6-0.2-4.7-2.4-4.7-5.1c-1,0.7-2.1,1.1-3.3,1.1c-1.2,0-2.3-0.4-3.3-1.1 c0,2.7-2.1,4.9-4.7,5.1L64.8,69.3z"></path> <g> <rect x="87.2" y="80.4" fill="#231F20" width="1.5" height="1"></rect> <rect x="87.2" y="77.4" fill="#231F20" width="1.5" height="1"></rect> <rect x="87.2" y="83.4" fill="#231F20" width="1.5" height="1"></rect> <rect x="87.2" y="71.4" fill="#231F20" width="1.5" height="1"></rect> <rect x="87.2" y="68.4" fill="#231F20" width="1.5" height="1"></rect> <rect x="87.2" y="74.4" fill="#231F20" width="1.5" height="1"></rect> <rect x="40.8" y="74.4" fill="#231F20" width="1.5" height="1"></rect> <rect x="40.8" y="80.4" fill="#231F20" width="1.5" height="1"></rect> <rect x="40.8" y="83.4" fill="#231F20" width="1.5" height="1"></rect> <rect x="40.8" y="77.4" fill="#231F20" width="1.5" height="1"></rect> <rect x="40.8" y="68.4" fill="#231F20" width="1.5" height="1"></rect> <rect x="40.8" y="71.4" fill="#231F20" width="1.5" height="1"></rect> <path fill="#231F20" d="M95.1,59.2h-0.2c-1.8,0-3.3-1.4-3.4-3.1c2.7-2.1,4.5-6.4,4.5-10.1c0-4.6-3-7.4-8-7.4s-8,2.8-8,7.4 c0,3.7,1.8,8,4.5,10.1c-0.2,1.8-1.6,3.1-3.4,3.1h-0.2c-1.9,0-3.7,0.6-5.1,1.7c-0.8-0.2-1.6-0.3-2.4-0.3h-0.2 c-2.3,0-4.2-1.8-4.4-4.1c3.2-2.5,5.5-7.7,5.5-12.2c0-5.6-3.6-8.9-9.5-8.9c-6,0-9.5,3.3-9.5,8.9c0,4.5,2.2,9.7,5.5,12.2 c-0.2,2.3-2,4.1-4.4,4.1h-0.2c-0.8,0-1.6,0.1-2.4,0.3c-1.4-1.1-3.2-1.7-5.1-1.7h-0.2c-1.8,0-3.3-1.4-3.4-3.1 c2.7-2.1,4.5-6.4,4.5-10.1c0-4.6-3-7.4-8-7.4s-8,2.8-8,7.4c0,3.7,1.8,8,4.5,10.1c-0.2,1.8-1.6,3.1-3.4,3.1h-0.2 c-4.8,0-8.7,3.9-8.7,8.7v18.4c0,0.4,0.3,0.8,0.8,0.8h19.2v6.4c0,0.4,0.3,0.8,0.8,0.8H83c0.4,0,0.8-0.3,0.8-0.8v-6.4H103 c0.4,0,0.8-0.3,0.8-0.8V67.8C103.7,63.1,99.8,59.2,95.1,59.2z M81.5,46c0-5.2,4-5.9,6.5-5.9c2.4,0,6.5,0.8,6.5,5.9 c0,4.5-3,9.9-6.5,9.9C84.5,55.9,81.5,50.4,81.5,46z M82.9,60.3c1.5-0.6,2.6-1.8,3-3.4c0,0,0,0,0,0c0.7,0.3,1.3,0.5,2.1,0.5 c0.7,0,1.4-0.2,2.1-0.5c0,0,0,0,0,0c0.4,1.6,1.5,2.8,3,3.4c0,0,0,0,0,0L88,65.4L82.9,60.3C82.9,60.3,82.9,60.3,82.9,60.3z M56.7,44.3c0-6.4,5-7.4,8-7.4c3,0,8,1,8,7.4c0,5.5-3.7,12.3-8,12.3C60.4,56.5,56.7,49.8,56.7,44.3z M58.3,61.7 c1.9-0.7,3.4-2.3,3.8-4.3c0,0,0,0,0,0c0.8,0.4,1.7,0.6,2.6,0.6c0.9,0,1.8-0.2,2.6-0.6c0,0,0,0,0,0c0.4,2,1.9,3.7,3.8,4.3 c0,0,0,0,0,0l-6.5,6.5L58.3,61.7C58.3,61.7,58.3,61.7,58.3,61.7z M35.1,46c0-5.2,4-5.9,6.5-5.9c2.4,0,6.5,0.8,6.5,5.9 c0,4.5-3,9.9-6.5,9.9C38.1,55.9,35.1,50.4,35.1,46z M36.5,60.3c1.4-0.6,2.6-1.8,2.9-3.4c0,0,0,0,0,0c0.7,0.3,1.3,0.5,2.1,0.5 c0.7,0,1.4-0.2,2.1-0.5c0,0,0,0,0,0c0.4,1.5,1.5,2.8,3,3.4c0,0,0,0,0,0l-5.1,5.1L36.5,60.3C36.5,60.3,36.5,60.3,36.5,60.3z M45.7,71v14.5H33.4V74h-1.5v11.4h-4.6V67.8c0-3.9,3.2-7.2,7.2-7.2h0.2c0,0,0,0,0.1,0L41,67c0.1,0.1,0.3,0.2,0.5,0.2 s0.4-0.1,0.5-0.2l6.3-6.3c0,0,0,0,0.1,0h0.2c1.2,0,2.3,0.3,3.3,0.8C48.2,63.1,45.7,66.8,45.7,71z M82.3,92.6h-5.9V78.5h-1.5v14.1 H54.7V78.5h-1.5v14.1h-5.9V71c0-4.9,4-8.9,8.9-8.9h0.2c0,0,0.1,0,0.1,0l7.7,7.7c0.1,0.1,0.3,0.2,0.5,0.2c0.2,0,0.4-0.1,0.5-0.2 l7.7-7.7c0,0,0.1,0,0.1,0h0.2c4.9,0,8.9,4,8.9,8.9V92.6z M102.2,85.4h-4.6V74h-1.5v11.4H83.8V71c0-4.2-2.5-7.9-6.2-9.5 c1-0.5,2.1-0.8,3.3-0.8h0.2c0,0,0,0,0.1,0l6.3,6.3c0.1,0.1,0.3,0.2,0.5,0.2c0.2,0,0.4-0.1,0.5-0.2l6.3-6.3c0,0,0,0,0.1,0h0.2 c3.9,0,7.2,3.2,7.2,7.2V85.4z"></path> <rect x="64" y="80.6" fill="#231F20" width="1.5" height="1"></rect> <rect x="64" y="77.6" fill="#231F20" width="1.5" height="1"></rect> <rect x="64" y="74.6" fill="#231F20" width="1.5" height="1"></rect> <rect x="64" y="89.6" fill="#231F20" width="1.5" height="1"></rect> <rect x="64" y="83.6" fill="#231F20" width="1.5" height="1"></rect> <rect x="64" y="71.6" fill="#231F20" width="1.5" height="1"></rect> <rect x="64" y="86.6" fill="#231F20" width="1.5" height="1"></rect> </g> </g> </g> </svg> 