<?xml version="1.0" encoding="UTF-8"?> <svg xmlns="http://www.w3.org/2000/svg" viewBox="0 0 129.5 129.5"><style>.B{fill:#fff}.C{fill:#231f20}.D{fill:#ff7058}</style><circle fill="#84dbff" cx="15.4" cy="19.2" r="6.7"></circle><path d="M14.1 16.6v5.2l3.3-2.6z" class="B"></path><path d="M28.1 15.5h-2V9.4c0-2-1.6-3.6-3.6-3.6h-14c-2 0-3.6 1.6-3.6 3.6v6.1h-2c-1.5 0-2.8 1.2-2.8 2.8v5.6c0 1.5 1.2 2.8 2.8 2.8h3.5V9.4c0-1.2.9-2.1 2.1-2.1h14c1.2 0 2.1.9 2.1 2.1v19.3a3.33 3.33 0 0 1-3.3 3.3h-.8c-.3-1.1-1.3-1.9-2.6-1.9h-3.5a2.69 2.69 0 1 0 0 5.4h3.5c1.2 0 2.2-.8 2.6-1.9h.8c2.6 0 4.8-2.1 4.8-4.8v-2.2h2c1.5 0 2.8-1.2 2.8-2.8v-5.6c-.1-1.5-1.3-2.7-2.8-2.7zM1.5 23.8v-5.6c0-.7.6-1.3 1.3-1.3h2V25h-2c-.7.1-1.3-.5-1.3-1.2zM17.9 34h-3.5c-.7 0-1.2-.5-1.2-1.2s.5-1.2 1.2-1.2h3.5c.7 0 1.2.5 1.2 1.2s-.6 1.2-1.2 1.2zm11.4-10.2c0 .7-.6 1.3-1.3 1.3h-2V17h2c.7 0 1.3.6 1.3 1.3v5.5z" class="C"></path><path fill="#e6e9ee" d="M9.4,126.5c-1.9,0-3.5-1.6-3.5-3.5v-2.7h117.7v2.7c0,1.9-1.6,3.5-3.5,3.5H9.4z"></path><path fill="#84dbff" d="M19.1 59.4h91.3V112H19.1z"></path><path d="M74.1 124.1h-1v-1.5h1v1.5zm-3 0h-1v-1.5h1v1.5zm-3 0h-1v-1.5h1v1.5zm-3 0h-1v-1.5h1v1.5zm-3 0h-1v-1.5h1v1.5zm-3 0h-1v-1.5h1v1.5zm-3 0h-1v-1.5h1v1.5z" class="C"></path><path d="M95.6 118.3v-5.5c0-17.9-14.5-32.4-32.4-32.4s-32.4 14.5-32.4 32.4v5.5h64.8z" class="D"></path><path d="M71.7 80.2v-7.6h-17v7.6c0 4.7 3.8 8.5 8.5 8.5s8.5-3.8 8.5-8.5z" class="B"></path><path fill="#ffd05b" d="M81.8 15.7c-.3-4.9-4.4-8.5-9-8.1C51.4 9.8 37 1 37 1s-.8 9.7 3.1 17.2c-3.2 2.7-5.2 6.8-5.2 11.3v20.9c0 3 2.4 5.4 5.4 5.4H86c3 0 5.4-2.4 5.4-5.4V29.6c.1-6.4-4-11.8-9.6-13.9z"></path><path d="M86.3 44.7H86v-5.9c-9.2-.9-16.8-7.4-19.3-16.1-5.5 9-15.2 15.3-26.4 16.1v5.9h-.2a3.33 3.33 0 0 0-3.3 3.3 3.33 3.33 0 0 0 3.3 3.3h.2v4.5c0 12.6 10.2 22.9 22.9 22.9C75.8 78.7 86 68.5 86 55.9v-4.5h.2a3.33 3.33 0 0 0 3.3-3.3c0-1.8-1.4-3.4-3.2-3.4z" class="B"></path><path d="M78 47.6c-.4 0-.7-.3-.7-.6-.3-1.7-1.8-3-3.5-3s-3.2 1.2-3.5 2.9c-.1.4-.5.7-.9.6s-.7-.5-.6-.9c.4-2.4 2.5-4.1 5-4.1 2.4 0 4.5 1.7 5 4.1.1.4-.2.8-.6.9-.1 0-.1.1-.2.1zm-21.2 0c-.4 0-.7-.3-.7-.6-.3-1.7-1.8-2.9-3.5-2.9s-3.2 1.2-3.5 2.9c-.1.4-.5.7-.9.6s-.7-.5-.6-.9c.4-2.4 2.5-4.1 5-4.1 2.4 0 4.5 1.7 5 4.1.1.4-.2.8-.6.9-.1-.1-.2 0-.2 0z" class="C"></path><path fill="#e6e9ee" d="M55.6 63.1c.9 3.3 4 5.8 7.6 5.8s6.7-2.4 7.6-5.8H55.6z"></path><path d="M63.2 69.6c-3.9 0-7.3-2.6-8.4-6.3l-.3-1h17.2l-.3 1c-.9 3.7-4.3 6.3-8.2 6.3zm-6.6-5.8c1.1 2.6 3.7 4.3 6.6 4.3s5.4-1.7 6.6-4.3H56.6z" class="C"></path><g class="B"><path d="M81.5 118.3v-11m-36.6 11v-11"></path><path d="M68.2 107.6l-5 5.2-5-5.2 3-12.5-.9-2.9H66l-.9 2.9z"></path></g><path d="M63.2 113.5c-.2 0-.4-.1-.5-.2l-5-5.3c-.1-.2-.2-.4-.1-.6l3-12.2-.8-2.8c-.1-.2 0-.5.1-.7s.4-.3.6-.3H66c.2 0 .5.1.6.3s.2.4.1.7l-.8 2.8 3 12.3c.1.2 0 .5-.2.7l-5 5.2c-.1.1-.3.1-.5.1zm-4.2-6.2l4.2 4.4 4.1-4.3-2.9-12V95l.6-2h-3.7l.6 2v.4L59 107.3z" class="C"></path><path d="M124.8 3.7h-20.4c-2.2 0-4 1.8-4 4v1.9l-6.1 3.6 6.1 3.6V68c0 2.2 1.8 4 4 4h20.4c2.2 0 4-1.8 4-4V7.7c-.1-2.2-1.8-4-4-4z" class="B"></path><path d="M124.8 3h-20.4c-2.6 0-4.7 2.1-4.7 4.7v1.4l-5.8 3.3c-.2.1-.4.4-.4.6s.1.5.4.6l5.8 3.3v35.3H92a6.28 6.28 0 0 0 .3-1.9V29.6c0-6.3-3.9-12.1-9.8-14.4-.6-5-4.9-8.8-9.8-8.3a75.08 75.08 0 0 1-6.7.3C48.8 7.2 37.6.5 37.4.4s-.5-.1-.7 0-.4.3-.4.6c0 .4-.8 9.6 2.9 17.1-3.2 2.9-5 7.1-5 11.5v20.9c0 .7.1 1.3.3 1.9H17a4.91 4.91 0 0 0-4.9 4.9v60.2h-9v5.4c0 3.5 2.8 6.3 6.3 6.3h110.7c3.5 0 6.3-2.8 6.3-6.3v-5.4h-9V72.6h7.4c2.6 0 4.7-2.1 4.7-4.7V7.7c0-2.6-2.1-4.7-4.7-4.7zM35.6 29.6c0-4.1 1.8-8 5-10.7.3-.2.3-.6.2-.9-3-5.7-3.1-12.9-3-15.7C41 4 51.3 8.7 66 8.7c2.3 0 4.6-.1 6.8-.3 4.2-.4 7.9 3 8.2 7.4 0 .3.2.6.5.7 5.5 2 9.2 7.3 9.2 13.2v20.9c0 2.3-1.7 4.3-4 4.6v-3c2-.3 3.6-2 3.6-4.1s-1.6-3.8-3.6-4.1v-4.4c.5 0 1 .1 1.5.1.4 0 .8-.3.8-.8 0-.4-.3-.8-.8-.8-.7 0-1.4 0-2.2-.1-8.7-.9-16.2-7.1-18.6-15.6-.1-.3-.3-.5-.6-.5s-.6.1-.7.4c-5.6 9.1-15.2 15-25.9 15.8-.8.1-1.6.1-2.4.1-.4 0-.8.3-.8.8 0 .4.3.8.8.8.6 0 1.2 0 1.7-.1V44c-2 .3-3.6 2-3.6 4.1s1.6 3.8 3.6 4.1v3c-2.2-.4-3.9-2.3-3.9-4.6v-21zm59.2 87.9H82.2v-10.2h-1.5v10.2H45.6v-10.2h-1.5v10.2H31.6v-4.7c0-14.3 9.6-26.4 22.7-30.3 1 4 4.6 7 9 7 4.3 0 7.9-3 9-7 13.1 3.9 22.7 16 22.7 30.3v4.7zM55.4 80.2v-2c2.4.8 5 1.3 7.8 1.3 2.7 0 5.3-.5 7.8-1.3v2c0 4.3-3.5 7.8-7.8 7.8s-7.8-3.5-7.8-7.8zm7.8-2.2C51 78 41.1 68.1 41.1 55.9v-4.5c0-.4-.3-.8-.8-.8h-.2a2.65 2.65 0 0 1-2.6-2.6 2.65 2.65 0 0 1 2.6-2.6h.2c.4 0 .8-.3.8-.8v-5.2c10.3-1 19.7-6.5 25.5-15.1 2.9 8 10.2 13.9 18.7 15v5.3c0 .4.3.8.8.8h.2a2.65 2.65 0 0 1 2.6 2.6 2.65 2.65 0 0 1-2.6 2.6H86c-.4 0-.8.3-.8.8v4.5c.1 12.2-9.8 22.1-22 22.1zM13.6 57.3a3.37 3.37 0 0 1 3.4-3.4h18.2c1 1.5 2.6 2.5 4.4 2.7.3 9.4 6.1 17.4 14.3 21V81C40.1 85 30 97.7 30 112.8v4.7H13.6V57.3zM124.9 119v3.9c0 2.6-2.1 4.8-4.8 4.8H9.4c-2.6 0-4.8-2.1-4.8-4.8V119h120.3zm-28.6-1.5v-4.7C96.3 97.7 86.2 85 72.4 81v-3.4a23.69 23.69 0 0 0 14.3-21c1.8-.2 3.4-1.2 4.4-2.7h8.4v14c0 2.6 2.1 4.7 4.7 4.7h11.5v44.9H96.3zM128 67.9c0 1.8-1.4 3.2-3.2 3.2h-20.4c-1.8 0-3.2-1.4-3.2-3.2V16.7c0-.3-.1-.5-.4-.6l-5-2.9 5-2.9c.2-.1.4-.4.4-.6v-2c0-1.8 1.4-3.2 3.2-3.2h20.4c1.8 0 3.2 1.4 3.2 3.2v60.2z" class="C"></path><path d="M104.7 16.3h2.5" class="B"></path><path d="M104.7 15.6h2.5v1.5h-2.5z" class="C"></path><path d="M109 16.3h15.3" class="B"></path><path d="M109 15.6h15.3v1.5H109z" class="C"></path><path d="M104.7 22.5h2.5" class="B"></path><path d="M104.7 21.7h2.5v1.5h-2.5z" class="C"></path><path d="M109 22.5h15.3" class="B"></path><path d="M109 21.7h15.3v1.5H109z" class="C"></path><path d="M104.7 28.6h2.5" class="B"></path><path d="M104.7 27.9h2.5v1.5h-2.5z" class="C"></path><path d="M109 28.6h15.3" class="B"></path><path d="M109 27.9h15.3v1.5H109z" class="C"></path><path d="M104.7 34.7h2.5" class="B"></path><path d="M104.7 34h2.5v1.5h-2.5z" class="C"></path><path d="M109 34.7h15.3" class="B"></path><path d="M109 34h15.3v1.5H109z" class="C"></path><path d="M104.7 40.9h2.5" class="B"></path><path d="M104.7 40.1h2.5v1.5h-2.5z" class="C"></path><path d="M109 40.9h15.3" class="B"></path><path d="M109 40.1h15.3v1.5H109z" class="C"></path><path d="M104.7 47h2.5" class="B"></path><path d="M104.7 46.3h2.5v1.5h-2.5z" class="C"></path><path d="M109 47h15.3" class="B"></path><path d="M109 46.3h15.3v1.5H109z" class="C"></path><path d="M104.7 53.1h2.5" class="B"></path><path d="M104.7 52.4h2.5v1.5h-2.5z" class="C"></path><path d="M109 53.1h15.3" class="B"></path><path d="M109 52.4h15.3v1.5H109z" class="C"></path><path d="M104.7 59.3h2.5" class="B"></path><path d="M104.7 58.5h2.5V60h-2.5z" class="C"></path><path d="M109 59.3h15.3" class="B"></path><path d="M109 58.5h15.3V60H109zM7.2 42.7c-.2 0-.4-.1-.5-.2-.3-.3-.3-.8 0-1.1L8 40.1c.3-.3.8-.3 1.1 0s.3.8 0 1.1l-1.3 1.3c-.2.1-.4.2-.6.2zm-4 4c-.2 0-.4-.1-.5-.2-.3-.3-.3-.8 0-1.1L4 44.1c.3-.3.8-.3 1.1 0s.3.8 0 1.1l-1.3 1.3c-.2.1-.4.2-.6.2zm5.3 0c-.2 0-.4-.1-.5-.2l-1.3-1.3c-.3-.3-.3-.8 0-1.1s.8-.3 1.1 0l1.3 1.3c.3.3.3.8 0 1.1-.2.1-.4.2-.6.2zm-4-4c-.2 0-.4-.1-.5-.2l-1.3-1.3c-.3-.3-.3-.8 0-1.1s.8-.3 1.1 0L5 41.4c.3.3.3.8 0 1.1-.1.1-.3.2-.5.2zM89.6 3.1c-.2 0-.4-.1-.5-.2-.3-.3-.3-.8 0-1.1L90.4.5c.3-.3.8-.3 1.1 0s.3.8 0 1.1l-1.3 1.3c-.2.2-.4.2-.6.2zm-4 4.1c-.2 0-.4-.1-.5-.2-.3-.3-.3-.8 0-1.1l1.3-1.3c.3-.3.8-.3 1.1 0s.3.8 0 1.1L86.2 7c-.2.1-.4.2-.6.2zm5.3 0c-.2 0-.4-.1-.5-.2l-1.3-1.3c-.3-.3-.3-.8 0-1.1s.8-.3 1.1 0l1.3 1.3c.3.3.3.8 0 1.1-.2.1-.4.2-.6.2zm-4-4.1c-.2 0-.4-.1-.5-.2l-1.3-1.3c-.3-.3-.3-.8 0-1.1s.8-.3 1.1 0l1.3 1.3c.3.3.3.8 0 1.1-.2.2-.4.2-.6.2zm-81 95.6c-.2 0-.4-.1-.5-.2-.3-.3-.3-.8 0-1.1l1.3-1.3c.3-.3.8-.3 1.1 0s.3.8 0 1.1l-1.3 1.3c-.2.2-.4.2-.6.2zm-4.1 4.1c-.2 0-.4-.1-.5-.2-.3-.3-.3-.8 0-1.1l1.3-1.3c.3-.3.8-.3 1.1 0s.3.8 0 1.1l-1.3 1.3c-.2.1-.4.2-.6.2zm5.4 0c-.2 0-.4-.1-.5-.2l-1.3-1.3c-.3-.3-.3-.8 0-1.1s.8-.3 1.1 0l1.3 1.3c.3.3.3.8 0 1.1-.3.1-.4.2-.6.2zm-4.1-4.1c-.2 0-.4-.1-.5-.2l-1.3-1.3c-.3-.3-.3-.8 0-1.1s.8-.3 1.1 0l1.3 1.3c.3.3.3.8 0 1.1-.2.2-.4.2-.6.2z" class="C"></path><circle cx="22" cy="43.3" r="2" class="D"></circle><circle fill="#ffd05b" cx="2.8" cy="78.7" r="1.7"></circle><circle cx="125.6" cy="80.7" r="1.7" class="D"></circle><path d="M92.2 78.3h-8.1c-.4 0-.8-.3-.8-.8 0-.4.3-.8.8-.8h8.1c.4 0 .8.3.8.8 0 .4-.4.8-.8.8zm3.2 2.9h-4c-.4 0-.8-.3-.8-.8 0-.4.3-.8.8-.8h4c.4 0 .8.3.8.8s-.4.8-.8.8zm4.3-2.9h-3.8c-.4 0-.8-.3-.8-.8 0-.4.3-.8.8-.8h3.8c.4 0 .8.3.8.8-.1.4-.4.8-.8.8zm-11.1 2.9h-.8c-.4 0-.8-.3-.8-.8 0-.4.3-.8.8-.8h.8c.4 0 .8.3.8.8-.1.5-.4.8-.8.8zM33.1 80H25c-.4 0-.8-.3-.8-.8 0-.4.3-.8.8-.8h8.1c.4 0 .8.3.8.8-.1.4-.4.8-.8.8zm3.2 2.9h-4c-.4 0-.7-.3-.7-.8 0-.4.3-.8.7-.8h4c.4 0 .8.3.8.8-.1.5-.4.8-.8.8zm4.2-2.9h-3.8c-.4 0-.8-.3-.8-.8 0-.4.3-.8.8-.8h3.8c.4 0 .8.3.8.8 0 .4-.4.8-.8.8zm-11.1 2.9h-.8c-.4 0-.8-.3-.8-.8 0-.4.3-.8.8-.8h.8c.4 0 .8.3.8.8s-.4.8-.8.8z" class="B"></path></svg> 