<?xml version="1.0" encoding="UTF-8" standalone="no"?>
<svg
   xmlns:dc="http://purl.org/dc/elements/1.1/"
   xmlns:cc="http://creativecommons.org/ns#"
   xmlns:rdf="http://www.w3.org/1999/02/22-rdf-syntax-ns#"
   xmlns:svg="http://www.w3.org/2000/svg"
   xmlns="http://www.w3.org/2000/svg"
   xmlns:sodipodi="http://sodipodi.sourceforge.net/DTD/sodipodi-0.dtd"
   xmlns:inkscape="http://www.inkscape.org/namespaces/inkscape"
   width="60.098mm"
   height="42.012001mm"
   viewBox="0 0 60.098 42.012001"
   version="1.1"
   id="svg8"
   inkscape:version="1.0.1 (3bc2e813f5, 2020-09-07)"
   sodipodi:docname="asset.svg">
  <defs
     id="defs2" />
  <sodipodi:namedview
     id="base"
     pagecolor="#ffffff"
     bordercolor="#666666"
     borderopacity="1.0"
     inkscape:pageopacity="0.0"
     inkscape:pageshadow="2"
     inkscape:zoom="0.7"
     inkscape:cx="199.21074"
     inkscape:cy="345.08078"
     inkscape:document-units="mm"
     inkscape:current-layer="layer1"
     inkscape:document-rotation="0"
     showgrid="false"
     inkscape:pagecheckerboard="true"
     inkscape:window-width="1920"
     inkscape:window-height="1001"
     inkscape:window-x="-9"
     inkscape:window-y="-9"
     inkscape:window-maximized="1" />
  <metadata
     id="metadata5">
    <rdf:RDF>
      <cc:Work
         rdf:about="">
        <dc:format>image/svg+xml</dc:format>
        <dc:type
           rdf:resource="http://purl.org/dc/dcmitype/StillImage" />
        <dc:title></dc:title>
      </cc:Work>
    </rdf:RDF>
  </metadata>
  <g
     inkscape:label="Layer 1"
     inkscape:groupmode="layer"
     id="layer1">
    <g
       id="g4220">
      <g
         id="BG_3"
         transform="scale(0.240392,0.168048)">
	<rect
   id="XMLID_1_"
   fill="#ffffff"
   width="250"
   height="250"
   x="0"
   y="0" />

</g>
      <g
         id="Services"
         transform="matrix(0.26458333,0,0,0.26458333,-3.381104,-10.823375)">
	
		
	<g
   id="XMLID_304_">
		<path
   id="XMLID_10_"
   fill="#edf0f4"
   d="m 31,81.8 h 183.4 c 4.8,0 8.7,3.9 8.7,8.7 v 0 c 0,4.8 -3.9,8.7 -8.7,8.7 h -35.8 c -4.2,0 -7.6,3.4 -7.6,7.6 v 0 c 0,4.2 3.4,7.6 7.6,7.6 h 43.9 c 4.6,0 8.4,3.7 8.4,8.4 v 0 c 0,4.6 -3.7,8.4 -8.4,8.4 h -22 v 0 c 0,8.4 -6.8,15.2 -15.2,15.2 v 0 c -3.7,0 -6.7,3 -6.7,6.7 V 171 H 82.3 v -1.5 c 0,-8.9 -7.2,-16.2 -16.1,-16.3 l -27.8,-0.3 c -5.1,-0.1 -9.2,-4.2 -9.2,-9.3 v 0 c 0,-5.1 4.2,-9.3 9.3,-9.3 h 27.7 v 0 c 0,-8.5 6.9,-15.3 15.3,-15.3 h 1.3 c 5.1,0 9.3,-4.2 9.3,-9.3 v 0 c 0,-5.1 -4.2,-9.3 -9.3,-9.3 H 31 c -5.1,0 -9.2,-4.1 -9.2,-9.2 v 0 c 0,-5.3 4.1,-9.4 9.2,-9.4 z" />

		<g
   id="XMLID_110_">
			<g
   id="XMLID_117_">
				<path
   id="XMLID_132_"
   fill="#bcbec0"
   d="M 196.9,170.7 V 92.5 c 0,-2.1 -1.7,-3.8 -3.8,-3.8 h -56.9 c -2.1,0 -3.8,1.7 -3.8,3.8 v 78.2 z" />

				<path
   id="XMLID_131_"
   fill="#ffffff"
   d="M 191.6,170.7 V 92.5 c 0,-2.1 -1.5,-3.8 -3.3,-3.8 h -48.2 c -1.8,0 -3.3,1.7 -3.3,3.8 v 78.2 z" />

				<path
   id="XMLID_130_"
   fill="#bcbec0"
   d="m 132.3,98.6 v -6.7 c 0,-1.8 1.4,-3.2 3.2,-3.2 h 58.1 c 1.8,0 3.2,1.4 3.2,3.2 v 6.7 z" />

				<path
   id="XMLID_129_"
   fill="none"
   stroke="#414042"
   stroke-width="1.5"
   stroke-miterlimit="10"
   d="m 132.3,99.9 v -8 c 0,-1.8 1.4,-3.2 3.2,-3.2 h 6.8 1.8" />

				<path
   id="XMLID_128_"
   fill="none"
   stroke="#414042"
   stroke-width="1.5"
   stroke-miterlimit="10"
   d="m 155.3,88.6 h 38.3 c 1.8,0 3.2,1.4 3.2,3.2 v 78.9" />

				
					<line
   id="XMLID_127_"
   fill="none"
   stroke="#414042"
   stroke-width="1.5"
   stroke-miterlimit="10"
   x1="147.2"
   y1="88.599998"
   x2="151.7"
   y2="88.599998" />

				
					<line
   id="XMLID_126_"
   fill="none"
   stroke="#414042"
   stroke-width="1.5"
   stroke-miterlimit="10"
   x1="132.3"
   y1="98.800003"
   x2="196.89999"
   y2="98.800003" />

				
					<line
   id="XMLID_125_"
   fill="none"
   stroke="#414042"
   stroke-width="1.5"
   stroke-miterlimit="10"
   x1="139.7"
   y1="94.199997"
   x2="141.2"
   y2="94.199997" />

				
					<line
   id="XMLID_124_"
   fill="none"
   stroke="#414042"
   stroke-width="1.5"
   stroke-miterlimit="10"
   x1="144.10001"
   y1="94.199997"
   x2="145.60001"
   y2="94.199997" />

				
					<line
   id="XMLID_53_"
   fill="none"
   stroke="#414042"
   stroke-width="1.5"
   stroke-miterlimit="10"
   x1="148.39999"
   y1="94.199997"
   x2="149.89999"
   y2="94.199997" />

				<rect
   id="XMLID_122_"
   x="141"
   y="106.2"
   fill="#ffb936"
   width="47.299999"
   height="18.6" />

				<rect
   id="XMLID_121_"
   x="141"
   y="136.7"
   fill="#00d4ff"
   width="14.4"
   height="18.6" />

				<rect
   id="XMLID_120_"
   x="157.39999"
   y="136.7"
   fill="#e6e7e8"
   width="14.4"
   height="18.6" />

				<rect
   id="XMLID_119_"
   x="173.8"
   y="136.7"
   fill="#00d4ff"
   width="14.4"
   height="18.6" />

			</g>

		</g>

		<g
   id="XMLID_29_">
			
				<line
   id="XMLID_31_"
   fill="none"
   stroke="#414042"
   stroke-width="1.5"
   stroke-linecap="round"
   stroke-miterlimit="10"
   x1="200.10001"
   y1="105.2"
   x2="204.39999"
   y2="105.2" />

			
				<line
   id="XMLID_30_"
   fill="none"
   stroke="#414042"
   stroke-width="1.5"
   stroke-linecap="round"
   stroke-miterlimit="10"
   x1="202.2"
   y1="107.4"
   x2="202.2"
   y2="103.1" />

		</g>

		<g
   id="XMLID_16_">
			
				<line
   id="XMLID_44_"
   fill="none"
   stroke="#414042"
   stroke-width="1.5"
   stroke-linecap="round"
   stroke-miterlimit="10"
   x1="71.599998"
   y1="71.900002"
   x2="75.900002"
   y2="71.900002" />

			
				<line
   id="XMLID_17_"
   fill="none"
   stroke="#414042"
   stroke-width="1.5"
   stroke-linecap="round"
   stroke-miterlimit="10"
   x1="73.800003"
   y1="74.099998"
   x2="73.800003"
   y2="69.800003" />

		</g>

		<g
   id="XMLID_21_">
			
				<line
   id="XMLID_23_"
   fill="none"
   stroke="#414042"
   stroke-width="1.5"
   stroke-linecap="round"
   stroke-miterlimit="10"
   x1="139.60001"
   y1="79.599998"
   x2="142.60001"
   y2="76.599998" />

			
				<line
   id="XMLID_22_"
   fill="none"
   stroke="#414042"
   stroke-width="1.5"
   stroke-linecap="round"
   stroke-miterlimit="10"
   x1="142.60001"
   y1="79.599998"
   x2="139.60001"
   y2="76.599998" />

		</g>

		<g
   id="XMLID_7_">
			
				<line
   id="XMLID_9_"
   fill="none"
   stroke="#414042"
   stroke-width="1.5"
   stroke-linecap="round"
   stroke-miterlimit="10"
   x1="33.799999"
   y1="125.8"
   x2="36.799999"
   y2="122.8" />

			
				<line
   id="XMLID_8_"
   fill="none"
   stroke="#414042"
   stroke-width="1.5"
   stroke-linecap="round"
   stroke-miterlimit="10"
   x1="36.799999"
   y1="125.8"
   x2="33.799999"
   y2="122.8" />

		</g>

		
			<line
   id="XMLID_26_"
   fill="none"
   stroke="#414042"
   stroke-width="1.5"
   stroke-miterlimit="10"
   x1="208.3"
   y1="105.2"
   x2="225.7"
   y2="105.2" />

		
			<line
   id="XMLID_3_"
   fill="none"
   stroke="#414042"
   stroke-width="1.5"
   stroke-miterlimit="10"
   x1="39.5"
   y1="124.3"
   x2="60.299999"
   y2="124.3" />

		
			<line
   id="XMLID_123_"
   fill="none"
   stroke="#414042"
   stroke-width="1.5"
   stroke-miterlimit="10"
   x1="95.699997"
   y1="78.099998"
   x2="136.5"
   y2="78.099998" />

		
			<line
   id="XMLID_36_"
   fill="none"
   stroke="#414042"
   stroke-width="1.5"
   stroke-miterlimit="10"
   x1="230.8"
   y1="105.2"
   x2="227.2"
   y2="105.2" />

		
			<line
   id="XMLID_5_"
   fill="none"
   stroke="#414042"
   stroke-width="1.5"
   stroke-miterlimit="10"
   x1="105.4"
   y1="71.900002"
   x2="88"
   y2="71.900002" />

		
			<line
   id="XMLID_4_"
   fill="none"
   stroke="#414042"
   stroke-width="1.5"
   stroke-miterlimit="10"
   x1="82.900002"
   y1="71.900002"
   x2="86.5"
   y2="71.900002" />

		<path
   id="XMLID_118_"
   fill="#414042"
   d="m 47.8,144.5 c 0,0.7 -0.6,1.3 -1.3,1.3 -0.7,0 -1.3,-0.6 -1.3,-1.3 0,-0.7 0.6,-1.3 1.3,-1.3 0.7,0.1 1.3,0.6 1.3,1.3 z" />

		<path
   id="XMLID_11_"
   fill="#414042"
   d="m 118.5,97 c 0,0.5 -0.4,0.9 -0.9,0.9 -0.5,0 -0.9,-0.4 -0.9,-0.9 0,-0.5 0.4,-0.9 0.9,-0.9 0.5,0 0.9,0.4 0.9,0.9 z" />

		<path
   id="XMLID_303_"
   fill="#414042"
   d="m 161.1,71.9 c 0,0.5 -0.4,0.9 -0.9,0.9 -0.5,0 -0.9,-0.4 -0.9,-0.9 0,-0.5 0.4,-0.9 0.9,-0.9 0.5,0 0.9,0.4 0.9,0.9 z" />

		<path
   id="XMLID_14_"
   fill="#414042"
   d="m 214.6,125.8 c 0,0.5 -0.4,0.9 -0.9,0.9 -0.5,0 -0.9,-0.4 -0.9,-0.9 0,-0.5 0.4,-0.9 0.9,-0.9 0.5,0 0.9,0.4 0.9,0.9 z" />

		<path
   id="XMLID_12_"
   fill="#414042"
   d="m 58.2,76.6 c 0,0.7 -0.5,1.2 -1.2,1.2 -0.7,0 -1.2,-0.5 -1.2,-1.2 0,-0.7 0.5,-1.2 1.2,-1.2 0.6,0 1.2,0.5 1.2,1.2 z" />

		<path
   id="XMLID_13_"
   fill="#414042"
   d="m 203.5,141.9 c 0,0.7 -0.5,1.2 -1.2,1.2 -0.7,0 -1.2,-0.5 -1.2,-1.2 0,-0.7 0.5,-1.2 1.2,-1.2 0.6,0 1.2,0.5 1.2,1.2 z" />

		<path
   id="XMLID_295_"
   opacity="0.3"
   fill="#414042"
   d="m 159.7,101.7 c -0.8,-0.6 -1.8,-1 -2.8,-1 h -24.6 v 70 h 4.6 1 V 170 h -4.2 v -11.2 h 21.2 V 158 h 4 c 1.1,0 2,-0.9 2,-2 v -7 -1.7 -23.5 h 0.8 v -18.5 c 0,-1.1 -0.4,-2 -1,-2.8 -0.4,-0.4 -0.6,-0.6 -1,-0.8 z" />

		<g
   id="XMLID_18_">
			<path
   id="XMLID_701_"
   fill="#58595b"
   d="m 158.8,149 h -80 v -45.6 c 0,-1.1 0.9,-2 2,-2 h 76 c 1.1,0 2,0.9 2,2 z" />

			
				<line
   id="XMLID_205_"
   fill="none"
   stroke="#414042"
   stroke-width="1.5"
   stroke-miterlimit="10"
   x1="78.800003"
   y1="128"
   x2="78.800003"
   y2="119.3" />

			<path
   id="XMLID_197_"
   fill="none"
   stroke="#414042"
   stroke-width="1.5"
   stroke-miterlimit="10"
   d="m 95.7,101.4 h 59.2 c 2.1,0 3.9,1.7 3.9,3.9 v 18.5" />

			<rect
   id="XMLID_697_"
   x="83.099998"
   y="106.1"
   fill="#ffffff"
   width="71.400002"
   height="37.599998" />

			<rect
   id="XMLID_684_"
   x="106.7"
   y="156.2"
   fill="#ffffff"
   width="24.1"
   height="14.3" />

			<rect
   id="XMLID_683_"
   x="106.7"
   y="156.2"
   fill="#d1d3d4"
   width="24.1"
   height="7.0999999" />

			
				<rect
   id="XMLID_682_"
   x="106.7"
   y="156.2"
   fill="none"
   stroke="#414042"
   stroke-width="1.5"
   stroke-miterlimit="10"
   width="24.1"
   height="14.3" />

			<path
   id="XMLID_681_"
   fill="#ffffff"
   d="m 158.8,147.3 h -80 v 8.8 c 0,1.1 0.9,2 2,2 h 76 c 1.1,0 2,-0.9 2,-2 z" />

			
				<line
   id="XMLID_222_"
   fill="none"
   stroke="#414042"
   stroke-width="1.5"
   stroke-miterlimit="10"
   x1="90.300003"
   y1="158.10001"
   x2="152.8"
   y2="158.10001" />

			
				<line
   id="XMLID_219_"
   fill="none"
   stroke="#414042"
   stroke-width="1.5"
   stroke-miterlimit="10"
   x1="146.3"
   y1="147.3"
   x2="90.300003"
   y2="147.3" />

			
				<line
   id="XMLID_679_"
   fill="none"
   stroke="#414042"
   stroke-width="1.5"
   stroke-miterlimit="10"
   x1="102"
   y1="170.8"
   x2="135.8"
   y2="170.8" />

		</g>

		<g
   id="XMLID_50_">
			<rect
   id="XMLID_60_"
   x="173.2"
   y="133"
   fill="#ffffff"
   width="2.0999999"
   height="18.200001" />

			<path
   id="XMLID_59_"
   fill="#ffb936"
   d="m 174.8,170.8 h -1.2 c -1.4,0 -2.6,-1.1 -2.6,-2.6 v -16.9 h 6.3 v 16.9 c 0,1.4 -1.1,2.6 -2.5,2.6 z" />

			<path
   id="XMLID_57_"
   fill="none"
   stroke="#414042"
   stroke-width="1.5"
   stroke-miterlimit="10"
   d="m 174.8,170.8 h -1.2 c -1.4,0 -2.6,-1.1 -2.6,-2.6 v -16.9 h 6.3 v 16.9 c 0,1.4 -1.1,2.6 -2.5,2.6 z" />

			
				<line
   id="XMLID_56_"
   fill="none"
   stroke="#414042"
   stroke-width="1.5"
   stroke-miterlimit="10"
   x1="169.2"
   y1="151.3"
   x2="179.2"
   y2="151.3" />

			<polygon
   id="XMLID_54_"
   fill="#ffffff"
   points="172.8,127.1 175.5,127.1 175.9,133.3 172.4,133.3 " />

			<polygon
   id="XMLID_51_"
   fill="none"
   stroke="#414042"
   stroke-width="1.5"
   stroke-miterlimit="10"
   points="175.2,133.3 175.9,133.3 175.5,127.1 172.8,127.1 172.4,133.3 173.2,133.3 173.2,151.2 175.2,151.2 " />

		</g>

		<g
   id="XMLID_45_">
			<path
   id="XMLID_49_"
   fill="#6d6e71"
   d="m 195.9,135.8 c 0,-3.3 -1.9,-6.1 -4.6,-7.4 v 7.2 l -3.7,2.1 -3.7,-2.1 v -7.2 c -2.7,1.4 -4.6,4.2 -4.6,7.4 0,3.4 2.1,6.3 5,7.6 v 24.1 c 0,1.8 1.5,3.3 3.3,3.3 1.8,0 3.3,-1.5 3.3,-3.3 v -24.1 c 2.9,-1.3 5,-4.2 5,-7.6 z" />

			<path
   id="XMLID_48_"
   fill="none"
   stroke="#414042"
   stroke-width="1.5"
   stroke-miterlimit="10"
   d="m 195.9,135.8 c 0,-3.3 -1.9,-6.1 -4.6,-7.4 v 7.2 l -3.7,2.1 -3.7,-2.1 v -7.2 c -2.7,1.4 -4.6,4.2 -4.6,7.4 0,3.4 2.1,6.3 5,7.6 v 24.1 c 0,1.8 1.5,3.3 3.3,3.3 1.8,0 3.3,-1.5 3.3,-3.3 v -24.1 c 2.9,-1.3 5,-4.2 5,-7.6 z" />

		</g>

		<path
   id="XMLID_301_"
   opacity="0.3"
   fill="#414042"
   d="m 87.7,128.8 h -9 v 18.5 1.7 7.1 c 0,1.1 0.9,2 2,2 h 9.5 v 0.8 h 1.2 v -26.3 c 0,-2.2 -1.6,-3.8 -3.7,-3.8 z" />

		<g
   id="XMLID_19_">
			<path
   id="XMLID_35_"
   fill="#ffffff"
   d="m 55,170.8 h 33.7 v -39 c 0,-1.2 -1,-2.2 -2.2,-2.2 H 57.2 c -1.2,0 -2.2,1 -2.2,2.2 z" />

			<path
   id="XMLID_34_"
   fill="none"
   stroke="#414042"
   stroke-width="1.5"
   stroke-miterlimit="10"
   d="m 62.1,129.5 h -4.2 c -1.6,0 -2.9,1.3 -2.9,2.9 v 33.8" />

			
				<line
   id="XMLID_33_"
   fill="none"
   stroke="#414042"
   stroke-width="1.5"
   stroke-miterlimit="10"
   x1="69.800003"
   y1="129.5"
   x2="64.900002"
   y2="129.5" />

			<path
   id="XMLID_340_"
   fill="none"
   stroke="#414042"
   stroke-width="1.5"
   stroke-miterlimit="10"
   d="m 88.7,166.3 v -33.8 c 0,-1.6 -1.3,-2.9 -2.9,-2.9 H 71.1" />

			<rect
   id="XMLID_339_"
   x="57.700001"
   y="135.7"
   fill="#58595b"
   width="28.1"
   height="35" />

			
				<line
   id="XMLID_32_"
   fill="none"
   stroke="#414042"
   stroke-width="1.5"
   stroke-miterlimit="10"
   x1="68.199997"
   y1="133.2"
   x2="75.400002"
   y2="133.2" />

			<path
   id="XMLID_27_"
   fill="#00d4ff"
   d="m 90.6,170.8 v -1.1 c 0,-1.1 -0.9,-2 -2,-2 h -3 c -0.4,-1.6 -1,-3.1 -1.8,-4.4 l 2.2,-2.2 c 0.8,-0.8 0.8,-2 0,-2.8 l -1.6,-1.6 c -0.8,-0.8 -2,-0.8 -2.8,0 l -2.2,2.2 c -1.3,-0.8 -2.8,-1.5 -4.4,-1.8 v -3 c 0,-1.1 -0.9,-2 -2,-2 h -2.3 c -1.1,0 -2,0.9 -2,2 v 3 c -1.6,0.4 -3,1 -4.3,1.8 l -2.1,-2.2 c -0.8,-0.8 -2,-0.8 -2.8,0 l -1.6,1.6 c -0.8,0.8 -0.8,2 0,2.8 l 2.1,2.2 c -0.8,1.3 -1.5,2.8 -1.8,4.4 h -3 c -1.1,0 -2,0.9 -2,2 v 1.2 h 12.5 c 0,-3.5 2.8,-6.2 6.3,-6.2 3.5,0 6.3,2.8 6.3,6.2 h 12.3 z" />

			<path
   id="XMLID_20_"
   fill="none"
   stroke="#414042"
   stroke-width="1.5"
   stroke-miterlimit="10"
   d="m 90.6,170.8 v -1.1 c 0,-1.1 -0.9,-2 -2,-2 h -3 c -0.4,-1.6 -1,-3.1 -1.8,-4.4 l 2.2,-2.2 c 0.8,-0.8 0.8,-2 0,-2.8 l -1.6,-1.6 c -0.8,-0.8 -2,-0.8 -2.8,0 l -2.2,2.2 c -1.3,-0.8 -2.8,-1.5 -4.4,-1.8 v -3 c 0,-1.1 -0.9,-2 -2,-2 h -2.3 c -1.1,0 -2,0.9 -2,2 v 3 c -1.6,0.4 -3,1 -4.3,1.8 l -2.1,-2.2 c -0.8,-0.8 -2,-0.8 -2.8,0 l -1.6,1.6 c -0.8,0.8 -0.8,2 0,2.8 l 2.1,2.2 c -0.8,1.3 -1.5,2.8 -1.8,4.4 h -3 c -1.1,0 -2,0.9 -2,2 v 1.2 m 12.4,-0.1 c 0,-3.5 2.8,-6.2 6.3,-6.2 3.5,0 6.3,2.8 6.3,6.2" />

		</g>

		<g
   id="XMLID_37_">
			
				<line
   id="XMLID_767_"
   fill="none"
   stroke="#414042"
   stroke-width="1.5"
   stroke-miterlimit="10"
   x1="157.60001"
   y1="150.60001"
   x2="157.60001"
   y2="155.7" />

			<path
   id="XMLID_764_"
   fill="#6d6e71"
   d="m 157.6,126.2 c -6.9,0 -12.5,5.6 -12.5,12.5 0,6.9 5.6,12.5 12.5,12.5 6.9,0 12.5,-5.6 12.5,-12.5 0,-6.9 -5.6,-12.5 -12.5,-12.5 z m 0,22 c -5.2,0 -9.5,-4.3 -9.5,-9.5 0,-5.2 4.3,-9.5 9.5,-9.5 5.2,0 9.5,4.3 9.5,9.5 0,5.2 -4.2,9.5 -9.5,9.5 z" />

			<path
   id="XMLID_114_"
   fill="none"
   stroke="#414042"
   stroke-width="1.5"
   stroke-miterlimit="10"
   d="m 164.7,128.4 c -2,-1.4 -4.4,-2.2 -7,-2.2 -6.9,0 -12.5,5.6 -12.5,12.5 0,6.9 5.6,12.5 12.5,12.5 6.9,0 12.5,-5.6 12.5,-12.5" />

			<path
   id="XMLID_113_"
   fill="none"
   stroke="#414042"
   stroke-width="1.5"
   stroke-miterlimit="10"
   d="m 169.8,135.9 c -0.5,-2.2 -1.6,-4.2 -3.1,-5.8" />

			<path
   id="XMLID_762_"
   fill="none"
   stroke="#414042"
   stroke-width="1.5"
   stroke-miterlimit="10"
   d="m 156.5,130.7 c 4.7,0 8.6,3.8 8.6,8.6" />

			<path
   id="XMLID_761_"
   fill="#00d4ff"
   d="m 155.2,154.2 v 15.1 c 0,0.8 0.6,1.4 1.4,1.4 h 2 c 0.8,0 1.4,-0.6 1.4,-1.4 v -15.1 z" />

			<path
   id="XMLID_40_"
   fill="none"
   stroke="#414042"
   stroke-width="1.5"
   stroke-miterlimit="10"
   d="m 155.2,154.2 v 15.1 c 0,0.8 0.6,1.4 1.4,1.4 h 2 c 0.8,0 1.4,-0.6 1.4,-1.4 v -15.1 z" />

			
				<line
   id="XMLID_758_"
   fill="none"
   stroke="#414042"
   stroke-width="1.5"
   stroke-miterlimit="10"
   x1="155.10001"
   y1="157.8"
   x2="160.2"
   y2="157.8" />

			
				<line
   id="XMLID_39_"
   fill="none"
   stroke="#414042"
   stroke-width="1.5"
   stroke-miterlimit="10"
   x1="155.10001"
   y1="160.3"
   x2="160.2"
   y2="160.3" />

		</g>

		<g
   id="XMLID_198_"
   opacity="0.3">
			<path
   id="XMLID_289_"
   fill="#414042"
   d="m 94.8,120.1 c 0.4,0.1 0.9,0 1.2,-0.3 0.3,-0.3 0.3,-0.8 0.1,-1.2 l -5.5,-8.4 c 1.2,-2.8 1.6,-5.8 1.3,-8.7 h -11 c -1.1,0 -2,0.9 -2,2 v 15.9 H 78 v 0.6 c 2.6,-0.4 5.1,-1.5 7.3,-3.2 z" />

		</g>

		<g
   id="XMLID_61_">
			<path
   id="XMLID_88_"
   fill="#ffffff"
   d="m 63.9,114.5 c -7,-5.4 -8.2,-15.5 -2.8,-22.4 5.4,-7 15.5,-8.2 22.4,-2.8 6,4.7 7.8,12.8 4.7,19.4 l 5.7,8.8 c 0.1,0.2 -0.1,0.5 -0.3,0.4 l -9.9,-3.5 c -5.7,4.5 -13.9,4.7 -19.8,0.1 z" />

			<path
   id="XMLID_83_"
   fill="none"
   stroke="#414042"
   stroke-width="1.5"
   stroke-miterlimit="10"
   d="m 67.9,87 c 5.1,-2 11,-1.3 15.6,2.3 6,4.7 7.8,12.8 4.7,19.4 l 5.7,8.8 c 0.1,0.2 -0.1,0.5 -0.3,0.4 l -9.9,-3.5 c -5.6,4.5 -13.8,4.7 -19.8,0.1 C 57.2,109.3 55.8,99.9 60.4,93" />

			<path
   id="XMLID_78_"
   fill="none"
   stroke="#414042"
   stroke-width="1.5"
   stroke-miterlimit="10"
   d="m 61.7,91.3 c 0.3,-0.3 0.5,-0.6 0.8,-0.9 1,-1 2.1,-1.8 3.2,-2.4" />

			<path
   id="XMLID_77_"
   fill="#ffb936"
   d="m 62.5,101.9 c 0,6.2 5,11.3 11.3,11.3 6.2,0 11.3,-5 11.3,-11.3 0,-6.3 -5,-11.3 -11.3,-11.3 -6.2,0 -11.3,5.1 -11.3,11.3 z" />

			<g
   id="XMLID_107_">
				<g
   id="XMLID_461_">
					<path
   id="XMLID_463_"
   fill="#ffffff"
   d="m 75.4,104.2 h -2.7 v -1.3 c 0,-0.5 0.1,-0.9 0.2,-1.1 0.1,-0.2 0.4,-0.6 0.8,-1 l 1.2,-1.2 c 0.2,-0.2 0.3,-0.5 0.3,-0.8 0,-0.3 -0.1,-0.6 -0.3,-0.8 -0.2,-0.2 -0.4,-0.3 -0.7,-0.3 -0.3,0 -0.6,0.1 -0.8,0.4 C 73.1,98.2 73,98.6 73,99 h -2.8 c 0.1,-1.2 0.6,-2.1 1.3,-2.8 0.7,-0.7 1.7,-1 2.8,-1 1.1,0 2,0.3 2.7,0.9 0.7,0.6 1,1.4 1,2.5 0,0.5 -0.1,0.8 -0.2,1.1 -0.1,0.2 -0.2,0.4 -0.2,0.5 0,0.1 -0.2,0.3 -0.3,0.5 -0.2,0.2 -0.3,0.3 -0.3,0.4 -0.3,0.3 -0.6,0.6 -0.8,0.8 -0.3,0.2 -0.4,0.5 -0.5,0.6 -0.1,0.2 -0.1,0.4 -0.1,0.7 v 1 z m -2.4,3.4 c -0.3,-0.3 -0.5,-0.7 -0.5,-1.1 0,-0.4 0.2,-0.8 0.5,-1.1 0.3,-0.3 0.7,-0.5 1.1,-0.5 0.4,0 0.8,0.2 1.1,0.5 0.3,0.3 0.5,0.7 0.5,1.1 0,0.4 -0.2,0.8 -0.5,1.1 -0.3,0.3 -0.7,0.5 -1.1,0.5 -0.5,0 -0.8,-0.2 -1.1,-0.5 z" />

				</g>

			</g>

			
				<line
   id="XMLID_160_"
   fill="none"
   stroke="#414042"
   stroke-width="1.5"
   stroke-miterlimit="10"
   x1="73.900002"
   y1="82.599998"
   x2="73.800003"
   y2="84.5" />

			
				<line
   id="XMLID_62_"
   fill="none"
   stroke="#414042"
   stroke-width="1.5"
   stroke-miterlimit="10"
   x1="79.199997"
   y1="81.5"
   x2="78.300003"
   y2="85.099998" />

			
				<line
   id="XMLID_165_"
   fill="none"
   stroke="#414042"
   stroke-width="1.5"
   stroke-miterlimit="10"
   x1="83.5"
   y1="85.099998"
   x2="82.5"
   y2="86.800003" />

			
				<line
   id="XMLID_168_"
   fill="none"
   stroke="#414042"
   stroke-width="1.5"
   stroke-miterlimit="10"
   x1="88.699997"
   y1="86.900002"
   x2="86.099998"
   y2="89.599998" />

			
				<line
   id="XMLID_194_"
   fill="none"
   stroke="#414042"
   stroke-width="1.5"
   stroke-miterlimit="10"
   x1="90.599998"
   y1="92.199997"
   x2="88.800003"
   y2="93.199997" />

			
				<line
   id="XMLID_195_"
   fill="none"
   stroke="#414042"
   stroke-width="1.5"
   stroke-miterlimit="10"
   x1="94.199997"
   y1="96.400002"
   x2="90.599998"
   y2="97.400002" />

			
				<line
   id="XMLID_196_"
   fill="none"
   stroke="#414042"
   stroke-width="1.5"
   stroke-miterlimit="10"
   x1="92.800003"
   y1="101.8"
   x2="91.199997"
   y2="101.9" />

			
				<line
   id="XMLID_225_"
   fill="none"
   stroke="#414042"
   stroke-width="1.5"
   stroke-miterlimit="10"
   x1="73.800003"
   y1="121.1"
   x2="73.900002"
   y2="119.3" />

			
				<line
   id="XMLID_228_"
   fill="none"
   stroke="#414042"
   stroke-width="1.5"
   stroke-miterlimit="10"
   x1="68.400002"
   y1="122.3"
   x2="69.400002"
   y2="118.7" />

			
				<line
   id="XMLID_273_"
   fill="none"
   stroke="#414042"
   stroke-width="1.5"
   stroke-miterlimit="10"
   x1="64.300003"
   y1="118.7"
   x2="65.199997"
   y2="117" />

			
				<line
   id="XMLID_274_"
   fill="none"
   stroke="#414042"
   stroke-width="1.5"
   stroke-miterlimit="10"
   x1="58.900002"
   y1="116.9"
   x2="61.599998"
   y2="114.3" />

			
				<line
   id="XMLID_275_"
   fill="none"
   stroke="#414042"
   stroke-width="1.5"
   stroke-miterlimit="10"
   x1="57.299999"
   y1="111.6"
   x2="58.799999"
   y2="110.7" />

			
				<line
   id="XMLID_276_"
   fill="none"
   stroke="#414042"
   stroke-width="1.5"
   stroke-miterlimit="10"
   x1="53.400002"
   y1="107.5"
   x2="57"
   y2="106.5" />

			
				<line
   id="XMLID_277_"
   fill="none"
   stroke="#414042"
   stroke-width="1.5"
   stroke-miterlimit="10"
   x1="54.5"
   y1="101.9"
   x2="56.400002"
   y2="102" />

			
				<line
   id="XMLID_280_"
   fill="none"
   stroke="#414042"
   stroke-width="1.5"
   stroke-miterlimit="10"
   x1="53.299999"
   y1="96.599998"
   x2="57"
   y2="97.5" />

			
				<line
   id="XMLID_281_"
   fill="none"
   stroke="#414042"
   stroke-width="1.5"
   stroke-miterlimit="10"
   x1="57"
   y1="92.400002"
   x2="58.700001"
   y2="93.300003" />

			
				<line
   id="XMLID_283_"
   fill="none"
   stroke="#414042"
   stroke-width="1.5"
   stroke-miterlimit="10"
   x1="58.700001"
   y1="87.099998"
   x2="61.400002"
   y2="89.699997" />

			
				<line
   id="XMLID_284_"
   fill="none"
   stroke="#414042"
   stroke-width="1.5"
   stroke-miterlimit="10"
   x1="64"
   y1="85.300003"
   x2="65"
   y2="86.900002" />

			
				<line
   id="XMLID_286_"
   fill="none"
   stroke="#414042"
   stroke-width="1.5"
   stroke-miterlimit="10"
   x1="68.099998"
   y1="81.599998"
   x2="69.099998"
   y2="85.199997" />

		</g>

		<g
   id="XMLID_481_">
			
				<line
   id="XMLID_38_"
   fill="none"
   stroke="#414042"
   stroke-width="1.5"
   stroke-miterlimit="10"
   x1="36.799999"
   y1="170.8"
   x2="39.5"
   y2="170.8" />

			
				<line
   id="XMLID_41_"
   fill="none"
   stroke="#414042"
   stroke-width="1.5"
   stroke-miterlimit="10"
   x1="206.7"
   y1="170.8"
   x2="212.8"
   y2="170.8" />

			
				<line
   id="XMLID_42_"
   fill="none"
   stroke="#414042"
   stroke-width="1.5"
   stroke-miterlimit="10"
   x1="41.400002"
   y1="170.8"
   x2="205.2"
   y2="170.8" />

		</g>

	</g>

</g>
    </g>
  </g>
</svg>
