<?xml version="1.0" encoding="UTF-8" standalone="no"?> <svg xmlns:dc="http://purl.org/dc/elements/1.1/" xmlns:cc="http://creativecommons.org/ns#" xmlns:rdf="http://www.w3.org/1999/02/22-rdf-syntax-ns#" xmlns:svg="http://www.w3.org/2000/svg" xmlns="http://www.w3.org/2000/svg" xmlns:sodipodi="http://sodipodi.sourceforge.net/DTD/sodipodi-0.dtd" xmlns:inkscape="http://www.inkscape.org/namespaces/inkscape" width="210.45399mm" height="160.13499mm" viewBox="0 0 210.45399 160.13499" version="1.1" id="svg9584" inkscape:version="0.92.3 (2405546, 2018-03-11)" sodipodi:docname="chemical mfg process.svg"><defs id="defs9578"></defs><metadata id="metadata9581"></metadata><g inkscape:label="Layer 1" inkscape:groupmode="layer" id="layer1" transform="translate(0,-136.865)"><g transform="matrix(3.5476725,0,0,3.5476725,584.74186,-1.9312454)" id="g9292"><rect style="fill:#f5dc26;stroke-width:0.26458332" x="-150.48366" y="45.499767" width="4.1010418" height="4.1010418" id="rect853"></rect><rect style="fill:#f5dc26;stroke-width:0.26458332" x="-150.48366" y="50.950188" width="4.1010418" height="4.1010418" id="rect855"></rect><rect style="fill:#f5dc26;stroke-width:0.26458332" x="-150.48366" y="56.427063" width="4.1010418" height="4.1010418" id="rect857"></rect><g transform="matrix(0.26458333,0,0,0.26458333,-172.60283,-28.292521)" id="g885"><g id="g867"><rect style="fill:#f16526;stroke:#44566b;stroke-width:2;stroke-miterlimit:10" x="159.89999" y="377.20001" stroke-miterlimit="10" width="69" height="16.200001" id="rect859"></rect><rect style="fill:#ffcc0a;stroke:#44566b;stroke-width:2;stroke-miterlimit:10" x="170.10001" y="377.20001" stroke-miterlimit="10" width="5.9000001" height="16.200001" id="rect861"></rect><rect style="fill:#ffcc0a;stroke:#44566b;stroke-width:2;stroke-miterlimit:10" x="178.2" y="377.20001" stroke-miterlimit="10" width="2.7" height="16.200001" id="rect863"></rect><rect style="fill:#ffcc0a;stroke:#44566b;stroke-width:2;stroke-miterlimit:10" x="216.5" y="377.20001" stroke-miterlimit="10" width="2.7" height="16.200001" id="rect865"></rect></g><g id="g875"><rect style="fill:#77c04b;stroke:#44566b;stroke-width:2;stroke-miterlimit:10" x="159.89999" y="358.39999" stroke-miterlimit="10" width="69" height="16.200001" id="rect869"></rect><rect style="fill:#77c04b;stroke:#44566b;stroke-width:2;stroke-miterlimit:10" x="178.2" y="358.39999" stroke-miterlimit="10" width="2.7" height="16.200001" id="rect871"></rect><rect style="fill:#77c04b;stroke:#44566b;stroke-width:2;stroke-miterlimit:10" x="216.5" y="358.39999" stroke-miterlimit="10" width="2.7" height="16.200001" id="rect873"></rect></g><rect style="fill:#4282c3;stroke:#45566b;stroke-width:2;stroke-miterlimit:10" x="170.39999" y="396" stroke-miterlimit="10" width="69" height="16.200001" id="rect877"></rect><rect style="fill:#4f9be8;stroke:#45566b;stroke-width:2;stroke-miterlimit:10" x="180.7" y="396" stroke-miterlimit="10" width="5.9000001" height="16.200001" id="rect879"></rect><rect style="fill:#4f9be8;stroke:#45566b;stroke-width:2;stroke-miterlimit:10" x="190.10001" y="396" stroke-miterlimit="10" width="5" height="16.200001" id="rect881"></rect><rect style="fill:#4f9be8;stroke:#45566b;stroke-width:2;stroke-miterlimit:10" x="222.7" y="396" stroke-miterlimit="10" width="5" height="16.200001" id="rect883"></rect></g><g transform="matrix(0.26458333,0,0,0.26458333,-172.60283,-28.292521)" id="g993"><rect style="fill:#ffffff;stroke:#44566b;stroke-width:2;stroke-miterlimit:10" x="63" y="330.39999" stroke-miterlimit="10" width="93.699997" height="63.599998" id="rect887"></rect><g id="g983"><g id="g891"><rect style="fill:#ffffff;stroke:#44566b;stroke-width:2;stroke-miterlimit:10" x="72.800003" y="341.70001" stroke-miterlimit="10" width="9.8000002" height="8.1000004" id="rect889"></rect></g><g id="g901"><g id="g899"><g id="g897"><rect style="fill:#77c04b" x="88.900002" y="341.70001" width="9.8000002" height="8.1000004" id="rect893"></rect><rect style="fill:none;stroke:#44566b;stroke-width:2;stroke-miterlimit:10" x="88.900002" y="341.70001" stroke-miterlimit="10" width="9.8000002" height="8.1000004" id="rect895"></rect></g></g></g><g id="g905"><rect style="fill:#ffffff;stroke:#44566b;stroke-width:2;stroke-miterlimit:10" x="105" y="341.70001" stroke-miterlimit="10" width="9.8000002" height="8.1000004" id="rect903"></rect></g><g id="g909"><rect style="fill:#ffffff;stroke:#44566b;stroke-width:2;stroke-miterlimit:10" x="121" y="341.70001" stroke-miterlimit="10" width="9.8000002" height="8.1000004" id="rect907"></rect></g><g id="g913"><rect style="fill:#ffffff;stroke:#44566b;stroke-width:2;stroke-miterlimit:10" x="137.10001" y="341.70001" stroke-miterlimit="10" width="9.8000002" height="8.1000004" id="rect911"></rect></g><g id="g917"><rect style="fill:#ffffff;stroke:#44566b;stroke-width:2;stroke-miterlimit:10" x="72.800003" y="353.79999" stroke-miterlimit="10" width="9.8000002" height="8.1000004" id="rect915"></rect></g><g id="g921"><rect style="fill:#ffffff;stroke:#44566b;stroke-width:2;stroke-miterlimit:10" x="88.900002" y="353.79999" stroke-miterlimit="10" width="9.8000002" height="8.1000004" id="rect919"></rect></g><g id="g925"><rect style="fill:#ffffff;stroke:#44566b;stroke-width:2;stroke-miterlimit:10" x="105" y="353.79999" stroke-miterlimit="10" width="9.8000002" height="8.1000004" id="rect923"></rect></g><g id="g929"><rect style="fill:#77c04b;stroke:#44566b;stroke-width:2;stroke-miterlimit:10" x="121" y="353.79999" stroke-miterlimit="10" width="9.8000002" height="8.1000004" id="rect927"></rect></g><g id="g933"><rect style="fill:#ffffff;stroke:#44566b;stroke-width:2;stroke-miterlimit:10" x="137.10001" y="353.79999" stroke-miterlimit="10" width="9.8000002" height="8.1000004" id="rect931"></rect></g><g id="g937"><rect style="fill:#ffffff;stroke:#44566b;stroke-width:2;stroke-miterlimit:10" x="72.800003" y="365.79999" stroke-miterlimit="10" width="9.8000002" height="8.1000004" id="rect935"></rect></g><g id="g941"><rect style="fill:#ffffff;stroke:#44566b;stroke-width:2;stroke-miterlimit:10" x="88.900002" y="365.79999" stroke-miterlimit="10" width="9.8000002" height="8.1000004" id="rect939"></rect></g><g id="g951"><g id="g949"><g id="g947"><rect style="fill:#77c04b" x="105" y="365.79999" width="9.8000002" height="8.1000004" id="rect943"></rect><rect style="fill:none;stroke:#44566b;stroke-width:2;stroke-miterlimit:10" x="105" y="365.79999" stroke-miterlimit="10" width="9.8000002" height="8.1000004" id="rect945"></rect></g></g></g><g id="g957"><g id="g955"><rect style="fill:#77c04b;stroke:#44566b;stroke-width:2;stroke-miterlimit:10" x="121" y="365.79999" stroke-miterlimit="10" width="9.8000002" height="8.1000004" id="rect953"></rect></g></g><g id="g961"><rect style="fill:#ffffff;stroke:#44566b;stroke-width:2;stroke-miterlimit:10" x="137.10001" y="365.79999" stroke-miterlimit="10" width="9.8000002" height="8.1000004" id="rect959"></rect></g><g id="g965"><rect style="fill:#ffffff;stroke:#44566b;stroke-width:2;stroke-miterlimit:10" x="72.800003" y="377.89999" stroke-miterlimit="10" width="9.8000002" height="8.1000004" id="rect963"></rect></g><g id="g969"><rect style="fill:#ffffff;stroke:#44566b;stroke-width:2;stroke-miterlimit:10" x="88.900002" y="377.89999" stroke-miterlimit="10" width="9.8000002" height="8.1000004" id="rect967"></rect></g><g id="g973"><rect style="fill:#ffffff;stroke:#44566b;stroke-width:2;stroke-miterlimit:10" x="105" y="377.89999" stroke-miterlimit="10" width="9.8000002" height="8.1000004" id="rect971"></rect></g><g id="g977"><rect style="fill:#ffffff;stroke:#44566b;stroke-width:2;stroke-miterlimit:10" x="121" y="377.89999" stroke-miterlimit="10" width="9.8000002" height="8.1000004" id="rect975"></rect></g><g id="g981"><rect style="fill:#ffffff;stroke:#44566b;stroke-width:2;stroke-miterlimit:10" x="137.10001" y="377.89999" stroke-miterlimit="10" width="9.8000002" height="8.1000004" id="rect979"></rect></g></g><g id="g987"><path style="fill:#ffffff;stroke:#44566b;stroke-width:2;stroke-miterlimit:10" inkscape:connector-curvature="0" stroke-miterlimit="10" d="m 72.8,338.2 c -1.7,0 -3,-1.4 -3,-3 v -9.8 c 0,-1.7 1.4,-3 3,-3 1.7,0 3,1.4 3,3 v 9.8 c 0.1,1.6 -1.3,3 -3,3 z" id="path985"></path></g><g id="g991"><path style="fill:#ffffff;stroke:#44566b;stroke-width:2;stroke-miterlimit:10" inkscape:connector-curvature="0" stroke-miterlimit="10" d="m 146.9,338.2 c -1.7,0 -3,-1.4 -3,-3 v -9.8 c 0,-1.7 1.4,-3 3,-3 1.7,0 3,1.4 3,3 v 9.8 c 0,1.6 -1.3,3 -3,3 z" id="path989"></path></g></g><g transform="matrix(0.26458333,0,0,0.26458333,-172.60283,-28.292521)" id="g1005"><rect style="fill:#4282c3;stroke:#45566b;stroke-width:2;stroke-miterlimit:10" x="168.10001" y="308.29999" stroke-miterlimit="10" width="10" height="10" id="rect997"></rect></g><g transform="matrix(0.26458333,0,0,0.26458333,-172.60283,-28.292521)" id="g1017"><rect style="fill:#ffffff;stroke:#43566b;stroke-width:2;stroke-miterlimit:10" x="46.5" y="377.20001" stroke-miterlimit="10" width="54.400002" height="23.299999" id="rect1007"></rect><rect style="fill:#f5dc26;stroke:#44566b;stroke-width:2;stroke-miterlimit:10" x="46.5" y="377.20001" stroke-miterlimit="10" width="9" height="9" id="rect1009"></rect><line style="fill:none;stroke:#43566b;stroke-width:2;stroke-miterlimit:10" stroke-miterlimit="10" x1="61.700001" y1="383.70001" x2="90" y2="383.70001" id="line1011"></line><line style="fill:none;stroke:#43566b;stroke-width:2;stroke-miterlimit:10" stroke-miterlimit="10" x1="61.700001" y1="388.10001" x2="90" y2="388.10001" id="line1013"></line><line style="fill:none;stroke:#43566b;stroke-width:2;stroke-miterlimit:10" stroke-miterlimit="10" x1="61.700001" y1="392.39999" x2="90" y2="392.39999" id="line1015"></line></g><g transform="matrix(0.26458333,0,0,0.26458333,-172.60283,-28.292521)" id="g1025"><rect style="fill:#43566b" x="43.599998" y="295.20001" width="2.7" height="2.7" id="rect1019"></rect><rect style="fill:#43566b" x="48.599998" y="295.20001" width="2.7" height="2.7" id="rect1021"></rect><rect style="fill:#43566b" x="53.599998" y="295.20001" width="2.7" height="2.7" id="rect1023"></rect></g><g transform="matrix(0.26458333,0,0,0.26458333,-172.60283,-28.292521)" id="g1033"><rect style="fill:#43566b" x="56.599998" y="284" width="2.7" height="2.7" id="rect1027"></rect><rect style="fill:#43566b" x="61.599998" y="284" width="2.7" height="2.7" id="rect1029"></rect><rect style="fill:#43566b" x="66.699997" y="284" width="2.7" height="2.7" id="rect1031"></rect></g><g transform="matrix(0.26458333,0,0,0.26458333,-172.60283,-28.292521)" id="g1041"><rect style="fill:#43566b" x="136.2" y="270.5" width="2.7" height="2.7" id="rect1035"></rect><rect style="fill:#43566b" x="141.2" y="270.5" width="2.7" height="2.7" id="rect1037"></rect><rect style="fill:#43566b" x="146.2" y="270.5" width="2.7" height="2.7" id="rect1039"></rect></g><g transform="matrix(0.26458333,0,0,0.26458333,-172.60283,-28.292521)" id="g1049"><rect style="fill:#43566b" x="118.7" y="261.29999" width="2.7" height="2.7" id="rect1043"></rect><rect style="fill:#43566b" x="123.8" y="261.29999" width="2.7" height="2.7" id="rect1045"></rect><rect style="fill:#43566b" x="128.8" y="261.29999" width="2.7" height="2.7" id="rect1047"></rect></g><g transform="matrix(0.26458333,0,0,0.26458333,-172.60283,-28.292521)" id="g1057"><rect style="fill:#43566b" x="29.4" y="275.60001" width="2.7" height="2.7" id="rect1051"></rect><rect style="fill:#43566b" x="34.5" y="275.60001" width="2.7" height="2.7" id="rect1053"></rect><rect style="fill:#43566b" x="39.5" y="275.60001" width="2.7" height="2.7" id="rect1055"></rect></g><rect style="fill:none;stroke:#42566b;stroke-width:0.52916157;stroke-miterlimit:10" x="-146.78123" y="-70.914818" transform="rotate(-45)" stroke-miterlimit="10" width="1.1641555" height="1.1641555" id="rect1059"></rect><g transform="matrix(0.26458333,0,0,0.26458333,-172.60283,-28.292521)" id="g1075"><g id="g1073"><g id="g1063"><path style="fill:#1364a6" inkscape:connector-curvature="0" d="m 147.2,420.6 c 1.4,0 2.4,1.1 2.4,2.4 0,1.4 -1.1,2.4 -2.4,2.4 -1.4,0 -2.4,-1.1 -2.4,-2.4 0,-1.3 1.1,-2.4 2.4,-2.4 z" id="path1061"></path></g><g id="g1067"><path style="fill:#1364a6" inkscape:connector-curvature="0" d="m 158.3,420.6 c 1.4,0 2.4,1.1 2.4,2.4 0,1.4 -1.1,2.4 -2.4,2.4 -1.3,0 -2.4,-1.1 -2.4,-2.4 0,-1.3 1.1,-2.4 2.4,-2.4 z" id="path1065"></path></g><g id="g1071"><path style="fill:#1364a6" inkscape:connector-curvature="0" d="m 169.4,420.6 c 1.4,0 2.4,1.1 2.4,2.4 0,1.4 -1.1,2.4 -2.4,2.4 -1.4,0 -2.4,-1.1 -2.4,-2.4 0,-1.3 1.1,-2.4 2.4,-2.4 z" id="path1069"></path></g></g></g><g transform="matrix(0.26458333,0,0,0.26458333,-172.60283,-28.292521)" id="g1085"><rect style="fill:#42566b" x="192.2" y="263.29999" width="4.9000001" height="1.7" id="rect1077"></rect><rect style="fill:#42566b" x="198.89999" y="256.60001" width="1.7" height="4.9000001" id="rect1079"></rect><rect style="fill:#42566b" x="198.89999" y="266.70001" width="1.7" height="4.9000001" id="rect1081"></rect><rect style="fill:#42566b" x="202.3" y="263.29999" width="4.9000001" height="1.7" id="rect1083"></rect></g><g transform="matrix(0.26458333,0,0,0.26458333,-172.60283,-28.292521)" id="g1147"><g id="g1143"><g id="g1133"><circle style="fill:#ffffff;stroke:#43566b;stroke-width:2;stroke-miterlimit:10" r="20.200001" transform="matrix(0.7071,-0.7071,0.7071,0.7071,-177.4049,168.9175)" stroke-miterlimit="10" cx="115.2" cy="298.60001" id="ellipse1131"></circle></g><g id="g1141"><g id="g1139"><g id="g1137"><circle style="fill:none;stroke:#43566b;stroke-width:2;stroke-linecap:round;stroke-miterlimit:10;stroke-dasharray:0, 5.0271" r="16" transform="matrix(0.2298,-0.9732,0.9732,0.2298,-201.8858,342.1171)" stroke-miterlimit="10" cx="115.2" cy="298.60001" id="ellipse1135"></circle></g></g></g></g><polyline style="fill:none;stroke:#24abc2;stroke-width:2;stroke-linecap:round;stroke-linejoin:round;stroke-miterlimit:10" stroke-miterlimit="10" points=" 115.2,295.3 115.2,302.9 124.8,307.9 " id="polyline1145"></polyline></g><rect style="fill:#f5dc26;stroke-width:0.26458332" x="-126.75054" y="44.864769" width="4.9212499" height="4.9212499" id="rect1235"></rect><g transform="matrix(0.26458333,0,0,0.26458333,-172.60283,-28.292521)" id="g1259"><g id="g1257"><rect style="fill:#ffffff" x="148.3" y="289.29999" width="15.1" height="15.1" id="rect1237"></rect><g id="g1255"><polyline style="fill:none;stroke:#42566b;stroke-width:2;stroke-miterlimit:10" stroke-miterlimit="10" points="163.5,303.4 163.5,304.4 162.5,304.4 " id="polyline1239"></polyline><line style="fill:none;stroke:#42566b;stroke-width:2;stroke-miterlimit:10;stroke-dasharray:1.8762, 1.8762" stroke-miterlimit="10" x1="160.60001" y1="304.39999" x2="150.3" y2="304.39999" id="line1241"></line><polyline style="fill:none;stroke:#42566b;stroke-width:2;stroke-miterlimit:10" stroke-miterlimit="10" points="149.3,304.4 148.3,304.4 148.3,303.4 " id="polyline1243"></polyline><line style="fill:none;stroke:#42566b;stroke-width:2;stroke-miterlimit:10;stroke-dasharray:1.8762, 1.8762" stroke-miterlimit="10" x1="148.3" y1="301.60001" x2="148.3" y2="291.20001" id="line1245"></line><polyline style="fill:none;stroke:#42566b;stroke-width:2;stroke-miterlimit:10" stroke-miterlimit="10" points="148.3,290.3 148.3,289.3 149.3,289.3 " id="polyline1247"></polyline><line style="fill:none;stroke:#42566b;stroke-width:2;stroke-miterlimit:10;stroke-dasharray:1.8762, 1.8762" stroke-miterlimit="10" x1="151.2" y1="289.29999" x2="161.5" y2="289.29999" id="line1249"></line><polyline style="fill:none;stroke:#42566b;stroke-width:2;stroke-miterlimit:10" stroke-miterlimit="10" points="162.5,289.3 163.5,289.3 163.5,290.3 " id="polyline1251"></polyline><line style="fill:none;stroke:#42566b;stroke-width:2;stroke-miterlimit:10;stroke-dasharray:1.8762, 1.8762" stroke-miterlimit="10" x1="163.5" y1="292.20001" x2="163.5" y2="302.5" id="line1253"></line></g></g></g><g transform="matrix(0.26458333,0,0,0.26458333,-172.60283,-28.292521)" id="g1291"><rect style="fill:#f5dc26" x="194.3" y="299.10001" transform="rotate(-180,201.195,305.99365)" width="13.7" height="13.7" id="rect1261"></rect><g id="g1285"><g id="g1283"><rect style="fill:#ffffff" x="201.2" y="289" width="15.1" height="15.1" id="rect1263"></rect><g id="g1281"><polyline style="fill:none;stroke:#42566b;stroke-width:2;stroke-miterlimit:10" stroke-miterlimit="10" points="201.2,303.1 201.2,304.1 202.2,304.1 " id="polyline1265"></polyline><line style="fill:none;stroke:#42566b;stroke-width:2;stroke-miterlimit:10;stroke-dasharray:1.8762, 1.8762" stroke-miterlimit="10" x1="204.10001" y1="304.10001" x2="214.39999" y2="304.10001" id="line1267"></line><polyline style="fill:none;stroke:#42566b;stroke-width:2;stroke-miterlimit:10" stroke-miterlimit="10" points="215.3,304.1 216.3,304.1 216.3,303.1 " id="polyline1269"></polyline><line style="fill:none;stroke:#42566b;stroke-width:2;stroke-miterlimit:10;stroke-dasharray:1.8762, 1.8762" stroke-miterlimit="10" x1="216.3" y1="301.20001" x2="216.3" y2="290.89999" id="line1271"></line><polyline style="fill:none;stroke:#42566b;stroke-width:2;stroke-miterlimit:10" stroke-miterlimit="10" points="216.3,290 216.3,289 215.3,289 " id="polyline1273"></polyline><line style="fill:none;stroke:#42566b;stroke-width:2;stroke-miterlimit:10;stroke-dasharray:1.8762, 1.8762" stroke-miterlimit="10" x1="213.5" y1="289" x2="203.10001" y2="289" id="line1275"></line><polyline style="fill:none;stroke:#42566b;stroke-width:2;stroke-miterlimit:10" stroke-miterlimit="10" points="202.2,289 201.2,289 201.2,290 " id="polyline1277"></polyline><line style="fill:none;stroke:#42566b;stroke-width:2;stroke-miterlimit:10;stroke-dasharray:1.8762, 1.8762" stroke-miterlimit="10" x1="201.2" y1="291.89999" x2="201.2" y2="302.20001" id="line1279"></line></g></g></g><rect style="fill:#ffffff;stroke:#42566b;stroke-width:2;stroke-miterlimit:10" x="215.5" y="280.89999" transform="rotate(-90,223.9011,285.3997)" stroke-miterlimit="10" width="16.799999" height="9.1000004" id="rect1287"></rect><rect style="fill:#ffffff;stroke:#42566b;stroke-width:2;stroke-miterlimit:10" x="211.60001" y="285.39999" transform="rotate(-180,220.0213,289.934)" stroke-miterlimit="10" width="16.799999" height="9.1000004" id="rect1289"></rect></g><g transform="matrix(0.26458333,0,0,0.26458333,-172.60283,-28.292521)" id="g1299"><rect style="fill:#43566b" x="47.099998" y="409.5" width="2.8" height="2.8" id="rect1293"></rect><rect style="fill:#43566b" x="52.299999" y="409.5" width="2.8" height="2.8" id="rect1295"></rect><rect style="fill:#43566b" x="57.599998" y="409.5" width="2.8" height="2.8" id="rect1297"></rect></g><path style="fill:#ffffff;stroke:#42566b;stroke-width:0.52916664;stroke-miterlimit:10;stroke-dasharray:0.52916666, 0.52916666" inkscape:connector-curvature="0" stroke-miterlimit="10" d="m -127.46491,43.224353 c 0,0.687917 -0.55563,1.243542 -1.24355,1.243542 -0.68791,0 -1.24354,-0.555625 -1.24354,-1.243542 0,-0.687917 0.55563,-1.243542 1.24354,-1.243542 0.68792,0 1.24355,0.555625 1.24355,1.243542 z" id="path1301"></path><g transform="matrix(0.26458333,0,0,0.26458333,-172.60283,-28.292521)" id="g1309"><line style="fill:none;stroke:#42566b;stroke-width:2;stroke-miterlimit:10;stroke-dasharray:2, 2" stroke-miterlimit="10" x1="51" y1="316.10001" x2="51" y2="368.89999" id="line1303"></line><g id="g1307"><path style="fill:#42566b" inkscape:connector-curvature="0" d="m 51,311.3 c -1,2.7 -2.7,6 -4.5,8.1 l 4.5,-1.6 4.5,1.6 C 53.7,317.4 52,314 51,311.3 Z" id="path1305"></path></g></g><g transform="matrix(0.26458333,0,0,0.26458333,-172.60283,-28.292521)" id="g1317"><line style="fill:none;stroke:#42566b;stroke-width:2;stroke-miterlimit:10;stroke-dasharray:2, 2" stroke-miterlimit="10" x1="91.400002" y1="259.60001" x2="91.400002" y2="273.79999" id="line1311"></line><g id="g1315"><path style="fill:#42566b" inkscape:connector-curvature="0" d="m 91.4,254.8 c -1,2.7 -2.7,6 -4.5,8.1 l 4.5,-1.6 4.5,1.6 c -1.8,-2.1 -3.5,-5.4 -4.5,-8.1 z" id="path1313"></path></g></g><g transform="matrix(0.30315233,0,0,0.30315233,-238.95015,-38.733918)" id="g1569"><g id="g1567"><rect style="fill:#ffffff;stroke:#43566b;stroke-width:2;stroke-miterlimit:10" x="353.60001" y="344.20001" stroke-miterlimit="10" width="70.699997" height="46.599998" id="rect1553"></rect><g id="g1565"><path style="fill:#c5dade;stroke:#43566b;stroke-width:2;stroke-miterlimit:10" inkscape:connector-curvature="0" stroke-miterlimit="10" d="m 427.9,343.9 c 0,-1.5 -1.1,-2.8 -2.7,-2.8 h -73.1 c -1.5,0 -2.7,1.2 -2.7,2.8 v 50.3 h 78.4 v -50.3 z m -3.6,47 h -70.7 v -46.6 h 70.7 z" id="path1555"></path><path style="fill:#c5dade;stroke:#43566b;stroke-width:2;stroke-miterlimit:10" inkscape:connector-curvature="0" stroke-miterlimit="10" d="m 338.3,394.2 v 1.4 c 0,1.5 1.2,2.8 2.7,2.8 h 95.5 c 1.5,0 2.7,-1.2 2.7,-2.8 v -1.4 z" id="path1557"></path><line style="fill:#c5dade;stroke:#43566b;stroke-width:2;stroke-miterlimit:10" stroke-miterlimit="10" x1="424.29999" y1="349.20001" x2="353.60001" y2="349.20001" id="line1559"></line><line style="fill:none;stroke:#43566b;stroke-width:2;stroke-miterlimit:10;stroke-dasharray:4, 1" stroke-miterlimit="10" x1="356.5" y1="346.79999" x2="375" y2="346.79999" id="line1561"></line><line style="fill:none;stroke:#43566b;stroke-width:2;stroke-miterlimit:10;stroke-dasharray:4, 1" stroke-miterlimit="10" x1="402.5" y1="346.79999" x2="421.10001" y2="346.79999" id="line1563"></line></g></g></g><g transform="matrix(0.33389602,0,0,0.33389602,-244.0718,-49.674839)" id="g1739"><g id="g1737"><path style="fill:#f16526;stroke:#44566b;stroke-width:2;stroke-miterlimit:10" inkscape:connector-curvature="0" stroke-miterlimit="10" d="m 281.8,333.3 v 13.2 5 c 0,4.9 3,9.3 7.6,11 0.1,0 0.3,0.1 0.4,0.1 v 4.1 c -0.1,0 -0.3,0.1 -0.4,0.1 -4.6,1.7 -7.6,6.1 -7.6,11 v 5 13.2 h 22.9 v -13.2 -5 c 0,-4.9 -3,-9.3 -7.6,-11 -0.1,0 -0.2,-0.1 -0.3,-0.1 v -4.2 c 0.1,0 0.2,-0.1 0.3,-0.1 4.6,-1.7 7.6,-6.1 7.6,-11 v -5 -13.2 h -22.9 z" id="path1663"></path><rect style="fill:#f16526;stroke:#44566b;stroke-width:2;stroke-miterlimit:10" x="278.89999" y="329.70001" stroke-miterlimit="10" width="28.700001" height="3.5" id="rect1665"></rect><rect style="fill:#f16526;stroke:#44566b;stroke-width:2;stroke-miterlimit:10" x="278.89999" y="395.89999" stroke-miterlimit="10" width="28.700001" height="3.5" id="rect1667"></rect><g id="g1701"><g id="g1675"><circle style="fill:#ffffff" cx="288.60001" cy="350.5" r="1.1" id="circle1669"></circle><path style="fill:#ffffff" inkscape:connector-curvature="0" d="m 294,350.5 c 0,0.6 -0.5,1.1 -1.1,1.1 -0.6,0 -1.1,-0.5 -1.1,-1.1 0,-0.6 0.5,-1.1 1.1,-1.1 0.6,0 1.1,0.5 1.1,1.1 z" id="path1671"></path><circle style="fill:#ffffff" cx="297.10001" cy="350.5" r="1.1" id="circle1673"></circle></g><g id="g1679"><path style="fill:#ffffff" inkscape:connector-curvature="0" d="m 294,358.1 c 0,0.6 -0.5,1.1 -1.1,1.1 -0.6,0 -1.1,-0.5 -1.1,-1.1 0,-0.6 0.5,-1.1 1.1,-1.1 0.6,0 1.1,0.5 1.1,1.1 z" id="path1677"></path></g><g id="g1689"><path style="fill:#ffffff" inkscape:connector-curvature="0" d="m 300,346.8 c 0,0.6 -0.5,1.1 -1.1,1.1 -0.6,0 -1.1,-0.5 -1.1,-1.1 0,-0.6 0.5,-1.1 1.1,-1.1 0.6,-0.1 1.1,0.4 1.1,1.1 z" id="path1681"></path><path style="fill:#ffffff" inkscape:connector-curvature="0" d="m 288.1,346.8 c 0,0.6 -0.5,1.1 -1.1,1.1 -0.6,0 -1.1,-0.5 -1.1,-1.1 0,-0.6 0.5,-1.1 1.1,-1.1 0.6,-0.1 1.1,0.4 1.1,1.1 z" id="path1683"></path><path style="fill:#ffffff" inkscape:connector-curvature="0" d="m 292,346.8 c 0,0.6 -0.5,1.1 -1.1,1.1 -0.6,0 -1.1,-0.5 -1.1,-1.1 0,-0.6 0.5,-1.1 1.1,-1.1 0.6,-0.1 1.1,0.4 1.1,1.1 z" id="path1685"></path><path style="fill:#ffffff" inkscape:connector-curvature="0" d="m 296,346.8 c 0,0.6 -0.5,1.1 -1.1,1.1 -0.6,0 -1.1,-0.5 -1.1,-1.1 0,-0.6 0.5,-1.1 1.1,-1.1 0.6,-0.1 1.1,0.4 1.1,1.1 z" id="path1687"></path></g><g id="g1699"><path style="fill:#ffffff" inkscape:connector-curvature="0" d="m 300,354.3 c 0,0.6 -0.5,1.1 -1.1,1.1 -0.6,0 -1.1,-0.5 -1.1,-1.1 0,-0.6 0.5,-1.1 1.1,-1.1 0.6,0 1.1,0.5 1.1,1.1 z" id="path1691"></path><path style="fill:#ffffff" inkscape:connector-curvature="0" d="m 288.1,354.3 c 0,0.6 -0.5,1.1 -1.1,1.1 -0.6,0 -1.1,-0.5 -1.1,-1.1 0,-0.6 0.5,-1.1 1.1,-1.1 0.6,0 1.1,0.5 1.1,1.1 z" id="path1693"></path><path style="fill:#ffffff" inkscape:connector-curvature="0" d="m 292,354.3 c 0,0.6 -0.5,1.1 -1.1,1.1 -0.6,0 -1.1,-0.5 -1.1,-1.1 0,-0.6 0.5,-1.1 1.1,-1.1 0.6,0 1.1,0.5 1.1,1.1 z" id="path1695"></path><path style="fill:#ffffff" inkscape:connector-curvature="0" d="m 296,354.3 c 0,0.6 -0.5,1.1 -1.1,1.1 -0.6,0 -1.1,-0.5 -1.1,-1.1 0,-0.6 0.5,-1.1 1.1,-1.1 0.6,0 1.1,0.5 1.1,1.1 z" id="path1697"></path></g></g><g id="g1735"><g id="g1709"><path style="fill:#ffffff" inkscape:connector-curvature="0" d="m 289.8,389 c 0,-0.6 -0.5,-1.1 -1.1,-1.1 -0.6,0 -1.1,0.5 -1.1,1.1 0,0.6 0.5,1.1 1.1,1.1 0.6,0 1.1,-0.5 1.1,-1.1 z" id="path1703"></path><path style="fill:#ffffff" inkscape:connector-curvature="0" d="m 294,389 c 0,-0.6 -0.5,-1.1 -1.1,-1.1 -0.6,0 -1.1,0.5 -1.1,1.1 0,0.6 0.5,1.1 1.1,1.1 0.6,0 1.1,-0.5 1.1,-1.1 z" id="path1705"></path><path style="fill:#ffffff" inkscape:connector-curvature="0" d="m 298.2,389 c 0,-0.6 -0.5,-1.1 -1.1,-1.1 -0.6,0 -1.1,0.5 -1.1,1.1 0,0.6 0.5,1.1 1.1,1.1 0.6,0 1.1,-0.5 1.1,-1.1 z" id="path1707"></path></g><g id="g1713"><path style="fill:#ffffff" inkscape:connector-curvature="0" d="m 294,381.4 c 0,-0.6 -0.5,-1.1 -1.1,-1.1 -0.6,0 -1.1,0.5 -1.1,1.1 0,0.6 0.5,1.1 1.1,1.1 0.6,0 1.1,-0.5 1.1,-1.1 z" id="path1711"></path></g><g id="g1723"><path style="fill:#ffffff" inkscape:connector-curvature="0" d="m 300,392.7 c 0,-0.6 -0.5,-1.1 -1.1,-1.1 -0.6,0 -1.1,0.5 -1.1,1.1 0,0.6 0.5,1.1 1.1,1.1 0.6,0.1 1.1,-0.4 1.1,-1.1 z" id="path1715"></path><path style="fill:#ffffff" inkscape:connector-curvature="0" d="m 288.1,392.7 c 0,-0.6 -0.5,-1.1 -1.1,-1.1 -0.6,0 -1.1,0.5 -1.1,1.1 0,0.6 0.5,1.1 1.1,1.1 0.6,0.1 1.1,-0.4 1.1,-1.1 z" id="path1717"></path><path style="fill:#ffffff" inkscape:connector-curvature="0" d="m 292,392.7 c 0,-0.6 -0.5,-1.1 -1.1,-1.1 -0.6,0 -1.1,0.5 -1.1,1.1 0,0.6 0.5,1.1 1.1,1.1 0.6,0.1 1.1,-0.4 1.1,-1.1 z" id="path1719"></path><path style="fill:#ffffff" inkscape:connector-curvature="0" d="m 296,392.7 c 0,-0.6 -0.5,-1.1 -1.1,-1.1 -0.6,0 -1.1,0.5 -1.1,1.1 0,0.6 0.5,1.1 1.1,1.1 0.6,0.1 1.1,-0.4 1.1,-1.1 z" id="path1721"></path></g><g id="g1733"><path style="fill:#ffffff" inkscape:connector-curvature="0" d="m 300,385.2 c 0,-0.6 -0.5,-1.1 -1.1,-1.1 -0.6,0 -1.1,0.5 -1.1,1.1 0,0.6 0.5,1.1 1.1,1.1 0.6,0 1.1,-0.5 1.1,-1.1 z" id="path1725"></path><path style="fill:#ffffff" inkscape:connector-curvature="0" d="m 288.1,385.2 c 0,-0.6 -0.5,-1.1 -1.1,-1.1 -0.6,0 -1.1,0.5 -1.1,1.1 0,0.6 0.5,1.1 1.1,1.1 0.6,0 1.1,-0.5 1.1,-1.1 z" id="path1727"></path><path style="fill:#ffffff" inkscape:connector-curvature="0" d="m 292,385.2 c 0,-0.6 -0.5,-1.1 -1.1,-1.1 -0.6,0 -1.1,0.5 -1.1,1.1 0,0.6 0.5,1.1 1.1,1.1 0.6,0 1.1,-0.5 1.1,-1.1 z" id="path1729"></path><path style="fill:#ffffff" inkscape:connector-curvature="0" d="m 296,385.2 c 0,-0.6 -0.5,-1.1 -1.1,-1.1 -0.6,0 -1.1,0.5 -1.1,1.1 0,0.6 0.5,1.1 1.1,1.1 0.6,0 1.1,-0.5 1.1,-1.1 z" id="path1731"></path></g></g></g></g><g transform="matrix(0.12284226,0,0,0.12284226,-141.83368,25.846905)" id="g1233"><path style="fill:#ffffff;stroke:#43566b;stroke-width:2;stroke-miterlimit:10" inkscape:connector-curvature="0" stroke-miterlimit="10" d="m 125.5,381.6 v -8.1 h 0.5 c 0.6,0 1.1,-0.5 1.1,-1.1 V 370 c 0,-0.6 -0.5,-1.1 -1.1,-1.1 h -14.9 c -0.6,0 -1.1,0.5 -1.1,1.1 v 2.3 c 0,0.6 0.5,1.1 1.1,1.1 h 0.5 v 8.1 c -9.4,3 -16.3,11.9 -16.3,22.4 0,13 10.4,22.9 23.2,22.9 12.8,0 23.2,-9.9 23.2,-22.9 0.1,-10.4 -6.7,-19.4 -16.2,-22.3 z" id="path1205"></path><path style="fill:#24abc2;stroke:#45566b;stroke-width:2;stroke-linejoin:round;stroke-miterlimit:10" inkscape:connector-curvature="0" stroke-miterlimit="10" d="m 95.5,402.1 c 0,0.6 -0.1,1.2 -0.1,1.9 0,13 10.4,22.9 23.2,22.9 12.8,0 23.2,-9.9 23.2,-22.9 0,-0.6 0,-1.2 -0.1,-1.9 z" id="path1207"></path><g id="g1231"><path style="fill:#ffffff" inkscape:connector-curvature="0" d="m 121.9,399.8 c 0,0.9 -0.8,1.7 -1.7,1.7 -0.9,0 -1.7,-0.8 -1.7,-1.7 0,-0.9 0.8,-1.7 1.7,-1.7 0.9,0 1.7,0.8 1.7,1.7 z" id="path1209"></path><path style="fill:#ffffff" inkscape:connector-curvature="0" d="m 117.9,402.3 c 0,0.6 -0.5,1.1 -1.1,1.1 -0.6,0 -1.1,-0.5 -1.1,-1.1 0,-0.6 0.5,-1.1 1.1,-1.1 0.6,-0.1 1.1,0.4 1.1,1.1 z" id="path1211"></path><path style="fill:#ffffff" inkscape:connector-curvature="0" d="m 125.1,402.6 c 0,0.6 -0.5,1.1 -1.1,1.1 -0.6,0 -1.1,-0.5 -1.1,-1.1 0,-0.6 0.5,-1.1 1.1,-1.1 0.6,-0.1 1.1,0.5 1.1,1.1 z" id="path1213"></path><path style="fill:#ffffff" inkscape:connector-curvature="0" d="m 120.9,405.3 c 0,0.6 -0.5,1.1 -1.1,1.1 -0.6,0 -1.1,-0.5 -1.1,-1.1 0,-0.6 0.5,-1.1 1.1,-1.1 0.6,0 1.1,0.5 1.1,1.1 z" id="path1215"></path><path style="fill:#ffffff" inkscape:connector-curvature="0" d="m 114,406.6 c 0,0.6 -0.5,1.1 -1.1,1.1 -0.6,0 -1.1,-0.5 -1.1,-1.1 0,-0.6 0.5,-1.1 1.1,-1.1 0.6,0 1.1,0.5 1.1,1.1 z" id="path1217"></path><path style="fill:#ffffff" inkscape:connector-curvature="0" d="m 128.6,406.6 c 0,0.6 -0.5,1.1 -1.1,1.1 -0.6,0 -1.1,-0.5 -1.1,-1.1 0,-0.6 0.5,-1.1 1.1,-1.1 0.6,0 1.1,0.5 1.1,1.1 z" id="path1219"></path><path style="fill:#ffffff" inkscape:connector-curvature="0" d="m 121.2,394.8 c 0,0.6 -0.5,1.1 -1.1,1.1 -0.6,0 -1.1,-0.5 -1.1,-1.1 0,-0.6 0.5,-1.1 1.1,-1.1 0.6,0 1.1,0.5 1.1,1.1 z" id="path1221"></path><path style="fill:#ffffff" inkscape:connector-curvature="0" d="m 119.5,390.3 c 0,0.6 -0.5,1.1 -1.1,1.1 -0.6,0 -1.1,-0.5 -1.1,-1.1 0,-0.6 0.5,-1.1 1.1,-1.1 0.6,0 1.1,0.5 1.1,1.1 z" id="path1223"></path><path style="fill:#ffffff" inkscape:connector-curvature="0" d="m 122.7,387.7 c 0,0.6 -0.5,1.1 -1.1,1.1 -0.6,0 -1.1,-0.5 -1.1,-1.1 0,-0.6 0.5,-1.1 1.1,-1.1 0.6,-0.1 1.1,0.5 1.1,1.1 z" id="path1225"></path><path style="fill:#ffffff" inkscape:connector-curvature="0" d="m 119.2,385.2 c 0,0.6 -0.5,1.1 -1.1,1.1 -0.6,0 -1.1,-0.5 -1.1,-1.1 0,-0.6 0.5,-1.1 1.1,-1.1 0.6,-0.1 1.1,0.4 1.1,1.1 z" id="path1227"></path><path style="fill:#ffffff" inkscape:connector-curvature="0" d="m 120.5,380.7 c 0,0.6 -0.5,1.1 -1.1,1.1 -0.6,0 -1.1,-0.5 -1.1,-1.1 0,-0.6 0.5,-1.1 1.1,-1.1 0.6,0 1.1,0.5 1.1,1.1 z" id="path1229"></path></g></g><g transform="matrix(0.13133673,0,0,0.13133673,-136.82269,23.286143)" id="g1203"><path style="fill:#ffffff;stroke:#43566b;stroke-width:2;stroke-linecap:round;stroke-miterlimit:10" inkscape:connector-curvature="0" stroke-miterlimit="10" d="m 87.4,340 c -0.8,0 -1.5,0.7 -1.5,1.5 v 2.9 c 0,0.8 0.7,1.5 1.5,1.5 H 88 v 33.9 l -11.2,17.1 c -3.3,5.1 -2.6,11.8 1.7,16.1 l 10.3,10.1 H 105 L 115.3,413 c 4.3,-4.3 5.1,-11 1.7,-16.1 l -11.2,-17.1 v -33.9 h 0.7 c 0.8,0 1.5,-0.7 1.5,-1.5 v -2.9 c 0,-0.8 -0.7,-1.5 -1.5,-1.5 z" id="path1149"></path><path style="fill:#f16526;stroke:#44566b;stroke-width:2;stroke-miterlimit:10" inkscape:connector-curvature="0" stroke-miterlimit="10" d="m 88.1,365.7 v 14.1 l -11.2,17.1 c -3.3,5.1 -2.6,11.8 1.7,16.1 l 10.3,10.1 H 105 L 115.3,413 c 4.3,-4.3 5.1,-11 1.7,-16.1 l -11.2,-17.1 v -14.1 z" id="path1151"></path><g id="g1177"><g id="g1155"><rect style="fill:#43566b" x="97.300003" y="351.39999" width="6.4000001" height="1" id="rect1153"></rect></g><g id="g1159"><rect style="fill:#43566b" x="97.300003" y="355.39999" width="6.4000001" height="1" id="rect1157"></rect></g><g id="g1163"><rect style="fill:#43566b" x="97.300003" y="359.39999" width="6.4000001" height="1" id="rect1161"></rect></g><g id="g1167"><rect style="fill:#43566b" x="97.300003" y="363.5" width="6.4000001" height="1" id="rect1165"></rect></g><g id="g1171"><rect style="fill:#43566b" x="97.300003" y="367.5" width="6.4000001" height="1" id="rect1169"></rect></g><g id="g1175"><rect style="fill:#43566b" x="97.300003" y="371.60001" width="6.4000001" height="1" id="rect1173"></rect></g></g><g id="g1201"><path style="fill:#ffffff" inkscape:connector-curvature="0" d="m 98.8,393.9 c 0,0.8 -0.7,1.5 -1.5,1.5 -0.8,0 -1.5,-0.7 -1.5,-1.5 0,-0.8 0.7,-1.5 1.5,-1.5 0.8,0.1 1.5,0.7 1.5,1.5 z" id="path1179"></path><path style="fill:#ffffff" inkscape:connector-curvature="0" d="m 95.3,396.1 c 0,0.5 -0.4,1 -1,1 -0.5,0 -1,-0.4 -1,-1 0,-0.5 0.4,-1 1,-1 0.6,0 1,0.4 1,1 z" id="path1181"></path><path style="fill:#ffffff" inkscape:connector-curvature="0" d="m 101.5,396.3 c 0,0.5 -0.4,1 -1,1 -0.6,0 -1,-0.4 -1,-1 0,-0.5 0.4,-1 1,-1 0.6,0 1,0.5 1,1 z" id="path1183"></path><path style="fill:#ffffff" inkscape:connector-curvature="0" d="m 97.9,398.7 c 0,0.5 -0.4,1 -1,1 -0.5,0 -1,-0.4 -1,-1 0,-0.5 0.4,-1 1,-1 0.6,0 1,0.4 1,1 z" id="path1185"></path><path style="fill:#ffffff" inkscape:connector-curvature="0" d="m 92,399.8 c 0,0.5 -0.4,1 -1,1 -0.5,0 -1,-0.4 -1,-1 0,-0.5 0.4,-1 1,-1 0.6,0 1,0.5 1,1 z" id="path1187"></path><path style="fill:#ffffff" inkscape:connector-curvature="0" d="m 104.5,399.8 c 0,0.5 -0.4,1 -1,1 -0.5,0 -1,-0.4 -1,-1 0,-0.5 0.4,-1 1,-1 0.6,0 1,0.5 1,1 z" id="path1189"></path><path style="fill:#ffffff" inkscape:connector-curvature="0" d="m 98.2,389.7 c 0,0.5 -0.4,1 -1,1 -0.5,0 -1,-0.4 -1,-1 0,-0.5 0.4,-1 1,-1 0.5,0 1,0.5 1,1 z" id="path1191"></path><path style="fill:#ffffff" inkscape:connector-curvature="0" d="m 96.7,385.9 c 0,0.5 -0.4,1 -1,1 -0.5,0 -1,-0.4 -1,-1 0,-0.5 0.4,-1 1,-1 0.5,0 1,0.4 1,1 z" id="path1193"></path><path style="fill:#ffffff" inkscape:connector-curvature="0" d="m 99.4,383.6 c 0,0.5 -0.4,1 -1,1 -0.5,0 -1,-0.4 -1,-1 0,-0.5 0.4,-1 1,-1 0.6,0 1,0.4 1,1 z" id="path1195"></path><path style="fill:#ffffff" inkscape:connector-curvature="0" d="m 96.4,381.4 c 0,0.5 -0.4,1 -1,1 -0.5,0 -1,-0.4 -1,-1 0,-0.5 0.4,-1 1,-1 0.6,0.1 1,0.5 1,1 z" id="path1197"></path><path style="fill:#ffffff" inkscape:connector-curvature="0" d="m 97.6,377.6 c 0,0.5 -0.4,1 -1,1 -0.5,0 -1,-0.4 -1,-1 0,-0.5 0.4,-1 1,-1 0.5,0 1,0.5 1,1 z" id="path1199"></path></g></g><g transform="matrix(0.11357694,-0.13884794,0.13884794,0.11357694,-220.95572,93.929427)" id="g1661"><path style="opacity:0.1;fill:#ffffff" inkscape:connector-curvature="0" d="m 439.5,359.8 c 4.8,4.9 12.6,5 17.5,0.2 4.9,-4.8 5,-12.6 0.2,-17.5 -4.8,-4.9 -12.6,-5 -17.5,-0.2 -4.9,4.8 -5,12.6 -0.2,17.5 z" id="path1623"></path><g id="g1637"><g id="g1635"><g id="g1633"><g id="g1627"><path style="fill:#ffffff" inkscape:connector-curvature="0" d="m 433.6,351.1 c 0.1,-8.2 6.8,-14.8 14.9,-14.7 8.2,0.1 14.8,6.8 14.7,14.9 -0.1,7.5 -5.7,13.7 -13,14.6 l -0.1,12.2 h -3.4 l 0.1,-12.1 c -7.4,-0.8 -13.3,-7.2 -13.2,-14.9 z m 6.2,8.4 c 2.2,2.2 5.2,3.6 8.5,3.6 6.6,0 12,-5.3 12.1,-11.9 0.1,-6.6 -5.3,-12 -11.9,-12.1 -6.6,-0.1 -12,5.3 -12.1,11.9 0,3.4 1.3,6.3 3.4,8.5 z" id="path1625"></path></g><g id="g1631"><path style="fill:none;stroke:#44566b;stroke-width:2;stroke-miterlimit:10" inkscape:connector-curvature="0" stroke-miterlimit="10" d="m 433.6,351.1 c 0.1,-8.2 6.8,-14.8 14.9,-14.7 8.2,0.1 14.8,6.8 14.7,14.9 -0.1,7.5 -5.7,13.7 -13,14.6 l -0.1,12.2 h -3.4 l 0.1,-12.1 c -7.4,-0.8 -13.3,-7.2 -13.2,-14.9 z m 6.2,8.4 c 2.2,2.2 5.2,3.6 8.5,3.6 6.6,0 12,-5.3 12.1,-11.9 0.1,-6.6 -5.3,-12 -11.9,-12.1 -6.6,-0.1 -12,5.3 -12.1,11.9 0,3.4 1.3,6.3 3.4,8.5 z" id="path1629"></path></g></g></g></g><polygon style="fill:#f5dc26;stroke:#44566b;stroke-width:2;stroke-miterlimit:10" stroke-miterlimit="10" points="452.6,406.1 444.2,406.1 444.2,375.1 442.1,375.1 442.1,371.3 454.7,371.3 454.7,375.1 452.6,375.1 " id="polygon1639"></polygon><g id="g1643"><rect style="fill:#ffffff;stroke:#43566b;stroke-width:2;stroke-miterlimit:10" x="442.10001" y="404.20001" stroke-miterlimit="10" width="12.6" height="3.8" id="rect1641"></rect></g><g id="g1659"><g id="g1657"><g id="g1647"><rect style="fill:#ffffff" x="445.60001" y="388.39999" width="5.5" height="0.60000002" id="rect1645"></rect></g><g id="g1651"><rect style="fill:#ffffff" x="445.60001" y="389.79999" width="5.5" height="0.60000002" id="rect1649"></rect></g><g id="g1655"><rect style="fill:#ffffff" x="445.60001" y="391.20001" width="5.5" height="0.60000002" id="rect1653"></rect></g></g></g></g></g></g></svg> 