<?xml version="1.0" encoding="UTF-8" standalone="no"?> <svg xmlns:dc="http://purl.org/dc/elements/1.1/" xmlns:cc="http://creativecommons.org/ns#" xmlns:rdf="http://www.w3.org/1999/02/22-rdf-syntax-ns#" xmlns:svg="http://www.w3.org/2000/svg" xmlns="http://www.w3.org/2000/svg" xmlns:sodipodi="http://sodipodi.sourceforge.net/DTD/sodipodi-0.dtd" xmlns:inkscape="http://www.inkscape.org/namespaces/inkscape" width="199.992mm" height="150.853mm" viewBox="0 0 199.992 150.853" version="1.1" id="svg8" inkscape:version="0.92.3 (2405546, 2018-03-11)" sodipodi:docname="manage chemical formulation.svg"><defs id="defs2"><circle r="13.4" cy="339.60001" cx="313.89999" id="SVGID_1_"></circle></defs><metadata id="metadata5"></metadata><g inkscape:label="Layer 1" inkscape:groupmode="layer" id="layer1" transform="translate(0,-146.147)"><g id="g1621" transform="matrix(0.26458333,0,0,0.26458333,-172.60283,-28.292521)"><g id="g1581"><g id="g1579"><g id="g1577"><g id="g1575"> </g></g></g></g><g id="g1587"><g id="g1585"> </g></g><g id="g1599"><g id="g1597"><g id="g1595"><g id="g1593"> </g></g></g></g><g id="g1605"> </g><g id="g1611"> </g><g id="g1617"> </g></g><g id="g11045" transform="matrix(1.0677615,0,0,1.0614941,-44.525655,76.103075)"><g id="g10787"><rect style="fill:#009fd9;stroke:#44566b;stroke-width:2;stroke-miterlimit:10" x="92.300003" y="106" stroke-miterlimit="10" width="122.3" height="86" id="rect10737"></rect><polygon style="fill:#ffffff;stroke:#43566b;stroke-width:2;stroke-miterlimit:10" stroke-miterlimit="10" points="146.1,185.8 153.3,180.1 153.3,99.5 145,99.5 100.4,99.5 100.4,185.8 " id="polygon10739"></polygon><polygon style="fill:#ffffff;stroke:#43566b;stroke-width:2;stroke-miterlimit:10" stroke-miterlimit="10" points="153.5,180.1 160.7,185.8 206.5,185.8 206.5,99.5 161.9,99.5 153.5,99.5 " id="polygon10741"></polygon><line style="fill:none;stroke:#44566b;stroke-width:2;stroke-miterlimit:10" stroke-miterlimit="10" x1="144.2" y1="110.7" x2="109.5" y2="110.7" id="line10743"></line><line style="fill:none;stroke:#44566b;stroke-width:2;stroke-miterlimit:10" stroke-miterlimit="10" x1="144.2" y1="116.4" x2="109.5" y2="116.4" id="line10745"></line><line style="fill:none;stroke:#44566b;stroke-width:2;stroke-miterlimit:10" stroke-miterlimit="10" x1="144.2" y1="139" x2="109.5" y2="139" id="line10747"></line><line style="fill:none;stroke:#44566b;stroke-width:2;stroke-miterlimit:10" stroke-miterlimit="10" x1="144.2" y1="144.7" x2="109.5" y2="144.7" id="line10749"></line><line style="fill:none;stroke:#44566b;stroke-width:2;stroke-miterlimit:10" stroke-miterlimit="10" x1="144.2" y1="150.39999" x2="109.5" y2="150.39999" id="line10751"></line><line style="fill:none;stroke:#44566b;stroke-width:2;stroke-miterlimit:10" stroke-miterlimit="10" x1="144.2" y1="156" x2="109.5" y2="156" id="line10753"></line><line style="fill:none;stroke:#44566b;stroke-width:2;stroke-miterlimit:10" stroke-miterlimit="10" x1="144.2" y1="161.7" x2="109.5" y2="161.7" id="line10755"></line><line style="fill:none;stroke:#44566b;stroke-width:2;stroke-miterlimit:10" stroke-miterlimit="10" x1="144.2" y1="167.39999" x2="109.5" y2="167.39999" id="line10757"></line><rect style="fill:#f5dc26" x="110.4" y="121.7" width="11.8" height="11.5" id="rect10759"></rect><rect style="fill:#f5dc26" x="130.3" y="121.7" width="12.5" height="11.5" id="rect10761"></rect><line style="fill:none;stroke:#44566b;stroke-width:2;stroke-miterlimit:10" stroke-miterlimit="10" x1="197.39999" y1="110.7" x2="162.7" y2="110.7" id="line10763"></line><line style="fill:none;stroke:#44566b;stroke-width:2;stroke-miterlimit:10" stroke-miterlimit="10" x1="197.39999" y1="116.4" x2="162.7" y2="116.4" id="line10765"></line><line style="fill:none;stroke:#44566b;stroke-width:2;stroke-miterlimit:10" stroke-miterlimit="10" x1="197.39999" y1="122.9" x2="162.7" y2="122.9" id="line10767"></line><line style="fill:none;stroke:#44566b;stroke-width:2;stroke-miterlimit:10" stroke-miterlimit="10" x1="197.39999" y1="139" x2="162.7" y2="139" id="line10769"></line><line style="fill:none;stroke:#44566b;stroke-width:2;stroke-miterlimit:10" stroke-miterlimit="10" x1="197.39999" y1="144.7" x2="162.7" y2="144.7" id="line10771"></line><line style="fill:none;stroke:#44566b;stroke-width:2;stroke-miterlimit:10" stroke-miterlimit="10" x1="197.39999" y1="150.39999" x2="162.7" y2="150.39999" id="line10773"></line><line style="fill:none;stroke:#44566b;stroke-width:2;stroke-miterlimit:10" stroke-miterlimit="10" x1="197.39999" y1="156" x2="162.7" y2="156" id="line10775"></line><line style="fill:none;stroke:#44566b;stroke-width:2;stroke-miterlimit:10" stroke-miterlimit="10" x1="197.39999" y1="161.7" x2="162.7" y2="161.7" id="line10777"></line><line style="fill:none;stroke:#44566b;stroke-width:2;stroke-miterlimit:10" stroke-miterlimit="10" x1="197.39999" y1="167.39999" x2="162.7" y2="167.39999" id="line10779"></line><rect style="fill:#f5dc26" x="164.3" y="127.4" width="7.8000002" height="5.9000001" id="rect10781"></rect><rect style="fill:#f5dc26" x="176" y="127.4" width="7.8000002" height="5.9000001" id="rect10783"></rect><rect style="fill:#f5dc26" x="187.8" y="127.4" width="7.8000002" height="5.9000001" id="rect10785"></rect></g><rect style="fill:#f5dc26" x="41.700001" y="80.5" width="17" height="17" id="rect10789"></rect><rect style="fill:#f5dc26" x="172.3" y="89.099998" width="12.5" height="12.5" id="rect10791"></rect><rect style="fill:#77c04b" x="180.5" y="69.800003" width="6.9000001" height="6.9000001" id="rect10793"></rect><rect style="fill:#009fd9" x="85.5" y="67.400002" transform="matrix(0.7071,-0.7071,0.7071,0.7071,-23.6248,82.5964)" width="4.9000001" height="4.9000001" id="rect10795"></rect><rect style="fill:#009fd9" x="145.10001" y="72.099998" transform="matrix(0.7071,-0.7071,0.7071,0.7071,-9.5176,126.1292)" width="4.9000001" height="4.9000001" id="rect10797"></rect><g id="g10821"><g id="g10819"><rect style="fill:#ffffff" x="164.7" y="79.900002" width="13.8" height="13.8" id="rect10799"></rect><g id="g10817"><polyline style="fill:none;stroke:#42566b;stroke-width:2;stroke-miterlimit:10" stroke-miterlimit="10" points="178.5,92.7 178.5,93.7 177.5,93.7 " id="polyline10801"></polyline><line style="fill:none;stroke:#42566b;stroke-width:2;stroke-miterlimit:10;stroke-dasharray:2.3614, 2.3614" stroke-miterlimit="10" x1="175.10001" y1="93.699997" x2="166.89999" y2="93.699997" id="line10803"></line><polyline style="fill:none;stroke:#42566b;stroke-width:2;stroke-miterlimit:10" stroke-miterlimit="10" points="165.7,93.7 164.7,93.7 164.7,92.7 " id="polyline10805"></polyline><line style="fill:none;stroke:#42566b;stroke-width:2;stroke-miterlimit:10;stroke-dasharray:2.3614, 2.3614" stroke-miterlimit="10" x1="164.7" y1="90.300003" x2="164.7" y2="82" id="line10807"></line><polyline style="fill:none;stroke:#42566b;stroke-width:2;stroke-miterlimit:10" stroke-miterlimit="10" points="164.7,80.9 164.7,79.9 165.7,79.9 " id="polyline10809"></polyline><line style="fill:none;stroke:#42566b;stroke-width:2;stroke-miterlimit:10;stroke-dasharray:2.3614, 2.3614" stroke-miterlimit="10" x1="168.10001" y1="79.900002" x2="176.3" y2="79.900002" id="line10811"></line><polyline style="fill:none;stroke:#42566b;stroke-width:2;stroke-miterlimit:10" stroke-miterlimit="10" points="177.5,79.9 178.5,79.9 178.5,80.9 " id="polyline10813"></polyline><line style="fill:none;stroke:#42566b;stroke-width:2;stroke-miterlimit:10;stroke-dasharray:2.3614, 2.3614" stroke-miterlimit="10" x1="178.5" y1="83.199997" x2="178.5" y2="91.5" id="line10815"></line></g></g></g><g id="g10931"><g id="g10853"><path style="fill:#ffffff;stroke:#43566b;stroke-width:2;stroke-miterlimit:10" inkscape:connector-curvature="0" stroke-miterlimit="10" d="m 183.9,162.8 v -22 h 0.5 c 0.6,0 1.1,-0.5 1.1,-1.1 v -2.2 c 0,-0.6 -0.5,-1.1 -1.1,-1.1 h -14.1 c -0.6,0 -1.1,0.5 -1.1,1.1 v 2.2 c 0,0.6 0.5,1.1 1.1,1.1 h 0.5 v 22 c -9,2.8 -15.5,11.3 -15.5,21.3 0,12.3 9.9,21.7 22,21.7 12.2,0 22,-9.4 22,-21.7 0.1,-10 -6.4,-18.4 -15.4,-21.3 z" id="path10823"></path><path style="fill:#77c04b;stroke:#44566b;stroke-width:2;stroke-miterlimit:10" inkscape:connector-curvature="0" stroke-miterlimit="10" d="m 155.4,182.4 c 0,0.6 -0.1,1.2 -0.1,1.8 0,12.3 9.9,21.7 22,21.7 12.2,0 22,-9.4 22,-21.7 0,-0.6 0,-1.2 -0.1,-1.8 z" id="path10825"></path><g id="g10851"><g id="g10849"><path style="fill:#f5dc26" inkscape:connector-curvature="0" d="m 180.5,184.8 c 0,0.9 -0.7,1.6 -1.6,1.6 -0.9,0 -1.6,-0.7 -1.6,-1.6 0,-0.9 0.7,-1.6 1.6,-1.6 0.8,0 1.6,0.7 1.6,1.6 z" id="path10827"></path><path style="fill:#f5dc26" inkscape:connector-curvature="0" d="m 176.6,187.2 c 0,0.6 -0.5,1.1 -1.1,1.1 -0.6,0 -1.1,-0.5 -1.1,-1.1 0,-0.6 0.5,-1.1 1.1,-1.1 0.7,0 1.1,0.5 1.1,1.1 z" id="path10829"></path><path style="fill:#f5dc26" inkscape:connector-curvature="0" d="m 183.5,187.5 c 0,0.6 -0.5,1.1 -1.1,1.1 -0.6,0 -1.1,-0.5 -1.1,-1.1 0,-0.6 0.5,-1.1 1.1,-1.1 0.6,0 1.1,0.5 1.1,1.1 z" id="path10831"></path><path style="fill:#f5dc26" inkscape:connector-curvature="0" d="m 179.5,190.1 c 0,0.6 -0.5,1.1 -1.1,1.1 -0.6,0 -1.1,-0.5 -1.1,-1.1 0,-0.6 0.5,-1.1 1.1,-1.1 0.6,0 1.1,0.5 1.1,1.1 z" id="path10833"></path><path style="fill:#f5dc26" inkscape:connector-curvature="0" d="m 173,191.3 c 0,0.6 -0.5,1.1 -1.1,1.1 -0.6,0 -1.1,-0.5 -1.1,-1.1 0,-0.6 0.5,-1.1 1.1,-1.1 0.6,0 1.1,0.5 1.1,1.1 z" id="path10835"></path><path style="fill:#f5dc26" inkscape:connector-curvature="0" d="m 186.9,191.3 c 0,0.6 -0.5,1.1 -1.1,1.1 -0.6,0 -1.1,-0.5 -1.1,-1.1 0,-0.6 0.5,-1.1 1.1,-1.1 0.6,0 1.1,0.5 1.1,1.1 z" id="path10837"></path><path style="fill:#f5dc26" inkscape:connector-curvature="0" d="m 179.8,180.1 c 0,0.6 -0.5,1.1 -1.1,1.1 -0.6,0 -1.1,-0.5 -1.1,-1.1 0,-0.6 0.5,-1.1 1.1,-1.1 0.6,0 1.1,0.5 1.1,1.1 z" id="path10839"></path><path style="fill:#f5dc26" inkscape:connector-curvature="0" d="m 178.2,175.8 c 0,0.6 -0.5,1.1 -1.1,1.1 -0.6,0 -1.1,-0.5 -1.1,-1.1 0,-0.6 0.5,-1.1 1.1,-1.1 0.6,0.1 1.1,0.5 1.1,1.1 z" id="path10841"></path><path style="fill:#f5dc26" inkscape:connector-curvature="0" d="m 181.2,173.3 c 0,0.6 -0.5,1.1 -1.1,1.1 -0.6,0 -1.1,-0.5 -1.1,-1.1 0,-0.6 0.5,-1.1 1.1,-1.1 0.6,0 1.1,0.5 1.1,1.1 z" id="path10843"></path><path style="fill:#f5dc26" inkscape:connector-curvature="0" d="m 177.9,170.9 c 0,0.6 -0.5,1.1 -1.1,1.1 -0.6,0 -1.1,-0.5 -1.1,-1.1 0,-0.6 0.5,-1.1 1.1,-1.1 0.6,0.1 1.1,0.5 1.1,1.1 z" id="path10845"></path><path style="fill:#f5dc26" inkscape:connector-curvature="0" d="m 179.2,166.7 c 0,0.6 -0.5,1.1 -1.1,1.1 -0.6,0 -1.1,-0.5 -1.1,-1.1 0,-0.6 0.5,-1.1 1.1,-1.1 0.6,0 1.1,0.5 1.1,1.1 z" id="path10847"></path></g></g></g><path style="fill:#ffffff;stroke:#43566b;stroke-width:2;stroke-miterlimit:10" inkscape:connector-curvature="0" stroke-miterlimit="10" d="m 145.6,132.6 c -0.7,0 -1.3,0.6 -1.3,1.3 v 2.6 c 0,0.7 0.6,1.3 1.3,1.3 h 0.6 v 30.4 l -10,15.3 c -3,4.6 -2.3,10.6 1.5,14.5 l 9.2,9.1 h 14.5 l 9.2,-9.1 c 3.9,-3.8 4.5,-9.9 1.5,-14.5 l -10,-15.3 v -30.4 h 0.6 c 0.7,0 1.3,-0.6 1.3,-1.3 v -2.6 c 0,-0.7 -0.6,-1.3 -1.3,-1.3 z" id="path10855"></path><path style="fill:#ea6126;stroke:#43566b;stroke-width:2;stroke-miterlimit:10" inkscape:connector-curvature="0" stroke-miterlimit="10" d="m 146.2,156.4 v 11.8 l -10,15.3 c -3,4.6 -2.3,10.6 1.5,14.5 l 9.2,9.1 h 14.5 l 9.2,-9.1 c 3.9,-3.8 4.5,-9.9 1.5,-14.5 l -10,-15.3 v -11.8 z" id="path10857"></path><g id="g10883"><g id="g10861"><rect style="fill:#43566b" x="154.5" y="145.10001" width="5.6999998" height="0.89999998" id="rect10859"></rect></g><g id="g10865"><rect style="fill:#43566b" x="154.5" y="148.7" width="5.6999998" height="0.89999998" id="rect10863"></rect></g><g id="g10869"><rect style="fill:#43566b" x="154.5" y="152.3" width="5.6999998" height="0.89999998" id="rect10867"></rect></g><g id="g10873"><rect style="fill:#43566b" x="154.5" y="155.89999" width="5.6999998" height="0.89999998" id="rect10871"></rect></g><g id="g10877"><rect style="fill:#43566b" x="154.5" y="159.60001" width="5.6999998" height="0.89999998" id="rect10875"></rect></g><g id="g10881"><rect style="fill:#43566b" x="154.5" y="163.2" width="5.6999998" height="0.89999998" id="rect10879"></rect></g></g><g id="g10905"><g id="g10887"><rect style="fill:#43566b" x="176.7" y="144.3" width="5.6999998" height="0.89999998" id="rect10885"></rect></g><g id="g10891"><rect style="fill:#43566b" x="176.7" y="147.89999" width="5.6999998" height="0.89999998" id="rect10889"></rect></g><g id="g10895"><rect style="fill:#43566b" x="176.7" y="151.5" width="5.6999998" height="0.89999998" id="rect10893"></rect></g><g id="g10899"><rect style="fill:#43566b" x="176.7" y="155.10001" width="5.6999998" height="0.89999998" id="rect10897"></rect></g><g id="g10903"><rect style="fill:#43566b" x="176.7" y="158.8" width="5.6999998" height="0.89999998" id="rect10901"></rect></g></g><g id="g10929"><path style="fill:#ffffff" inkscape:connector-curvature="0" d="m 155.8,180.9 c 0,0.7 -0.6,1.3 -1.3,1.3 -0.7,0 -1.3,-0.6 -1.3,-1.3 0,-0.7 0.6,-1.3 1.3,-1.3 0.7,0 1.3,0.6 1.3,1.3 z" id="path10907"></path><path style="fill:#ffffff" inkscape:connector-curvature="0" d="m 152.7,182.8 c 0,0.5 -0.4,0.9 -0.9,0.9 -0.5,0 -0.9,-0.4 -0.9,-0.9 0,-0.5 0.4,-0.9 0.9,-0.9 0.5,0 0.9,0.4 0.9,0.9 z" id="path10909"></path><path style="fill:#ffffff" inkscape:connector-curvature="0" d="m 158.2,183 c 0,0.5 -0.4,0.9 -0.9,0.9 -0.5,0 -0.9,-0.4 -0.9,-0.9 0,-0.5 0.4,-0.9 0.9,-0.9 0.6,0.1 0.9,0.4 0.9,0.9 z" id="path10911"></path><path style="fill:#ffffff" inkscape:connector-curvature="0" d="m 155,185.1 c 0,0.5 -0.4,0.9 -0.9,0.9 -0.5,0 -0.9,-0.4 -0.9,-0.9 0,-0.5 0.4,-0.9 0.9,-0.9 0.5,0.1 0.9,0.4 0.9,0.9 z" id="path10913"></path><path style="fill:#ffffff" inkscape:connector-curvature="0" d="m 149.8,186.1 c 0,0.5 -0.4,0.9 -0.9,0.9 -0.5,0 -0.9,-0.4 -0.9,-0.9 0,-0.5 0.4,-0.9 0.9,-0.9 0.5,0.1 0.9,0.5 0.9,0.9 z" id="path10915"></path><path style="fill:#ffffff" inkscape:connector-curvature="0" d="m 161,186.1 c 0,0.5 -0.4,0.9 -0.9,0.9 -0.5,0 -0.9,-0.4 -0.9,-0.9 0,-0.5 0.4,-0.9 0.9,-0.9 0.5,0.1 0.9,0.5 0.9,0.9 z" id="path10917"></path><path style="fill:#ffffff" inkscape:connector-curvature="0" d="m 155.3,177.1 c 0,0.5 -0.4,0.9 -0.9,0.9 -0.5,0 -0.9,-0.4 -0.9,-0.9 0,-0.5 0.4,-0.9 0.9,-0.9 0.5,0 0.9,0.4 0.9,0.9 z" id="path10919"></path><path style="fill:#ffffff" inkscape:connector-curvature="0" d="m 153.9,173.7 c 0,0.5 -0.4,0.9 -0.9,0.9 -0.5,0 -0.9,-0.4 -0.9,-0.9 0,-0.5 0.4,-0.9 0.9,-0.9 0.5,0 0.9,0.4 0.9,0.9 z" id="path10921"></path><path style="fill:#ffffff" inkscape:connector-curvature="0" d="m 156.4,171.6 c 0,0.5 -0.4,0.9 -0.9,0.9 -0.5,0 -0.9,-0.4 -0.9,-0.9 0,-0.5 0.4,-0.9 0.9,-0.9 0.5,0 0.9,0.4 0.9,0.9 z" id="path10923"></path><path style="fill:#ffffff" inkscape:connector-curvature="0" d="m 153.7,169.7 c 0,0.5 -0.4,0.9 -0.9,0.9 -0.5,0 -0.9,-0.4 -0.9,-0.9 0,-0.5 0.4,-0.9 0.9,-0.9 0.5,0 0.9,0.4 0.9,0.9 z" id="path10925"></path><path style="fill:#ffffff" inkscape:connector-curvature="0" d="m 154.8,166.3 c 0,0.5 -0.4,0.9 -0.9,0.9 -0.5,0 -0.9,-0.4 -0.9,-0.9 0,-0.5 0.4,-0.9 0.9,-0.9 0.5,0 0.9,0.4 0.9,0.9 z" id="path10927"></path></g></g><g id="g10993"><g id="g10971"><g id="g10967"><g id="g10965"><path style="fill:#ffffff;stroke:#43566b;stroke-width:2;stroke-miterlimit:10" inkscape:connector-curvature="0" stroke-miterlimit="10" d="m 122.5,190 c 0,1.1 -0.9,2 -2,2 H 52.3 c -1.1,0 -2,-0.9 -2,-2 V 91.1 c 0,-1.1 0.9,-2 2,-2 h 68.1 c 1.1,0 2,0.9 2,2 V 190 Z" id="path10933"></path><rect style="fill:#009fd9;stroke:#44566b;stroke-width:2;stroke-miterlimit:10" x="50.299999" y="106.14286" stroke-miterlimit="10" width="72.099998" height="35.099998" id="rect10935"></rect><g id="g10953"> </g><g id="g10963"> </g></g></g><polygon style="fill:#77c04b" points="83.2,172.4 83.2,173.1 83.6,173.1 83.6,174.2 84.6,174.2 84.6,175 85.2,175 85.2,176 85.7,176 85.7,175.4 86.4,175.4 86.4,175.6 86.8,175.6 86.8,176.6 87.3,176.6 87.3,177.8 87.8,177.8 87.8,178.6 89,178.6 89,178.2 89.3,178.2 89.3,177.6 90.9,177.6 90.9,178.9 92.4,178.9 92.4,179.3 94,179.3 94.9,179.3 94.9,178.2 95.5,178.2 95.5,176.7 96,176.7 96.9,176.7 96.9,176.3 97.2,176.3 97.2,175.7 97.8,175.7 97.8,175.5 98.2,175.5 98.2,174.6 98.8,174.6 98.8,174.9 99.8,174.9 99.8,175.1 100.2,175.1 100.2,175.5 100.7,175.5 100.7,176.2 101.2,176.2 101.2,176.6 101.7,176.6 101.7,175.5 102.4,175.5 102.4,176.8 102.8,176.8 102.8,177.8 103.4,177.8 103.4,176.4 103.7,176.4 103.7,175.8 104.3,175.8 104.3,177.7 104.7,177.7 104.7,178.2 105.5,178.2 105.5,177.4 106.1,177.4 106.1,177.7 106.7,177.7 106.7,177.3 107.4,177.3 107.4,176.8 107.7,176.8 107.7,176.3 108.3,176.3 108.3,176.8 109.4,176.8 109.4,177.5 110.1,177.5 110.1,176.8 110.7,176.8 110.7,177.6 111.1,177.6 111.1,178.5 112,178.5 112,178.2 112.3,178.2 112.3,177.1 112.8,177.1 112.8,176.3 114.1,176.3 114.1,178.4 117.6,178.4 117.6,185.3 55.4,185.3 55.5,173.4 56,173.8 56,173.1 56.5,173.1 56.5,172.7 56.8,172.7 56.8,172.3 57.6,172.3 57.6,172.6 57.9,172.6 57.9,173.1 58.4,173.1 58.4,173.3 58.8,173.3 58.8,172.8 59.5,172.8 59.5,172.5 60,172.5 60,173.1 60.7,173.1 60.7,172.7 61.1,172.7 61.1,172.5 61.4,172.5 61.4,171.7 61.8,171.7 61.8,172.5 62.7,172.5 62.9,172.5 62.9,172.2 63.2,172.2 63.2,171.4 63.6,171.4 63.6,170.8 64.2,170.8 64.2,171.5 64.7,171.5 64.7,171.7 65.2,171.7 65.2,171.2 65.6,171.2 65.6,170.8 66.4,170.8 66.4,170.5 66.8,170.5 66.8,170.3 67.4,170.3 67.4,169.5 67.7,169.5 67.7,170.1 68.8,170.1 68.8,170.3 69.2,170.3 69.2,170.5 69.6,170.5 69.6,170.1 69.9,170.1 69.9,170.4 70.3,170.4 70.4,170.4 70.4,170 70.8,170 70.8,169.7 71.8,169.7 71.8,169.1 72.2,169.1 72.2,168.9 72.9,168.9 74,168.9 74,169.7 74.3,169.7 74.3,170.5 74.7,170.5 74.7,170.2 75,170.2 75,169.5 75.6,169.5 75.6,169.7 76,169.7 76,170.4 76.4,170.4 76.4,170.8 76.9,170.8 76.9,170.5 77.2,170.5 77.2,171.8 77.6,171.8 77.6,171.2 77.6,170.8 78,170.8 78,171.3 78.9,171.3 78.9,172.5 79.3,172.5 79.3,172 79.7,172 79.7,171.7 80.1,171.7 80.1,171.5 80.7,171.5 80.7,172.2 81,172.2 81,172.4 82,172.4 82,172.1 83,172.1 83,172.4 " id="polygon10969"></polygon></g><g id="g10991"><rect style="fill:#f5dc26" x="68.699997" y="151.5" width="3.0999999" height="33.200001" id="rect10973"></rect><rect style="fill:#1364a6" x="71.699997" y="161.3" width="3.0999999" height="23.4" id="rect10975"></rect><rect style="fill:#ffffff" x="74.800003" y="166" width="3.0999999" height="18.700001" id="rect10977"></rect><rect style="fill:#f5dc26" x="82.699997" y="162.3" width="3.0999999" height="22.299999" id="rect10979"></rect><rect style="fill:#1364a6" x="85.699997" y="159.8" width="3.0999999" height="24.799999" id="rect10981"></rect><rect style="fill:#ffffff" x="88.800003" y="155.7" width="3.0999999" height="28.9" id="rect10983"></rect><rect style="fill:#f5dc26" x="96.900002" y="162.3" width="3.0999999" height="22.299999" id="rect10985"></rect><rect style="fill:#1364a6" x="100" y="152.7" width="3.0999999" height="31.9" id="rect10987"></rect><rect style="fill:#ffffff" x="103" y="155.7" width="3.0999999" height="28.9" id="rect10989"></rect></g></g><g id="g11001"><rect style="fill:#43566b" x="85.800003" y="199.5" width="2.5999999" height="2.5999999" id="rect10995"></rect><rect style="fill:#43566b" x="90.599998" y="199.5" width="2.5999999" height="2.5999999" id="rect10997"></rect><rect style="fill:#43566b" x="95.300003" y="199.5" width="2.5999999" height="2.5999999" id="rect10999"></rect></g><g id="g11009"><rect style="fill:#43566b" x="210.89999" y="90.599998" width="2.5999999" height="2.5999999" id="rect11003"></rect><rect style="fill:#43566b" x="215.7" y="90.599998" width="2.5999999" height="2.5999999" id="rect11005"></rect><rect style="fill:#43566b" x="220.39999" y="90.599998" width="2.5999999" height="2.5999999" id="rect11007"></rect></g><line style="fill:none;stroke:#43566b;stroke-width:2;stroke-miterlimit:10;stroke-dasharray:2, 2" stroke-miterlimit="10" x1="66.800003" y1="82.300003" x2="113.7" y2="82.300003" id="line11011"></line><g id="g11035"><g id="g11033"><rect style="fill:#ffffff" x="125.2" y="69.5" transform="matrix(0.7071,-0.7071,0.7071,0.7071,-14.5598,113.9558)" width="10.1" height="10.1" id="rect11013"></rect><g id="g11031"><polyline style="fill:none;stroke:#42566b;stroke-width:2;stroke-miterlimit:10" stroke-miterlimit="10" points="136.7,73.8 137.4,74.6 136.7,75.3 " id="polyline11015"></polyline><line style="fill:none;stroke:#42566b;stroke-width:2;stroke-miterlimit:10;stroke-dasharray:1.6204, 1.6204" stroke-miterlimit="10" x1="135.60001" y1="76.400002" x2="131.60001" y2="80.400002" id="line11017"></line><polyline style="fill:none;stroke:#42566b;stroke-width:2;stroke-miterlimit:10" stroke-miterlimit="10" points="131,81 130.3,81.7 129.6,81 " id="polyline11019"></polyline><line style="fill:none;stroke:#42566b;stroke-width:2;stroke-miterlimit:10;stroke-dasharray:1.6204, 1.6204" stroke-miterlimit="10" x1="128.39999" y1="79.800003" x2="124.4" y2="75.800003" id="line11021"></line><polyline style="fill:none;stroke:#42566b;stroke-width:2;stroke-miterlimit:10" stroke-miterlimit="10" points="123.8,75.3 123.1,74.6 123.8,73.8 " id="polyline11023"></polyline><line style="fill:none;stroke:#42566b;stroke-width:2;stroke-miterlimit:10;stroke-dasharray:1.6204, 1.6204" stroke-miterlimit="10" x1="125" y1="72.699997" x2="129" y2="68.699997" id="line11025"></line><polyline style="fill:none;stroke:#42566b;stroke-width:2;stroke-miterlimit:10" stroke-miterlimit="10" points="129.6,68.1 130.3,67.4 131,68.1 " id="polyline11027"></polyline><line style="fill:none;stroke:#42566b;stroke-width:2;stroke-miterlimit:10;stroke-dasharray:1.6204, 1.6204" stroke-miterlimit="10" x1="132.10001" y1="69.300003" x2="136.10001" y2="73.300003" id="line11029"></line></g></g></g><g id="g11043"><line style="fill:none;stroke:#43566b;stroke-width:2;stroke-miterlimit:10;stroke-dasharray:2, 2" stroke-miterlimit="10" x1="225.5" y1="191.5" x2="225.5" y2="112.7" id="line11037"></line><g id="g11041"><polygon style="fill:#43566b" points="229,115.1 225.5,113.1 222,115.1 225.5,104 " id="polygon11039"></polygon></g></g></g></g></svg> 