<svg xmlns="http://www.w3.org/2000/svg" xmlns:xlink="http://www.w3.org/1999/xlink" width="500" height="280"><style><![CDATA[.W{stroke-miterlimit:10}.X{stroke-width:1.5}.Y{stroke:#414042}.Z{fill:none}.a{fill:#414042}.b{fill:#fff}.c{fill:#ffb936}.d{fill:#00d4ff}.e{fill:#6d6e71}]]></style><defs><clipPath id="A"><path d="M307.24 364.365h40.887v-25.97H307.24z"/></clipPath><clipPath id="B"><path d="M357.886 391.43h12.67v-61.682h-12.67z"/></clipPath><clipPath id="C"><path d="M375.756 383.207h16.666v-53.46h-16.666z"/></clipPath><path id="D" d="M308.3 363.313h-1.052v1.05h1.052z"/><path id="E" d="M-800.448 258.474a1.34 1.34 0 0 0-1.338-1.338 1.34 1.34 0 0 0-1.339 1.338 1.34 1.34 0 0 0 1.339 1.338 1.34 1.34 0 0 0 1.338-1.338"/><path id="F" d="M-863.638 269.147c0-.5-.413-.923-.923-.923s-.923.413-.923.923.413.923.923.923.923-.413.923-.923"/><path id="G" d="M-857.702 221.977h-8.18c-1.1 0-2 .9-2 2v4.414c0 1.1.9 2 2 2h8.18c1.1 0 2-.9 2-2v-4.414c0-1.1-.9-2-2-2z"/><path id="H" d="M-790.917 223.832c0-.912-.74-1.653-1.652-1.653s-1.653.74-1.653 1.653v1.602c0 .914.74 1.654 1.653 1.654s1.652-.74 1.652-1.654z"/></defs><g transform="matrix(2.633522 0 0 -2.568011 2454.354721 754.69114)"><path d="M-851.118 188.273h-49.98c-.55 0-1 .45-1 1v35.362c0 .55.45 1 1 1h49.98c.55 0 1-.45 1-1v-35.362c0-.55-.45-1-1-1" fill="#58595b"/><g class="W X Y Z"><path d="M-850.118 189.203c0-.512-.42-.93-.93-.93h-50.12c-.512 0-.93.418-.93.93v35.502c0 .51.418.93.93.93h29.305"/><path d="M-850.118 195.74v-6.174c0-.7-.58-1.292-1.292-1.292h-49.396c-.7 0-1.29.582-1.29 1.292"/></g><path d="M-852.924 192.376h-46.65v30.32h46.65zm1.898-6.176h-50.736c-1.218 0-2.257.882-2.454 2.084l-.36 2.204h23.515l.9-1.3h6.498l.972 1.3h24.772l-.314-1.917a2.83 2.83 0 0 0-2.792-2.371" class="b"/><path d="M-847.92 190.487l-.314-1.917a2.83 2.83 0 0 0-2.792-2.371h-50.736c-1.218 0-2.257.882-2.454 2.084l-.36 2.204h23.515l.9-1.292h6.032" class="W X Y Z"/><g clip-path="url(#A)" opacity=".6" transform="translate(-1203.39 -144.068)"><path d="M315.612 362.738h-5v.653h5z" class="c"/><path d="M316.554 360.506h-3.437v.653h3.437zm31.572 0h-23.97v.653h23.97z" class="a"/><path d="M318.92 360.506h3.867v.653h-3.867z" class="d"/><path d="M321.136 358.644h-6.85v.653h6.85z" class="a"/><path d="M325.752 356.013h-8.69v.653h8.69z" class="c"/><path d="M320.12 353.54h-9.497v.653h9.497z" class="a"/><path d="M321.136 353.54h6.86v.653h-6.86z" class="d"/><path d="M325.852 351.064h-12.735v.653h12.735zm5.2 0h8.467v.653h-8.467z" class="a"/><path d="M330.387 351.064H326.4v.653h3.997z" class="c"/><path d="M328.494 348.59H317.35v.653h11.143z" class="a"/><path d="M314.287 348.59h2.333v.653h-2.333z" class="d"/><path d="M318.224 346.77h-7.6v.653h7.6z" class="a"/><path d="M321.426 346.77h-2.612v.653h2.612z" class="c"/><path d="M334.624 346.77h-12.47v.653h12.47zm.97 0h11.26v.653h-11.26z" class="a"/><path d="M317.06 344.296h-3.944v.653h3.944z" class="d"/><path d="M318.224 344.296h9.363v.653h-9.363z" class="a"/><path d="M322.84 341.82h-7.6v.653h7.6z" class="c"/><g class="a"><path d="M332.04 341.82h-7.6v.653h7.6zm8.34 0h-7.16v.653h7.16zm4.894 14.193h2.148v.653h-2.148zm-.954 0h-17.8v.653h17.8zm-7.026 6.725H317.06v.653h20.233z"/><use xlink:href="#D"/><use xlink:href="#D" y="-2.769"/><use xlink:href="#D" y="-5.537"/><use xlink:href="#D" y="-8.306"/><use xlink:href="#D" y="-11.075"/><use xlink:href="#D" y="-13.843"/><use xlink:href="#D" y="-16.613"/><use xlink:href="#D" y="-19.383"/><path d="M308.3 341.163h-1.05v1.05h1.05zm0-2.77h-1.05v1.052h1.05z"/></g></g><path d="M-759.92 185.706l-.13 23.35c0 1.765-1.61 3.196-3.593 3.196h-33.433l.13-26.572z" class="b"/><path d="M-791.578 212.25h27.933c1.984 0 3.593-1.61 3.593-3.593l.13-21.868" class="W X Y Z"/><path d="M-763.65 185.68h3.73v27.554c0 1.426-1.282 2.582-2.863 2.582h-.867z" class="d"/><path d="M-759.92 185.68v27.273c0 1.58-1.282 2.863-2.863 2.863h-.867V185.68" class="W X Y Z"/><path d="M-772.843 204.742c2.587-2.587 2.587-6.78 0-9.368s-6.78-2.587-9.368 0-2.587 6.78 0 9.368 6.78 2.587 9.368 0" class="c"/><path d="M-776.007 201.578c2.587-2.587 2.587-6.78 0-9.368s-6.78-2.587-9.368 0-2.587 6.78 0 9.368 6.78 2.587 9.368 0z" stroke-dasharray="2.078, 2.078" class="W X Y Z"/><path d="M-810.373 257.846v7.068c0 9.455-7.736 17.19-17.19 17.19s-17.2-7.736-17.2-17.19v-13.46h27.988c3.53 0 6.393 2.862 6.393 6.393" class="c"/><path d="M-810.968 185.68v40.768c0 8.892-7.275 16.168-16.168 16.168s-16.167-7.276-16.167-16.168V185.68z" class="d"/><path d="M-837.67 238.687c2.835 2.445 6.52 3.927 10.533 3.927 4.17 0 7.98-1.598 10.856-4.213m-25.117-4.364a16.22 16.22 0 0 0 1.672 2.523m-3.578-50.88v40.768a16.1 16.1 0 0 0 .429 3.697" class="W X Y Z"/><path d="M-827.426 236.078c-1.947 0-3.524 1.578-3.524 3.524v7.446c0 1.946 1.577 3.524 3.524 3.524s3.525-1.578 3.525-3.524v-7.446c0-1.946-1.578-3.524-3.525-3.524" class="b"/><path d="M-827.426 236.078c-1.947 0-3.524 1.578-3.524 3.524v7.446c0 1.946 1.577 3.524 3.524 3.524s3.525-1.578 3.525-3.524v-7.446c0-1.946-1.578-3.524-3.525-3.524z" class="W X Y Z"/><path d="M-813.828 272.464v-14.902c0-7.48-6.12-13.598-13.598-13.598s-13.598 6.12-13.598 13.598v14.902z" class="b"/><path d="M-813.828 268.457v-10.895c0-7.48-6.12-13.598-13.598-13.598s-13.598 6.12-13.598 13.598v8.224" class="W X Y Z"/><path d="M-812.168 264.598h-4.898c-4.548-.138-10.373 4.898-10.373 7.946v-8.846c0-9.57-7.745-17.336-17.316-17.362l.738 18.604 2.618 8.536 28.31.67.922-4.098z" class="c"/><g class="W X Y Z"><path d="M-844.754 246.422c9.57.026 17.315 7.79 17.315 17.362v11.272c0-5.728 4.645-10.372 10.373-10.372h4.9"/><path d="M-815.203 251.646c2.775.697 4.83 3.21 4.83 6.2v7.068c0 9.455-7.735 17.19-17.2 17.19s-17.19-7.736-17.19-17.19V245.51"/><path d="M-824.755 260.74h5.523m-6.188-2.425v-3.898h-2.076m3.356-4.517a3.65 3.65 0 0 0-2.609-1.098h-.753a3.65 3.65 0 0 0-2.392.893l-.236.205m-14.5.582c6.2 2.655 10.523 8.804 10.523 15.963m-11.1-11.305a17.31 17.31 0 0 1 7.073 13.986"/><g stroke-linecap="round"><path d="M-754.677 251.453h4.274"/><path d="M-752.54 249.316v4.274m-137.375-8.08h4.274"/><path d="M-887.778 243.374v4.274m59.13 42.272l3.022 3.022"/><path d="M-825.625 289.92l-3.022 3.022m77.424-71.758l3.022 3.022"/><path d="M-748.2 221.184l-3.022 3.022"/></g><path d="M-782.864 251.453h21.816m-97.552 39.98h21.816m-52.976-4.738h40.796m64.1-35.242h-3.912m-137.272-12.983h21.816m-11.253 7.04h21.816m-34.38-7.04h-3.912"/></g><g class="a"><use xlink:href="#E"/><use xlink:href="#E" x="-109.07" y="17.586"/><use xlink:href="#E" x="-110.409" y="-29.211"/><use xlink:href="#F"/><use xlink:href="#F" x="64.288" y="17.548"/><use xlink:href="#F" x="104.64" y="-40.807"/></g><g clip-path="url(#B)" opacity=".3" transform="translate(-1203.39 -144.068)" class="a"><path d="M359.386 389.58v.2a17.54 17.54 0 0 1 3.343.46 4.9 4.9 0 0 1-2.157.914c-.84.133-1.744.22-2.686.275v-1.85zm6.344-6.834a16.41 16.41 0 0 1-2.06-2.123l-.6.475a17.06 17.06 0 0 1-1.749-2.638l.665-.357a16.07 16.07 0 0 1-1.464-3.895l-.745.176a16.86 16.86 0 0 1-.45-3.87v-18.04c2.8 1.9 4.913 4.72 5.87 8.045 1.135.2 2.005 1.17 2.005 2.34l.588 20.9c0 .474-.1.874-.3 1.2a17 17 0 0 1-2.279-1.625zm4.825-53V335c0 6.7-4.606 12.455-11.218 15.1v-20.344h9.718z"/></g><path d="M-835.585 185.68v5.254c0 8.735-8.33 15.882-18.51 15.882s-18.51-7.147-18.51-15.882v-5.254z" class="c"/><path d="M-835.585 187.85h-36.742v3.297h36.742z" class="b"/><path d="M-872.08 194.7c-.344-1.206-.527-2.464-.527-3.758v-5.254m5.3 16.345c-1.392-1.22-2.558-2.633-3.438-4.183m35.17-12.17v5.254c0 8.735-8.33 15.882-18.5 15.882-3.882 0-7.496-1.04-10.48-2.8" class="W X Y Z"/><path d="M-867.09 217.162h-.478a1.72 1.72 0 0 0-1.722 1.722l-.588 18.047c0 1.958.9 2.425 2.418 3.65l2.12 1.698c-5.5 3.424-4.05 6.292-4.05 6.292 2.535-3.803 16.345-.976 24.374-2.21a4.32 4.32 0 0 0 3.631-3.714l.195-1.502c1.573 0 2.85.1 2.85-1.463l-.588-20.796a1.72 1.72 0 0 0-1.722-1.722z" class="e"/><path d="M-867.09 217.162h-.55a1.65 1.65 0 0 0-1.65 1.65l-.587 18.178c.02 1.957 1.256 3.7 3.017 4.552l1.52.736c-5.25 3.27-4.167 5.755-4.058 6.258l.03-.001c2.604-3.782 16.437-.926 24.43-2.19 1.874-.296 3.31-1.82 3.552-3.7l.195-1.502c1.573 0 2.85.1 2.85-1.463l-.588-20.868a1.65 1.65 0 0 0-1.65-1.65z" class="W X Y Z"/><path d="M-853.466 199.478h-2.025a2.62 2.62 0 0 0-2.622 2.622v9.704a2.62 2.62 0 0 0 2.622 2.622h2.025c1.448 0 2.622-1.174 2.622-2.623V202.1c0-1.448-1.174-2.622-2.622-2.622" class="b"/><path d="M-853.466 199.478h-2.025a2.62 2.62 0 0 0-2.622 2.622v9.704a2.62 2.62 0 0 0 2.622 2.622h2.025c1.448 0 2.622-1.174 2.622-2.623V202.1c0-1.448-1.174-2.622-2.622-2.622z" class="W X Y Z"/><path d="M-854.18 206.65c-7.602 0-13.822 6.22-13.822 13.823v9.37c0 7.603 6.22 12.437 13.822 12.437s13.823-4.834 13.823-12.437v-9.37c0-7.603-6.22-13.823-13.823-13.823" class="b"/><path d="M-854.18 206.65c-7.602 0-13.822 6.22-13.822 13.823v9.37c0 7.603 6.22 12.437 13.822 12.437s13.823-4.834 13.823-12.437v-9.37c0-7.603-6.22-13.823-13.823-13.823z" class="W X Y Z"/><path d="M-839.585 239.077l-3.58 1.512c.33.36-.168.87 0 1.35 1.196 3.396-5.442 1.986-5.442 1.986s-7.655 3.158-16.393-3.404l-4.363-6.446s12.683-3.6 22.762 5.356c.106-2.732.8-6.725 7.016-8.032v5.01z" class="e"/><g class="W X Y Z"><path d="M-869.796 234.464s12.826-3.813 23 4.877c.078.067.197.02.2-.083.123-2.724 1.473-6.71 7.568-7.99"/><use xlink:href="#G"/><use xlink:href="#G" x="15.216"/><path d="M-855.702 226.184h2.695m-10.167 0h2.764m12.453 0h2.764m-8.85-1.027v-8.57h3.227m-7.242-4.417h7.82l2.28 1.878"/></g><g clip-path="url(#C)" opacity=".3" transform="translate(-1203.39 -144.068)" class="a"><path d="M387.098 382.456l.517.568-.214.183a12.82 12.82 0 0 1-4.884-9.597l-.078-1.857c-.257.094-.53.153-.82.153-1.324 0-2.402-1.078-2.402-2.403V367.9c0-1.325 1.078-2.403 2.402-2.403a2.35 2.35 0 0 1 .56.073l-.445-10.59c-.033-.784.247-1.528.8-2.094a2.83 2.83 0 0 1 2.06-.879h5.082l-.094-1.06c-1.915-.5-3.742-1.234-5.42-2.228l.387-.65a18.37 18.37 0 0 1-2.738-1.983l-.5.57c-1.47-1.29-2.68-2.762-3.596-4.377l.67-.38c-.565-.996-1.01-2.046-1.324-3.144l-.743.212c-.368-1.293-.554-2.626-.554-3.964v-5.254h16.666v40.768c0 4.724-2.066 8.978-5.324 11.94"/></g><use xlink:href="#H" class="b"/><use xlink:href="#H" class="W X Y Z"/><use xlink:href="#H" x="-27.201" class="b"/><use xlink:href="#H" x="-27.201" class="W X Y Z"/><path d="M-787.863 185.68v5.254c0 8.735-8.33 15.882-18.51 15.882s-18.51-7.147-18.51-15.882v-5.254z" class="e"/><path d="M-824.358 194.7a13.67 13.67 0 0 1-.527-3.758v-5.254m5.292 16.345c-1.392-1.22-2.558-2.633-3.438-4.183m35.168-12.17v5.254c0 8.735-8.33 15.882-18.5 15.882-3.882 0-7.496-1.04-10.48-2.8" class="W X Y Z"/><path d="M-801.786 199.478h-9.94l1.336 14.948h7.27z" class="b"/><path d="M-801.786 199.478h-9.94l1.336 14.948h7.27z" class="W X Y Z"/><path d="M-795.212 208.69h-21.594c-1.196 0-2.15.996-2.1 2.19l.783 18.63c.26 6.502 5.608 11.638 12.115 11.638s11.855-5.136 12.115-11.638l.783-18.63c.05-1.195-.905-2.19-2.1-2.19" class="b"/><g class="W X Y Z"><path d="M-795.212 208.69h-21.594c-1.196 0-2.15.996-2.1 2.19l.783 18.63c.26 6.502 5.608 11.638 12.115 11.638s11.855-5.136 12.115-11.638l.783-18.63c.05-1.195-.905-2.19-2.1-2.19z"/><path d="M-814.68 228.34h6.628m-4.123-2.504h1.714m8.303 0h1.714m-4.218 2.504h6.628m-7.966.628v-9.587h-3.352m-1.132-5.47h5.63a6.64 6.64 0 0 1 4.214 1.507l.38.3"/></g><path d="M-802.302 237.66c-1.37-3.092-6.965-1.6-6.37-3.875.287-1.097-2.78 4.23-1.41 7.322s4.222 4.827 6.37 3.875 2.78-4.23 1.41-7.322" class="d"/><path d="M-802.302 237.66c-1.37-3.092-6.965-1.6-6.37-3.875.287-1.097-2.78 4.23-1.4 7.322s4.222 4.827 6.37 3.875 2.78-4.23 1.4-7.322zm-22.583-44.056l6.167-2.67 6.165 2.67 6.167-2.67 6.17 2.67 6.176-2.67 6.176 2.67m-37.02-4.007l6.167-2.67 6.165 2.67 6.167-2.67 6.17 2.67 6.176-2.67 6.176 2.67m-130.232-3.917h2.74m167.205 0h6.05m-171.433 0h163.822" class="W X Y Z"/></g></svg>