<svg xmlns="http://www.w3.org/2000/svg" xmlns:xlink="http://www.w3.org/1999/xlink" width="500" height="280"><style><![CDATA[.I{stroke-miterlimit:10}.J{stroke-width:1.5}.K{stroke:#414042}.L{fill:none}.M{fill:#fff}.N{fill:#414042}.O{fill:#00d4ff}.P{fill:#d1d3d4}]]></style><g transform="matrix(2.591377 0 0 -3.046821 -698.233826 582.360229)"><path d="M354.526 99.726v50.58a2.76 2.76 0 0 1-2.76 2.76H310.97a2.76 2.76 0 0 1-2.76-2.761v-50.58z" class="M"/><path d="M308.21 145.912v4.834a2.32 2.32 0 0 0 2.321 2.321h41.675a2.32 2.32 0 0 0 2.321-2.321v-4.834z" fill="#bcbec0"/><path d="M308.2 145.786h45.847m-40.53 3.3h1.184m2.45.01h1.184m2.436 0h1.184" class="I J K L"/><path d="M348.32 127.068h-33.907v13.374h33.907zm-23.594-21.866h-10.3v13.374h10.3z" fill="#e6e7e8"/><path d="M336.68 105.202h-10.3v13.374h10.3z" fill="#f1f2f2"/><path d="M348.636 105.202h-10.31v13.374h10.31z" fill="#e6e7e8"/><g class="I J K L"><path d="M324.162 122.837h14.417M354.526 133v17.298a2.76 2.76 0 0 1-2.76 2.76H310.97a2.76 2.76 0 0 1-2.76-2.761v-15.76"/><g stroke-linecap="round"><path d="M379.357 187.955h4.377"/><path d="M381.545 185.767v4.377M271.052 134.78h4.377"/><path d="M273.24 132.6v4.377m17.8 19.645l3.095 3.095"/><path d="M294.144 156.612l-3.095 3.095m137.633-2.54l3.095 3.095"/><path d="M431.777 157.167l-3.095 3.095"/></g><path d="M302.574 158.16h30.1m99.64-22.514h30.1M301.038 158.16h-3.125m20.7 29.795h55.65"/></g><g class="N"><path d="M423.63 135.242a1.25 1.25 0 1 0-2.502 0 1.25 1.25 0 1 0 2.502 0m-81.015 26.504a1.25 1.25 0 1 0-2.502 0 1.25 1.25 0 1 0 2.502 0M290.76 136.03a1.25 1.25 0 1 0-2.502 0 1.25 1.25 0 1 0 2.502 0"/><use xlink:href="#B"/><use xlink:href="#B" x="-56.172" y="22.375"/><use xlink:href="#B" x="-139.532" y="22.375"/></g><path d="M407.442 99.726h-70.447c0 19.453 15.77 35.223 35.224 35.223s35.223-15.77 35.223-35.223" class="M"/><path d="M372.22 125.95c16.342 0 30.08-11.13 34.058-26.223h1.165c0 19.453-15.77 35.223-35.223 35.223s-35.223-15.77-35.223-35.223h1.164c3.978 15.092 17.717 26.223 34.06 26.223" class="P"/><g class="I J K L"><path d="M394.4 127.192a35.52 35.52 0 0 0 3.366-3.1l1.934-2.202m-62.8-22.164c0 19.495 15.806 35.303 35.308 35.303 7.313 0 14.106-2.223 19.74-6.03m-7.325 3.78c4.77-7.725 7.88-17.776 8.495-28.897v-4.158m-32.4 33.055c-4.772-7.73-7.9-17.8-8.503-28.92v-4.136"/><path d="M372.22 135.028V99.725"/><path d="M341.364 116.498h61.956"/></g><path d="M372.22 154.305a9.33 9.33 0 0 0-9.326 9.326 9.33 9.33 0 0 0 9.326 9.326 9.33 9.33 0 0 0 9.326-9.326 9.33 9.33 0 0 0-9.326-9.326m0 23.82c-8.88 0-16.08-7.2-16.08-16.08s16.08-27.018 16.08-27.018 16.08 18.138 16.08 27.018-7.2 16.08-16.08 16.08" fill="#ffb936"/><path d="M372.22 154.305a9.33 9.33 0 0 0-9.326 9.326 9.33 9.33 0 0 0 9.326 9.326 9.33 9.33 0 0 0 9.326-9.326 9.33 9.33 0 0 0-9.326-9.326zm-8.248 21.545l-3.12-2.433m-2.288-2.88c-1.535-2.464-2.422-5.374-2.422-8.49 0-8.88 16.08-27.018 16.08-27.018s16.08 18.138 16.08 27.018-7.2 16.08-16.08 16.08c-2.045 0-4.002-.382-5.8-1.078" class="I J K L"/><g class="M"><path d="M408.4 159.38h-.113a4.12 4.12 0 0 1-3.954 2.97 4.09 4.09 0 0 1-2.221-.653c-.417 2.702-2.746 4.774-5.565 4.774a5.64 5.64 0 0 1-5.384-3.964c-.322.087-.658.137-1.006.137a3.87 3.87 0 0 1-3.82-3.264h-.63a2.9 2.9 0 0 1-2.891-2.891v-.213a2.9 2.9 0 0 1 2.891-2.891H408.4a2.9 2.9 0 0 1 2.891 2.891v.213a2.9 2.9 0 0 1-2.891 2.891"/><use xlink:href="#C"/></g><g class="I K L"><path d="M408.4 159.38h-.113a4.12 4.12 0 0 1-3.954 2.97 4.09 4.09 0 0 1-2.221-.653c-.417 2.702-2.746 4.774-5.565 4.774a5.64 5.64 0 0 1-5.384-3.964c-.322.087-.658.137-1.006.137a3.87 3.87 0 0 1-3.82-3.264h-.63a2.9 2.9 0 0 1-2.891-2.891v-.213a2.9 2.9 0 0 1 2.891-2.891H408.4a2.9 2.9 0 0 1 2.891 2.891v.213a2.9 2.9 0 0 1-2.891 2.891z"/><use xlink:href="#C" class="J"/></g><path d="M354.548 174.773h-.08a2.94 2.94 0 0 1-2.822 2.12c-.585 0-1.128-.172-1.585-.466-.298 1.93-1.96 3.407-3.972 3.407-1.807 0-3.335-1.2-3.844-2.83a2.74 2.74 0 0 1-.718.098 2.76 2.76 0 0 1-2.726-2.33h-.45a2.07 2.07 0 0 1-2.064-2.064v-.15a2.07 2.07 0 0 1 2.064-2.064h16.198a2.07 2.07 0 0 1 2.063 2.064v.15a2.07 2.07 0 0 1-2.063 2.064" class="M"/><path d="M341.244 170.494h-2.893a2.07 2.07 0 0 0-2.064 2.063v.152a2.07 2.07 0 0 0 2.064 2.064h.45a2.76 2.76 0 0 0 2.726 2.33 2.74 2.74 0 0 0 .718-.098c.51 1.64 2.037 2.83 3.844 2.83a4.02 4.02 0 0 0 3.971-3.408c.458.295 1 .467 1.586.467a2.94 2.94 0 0 0 2.822-2.12h.08a2.07 2.07 0 0 0 2.063-2.064v-.152a2.07 2.07 0 0 0-2.063-2.063h-3.126z" class="I J K L"/><path d="M438.507 146.3h-.05a1.87 1.87 0 0 1-1.796 1.349c-.372 0-.717-.1-1.008-.297a2.56 2.56 0 0 1-4.972.368 1.77 1.77 0 0 1-.457.062c-.877 0-1.602-.642-1.735-1.482h-.286a1.32 1.32 0 0 1-1.313-1.313v-.096a1.32 1.32 0 0 1 1.313-1.313h10.305a1.32 1.32 0 0 1 1.313 1.313v.096a1.32 1.32 0 0 1-1.313 1.313" class="M"/><path d="M430.042 143.578h-1.84a1.32 1.32 0 0 0-1.313 1.313v.096a1.32 1.32 0 0 0 1.313 1.313h.287c.132.84.857 1.482 1.734 1.482.16 0 .31-.023.457-.062a2.56 2.56 0 0 0 4.972-.368 1.86 1.86 0 0 0 1.008.297 1.87 1.87 0 0 0 1.796-1.349h.05a1.32 1.32 0 0 0 1.313-1.313v-.096a1.32 1.32 0 0 0-1.313-1.313h-1.99z" class="I J K L"/><use xlink:href="#D" class="M"/><path d="M397.435 186.835h-.94a.9.9 0 0 1-.799-1.306l4.015-7.85h3.34l-5.515 8.78c-.063.123-.1.25-.1.375" class="P"/><use xlink:href="#D" class="I J K L"/><path d="M438.207 181.778h-.1c-.433 1.494-1.8 2.587-3.444 2.587a3.57 3.57 0 0 1-1.935-.569c-.363 2.354-2.39 4.16-4.847 4.16-2.204 0-4.07-1.453-4.69-3.453a3.37 3.37 0 0 1-4.203-2.724h-.55c-1.385 0-2.518-1.133-2.518-2.52v-.185c0-1.385 1.133-2.518 2.518-2.518h19.77c1.385 0 2.518 1.133 2.518 2.518v.185c0 1.386-1.133 2.52-2.518 2.52" class="M"/><g class="I J K L"><path d="M438.207 176.556c1.385 0 2.518 1.133 2.518 2.518v.186c0 1.385-1.133 2.518-2.518 2.518h-.1a3.59 3.59 0 0 1-3.444 2.588 3.57 3.57 0 0 1-1.935-.57c-.363 2.354-2.39 4.16-4.847 4.16-2.204 0-4.07-1.452-4.69-3.452-.28.075-.572.118-.876.118a3.37 3.37 0 0 1-3.327-2.843h-.55c-.918 0-1.727-.5-2.166-1.24"/><path d="M431.08 184.194a4.08 4.08 0 0 1-3.43 1.865 4.07 4.07 0 0 1-2.085-.57m-3.187-.853a1.75 1.75 0 0 0 1.748-1.748"/></g><path d="M438.12 174.628h-.826c-.736 2-2.64 3.432-4.894 3.432h-34.976a8.74 8.74 0 0 1 8.739-8.739h31.957a2.41 2.41 0 0 1 2.41 2.41v.487a2.41 2.41 0 0 1-2.41 2.41" class="M"/><path d="M438.12 171.37h-31.957c-4.12 0-7.565 2.854-8.488 6.69h-.25a8.74 8.74 0 0 1 8.739-8.739h31.957a2.41 2.41 0 0 1 2.41 2.409v.488c0 .275-.056.534-.14.78-.325-.945-1.213-1.63-2.27-1.63" class="P"/><path d="M438.12 174.628h-.826c-.736 2-2.64 3.432-4.894 3.432h-34.976a8.74 8.74 0 0 1 8.739-8.739h31.957a2.41 2.41 0 0 1 2.41 2.41v.487a2.41 2.41 0 0 1-2.41 2.41z" class="I J K L"/><path d="M407.452 175.282h-10.144c-.647 0-1.172.525-1.172 1.172v.434a1.17 1.17 0 0 0 1.172 1.172h10.144a1.17 1.17 0 0 0 1.172-1.172v-.434c0-.647-.525-1.172-1.172-1.172m19.684-6.985h-12.44a1.17 1.17 0 0 0-1.171 1.172v.945a1.17 1.17 0 0 0 1.171 1.172h12.44c.647 0 1.172-.525 1.172-1.172v-.945c0-.647-.525-1.172-1.172-1.172" class="O"/><path d="M407.452 175.282h-10.144c-.647 0-1.172.525-1.172 1.172v.434a1.17 1.17 0 0 0 1.172 1.172h10.144a1.17 1.17 0 0 0 1.172-1.172v-.434c0-.647-.525-1.172-1.172-1.172zm19.684-6.985h-12.44a1.17 1.17 0 0 0-1.171 1.172v.945a1.17 1.17 0 0 0 1.171 1.172h12.44c.647 0 1.172-.525 1.172-1.172v-.945c0-.647-.525-1.172-1.172-1.172zm3.094 6.985h4.378m-9.498 0h2.2m-5.73 0h2.2m-5.717 0h2.2m-5.738 0h2.2m-5.718 0h2.2" class="I J K L"/><use xlink:href="#E" class="M"/><path d="M429.307 111.75h6.41c.246 0 .635-.06.87-.132l1.044-.326-2.382 6.547s-.25 1.176-2.26.842h-4.568v-6.042a.89.89 0 0 1 .888-.889" class="O"/><use xlink:href="#F" class="M"/><use xlink:href="#G" class="I J K L"/><use xlink:href="#H" class="N"/><use xlink:href="#F" x="15.893" class="M"/><use xlink:href="#G" x="15.893" class="I J K L"/><use xlink:href="#H" x="15.893" class="N"/><path d="M405.7 102.48c0-1.52-1.233-2.753-2.752-2.753s-2.754 1.232-2.754 2.753 1.232 2.753 2.754 2.753S405.7 104 405.7 102.48" class="M"/><path d="M405.7 102.48c0-1.52-1.233-2.753-2.752-2.753s-2.754 1.232-2.754 2.753 1.232 2.753 2.754 2.753S405.7 104 405.7 102.48z" class="I J K L"/><path d="M404.024 102.48c0-.6-.486-1.087-1.086-1.087s-1.087.486-1.087 1.087.486 1.087 1.087 1.087 1.086-.487 1.086-1.087" class="N"/><g class="I J K L"><path d="M424.31 104.75h-9.803"/><path d="M398.595 103.538c0 1.855 1.505 3.36 3.36 3.36h9.243a3.36 3.36 0 0 0 3.36-3.361v-.706"/></g><path d="M423.28 108.484h-24.51c-.592 0-1.073.48-1.073 1.073v15.51c0 .592.48 1.073 1.073 1.073h24.51c.593 0 1.073-.48 1.073-1.073v-15.51c0-.593-.48-1.073-1.073-1.073" fill="#ffb936"/><path d="M416.28 126.14h6.998c.593 0 1.073-.48 1.073-1.073v-15.51c0-.592-.48-1.073-1.073-1.073h-24.51c-.592 0-1.073.48-1.073 1.073v8.676" class="I J K L"/><path d="M421.775 113.673h-21.5v8.097h21.5z" class="M"/><g class="I J K L"><path d="M433.765 118.79l-6.218 5.254"/><path d="M429.582 122.176v-2.848"/><use xlink:href="#E"/></g><use xlink:href="#I" fill="#9ecfef"/><use xlink:href="#I" fill="#f1f2f2"/><g class="I J K L"><use xlink:href="#I"/><path d="M413.1 119.328h7.13m-18.394-3.098h18.396"/></g><path d="M414.875 128.424c0-5.628-4.563-10.19-10.19-10.19s-10.19 4.563-10.19 10.19 4.563 10.19 10.19 10.19 10.19-4.563 10.19-10.19" class="M"/><path d="M411.8 135.72a10.16 10.16 0 0 0 3.075-7.295c0-5.628-4.563-10.2-10.2-10.2s-10.2 4.563-10.2 10.2 4.562 10.2 10.2 10.2c.963 0 1.895-.134 2.778-.383m1.1-.382c.847-.35 1.636-.808 2.35-1.36" class="I J K L"/><path d="M410.004 128.424a5.32 5.32 0 0 0-5.32-5.32c-2.938 0-5.32 2.382-5.32 5.32s2.383 5.32 5.32 5.32a5.32 5.32 0 0 0 5.32-5.32" class="O"/><path d="M405.184 128.424a.5.5 0 1 0-1 0 .5.5 0 1 0 1 0zm-.5 9.316v-1.77m4.666.517l-.887-1.533m4.297-1.888l-1.535-.882m2.775-3.788l-1.77.006m.502-4.67l-1.53.892m-1.898-4.3l-.875 1.54m-3.802-2.768l.016 1.77m-4.677-.486l.903 1.524m-4.3 1.928l1.546.865m-2.755 3.803l1.77-.016m-.475 4.67l1.525-.9m1.938 4.3l.868-1.544" class="I J K L"/><g class="N"><path d="M403.934 128.396l.3 6.267h.88l.3-6.267z"/><path d="M404.665 129.145l5.524-.167.023-.88-5.508-.45z"/></g><path d="M316.115 100.058h-16.687c-1.098 0-1.987.9-1.987 1.987v28.907c0 1.098.89 1.987 1.987 1.987h16.687c1.097 0 1.987-.89 1.987-1.987v-28.907a1.99 1.99 0 0 0-1.987-1.987" class="M"/><g class="I J K L"><path d="M297.44 122.464v8.627a1.85 1.85 0 0 0 1.848 1.848h16.965a1.85 1.85 0 0 0 1.848-1.848v-10.345m.001-10.266v-8.574a1.85 1.85 0 0 0-1.848-1.848H299.3a1.85 1.85 0 0 0-1.848 1.848v12.706"/><path d="M304.714 130.462h6.116m-2.067-27.715a.99.99 0 1 0-1.983 0 .99.99 0 1 0 1.983 0z"/></g><path d="M316.036 104.902h-16.53v23.292h16.53z" class="O"/><g class="I J K L"><path d="M315.2 107.13h.95m-9.137 0h3.356"/><path d="M292.08 121.114l5.072-.384 4.347-13.6h.723m-4.13 11.003h20.906"/><path d="M298.83 115.784h19m-18.462-2.35h17.925"/><use xlink:href="#J"/><use xlink:href="#J" x="8.066"/><path d="M319.183 119.4l-2.724-8.5h-16.105m-14.8-11.184h163.822m-168.383.01h2.74m167.207 0H457"/></g></g><defs ><path id="B" d="M445.172 157.79c0-.51-.415-.926-.926-.926s-.926.415-.926.926.415.926.926.926.926-.415.926-.926"/><path id="C" d="M389.76 153.385h-4.054a2.9 2.9 0 0 0-2.891 2.891v.213a2.9 2.9 0 0 0 2.891 2.891h.63a3.87 3.87 0 0 0 3.82 3.264 3.84 3.84 0 0 0 1.006-.137 5.64 5.64 0 0 0 5.384 3.964c2.82 0 5.148-2.072 5.565-4.775.64.413 1.402.654 2.22.654a4.12 4.12 0 0 0 3.954-2.97h.113a2.9 2.9 0 0 0 2.891-2.891v-.213a2.9 2.9 0 0 0-2.891-2.891h-4.38z"/><path id="D" d="M408.282 177.68h-8.57l-4.015 7.85a.9.9 0 0 0 .799 1.306h2.963a.9.9 0 0 0 .661-.289z"/><path id="E" d="M435.246 117.84a1.32 1.32 0 0 1-1.172.841h-7.398v-11.647c2.173 0 3.935-1.762 3.935-3.937h6.972v7.792z"/><path id="F" d="M412.97 102.48c0-1.52-1.233-2.753-2.752-2.753s-2.754 1.233-2.754 2.753 1.232 2.753 2.754 2.753 2.752-1.233 2.752-2.753"/><path id="G" d="M412.97 102.48c0-1.52-1.233-2.753-2.752-2.753s-2.754 1.233-2.754 2.753 1.232 2.753 2.754 2.753 2.752-1.233 2.752-2.753z"/><path id="H" d="M411.304 102.48c0-.6-.486-1.087-1.086-1.087s-1.087.486-1.087 1.087a1.09 1.09 0 0 0 1.087 1.087c.6 0 1.086-.487 1.086-1.087"/><path id="I" d="M438.325 103.16a.33.33 0 0 0-.329-.33h-3.12c-.182 0-.332.148-.332.33v1.782c0 .182.15.33.332.33h3.12a.33.33 0 0 0 .329-.33z"/><path id="J" d="M306.354 107.13c0-.93-.754-1.684-1.684-1.684s-1.684.754-1.684 1.684.754 1.684 1.684 1.684 1.684-.754 1.684-1.684z"/></defs></svg>