<svg xmlns="http://www.w3.org/2000/svg" xmlns:xlink="http://www.w3.org/1999/xlink" width="500" height="280"><style><![CDATA[.I{stroke-miterlimit:10}.J{stroke-width:1.5}.K{stroke:#414042}.L{fill:none}.M{fill:#fff}.N{fill:#ffb936}.O{fill:#00d4ff}.P{fill:#414042}]]></style><defs><clipPath id="A"><path d="M89.506 114.933H101.2V81.276H89.506z"/></clipPath><clipPath id="B"><path d="M130.457 154.428h9.572V82.026h-9.572z"/></clipPath><clipPath id="C"><path d="M122.036 107.628h15.243V82.026h-15.243z"/></clipPath><path id="D" d="M46.364 290.48c0-.954-.773-1.727-1.728-1.727a1.73 1.73 0 0 0-1.727 1.727 1.73 1.73 0 0 0 1.727 1.727c.955 0 1.728-.773 1.728-1.727"/><path id="E" d="M121.676 276.034c1.173 0 2.124-.95 2.124-2.125s-.95-2.124-2.124-2.124-2.125.95-2.125 2.124.952 2.125 2.125 2.125"/><path id="F" d="M121.676 276.034c1.173 0 2.124-.95 2.124-2.125s-.95-2.124-2.124-2.124-2.125.95-2.125 2.124.952 2.125 2.125 2.125z"/><path id="G" d="M78.306 281.998c0-2.698-2.18-4.88-4.872-4.88s-4.877 2.18-4.877 4.88l-9.73-.114.001-.72a1.54 1.54 0 0 1 1.529-1.544l2.37-.007a10.84 10.84 0 0 1 1.413-3.423l-1.7-1.683c-.6-.594-.602-1.566-.004-2.17l1.25-1.26c.602-.608 1.576-.608 2.174-.01l1.687 1.673c1.035-.656 2.185-1.15 3.424-1.433l-.01-2.37c-.003-.848.683-1.542 1.53-1.542l1.778-.007c.85 0 1.54.682 1.54 1.527l.007 2.378c1.235.278 2.39.765 3.43 1.415l1.676-1.688c.597-.6 1.573-.6 2.18 0l1.253 1.254c.603.596.607 1.573.001 2.17l-1.667 1.686c.654 1.038 1.143 2.188 1.424 3.425l2.373-.007a1.54 1.54 0 0 1 1.539 1.534v1.005z"/></defs><g transform="matrix(2.660662 0 0 -2.690921 21.081022 934.535034)"><path d="M148.894 244.103v92.25a3.56 3.56 0 0 1-3.561 3.561h-52.63a3.56 3.56 0 0 1-3.561-3.561v-92.25z" fill="#bcbec0"/><path d="M144.015 244.103v92.25c0 1.967-1.352 3.56-3.02 3.56H96.374c-1.667 0-3.02-1.594-3.02-3.56v-92.25z" class="M"/><path d="M89.144 330.684v6.236c0 1.654 1.34 2.995 2.994 2.995H145.9c1.654 0 2.995-1.34 2.995-2.995v-6.236z" fill="#bcbec0"/><g class="I J K L"><path d="M89.144 319.036v17.884c0 1.654 1.34 2.995 2.994 2.995h7.934m10.38 0H145.9c1.653 0 2.994-1.34 2.994-2.995v-92.384"/><path d="M102.97 339.915h4.104m-17.93-9.393h59.75m-52.89 4.27h1.4m2.645 0h1.4"/><path d="M104.075 334.792h1.39"/></g><path d="M140.89 306.376H97.147v17.254h43.742z" class="N"/><path d="M110.452 278.167h-13.3v17.253h13.3z" fill="#e6e7e8"/><path d="M125.673 278.167h-13.3v17.253h13.3z" fill="#f1f2f2"/><path d="M140.894 278.167h-13.3v17.253h13.3z" fill="#e6e7e8"/><path d="M109.724 300.918h18.6" class="I J K L"/><path d="M22.862 244.103h33.712c1.416 0 2.564 1.148 2.564 2.563v27.03c0 1.416-1.148 2.564-2.564 2.564H22.862c-1.416 0-2.563-1.148-2.563-2.564v-27.03c0-1.415 1.147-2.563 2.563-2.563" class="M"/><path d="M20.298 254.492l13.434 8.2 9.327-5.444 7.963 8.376 8.115-9.18V251.7h-38.84z" class="O"/><path d="M59.137 251.7h-38.84m38.84 4.746l-8.115 9.18-7.963-8.376-9.327 5.444-13.434-8.2" class="I J K L"/><path d="M37.05 269.898a1.6 1.6 0 0 1 1.6-1.6 1.6 1.6 0 1 1 0 3.2 1.6 1.6 0 0 1-1.6-1.6" class="N"/><path d="M37.05 269.898a1.6 1.6 0 1 1 1.6 1.6 1.6 1.6 0 0 1-1.6-1.6zm16.45 1.6h-8.862m12.342-2.55h-8.862m.956 7.312H35.717m-15.42-14.064v-15.53c0-1.416 1.147-2.563 2.563-2.563h33.713c1.415 0 2.563 1.147 2.563 2.563" class="I J K L"/><path d="M33.648 265.387l-1.376 7.445a14.05 14.05 0 0 1 1.234 5.754c0 7.8-6.322 14.12-14.12 14.12s-14.12-6.32-14.12-14.12 6.322-14.12 14.12-14.12c2.754 0 5.315.8 7.487 2.164z" class="M"/><path d="M25.018 291.54a14.08 14.08 0 0 1-5.632 1.168c-7.798 0-14.12-6.322-14.12-14.12s6.322-14.12 14.12-14.12c2.754 0 5.315.8 7.487 2.164l6.776-1.243-1.376 7.446c.786 1.758 1.233 3.702 1.233 5.754a14.06 14.06 0 0 1-3.147 8.887m-.95 1.058a14.13 14.13 0 0 1-2.978 2.293" class="I J K L"/><path d="M30.358 278.587c0-5.88-4.88-10.648-10.9-10.648s-10.9 4.767-10.9 10.648 4.88 10.648 10.9 10.648 10.9-4.767 10.9-10.648" class="N"/><g class="I J K L"><path d="M25.277 277.618h1.6c.518 0 .94.424.94.942s-.423.94-.94.94h-1.6m-1.652-3.765h2.272c.518 0 .942.424.942.942s-.424.94-.942.94h-2.272"/><path d="M24.022 275.735h.888c.517 0 .94-.424.94-.942s-.424-.94-.94-.94h-5.356a.9.9 0 0 0-.643.27l-.938.958c-.143.147-.338.23-.543.23h-.225m6.42 4.19h2.888c.518 0 .942.424.942.942s-.424.94-.942.94H20.66s.777 1.956.777 2.88c0 .424.097 1.28-.164 1.686-.105.163-.858.167-.964.005 0 0-.715-2.218-1.2-2.866l-1.3-1.706h-.992"/><path d="M11.77 282.408h1.03m2.276 0h1.15a.78.78 0 0 0 .781-.782v-6.45a.78.78 0 0 0-.781-.781H11.77m1.347 8.012H14.3m5.157 17.3V294.2m4.777 2.128l-.714-2.654m6.542 3.18l-2.76-4.754m5.196-.567l-1.95-1.937m7.255-.533l-4.772-2.728m4.2-3.392l-2.66-.392M14.5 261.07l.7 2.473m-6.585-3.093l2.82 4.718m-5.335.457l2.134 2.087m-7.257.628l4.807 2.665M1.4 274.157l2.893.662M-1.67 279l5.496-.107M1.803 283.7l2.64-.766M1.4 289.546l4.7-2.85m.668 5.18l1.9-1.987m.662 7.244l2.634-4.824m3.18 4.147l.645-2.672"/><g stroke-linecap="round"><path d="M77.774 330.522h4.274"/><path d="M79.9 328.385v4.274m95.057-41.61h4.274"/><path d="M177.105 288.912v4.274m-184.26 1.3h4.274"/><path d="M-5.02 292.35v4.274m42.16 16.868l3.022 3.022"/><path d="M40.16 313.492l-3.022 3.022m132.327 4.093l3.022 3.022"/><path d="M172.488 320.607l-3.022 3.022"/></g><path d="M52.512 330.522h17.396m84.76-39.472h17.396M23.198 337.815h38.396m13.384-7.293h-3.57"/></g><g class="P"><use xlink:href="#D"/><use xlink:href="#D" x="127.464" y="11.432"/><use xlink:href="#D" x="30.978" y="55.2"/><path d="M10.08 304.207a1.27 1.27 0 1 0-2.54 0 1.27 1.27 0 1 0 2.54 0M158.2 269.6a1.27 1.27 0 0 0-2.54 0 1.27 1.27 0 1 0 2.54 0M20.528 324.26a.86.86 0 1 0-1.723 0 .86.86 0 1 0 1.723 0m139.385 5.216a.86.86 0 1 0-1.723 0 .86.86 0 1 0 1.723 0"/></g><g transform="translate(-41.314 162.076)" class="P"><g clip-path="url(#A)" opacity=".3"><path d="M99.96 82.026c.75.608 1.24 1.525 1.24 2.563h-.75v9.78l.562.497-.562.635v16.117c0 1.416-1.148 2.564-2.563 2.564h-7.5v.75h-.882v-28.88c0-1.027.333-1.974.888-2.755.202-.52.614-.933 1.135-1.134a4.74 4.74 0 0 1 2.755-.888v.75z"/></g><g clip-path="url(#B)" opacity=".3"><path d="M139.28 84.013v25.04h.75v40.597c0 1.028-.333 1.975-.888 2.755-.2.52-.613.933-1.134 1.135-.78.554-1.728.887-2.755.887h-4.795v-72.4h6.835c1.098 0 1.987.9 1.987 1.987"/></g></g><path d="M93.978 244.103H52.93a1.99 1.99 0 0 0-1.987 1.987v67.677c0 1.098.9 1.987 1.987 1.987h41.05c1.097 0 1.987-.89 1.987-1.987V246.1a1.99 1.99 0 0 0-1.987-1.987" class="M"/><path d="M54.97 244.103a4.03 4.03 0 0 0-4.027 4.027v63.597a4.03 4.03 0 0 0 4.027 4.027h3.836m9.674 0h23.458a4.03 4.03 0 0 0 4.028-4.027V271.13M66.8 310.356h13.326m-4.5-60.394a2.16 2.16 0 1 0-4.322 0 2.16 2.16 0 1 0 4.322 0z" class="I J K L"/><path d="M91.462 254.66H55.444v50.755h36.018z" class="O"/><path d="M61.045 315.754h4.747" class="I J K L"/><g clip-path="url(#C)" opacity=".3" transform="translate(-41.314 162.076)"><path d="M137.28 84.013v23.615h-13.792c-.8 0-1.45-.65-1.45-1.45v-23.45c0-.255.072-.49.188-.7h13.068a1.99 1.99 0 0 1 1.987 1.987" fill="#0686d8"/></g><path d="M119.557 244.103H84.173a.7.7 0 0 0-.7.7v23.45a.7.7 0 0 0 .7.701h35.384a.7.7 0 0 0 .7-.701v-23.45a.7.7 0 0 0-.7-.7" class="M"/><path d="M105.08 258.652l-5.85-3.378c-.368-.213-.83.053-.83.48v6.756c0 .425.46.69.83.478l5.85-3.377c.37-.213.37-.745 0-.958" class="O"/><g class="I J K L"><path d="M87.576 248.648h28.203"/><path d="M93.883 246.404v4.486"/></g><path d="M111.75 259.97l1.447 7.83c-.827 1.85-1.298 3.894-1.298 6.05 0 8.202 6.65 14.85 14.85 14.85s14.85-6.65 14.85-14.85S134.95 259 126.75 259c-2.896 0-5.6.84-7.874 2.275z" class="M"/><path d="M120.826 287.474c1.815.8 3.818 1.228 5.923 1.228 8.202 0 14.85-6.65 14.85-14.85S134.95 259 126.75 259a14.72 14.72 0 0 0-7.874 2.275l-7.126-1.307 1.447 7.83c-.828 1.85-1.298 3.894-1.298 6.05a14.79 14.79 0 0 0 3.31 9.348m1 1.117a14.9 14.9 0 0 0 3.132 2.412" class="I J K L"/><path d="M115.21 273.85c0-6.185 5.133-11.2 11.465-11.2s11.465 5.014 11.465 11.2-5.133 11.2-11.465 11.2-11.465-5.014-11.465-11.2" class="O"/><path d="M122.505 274.313l8.012 5.22m0-11.553l-8.115 5.557" class="I J K L"/><use xlink:href="#E" class="M"/><use xlink:href="#F" class="I J K L"/><use xlink:href="#E" x="8.841" y="5.624" class="M"/><use xlink:href="#F" x="8.841" y="5.624" class="I J K L"/><path d="M130.517 270.293c1.173 0 2.124-.95 2.124-2.124s-.95-2.125-2.124-2.125-2.125.95-2.125 2.125.952 2.124 2.125 2.124" class="M"/><path d="M130.517 270.293c1.173 0 2.124-.95 2.124-2.124s-.95-2.125-2.124-2.125-2.125.95-2.125 2.125.952 2.124 2.125 2.124zm-10.26-12.04v-13.45a.7.7 0 0 0-.7-.7H84.173a.7.7 0 0 0-.701.7v23.45a.7.7 0 0 0 .701.7h26.816M-.457 244.103h163.822m-168.385 0h2.74m167.207 0h6.05" class="I J K L"/><path d="M73.207 292.996a10.9 10.9 0 0 1-10.677-11.112 10.9 10.9 0 0 1 11.111-10.677 10.9 10.9 0 0 1 10.678 11.112 10.9 10.9 0 0 1-11.112 10.677" class="N"/><g class="I J K L"><path d="M84.16 283.984a10.9 10.9 0 0 1-10.951 9.011 10.92 10.92 0 0 1-2.676-.386m-6.14-4.4a10.85 10.85 0 0 1-1.763-4.596m6.273 8.415a10.9 10.9 0 0 1-3.245-2.275M76.25 286.3h-3.494c-.738 0-1.337-.598-1.337-1.336a1.34 1.34 0 0 1 1.337-1.336h1.438a1.34 1.34 0 0 0 1.336-1.336 1.34 1.34 0 0 0-1.336-1.337h-3.597"/><path d="M73.424 288.5v-9.764"/></g><use xlink:href="#G" class="M"/><g class="I J K L"><use xlink:href="#G"/><path d="M73.14 296.276v-1.55m5.6 2.786l-1.258-3.45m5.03-.707l-1.182-1.406m6.077-1.47l-3.183-1.833m3.406-3.776l-1.817-.317m-26.668-.126l1.807-.342m-1.736 6.007l3.17-1.856m1.662 4.744l1.105-1.335m2.537 5.715l1.232-3.46"/></g></g></svg>