<svg xmlns="http://www.w3.org/2000/svg" xmlns:xlink="http://www.w3.org/1999/xlink" width="500" height="280"><style><![CDATA[.AI{stroke-miterlimit:10}.AJ{stroke-width:1.5}.AK{stroke:#414042}.AL{fill:none}.AM{fill:#fff}.AN{fill:#00d4ff}.AO{fill:#414042}.AP{fill:#ffb936}]]></style><defs><clipPath id="A"><path d="M132.304 399.313h29.208v-70.04h-29.208z"/></clipPath><clipPath id="B"><path d="M78.773 371.203h12.653V341.18H78.773z"/></clipPath><clipPath id="C"><path d="M78.023 398.563h18.12v-18.698h-18.12z"/></clipPath><path id="D" d="M-573.457 639.132c0-.505-.4-.915-.915-.915s-.916.4-.916.915.4.915.916.915.915-.41.915-.915"/><path id="E" d="M-536.826 581.95v-15.107c0-.797.647-1.443 1.444-1.444l2.05.001c.797 0 1.443.646 1.444 1.443v15.107z"/></defs><g transform="matrix(2.526966 0 0 -2.725401 1665.291626 1818.940552)"><path d="M-495.14 565.432v78.23a3.85 3.85 0 0 1-3.847 3.848h-56.863a3.85 3.85 0 0 1-3.847-3.848v-78.23z" fill="#bcbec0"/><path d="M-500.413 565.432v78.23c0 2.125-1.46 3.848-3.262 3.848h-48.21c-1.802 0-3.262-1.723-3.262-3.848v-78.23z" class="AM"/><path d="M-559.698 637.536v6.738c0 1.787 1.448 3.235 3.235 3.235h58.087c1.787 0 3.235-1.448 3.235-3.235v-6.738z" fill="#bcbec0"/><g class="AI AJ AK AL"><path d="M-559.698 636.274v8c0 1.787 1.448 3.236 3.235 3.236h8.573m11.215 0h38.3c1.787 0 3.235-1.45 3.235-3.235V565.4"/><path d="M-544.76 647.5h4.434m-19.372-10.15h64.557m-57.143 4.624h1.503m2.856 0h1.503"/><path d="M-543.565 641.974h1.503"/></g><path d="M-503.79 611.273h-47.26v18.64h47.26z" class="AP"/><path d="M-536.674 580.795h-14.37v18.64h14.37z" class="AN"/><path d="M-520.23 580.795h-14.37v18.64h14.37z" fill="#e6e7e8"/><path d="M-503.784 580.795h-14.37v18.64h14.37z" class="AN"/><g class="AI AJ AK AL"><g stroke-linecap="round"><path d="M-491.898 630.91h4.274"/><path d="M-489.76 628.772v4.274m-130.598 31.17h4.274"/><path d="M-618.22 662.08v4.274m65.77-9.832l3.022 3.022"/><path d="M-549.427 656.522l-3.022 3.022m-105.78-49.184l3.022 3.022"/><path d="M-655.207 610.36l-3.022 3.022"/></g><path d="M-483.7 630.9h17.396m-186.154-19.04h20.726m35.468 46.173h40.717m94.302-27.123h-3.57M-586.6 664.216h-17.396m-5.07 0h3.57"/></g><g class="AO"><path d="M-644.2 591.62c0-.705-.572-1.276-1.277-1.276s-1.276.57-1.276 1.276.572 1.276 1.276 1.276 1.277-.57 1.277-1.276"/><use xlink:href="#D"/><use xlink:href="#D" x="42.604" y="25.084"/><use xlink:href="#D" x="96.077" y="-28.772"/><path d="M-633.82 659.544a1.22 1.22 0 1 0-2.444 0 1.22 1.22 0 1 0 2.444 0m145.28-65.294a1.22 1.22 0 1 0-2.444 0 1.22 1.22 0 1 0 2.444 0"/></g><g clip-path="url(#A)" opacity=".3" transform="translate(-692.001 236.158)" class="AO"><path d="M159.725 398.316c-.785.615-1.76.997-2.83.997h-24.59v-70.04h5.513v.718h-4.25v11.19h21.195v.75h4a2 2 0 0 1 2 2v32.282h.75v18.482c0 1.072-.382 2.048-.997 2.832a1.97 1.97 0 0 1-.789.789"/></g><path d="M-533.24 587.144h-79.988v45.604c0 1.1.883 1.973 1.973 1.973h76.042c1.09 0 1.973-.883 1.973-1.973z" fill="#58595b"/><path d="M-613.228 608.144v8.7m16.964 17.876h59.156a3.87 3.87 0 0 0 3.868-3.867V612.37" class="AI AJ AK AL"/><path d="M-537.5 592.5h-71.396v37.578h71.396zm-23.694-26.823h-24.1v14.266h24.1z" class="AM"/><path d="M-561.184 572.8h-24.1v7.133h24.1z" fill="#d1d3d4"/><path d="M-561.184 565.667h-24.1v14.266h24.1z" class="AI AJ AK AL"/><path d="M-533.24 588.89h-79.988v-8.802a2 2 0 0 1 2-2h75.988a2 2 0 0 1 2 2z" class="AM"/><path d="M-601.728 578.1h62.488m-6.5 10.8h-55.988m11.758-23.5h33.784" class="AI AJ AK AL"/><path d="M-516.8 584.96h-2.053v18.19h2.053z" class="AM"/><path d="M-517.227 565.4h-1.18c-1.417 0-2.566 1.15-2.566 2.567v16.854h6.313v-16.854a2.57 2.57 0 0 0-2.567-2.567" class="AP"/><g class="AI AJ AK AL"><path d="M-517.227 565.4h-1.18c-1.417 0-2.566 1.15-2.566 2.567v16.854h6.313v-16.854a2.57 2.57 0 0 0-2.567-2.567z"/><path d="M-522.85 584.82h10.066"/></g><path d="M-516.07 602.855h-3.504l.416 6.2h2.69z" class="AM"/><path d="M-518.843 584.96h2.053v17.895h.72l-.397 6.19h-2.69l-.415-6.19h.73z" class="AI AJ AK AL"/><path d="M-496.115 600.34c0 3.254-1.882 6.06-4.612 7.414v-7.157l-3.666-2.117-3.667 2.117v7.157c-2.73-1.353-4.612-4.16-4.612-7.414 0-3.405 2.058-6.328 4.997-7.6l.047-24.06a3.28 3.28 0 1 1 6.564 0l-.047 24.06c2.938 1.27 4.996 4.194 4.996 7.6" fill="#6d6e71"/><path d="M-496.115 600.34c0 3.254-1.882 6.06-4.612 7.414v-7.157l-3.666-2.117-3.667 2.117v7.157c-2.73-1.353-4.612-4.16-4.612-7.414 0-3.405 2.058-6.328 4.997-7.6l.047-24.06a3.28 3.28 0 1 1 6.564 0l-.047 24.06c2.938 1.27 4.996 4.194 4.996 7.6z" class="AI AJ AK AL"/><g clip-path="url(#B)" opacity=".3" transform="translate(-692.001 236.158)" class="AO"><path d="M87.742 371.203h-8.968V343.93a2 2 0 0 1 2-1.999h9.5v-.75h1.154v26.337a3.69 3.69 0 0 1-3.685 3.685"/></g><path d="M-637.04 565.4h33.716v38.987c0 1.228-.996 2.224-2.224 2.224h-29.268c-1.228 0-2.224-.996-2.224-2.224z" class="AM"/><path d="M-629.884 606.6h-4.222c-1.62 0-2.935-1.314-2.935-2.935v-33.8m14.874 36.735h-4.912m23.754-36.714v33.8c0 1.62-1.314 2.935-2.935 2.935h-14.68" class="AI AJ AK AL"/><path d="M-606.11 600.425h-28.147V565.4h28.147z" fill="#58595b"/><path d="M-623.76 602.922h7.153" class="AI AJ AK AL"/><path d="M-601.434 565.4v1.113c0 1.083-.877 1.964-1.962 1.964l-3.05.012c-.36 1.586-.985 3.068-1.825 4.398l2.158 2.16c.773.77.778 2.02.006 2.788l-1.615 1.616c-.768.768-2.017.774-2.787.006l-2.163-2.16c-1.328.84-2.8 1.464-4.39 1.823v3.05c0 1.09-.886 1.973-1.978 1.973h-2.28c-1.092 0-1.974-.884-1.974-1.973v-3.05c-1.56-.35-3.014-.966-4.33-1.78l-2.145 2.165a1.97 1.97 0 0 1-2.791.012l-1.624-1.604c-.77-.763-.78-2.016-.013-2.788l2.144-2.17a13.99 13.99 0 0 1-1.841-4.386l-3.048.013c-1.092.01-1.976-.876-1.976-1.97l-.015-1.21h12.492c0 3.455 2.803 6.25 6.263 6.25a6.25 6.25 0 0 0 6.255-6.249z" class="AN"/><path d="M-626.438 565.4c0 3.455 2.803 6.25 6.262 6.25a6.25 6.25 0 0 0 6.255-6.249m12.488 0v1.113c0 1.083-.877 1.964-1.963 1.964l-3.048.012a14.11 14.11 0 0 1-1.825 4.398l2.157 2.16c.774.77.778 2.02.007 2.788l-1.615 1.616c-.77.768-2.018.774-2.788.006l-2.162-2.16a14 14 0 0 1-4.39 1.823v3.05c0 1.1-.886 1.973-1.978 1.973h-2.28c-1.092 0-1.975-.884-1.975-1.973v-3.05c-1.56-.35-3.013-.966-4.33-1.78l-2.146 2.165c-.768.77-2.02.787-2.8.012l-1.624-1.604c-.77-.763-.78-2.016-.014-2.788l2.144-2.17a13.99 13.99 0 0 1-1.84-4.386l-3.05.013c-1.092.01-1.976-.876-1.976-1.97l-.015-1.2m104.587 20.2v-5.178" class="AI AJ AK AL"/><path d="M-534.357 587.966c-5.244 0-9.495 4.25-9.495 9.495s4.25 9.495 9.495 9.495 9.495-4.25 9.495-9.495-4.25-9.495-9.495-9.495m0 21.993a12.5 12.5 0 0 1-12.498-12.498 12.5 12.5 0 0 1 12.498-12.498 12.5 12.5 0 0 1 12.498 12.498 12.5 12.5 0 0 1-12.498 12.498" fill="#6d6e71"/><path d="M-527.342 607.805a12.44 12.44 0 0 1-7.015 2.153 12.5 12.5 0 0 1-12.498-12.498 12.5 12.5 0 0 1 12.498-12.498 12.5 12.5 0 0 1 12.498 12.498m-.316 2.804a12.47 12.47 0 0 1-3.106 5.788m-10.27-.632c4.74 0 8.583-3.843 8.584-8.584" class="AI AJ AK AL"/><use xlink:href="#E" class="AN"/><g class="AI AJ AK AL"><use xlink:href="#E"/><path d="M-536.946 578.397h5.178m-5.178-2.59h5.178"/></g><g clip-path="url(#C)" opacity=".3" transform="translate(-692.001 236.158)" class="AO"><path d="M94.766 379.924c.418-.146.882-.013 1.157.336s.296.83.054 1.204l-5.463 8.41c1.223 2.783 1.608 5.786 1.258 8.688H80.747c-1.1 0-1.974-.883-1.974-1.973v-15.894h-.75v-.592a16.69 16.69 0 0 1 7.273 3.16z"/></g><path d="M-628.112 621.638c-6.973 5.414-8.236 15.456-2.822 22.43a15.99 15.99 0 0 0 22.43 2.822c6.02-4.675 7.78-12.8 4.663-19.42l5.688-8.757c.148-.227-.077-.513-.333-.423l-9.857 3.477c-5.637-4.503-13.82-4.748-19.77-.128" class="AM"/><path d="M-624.146 649.147c5.07 1.983 11.028 1.324 15.64-2.258 6.02-4.675 7.78-12.8 4.664-19.42l5.688-8.756c.148-.228-.077-.514-.333-.424l-9.857 3.477c-5.637-4.502-13.82-4.748-19.77-.128a15.99 15.99 0 0 0-3.518 21.461m1.318 1.72l.827.875a15.87 15.87 0 0 0 3.207 2.43" class="AI AJ AK AL"/><path d="M-629.48 634.26a11.26 11.26 0 0 1 11.259-11.259 11.26 11.26 0 0 1 11.259 11.259 11.26 11.26 0 0 1-11.259 11.259 11.26 11.26 0 0 1-11.259-11.259" class="AP"/><path d="M-619.04 628.513c-.302.303-.454.674-.454 1.114a1.52 1.52 0 0 0 .454 1.114c.303.303.674.454 1.114.454s.81-.15 1.114-.454.454-.675.454-1.114-.15-.81-.454-1.114-.674-.454-1.114-.454-.81.15-1.114.454m2.433 3.395h-2.71v1.336c0 .488.062.853.187 1.097s.39.573.793.99l1.212 1.248c.178.213.268.49.268.828s-.096.62-.286.847-.44.338-.75.338-.566-.134-.775-.4-.335-.62-.383-1.06h-2.833c.13 1.188.564 2.12 1.3 2.798s1.66 1.015 2.77 1.015 2.014-.302 2.71-.908 1.042-1.444 1.042-2.513c0-.476-.06-.83-.178-1.06l-.25-.5c-.047-.1-.157-.252-.33-.454l-.347-.392-.81-.802c-.256-.25-.426-.454-.508-.615s-.125-.4-.125-.72z" class="AM"/><path d="M-618.13 653.508l-.1-1.87m5.457 3.024l-.967-3.616m5.192 0l-.997-1.73m6.24-.103l-2.643-2.65m4.514-2.563l-1.753-1.016m5.354-3.204l-3.613-.976m2.248-4.5l-1.647-.01m-17.375-19.292l.1 1.87m-5.453-3.042l.948 3.62m-5.12.002l.926 1.7m-6.24.078l2.63 2.664m-4.316 2.676l1.535.9m-5.37 3.176l3.608.995m-2.496 4.664l1.87-.18m-3.066 5.435l3.623-.94m.001 5.12l1.698-.922m.054 6.242l2.67-2.623m2.618 4.4l.95-1.612m3.163 5.38l1.004-3.606m-32.324-85.6h2.74m167.207.001h6.05m-171.435 0h163.822" class="AI AJ AK AL"/></g></svg>