<svg xmlns="http://www.w3.org/2000/svg" xmlns:xlink="http://www.w3.org/1999/xlink" width="500" height="280"><style><![CDATA[.B{stroke-miterlimit:10}.C{stroke-width:1.5}.D{stroke:#414042}.E{fill:none}.F{fill:#00d4ff}.G{fill:#58595b}]]></style><g transform="matrix(2.578219 0 0 -2.805467 -1868.309082 1173.758667)"><g class="B C D E"><g stroke-linecap="round"><path d="M797.482 399.23h4.274"/><path d="M799.62 397.092v4.274m99.974-33.552h4.274"/><path d="M901.73 365.677v4.274m-63.64 43.49l3.022 3.022"/><path d="M841.1 413.442l-3.022 3.022M765.915 377.1l3.022 3.022"/><path d="M768.938 377.11l-3.022 3.022"/></g><path d="M769.72 399.23h17.396m90.73-31.416h17.396m-44.462 33.552h33.213m-94.357 13.587h44.688m-109.372-36.33h38.396m121.23-1.206h34.307m-126.7 21.814h-3.57"/></g><g fill="#414042"><path d="M743.38 348.74a1.19 1.19 0 0 0-1.189-1.189 1.19 1.19 0 0 0-1.188 1.189 1.19 1.19 0 0 0 1.188 1.188 1.19 1.19 0 0 0 1.189-1.188"/><use xlink:href="#B"/><use xlink:href="#B" x="-44.89" y="24.059"/><path d="M772.142 412.748c0-.954-.773-1.727-1.728-1.727a1.73 1.73 0 0 0-1.727 1.727 1.73 1.73 0 0 0 1.727 1.727c.955 0 1.728-.773 1.728-1.727"/><use xlink:href="#B" x="-102.894" y="37.173"/><use xlink:href="#C"/><use xlink:href="#C" x="141.62" y="-22.62"/><path d="M888.06 416.465c0-.836-.678-1.514-1.514-1.514s-1.514.678-1.514 1.514.677 1.514 1.514 1.514 1.514-.678 1.514-1.514"/></g><path d="M869.347 341.302h-80.89v46.14c0 1.1.884 1.974 1.974 1.974h76.942c1.09 0 1.973-.884 1.973-1.974z" class="G"/><path d="M788.46 365.302v20.202a3.91 3.91 0 0 0 3.911 3.911h19.114m36.702 0h17.25a3.91 3.91 0 0 0 3.911-3.911V362.44" class="B C D E"/><path d="M865.048 346.7h-72.2v38h72.2zm-23.96-27.126h-24.37V334h24.37z" fill="#fff"/><path d="M841.088 326.797h-24.37V334h24.37z" fill="#d1d3d4"/><path d="M841.088 319.584h-24.37V334h24.37z" class="B C D E"/><path d="M869.347 343.07h-80.89v-8.924a2 2 0 0 1 2-2h76.89a2 2 0 0 1 2 2z" fill="#fff"/><path d="M810.46 332.146h44.4m.498 10.924h-44.4m1.022-23.755h34.164" class="B C D E"/><path d="M807.835 321.635h-56.132c-.55 0-1 .45-1 1v39.784c0 .55.45 1 1 1h56.132c.55 0 1-.45 1-1v-39.784c0-.55-.45-1-1-1" class="G"/><path d="M796.04 363.418h4.015m-49.35-39.338v37.895a1.45 1.45 0 0 0 1.444 1.445h41.32m8.28-.002h5.643a1.45 1.45 0 0 0 1.445-1.445v-38.895a1.45 1.45 0 0 0-1.445-1.444" class="B C D E"/><path d="M805.696 326.223h-52.17v33.907h52.17zm2.124-6.908h-56.74a2.78 2.78 0 0 0-2.744 2.331l-.404 2.465h26.298l1.006-1.444h7.267l1.088 1.444h27.704l-.352-2.144c-.25-1.53-1.572-2.652-3.122-2.652" fill="#fff"/><path d="M807.82 319.315h-56.74a2.78 2.78 0 0 0-2.744 2.331l-.404 2.465h26.298l1.006-1.444h7.267l1.088 1.444h27.704l-.352-2.144c-.25-1.53-1.572-2.652-3.122-2.652z" class="B C D E"/><path d="M856.927 321.227v37.328c0 1.057.856 1.913 1.913 1.913h25.792c1.056 0 1.912-.856 1.912-1.913v-37.328c0-1.056-.856-1.913-1.912-1.913H858.84c-1.057 0-1.913.857-1.913 1.913" fill="#fff"/><g class="B C D E"><path d="M886.545 346.293v-25.065c0-1.057-.856-1.913-1.913-1.913H858.84c-1.056 0-1.912.856-1.912 1.913v37.328c0 1.056.856 1.913 1.912 1.913h25.792c1.057 0 1.913-.857 1.913-1.913v-2.168m0-4.058v-3.333"/><path d="M875.538 357.27h-7.605"/></g><path d="M859.46 355.14h24.552v-30.097H859.46z" fill="#d1d3d4"/><path d="M871.736 322.04a1.07 1.07 0 0 0-1.069 1.069 1.07 1.07 0 0 0 1.069 1.069 1.07 1.07 0 0 0 1.069-1.069 1.07 1.07 0 0 0-1.069-1.069z" class="B C D E"/><path d="M779.61 355.29v-12.34l.006-.006 8.708-8.73a12.3 12.3 0 0 1 3.625 8.701c0 .012.002.024.002.036 0 6.816-5.525 12.34-12.34 12.34" class="F"/><path d="M770.848 351.713a12.7 12.7 0 0 1-3.743-8.995l12.74-.025v12.74a12.7 12.7 0 0 1-8.996-3.72" class="G"/><path d="M779.53 342.1h-.006l-12.097.03-.001-.023a12.1 12.1 0 0 1 12.098-12.097 12.06 12.06 0 0 1 8.542 3.532z" fill="#ffb936"/><g class="B C D E"><path d="M792.5 342.895a12.89 12.89 0 0 0-12.887-12.887 12.89 12.89 0 0 0-12.888 12.887 12.89 12.89 0 0 0 12.888 12.887 12.89 12.89 0 0 0 12.887-12.887z"/><path d="M766.734 342.443h12.878l8.453-8.315m-8.962 21.898v-13.34"/></g><path d="M822.57 396.994h-8.96v-50.43h8.96z" fill="#e6e7e8"/><path d="M818.092 396.994h-4.48v-50.43h4.48z" fill="#fff"/><path d="M822.572 346.564v50.43h-8.96v-50.43" class="B C D E"/><path d="M834.218 404.64h-8.96v-58.076h8.96z" fill="#ffb936"/><path d="M829.74 404.64h-4.48v-58.076h4.48z" fill="#ffd586"/><path d="M834.22 346.564v58.076h-8.96v-58.076" class="B C D E"/><path d="M846.32 410.68h-8.96v-64.115h8.96z" class="F"/><path d="M841.84 410.68h-4.48v-64.115h4.48z" fill="#9ef"/><path d="M846.32 346.564v64.115h-8.96v-64.115" class="B C D E"/><path d="M859.478 336.792V325.1l5.294.013v16.113zm9.916 2.408l-.014.006v-14.07l6.075.015v18.572z" class="F"/><path d="M864.812 341.26l-.04-.034v-16.112l4.608.012v14.07z" fill="#66e5ff"/><path d="M883.994 345.694l-4.768-4.106v-16.44l4.768.012z" class="F"/><path d="M879.226 341.588l-3.77 2.124V325.14l3.77.01z" fill="#66e5ff"/><path d="M883.994 345.42l-.323-.003-4.445-3.828-3.77 2.124-6.076-4.516-4.608 2.03-4.776-4.062h-.518m-123.706-17.85h163.822m-168.394 0h2.74m167.206 0h6.05" class="B C D E"/></g><defs ><path id="B" d="M918.884 368.657a1.19 1.19 0 0 0-1.189-1.189 1.19 1.19 0 0 0-1.188 1.189 1.19 1.19 0 0 0 1.188 1.189 1.19 1.19 0 0 0 1.189-1.189"/><path id="C" d="M756.65 370.17c0-.836-.678-1.514-1.514-1.514s-1.514.678-1.514 1.514.678 1.514 1.514 1.514 1.514-.678 1.514-1.514"/></defs></svg>