<svg xmlns="http://www.w3.org/2000/svg" width="500" height="280" viewBox="0 0 63 37"><style><![CDATA[.B{fill:#3b393d}.C{fill:#d3d4d3}.D{fill:#f9b121}]]></style><path d="M10.86 36.262l.34-1.95a.64.64 0 0 0-.628-.748H3.99a.64.64 0 0 0-.628.748l.34 1.95h7.158" fill="#fff"/><g class="B"><path d="M3.442 36.307l-.35-2a.86.86 0 0 1 .849-1.01h6.68a.86.86 0 0 1 .849 1.01l-.35 2-.52-.09.35-2a.33.33 0 0 0-.327-.389h-6.68a.33.33 0 0 0-.327.389l.35 2-.52.09"/><path d="M7.542 33.75h-.53V27.77h.53v5.982"/></g><path d="M10.49 25.284c0 1.77-1.435 3.204-3.204 3.204s-3.204-1.434-3.204-3.204 1.435-3.204 3.204-3.204 3.204 1.434 3.204 3.204" class="D"/><path d="M9.454 25.284a2.17 2.17 0 0 1-2.168 2.168 2.17 2.17 0 0 1-2.167-2.168 2.17 2.17 0 0 1 2.167-2.168 2.17 2.17 0 0 1 2.168 2.168" fill="#fcd16f"/><g class="B"><path d="M7.286 28.753c-1.912 0-3.47-1.556-3.47-3.47s1.556-3.47 3.47-3.47a3.47 3.47 0 0 1 1.066.167l-.163.503a2.94 2.94 0 0 0-.903-.141c-1.62 0-2.94 1.32-2.94 2.94s1.32 2.94 2.94 2.94 2.94-1.32 2.94-2.94a2.93 2.93 0 0 0-.451-1.565l.448-.282a3.46 3.46 0 0 1 .532 1.847c0 1.913-1.556 3.47-3.47 3.47m2-5.632a2.94 2.94 0 0 0-.562-.406l.258-.462a3.52 3.52 0 0 1 .661.478l-.358.4m-1.637 3.632H6.003v-.53h1.633a.34.34 0 0 0 .342-.342c0-.19-.153-.342-.342-.342h-.653a.87.87 0 0 1 0-1.74H8.57v.53H6.983a.34.34 0 0 0-.342.342c0 .19.153.342.342.342h.653a.87.87 0 1 1 0 1.74"/><path d="M7.55 27.5h-.53v-4.433h.53V27.5"/></g><path d="M11.054 28.922s.12 1.617-.804 2.54-2.54.804-2.54.804-.12-1.617.804-2.54 2.54-.804 2.54-.804" class="C"/><path d="M10.794 29.183c-.46.01-1.468.105-2.093.73s-.722 1.634-.73 2.092c.46-.01 1.468-.105 2.093-.73s.722-1.634.73-2.092zm-2.892 3.354c-.12 0-.198-.005-.212-.006l-.228-.017-.017-.228c-.005-.07-.117-1.75.88-2.747s2.675-.887 2.747-.88l.227.017.017.227c.005.07.117 1.75-.88 2.747-.8.8-2.04.887-2.535.887" class="B"/><path d="M6.957 32.267s.12-1.617-.804-2.54-2.54-.804-2.54-.804-.12 1.617.804 2.54 2.54.804 2.54.804" class="C"/><path d="M3.874 29.183c.01.46.105 1.468.73 2.093s1.634.722 2.093.73c-.01-.46-.105-1.468-.73-2.093s-1.634-.722-2.092-.73zm2.89 3.354c-.495 0-1.734-.086-2.535-.887-.998-.998-.885-2.676-.88-2.747l.017-.228.228-.017c.07-.006 1.75-.117 2.747.88s.885 2.675.88 2.747l-.017.228-.228.017-.212.006" class="B"/><path d="M42.83 36.292V12.228c0-.698-.566-1.265-1.265-1.265H22.87c-.698 0-1.265.566-1.265 1.265v24.064H42.83" fill="#fff"/><path d="M21.606 14.242v-2.215c0-.587.476-1.064 1.064-1.064h19.098c.587 0 1.064.476 1.064 1.064v2.215H21.606" fill="#bbbcbd"/><g class="B"><path d="M21.87 23.945h-.53V12.027a1.33 1.33 0 0 1 1.328-1.328h2.818v.53H22.67a.8.8 0 0 0-.799.799v11.918m21.224-.001h-.53V12.027a.8.8 0 0 0-.799-.799h-12.59v-.53h12.592a1.33 1.33 0 0 1 1.328 1.328v11.918"/><path d="M27.975 11.228h-1.458v-.53h1.458v.53m14.855 3.337H21.606v-.53H42.83v.53m-17.937-1.517h-.85v-.53h.85v.53m1.967 0H26v-.53h.85v.53m1.975 0h-.85v-.53h.85v.53"/></g><path d="M40.184 20.96h-15.93v-4.977h15.93v4.977" class="C"/><path d="M28.282 35.022h-4.03V22.5h4.03v12.534m5.738-9.274H30V22.5h4.03v3.26m-.01 4.626H30v-3.26h4.03v3.26m6.164-4.636h-4.03V22.5h4.03v3.26m-.01 4.626h-4.03v-3.26h4.03v3.26" fill="#f4f5f5"/><g class="B"><path d="M19.24 9.076h-1.507c-.146 0-.265-.12-.265-.265s.12-.265.265-.265h1.507c.146 0 .265.12.265.265s-.12.265-.265.265"/><path d="M18.485 9.83c-.146 0-.265-.12-.265-.265V8.057c0-.146.118-.265.265-.265s.265.12.265.265v1.508c0 .146-.12.265-.265.265m36.13 4.735h-1.508c-.146 0-.265-.12-.265-.265s.12-.265.265-.265h1.508c.146 0 .265.12.265.265s-.12.265-.265.265"/><path d="M53.86 15.318c-.146 0-.265-.118-.265-.265v-1.508c0-.146.12-.265.265-.265s.265.12.265.265v1.508c0 .146-.12.265-.265.265M37.73 8.322c-.068 0-.135-.026-.187-.078-.103-.103-.103-.27 0-.374L38.6 6.804c.103-.103.27-.103.374 0s.103.27 0 .374l-1.066 1.066c-.052.052-.12.078-.187.078"/><path d="M38.798 8.322c-.068 0-.135-.026-.187-.078l-1.066-1.066c-.103-.103-.103-.27 0-.374s.27-.103.374 0l1.066 1.066c.103.103.103.27 0 .374-.052.052-.12.078-.187.078m-32.044 9c-.068 0-.135-.026-.187-.078-.103-.103-.103-.27 0-.374l1.066-1.066c.103-.103.27-.103.374 0s.103.27 0 .374L6.94 17.235c-.052.052-.12.078-.187.078"/><path d="M7.82 17.312c-.068 0-.135-.026-.187-.078L6.566 16.17c-.103-.103-.103-.27 0-.374s.27-.103.374 0l1.066 1.066c.103.103.103.27 0 .374-.052.052-.12.078-.187.078m41.62-9.458h-7.697v-.53h7.697v.53M36.26 4.974H16.607v-.53H36.26v.53m25.586 13.76H47.42v-.53h14.426v.53M41.038 7.856h-1.38v-.53h1.38v.53M18.343 13.8h-7.696v-.53h7.696v.53m-8.403 0H8.56v-.53h1.38v.53m50.888-1.027a.47.47 0 1 1-.944 0 .47.47 0 1 1 .944 0M50.236 1.205a.47.47 0 1 1-.944 0 .47.47 0 1 1 .944 0M1.297 24.598a.47.47 0 1 1-.944 0 .47.47 0 1 1 .944 0M12.66 2.15a.47.47 0 1 1-.944 0 .47.47 0 1 1 .944 0m37.104 20.503c0 .18-.145.324-.324.324s-.325-.145-.325-.324.145-.325.325-.325.324.145.324.325M6.328 12.3c0 .18-.145.325-.325.325s-.325-.145-.325-.325.145-.325.325-.325.325.145.325.325m12.34 8.65c0 .18-.145.325-.325.325s-.324-.145-.324-.325.145-.325.324-.325.325.145.325.325M45.35 4.7c0 .18-.145.324-.325.324A.31.31 0 0 1 44.7 4.7a.31.31 0 0 1 .324-.325c.18 0 .325.145.325.325"/></g><path d="M35.18 25.52v4.433c-.078-.184-.2-.35-.33-.488a1.53 1.53 0 0 0-1.085-.45 1.53 1.53 0 0 0-.598.121c-.184.078-.35.2-.488.33a1.54 1.54 0 0 0-.329.488 1.53 1.53 0 0 0-.121.598c0 .212.043.414.12.598s.2.35.33.488.304.252.488.33a1.53 1.53 0 0 0 1.195 0 1.53 1.53 0 0 0 .488-.329 1.54 1.54 0 0 0 .329-.488v4.397a.7.7 0 0 0 .698.698h9.787v-11.42h-9.787a.7.7 0 0 0-.698.698" class="D"/><g class="B"><path d="M33.766 32.352a1.79 1.79 0 0 1-.701-.141c-.214-.09-.407-.22-.572-.386s-.295-.358-.386-.572a1.79 1.79 0 0 1 0-1.401 1.79 1.79 0 0 1 .958-.958c.443-.188.956-.188 1.4 0a1.79 1.79 0 0 1 .572.386c.165.165.295.357.386.572l-.487.206a1.27 1.27 0 0 0-.273-.404c-.117-.117-.253-.208-.404-.272a1.28 1.28 0 0 0-1.394.272c-.116.117-.208.253-.272.404a1.26 1.26 0 0 0-.1.495 1.26 1.26 0 0 0 .1.495c.064.15.156.287.272.404a1.27 1.27 0 0 0 .404.273c.312.132.676.132.99 0 .15-.064.287-.156.404-.272a1.27 1.27 0 0 0 .273-.404l.487.206a1.79 1.79 0 0 1-.386.572c-.164.165-.357.295-.572.386-.222.094-.458.14-.7.14"/><path d="M43.586 36.508h-7.708c-.53 0-.962-.432-.962-.962v-4.293h.53v4.293c0 .24.194.433.433.433h7.708v.53m2.078-.001h-.64v-.53h.64v.53m-.967 0h-.64v-.53h.64v.53m-9.253-6.653h-.53V25.52c0-.53.43-.962.962-.962h9.787v.53h-9.787c-.238 0-.433.194-.433.433v4.334"/></g><path d="M20.033 24.84H30.84a.7.7 0 0 1 .697.698v4.433c-.078-.184-.2-.35-.33-.488s-.304-.25-.488-.33-.386-.12-.598-.12-.414.043-.598.12a1.54 1.54 0 0 0-.817.817 1.53 1.53 0 0 0 0 1.195 1.54 1.54 0 0 0 .817.817 1.53 1.53 0 0 0 1.195 0c.184-.078.35-.2.488-.33s.252-.304.33-.488v4.397a.7.7 0 0 1-.697.698H20.033V24.84" fill="#65cdf2"/><g class="B"><path d="M30.123 32.37a1.79 1.79 0 0 1-.701-.141 1.8 1.8 0 0 1-.572-.386 1.78 1.78 0 0 1-.386-.572 1.79 1.79 0 0 1 0-1.401c.09-.215.22-.408.386-.573a1.8 1.8 0 0 1 .572-.386c.444-.188.957-.188 1.402 0 .214.09.406.22.572.386a1.79 1.79 0 0 1 .386.572l-.487.206a1.28 1.28 0 0 0-.272-.405 1.27 1.27 0 0 0-.404-.272 1.28 1.28 0 0 0-.99 0c-.15.064-.287.155-.404.272s-.208.253-.273.404-.1.323-.1.494.034.338.1.495c.064.15.156.287.272.404s.253.21.404.273c.313.132.677.132 1 0a1.27 1.27 0 0 0 .404-.273c.116-.116.208-.253.272-.404l.487.206a1.8 1.8 0 0 1-.386.572c-.166.165-.358.295-.572.386a1.79 1.79 0 0 1-.701.141"/><path d="M30.84 36.526H20.032v-.53H30.84c.24 0 .433-.194.433-.433V31.27h.53v4.293c0 .53-.432.962-.962.962m.96-6.652h-.53V25.54c0-.24-.194-.433-.433-.433H28.3v-.53h2.53c.53 0 .962.432.962.962v4.334m-4.072-4.767h-7.687v-.53h7.687v.53m-2.302 2.27h-5.386v-.53h5.386v.53m-5.983 0H11v-.53h8.446v.53m2.77 2.287h-8.754v-.53h8.754v.53m3.202 0H22.9v-.53h2.508v.53m.01 2.287h-6.423v-.53h6.423v.53m-6.933 0h-.792v-.53h.792v.53m6.933 2.3H13.452v-.53h11.966v.53m24.284-6.874h-11.26v-.53h11.26v.53m2 0H50.04v-.53h1.672v.53m-4.794 2.287h-8.475v-.53h8.475v.53m1.144 0h-.804v-.53h.804v.53M42.97 31.95h-4.528v-.53h4.528v.53m9.327 0h-8.7v-.53h8.7v.53m-5.72 2.3h-8.135v-.53h8.135v.53m.922 0h-.572v-.53h.572v.53m3.415-.002h-3.012v-.53h3.012v.53m-38.165.002h-.56v-.53h.56v.53m6.685-9.152h-4.12v-.53h4.12v.53m32.98 0h-5.983v-.53h5.983v.53m-38.068 0h-2.302v-.53h2.302v.53"/></g><path d="M56.625 36.154h-.473c-.194 0-.353-.16-.353-.353v-1.1c0-.194.16-.353.353-.353h.473c.194 0 .353.16.353.353v1.1c0 .194-.16.353-.353.353" fill="#7a7e82"/><path d="M56.15 34.613c-.048 0-.088.04-.088.088v1.1c0 .048.04.088.088.088h.473c.048 0 .088-.04.088-.088v-1.1c0-.048-.04-.088-.088-.088zm.473 1.806h-.473a.62.62 0 0 1-.617-.617v-1.1a.62.62 0 0 1 .617-.617h.473a.62.62 0 0 1 .617.617v1.1a.62.62 0 0 1-.617.617" class="B"/><path d="M60.356 27.014a3.94 3.94 0 0 0-3.939-3.939 3.94 3.94 0 0 0-3.939 3.939c0 1.46.796 2.732 1.976 3.412v3.884l.558 1.058h2.706l.663-1.058v-3.884c1.18-.68 1.976-1.952 1.976-3.412" fill="#fff"/><path d="M54.453 30.427v3.884l.558 1.058h2.706l.663-1.058v-3.884h-3.927" class="C"/><path d="M58.38 34.31l-.663 1.058H55.01l-.558-1.058h3.927" fill="#7a7e82"/><g class="B"><path d="M57.864 35.634H54.85l-.663-1.258v-3.8c-1.223-.766-1.976-2.117-1.976-3.56 0-1 .35-1.952.988-2.708l.404.34a3.68 3.68 0 0 0-.863 2.367c0 1.307.706 2.527 1.844 3.182l.132.077v3.97l.453.86h2.4l.544-.87v-3.96l.132-.077c1.137-.656 1.844-1.875 1.844-3.182a3.68 3.68 0 0 0-3.675-3.675 3.65 3.65 0 0 0-1.38.268l-.2-.5a4.19 4.19 0 0 1 1.579-.306 4.21 4.21 0 0 1 4.204 4.204c0 1.444-.753 2.795-1.976 3.56v3.8l-.78 1.247M53.983 24.26l-.376-.373a2.37 2.37 0 0 1 .64-.476l.075-.043.264.46-.076.044c-.243.14-.325.186-.526.4"/><path d="M58.972 31.895H53.86v-.53h5.112v.53m0 .895H53.86v-.53h5.112v.53m0 .892H53.86v-.53h5.112v.53m0 .893H53.86v-.53h5.112v.53"/></g><path d="M59.364 26.897c0 1.644-1.332 2.976-2.976 2.976s-2.976-1.332-2.976-2.976 1.332-2.976 2.976-2.976 2.976 1.332 2.976 2.976" class="D"/><g class="B"><path d="M57.247 26.288a.83.83 0 1 0-1.662 0c0 .23.092.436.242.586l-.245 1.464h1.6l-.238-1.422c.177-.152.292-.376.292-.628"/><path d="M55.895 28.073h.985l-.2-1.26.113-.097a.55.55 0 0 0 .2-.427c0-.313-.254-.567-.567-.567s-.566.254-.566.567a.56.56 0 0 0 .165.399l.096.097zm1.6.53H55.27l.276-1.65a1.11 1.11 0 0 1-.225-.666c0-.604.5-1.096 1.095-1.096a1.11 1.11 0 0 1 1.096 1.096 1.09 1.09 0 0 1-.274.72l.267 1.595M1.792 36.526H.825v-.53h.966v.53m61.122 0H60.78v-.53h2.134v.53m-2.686 0H2.435v-.53h57.793v.53"/></g></svg>