<svg xmlns="http://www.w3.org/2000/svg" xmlns:xlink="http://www.w3.org/1999/xlink" width="500" height="280"><style><![CDATA[.Y{stroke-miterlimit:10}.Z{stroke-width:1.5}.a{stroke:#414042}.b{fill:none}.c{fill:#fff}.d{fill:#00d4ff}.e{fill:#58595b}.f{fill:#ffb936}.g{fill:#414042}]]></style><defs><clipPath id="A"><path d="M102.134 392.13h21.735v-60.9h-21.735z"/></clipPath><clipPath id="B"><path d="M111.34 380.065h41.44v-49.33h-41.44z"/></clipPath><path id="C" d="M3090.405-10.66c0-.592-.48-1.073-1.073-1.073s-1.073.48-1.073 1.073.48 1.073 1.073 1.073 1.073-.48 1.073-1.073"/><path id="D" d="M3143.244-37.274v9.1c0 7.775-6.36 14.136-14.135 14.136h-2.532c-7.775 0-14.135-6.36-14.135-14.136v-9.1z"/><path id="E" d="M3110.986-43.552h-3.707a1.85 1.85 0 0 0-1.848 1.848v7.546a1.85 1.85 0 0 0 1.849 1.848h3.706z"/><path id="F" d="M3144.52-43.552h3.706a1.85 1.85 0 0 1 1.848 1.848v7.546a1.85 1.85 0 0 1-1.848 1.848h-3.706z"/><path id="G" d="M3149.987-22.373l7.087 1.3c1.674-.75 3.525-1.175 5.477-1.175 7.424 0 13.44 6.018 13.44 13.44s-6.017 13.44-13.44 13.44-13.44-6.018-13.44-13.44c0-2.62.76-5.06 2.06-7.127z"/><path id="H" d="M3055.92-63.874l-2.326-2.326-.76.76a1.08 1.08 0 0 0 0 1.528l.797.797a1.08 1.08 0 0 0 1.529 0z"/><path id="I" d="M3074.863-65.956l-2.323 2.33.76.76a1.08 1.08 0 0 0 1.529-.002l.796-.798a1.08 1.08 0 0 0-.002-1.529z"/><path id="J" d="M3072.758-84.898l2.33 2.32.76-.762a1.08 1.08 0 0 0-.004-1.528l-.8-.796a1.08 1.08 0 0 0-1.528.004z"/><path id="K" d="M3053.82-82.77l2.317-2.334-.763-.758a1.08 1.08 0 0 0-1.528.005l-.795.8a1.08 1.08 0 0 0 .006 1.528z"/></defs><g transform="matrix(2.718433 0 0 -2.952639 -8252.435547 19.319876)"><path d="M3123.917-87.148v57.234c0 1.725-1.398 3.123-3.124 3.123h-46.162c-1.725 0-3.123-1.398-3.123-3.123v-57.234z" class="c"/><path d="M3071.507-34.887v5.47c0 1.45 1.176 2.626 2.626 2.626h47.157c1.45 0 2.626-1.175 2.626-2.626v-5.47z" fill="#bcbec0"/><g class="Y Z a b"><path d="M3071.507-59.645v30.228c0 1.45 1.176 2.626 2.626 2.626h31.157"/><path d="M3071.507-35.03h52.4m-46.4 3.746h2.097m2.766 0h2.097m2.758 0h2.097"/></g><path d="M3116.895-56.208h-38.367v15.134h38.367zm-26.698-24.742h-11.666v15.134h11.666zm15.85 0h-11.666v15.134h11.666z" fill="#f1f2f2"/><g class="Y Z a b"><path d="M3036.84-87.645h2.74m167.208 0h6.05"/><g stroke-linecap="round"><path d="M3130.067 3.194h4.274"/><path d="M3132.204 1.057V5.33m83.462-32.573l3.022 3.022"/><path d="M3218.688-27.243l-3.022 3.022M3057.33-15.4l3.022 3.022"/><path d="M3060.35-15.39l-3.022 3.022"/></g><path d="M3035.65-28.368h17.396m24.67 31.306h46.228m-65.83-31.306h-3.57m141.76-25.332h17.396m5.072 0h-3.57"/></g><g class="g"><use xlink:href="#C"/><path d="M3194.67-40.2c0-.705-.572-1.276-1.277-1.276s-1.276.57-1.276 1.276.572 1.276 1.276 1.276 1.277-.57 1.277-1.276"/><use xlink:href="#C" x="-29.095" y="-31.272"/></g><path d="M3178.212-85.09h-62.03c-.55 0-1 .45-1 1v44.025c0 .55.45 1 1 1h62.03c.55 0 1-.45 1-1V-84.09c0-.55-.45-1-1-1" class="e"/><path d="M3116.772-85.1c-.875 0-1.6.716-1.6 1.6v42.842c0 .876.716 1.592 1.6 1.592h10.052m24.842.001h25.956c.875 0 1.6-.716 1.6-1.6v-17.342" class="Y Z a b"/><path d="M3175.755-80.035h-57.464v37.348h57.464zm2.34-7.6h-62.5c-1.5 0-2.78 1.087-3.023 2.567l-.445 2.716h28.967l1.1-1.6h8.004l1.198 1.6h30.516l-.388-2.362c-.276-1.685-1.732-2.92-3.44-2.92" class="c"/><path d="M3148.202-83.953h2.004l1.198 1.59h30.516l-.387-2.362c-.276-1.684-1.732-2.92-3.44-2.92h-62.5c-1.5 0-2.78 1.087-3.022 2.568l-.446 2.715" class="Y Z a b"/><g transform="translate(3000.047 -418.38)" class="g"><g clip-path="url(#A)" opacity=".3"><path d="M107.07 331.232h16.8v57.73c0 1.45-1.176 2.626-2.626 2.626h-11.97c-.077-.613-.128-1.238-.128-1.882v-2.887h-2.76v1.552c0 1.1.114 2.17.29 3.217h-1.433v.542c-.224-1.222-.358-2.474-.358-3.76v-1.552h-.153a2.6 2.6 0 0 1-2.598-2.598v-7.546a2.6 2.6 0 0 1 2.598-2.598h4.412V356.19c.013-1.43-.445-2.8-1.196-3.55-.446-.45-.987-.678-1.61-.678v-1.5h3.486c-1.737-2.868-2.756-6.217-2.756-9.808z"/></g><g clip-path="url(#B)" opacity=".3"><path d="M145.626 372.51l.185 1.57h1.888v-3.784l-1.548-1.633h-.525zm2.723-41.774h.75v9.92c0 3.59-1.02 6.94-2.756 9.808h2.088v1.5c-.622 0-1.164.228-1.6.68-.75.758-1.21 2.118-1.195 3.555v10.963h1.17l2.404 2.535v4.382h.98c1.432 0 2.598 1.166 2.598 2.598v3.39h-1.16v-.75h-24.842v.75h-10.05c-1.29 0-2.34-1.05-2.34-2.34v-41.706h-1.545l-.02.122-1.48-.244.446-2.714c.167-1.02.73-1.875 1.508-2.447z"/></g></g><path d="M3146.478-67.165h-18v38.493c0 5.71 3.236 10.34 7.228 10.34s7.227-4.63 7.227-10.34v-33.51c-.022-2.31 1.106-4.984 3.555-4.984" class="f"/><path d="M3146.478-67.165h-18v38.493c0 5.71 3.236 10.34 7.228 10.34s7.227-4.63 7.227-10.34v-33.51c-.022-2.31 1.106-4.984 3.555-4.984z" class="Y Z a b"/><path d="M3108.886-67.165h18.01v38.493c0 5.71-3.235 10.34-7.227 10.34s-7.227-4.63-7.227-10.34v-33.51c.022-2.31-1.106-4.984-3.555-4.984" class="f"/><path d="M3108.886-67.165h18.01v38.493c0 5.71-3.235 10.34-7.227 10.34s-7.227-4.63-7.227-10.34v-33.51c.022-2.31-1.106-4.984-3.555-4.984z" class="Y Z a b"/><use xlink:href="#D" class="f"/><use xlink:href="#D" class="Y Z a b"/><path d="M3146.397-87.645v9.92c0 10.046-8.22 18.265-18.265 18.265s-18.266-8.22-18.266-18.265v-9.92z" class="d"/><g class="Y Z a b"><path d="M3146.397-87.645v9.92c0 10.046-8.22 18.265-18.265 18.265s-18.266-8.22-18.266-18.265v-9.92"/><path d="M3119.332-76.457v-11.188m18.64 11.188v-11.188"/></g><path d="M3127.803-66.844c-2.2 0-3.982 1.783-3.982 3.982v8.41c0 2.2 1.783 3.982 3.982 3.982s3.982-1.783 3.982-3.982v-8.41c0-2.2-1.783-3.982-3.982-3.982" class="c"/><path d="M3127.803-66.844c-2.2 0-3.982 1.783-3.982 3.982v8.41c0 2.2 1.783 3.982 3.982 3.982s3.982-1.783 3.982-3.982v-8.41c0-2.2-1.783-3.982-3.982-3.982z" class="Y Z a b"/><path d="M3143.165-33.104V-43.19c0-8.45-6.913-15.362-15.362-15.362s-15.362 6.913-15.362 15.362v10.087c7.6 0 13.563 6.44 15.226 8.434a.61.61 0 0 0 .935.002c1.68-1.99 7.656-8.436 14.563-8.436" class="c"/><path d="M3143.165-33.104V-43.2c0-8.45-6.913-15.362-15.362-15.362S3112.44-51.64 3112.44-43.2v10.087c7.6 0 13.563 6.44 15.226 8.434a.61.61 0 0 0 .935.002c1.68-2 7.656-8.436 14.563-8.436zm-7.602 21.594a19.89 19.89 0 0 1-7.798 1.585c-11.045 0-20.082-9.038-20.082-20.083v-11.215m36.003 23.42c-1.482 1.925-3.303 3.577-5.372 4.864m9.534-28.284v11.215c0 3.382-.847 6.576-2.34 9.38" class="Y Z a b"/><use xlink:href="#E" class="e"/><use xlink:href="#E" class="Y Z a b"/><use xlink:href="#F" class="e"/><g class="Y Z a b"><use xlink:href="#F"/><path d="M3146.497-43.552v-4.833l-1.976-2.084h-8.973"/></g><path d="M3134.477-52.67h-4.547a1.99 1.99 0 0 0-1.981 1.981 1.99 1.99 0 0 0 1.981 1.981h4.547c1.1 0 1.98-.89 1.98-1.98s-.89-1.98-1.98-1.98" class="e"/><path d="M3134.477-52.67h-4.547a1.99 1.99 0 0 0-1.981 1.981 1.99 1.99 0 0 0 1.981 1.981h4.547c1.1 0 1.98-.89 1.98-1.98s-.89-1.98-1.98-1.98z" class="Y Z a b"/><path d="M3180.024-77.89a4.57 4.57 0 0 0-4.57 4.571c0 2.52 2.045 4.56 4.57 4.56a4.56 4.56 0 0 0 4.564-4.559c0-2.528-2.043-4.57-4.564-4.57m12.244 6.816l-2.224.01a10.28 10.28 0 0 1-1.332 3.209l1.574 1.575c.564.56.568 1.473.005 2.035l-1.18 1.18a1.44 1.44 0 0 1-2.034.004l-1.577-1.575a10.22 10.22 0 0 1-3.204 1.33v2.226c0 .794-.646 1.44-1.443 1.44h-1.663a1.44 1.44 0 0 1-1.441-1.44v-2.226c-1.137-.255-2.2-.705-3.16-1.3l-1.566 1.58c-.56.563-1.473.574-2.036.01l-1.185-1.17a1.44 1.44 0 0 1-.01-2.034l1.565-1.584c-.617-.966-1.078-2.047-1.343-3.2l-2.225.01c-.796.007-1.442-.64-1.442-1.438l-.01-1.665c-.004-.792.638-1.44 1.433-1.446l2.22-.007a10.14 10.14 0 0 1 1.324-3.206l-1.583-1.578a1.44 1.44 0 0 1-.004-2.032l1.17-1.18c.564-.57 1.477-.57 2.037-.01l1.58 1.567a10.28 10.28 0 0 1 3.208-1.343l-.01-2.22a1.44 1.44 0 0 1 1.435-1.445l1.665-.006c.796 0 1.442.638 1.442 1.43l.007 2.227c1.157.26 2.24.717 3.212 1.326l1.57-1.582a1.45 1.45 0 0 1 2.042 0l1.174 1.175a1.43 1.43 0 0 1 .001 2.032l-1.562 1.58c.613.973 1.07 2.05 1.334 3.21l2.223-.007c.795 0 1.44.644 1.442 1.438v1.67c0 .8-.64 1.433-1.432 1.433" class="c"/><path d="M3180.024-77.89a4.57 4.57 0 0 0-4.57 4.571c0 2.52 2.045 4.56 4.57 4.56a4.56 4.56 0 0 0 4.564-4.559c0-2.528-2.043-4.57-4.564-4.57zm12.244 6.816l-2.224.01a10.28 10.28 0 0 1-1.332 3.209l1.574 1.575c.564.56.568 1.473.005 2.035l-1.18 1.18a1.44 1.44 0 0 1-2.034.004l-1.577-1.575a10.22 10.22 0 0 1-3.204 1.33v2.226c0 .794-.646 1.44-1.443 1.44h-1.663a1.44 1.44 0 0 1-1.441-1.44v-2.226c-1.137-.255-2.2-.705-3.16-1.3l-1.566 1.58c-.56.563-1.473.574-2.036.01l-1.185-1.17a1.44 1.44 0 0 1-.01-2.034l1.565-1.584c-.617-.966-1.078-2.047-1.343-3.2l-2.225.01c-.796.007-1.442-.64-1.442-1.438l-.01-1.665c-.004-.792.638-1.44 1.433-1.446l2.22-.007a10.14 10.14 0 0 1 1.324-3.206l-1.583-1.578a1.44 1.44 0 0 1-.004-2.032l1.17-1.18c.564-.57 1.477-.57 2.037-.01l1.58 1.567a10.28 10.28 0 0 1 3.208-1.343l-.01-2.22a1.44 1.44 0 0 1 1.435-1.445l1.665-.006c.796 0 1.442.638 1.442 1.43l.007 2.227c1.157.26 2.24.717 3.212 1.326l1.57-1.582a1.45 1.45 0 0 1 2.042 0l1.174 1.175a1.43 1.43 0 0 1 .001 2.032l-1.562 1.58c.613.973 1.07 2.05 1.334 3.21l2.223-.007c.795 0 1.44.644 1.442 1.438v1.67c0 .8-.64 1.433-1.432 1.433z" class="Y Z a b"/><path d="M3094.73-87.38h-.83c-.55 0-1 .45-1 1v2.333c0 .55.45 1 1 1h.83c.55 0 1-.45 1-1v-2.333c0-.55-.45-1-1-1" fill="#6d6e71"/><path d="M3094.73-87.38h-.83c-.55 0-1 .45-1 1v2.333c0 .55.45 1 1 1h.83c.55 0 1-.45 1-1v-2.333c0-.55-.45-1-1-1z" class="Y Z a b"/><path d="M3103.837-65.445c0 5.222-4.233 9.454-9.454 9.454s-9.455-4.232-9.455-9.454c0-3.504 1.91-6.555 4.742-8.188v-9.322l1.34-2.54h6.495l1.6 2.54v9.322c2.832 1.633 4.742 4.684 4.742 8.188" class="c"/><path d="M3089.67-73.633v-9.322l1.34-2.54h6.495l1.6 2.54v9.322z" fill="#bcbec0"/><path d="M3099.095-82.955l-1.6-2.54H3091l-1.34 2.54z" fill="#6d6e71"/><g class="Y Z a b"><path d="M3087.15-59.355a9.42 9.42 0 0 1-2.222-6.1c0-3.503 1.9-6.555 4.742-8.188v-9.322l1.34-2.54h6.495l1.6 2.54v9.322c2.83 1.633 4.742 4.685 4.742 8.188 0 5.222-4.233 9.455-9.455 9.455-1.255 0-2.454-.245-3.55-.7m-1.172-.547c-.737-.424-.985-.542-1.58-1.142"/><path d="M3088.25-76.524h12.268m-12.268-2.144h12.268m-12.268-2.144h12.268m-12.268-2.143h12.268"/></g><path d="M3101.886-65.164c0-4.182-3.4-7.572-7.572-7.572s-7.572 3.4-7.572 7.572 3.4 7.572 7.572 7.572 7.572-3.4 7.572-7.572" class="f"/><path d="M3096.376-63.7c0 1.102-.893 1.995-1.994 1.995s-1.995-.893-1.995-1.995a1.99 1.99 0 0 1 .582-1.408l-.59-3.512h3.866l-.572 3.412c.426.366.702.902.702 1.508" class="e"/><path d="M3096.376-63.7c0 1.102-.893 1.995-1.994 1.995s-1.995-.893-1.995-1.995a1.99 1.99 0 0 1 .582-1.408l-.59-3.512h3.866l-.572 3.412c.426.366.702.902.702 1.508z" class="Y Z a b"/><path d="M3155.353-11.454v-16.524h2.124v-8.093a.31.31 0 0 1 .547-.199l6.944 8.292h20.797v16.524z" fill="#e6e7e8"/><path d="M3185.765-13.438v1.984h-7.813m-22.6-11.648v-4.875h2.124v-8.094a.31.31 0 0 1 .547-.199l6.944 8.293h20.797v2.245m-9.426 10.508h27.7m-30.194-4.4h30.194m-35.025-4.38h35.036" class="Y Z a b"/><use xlink:href="#G" class="c"/><use xlink:href="#G" class="Y Z a b"/><path d="M3162.55-19.24c-5.598 0-10.135 4.646-10.135 10.376s4.537 10.377 10.135 10.377 10.136-4.646 10.136-10.377-4.538-10.376-10.136-10.376" class="f"/><use xlink:href="#H" class="d"/><use xlink:href="#H" class="Y Z a b"/><use xlink:href="#I" class="d"/><use xlink:href="#I" class="Y Z a b"/><use xlink:href="#J" class="d"/><use xlink:href="#J" class="Y Z a b"/><use xlink:href="#K" class="d"/><use xlink:href="#K" class="Y Z a b"/><path d="M3064.35-81.93a7.91 7.91 0 0 0-7.906 7.905 7.91 7.91 0 0 0 7.906 7.906 7.91 7.91 0 0 0 7.906-7.906 7.91 7.91 0 0 0-7.906-7.905m0 21.524a13.62 13.62 0 0 1-13.619-13.619 13.62 13.62 0 0 1 13.619-13.618 13.62 13.62 0 0 1 13.619 13.618 13.62 13.62 0 0 1-13.619 13.619" class="c"/><path d="M3064.35-81.93a7.91 7.91 0 0 0-7.906 7.905 7.91 7.91 0 0 0 7.906 7.906 7.91 7.91 0 0 0 7.906-7.906 7.91 7.91 0 0 0-7.906-7.905zm0 21.524a13.62 13.62 0 0 1-13.619-13.619 13.62 13.62 0 0 1 13.619-13.618 13.62 13.62 0 0 1 13.619 13.618 13.62 13.62 0 0 1-13.619 13.619z" class="Y Z a b"/><path d="M3052.084-68.14l5.1-2.587a7.94 7.94 0 0 0 3.44 3.668l-2.598 5.083c-2.582-1.36-4.663-3.527-5.93-6.164m18.574 6.177l-2.587-5.1a7.89 7.89 0 0 0 3.448-3.66l5.084 2.598a13.65 13.65 0 0 1-5.945 6.15m5.677-18.498l-5.098 2.6a7.94 7.94 0 0 0-3.447-3.248l2.598-5.084a13.67 13.67 0 0 1 5.947 5.74m-18.02-5.752l2.587 5.1a7.94 7.94 0 0 0-3.453 3.24l-5.094-2.603a13.66 13.66 0 0 1 5.96-5.727" class="d"/><path d="M3052.084-68.14l5.1-2.587a7.94 7.94 0 0 0 3.44 3.668l-2.598 5.083c-2.582-1.36-4.663-3.527-5.93-6.164zm18.576 6.177l-2.587-5.1a7.89 7.89 0 0 0 3.448-3.66l5.084 2.598a13.65 13.65 0 0 1-5.945 6.15zm5.687-18.5l-5.098 2.6a7.94 7.94 0 0 0-3.447-3.248l2.598-5.084a13.67 13.67 0 0 1 5.947 5.74zm-18.02-5.754l2.587 5.1a7.94 7.94 0 0 0-3.453 3.24l-5.094-2.603a13.66 13.66 0 0 1 5.96-5.727zm-16.923-1.428h163.822" class="Y Z a b"/></g></svg>