<?xml version="1.0" encoding="UTF-8" standalone="no"?>
<svg
   xmlns:dc="http://purl.org/dc/elements/1.1/"
   xmlns:cc="http://creativecommons.org/ns#"
   xmlns:rdf="http://www.w3.org/1999/02/22-rdf-syntax-ns#"
   xmlns:svg="http://www.w3.org/2000/svg"
   xmlns="http://www.w3.org/2000/svg"
   xmlns:sodipodi="http://sodipodi.sourceforge.net/DTD/sodipodi-0.dtd"
   xmlns:inkscape="http://www.inkscape.org/namespaces/inkscape"
   width="60.098mm"
   height="42.012001mm"
   viewBox="0 0 60.098 42.012001"
   version="1.1"
   id="svg8"
   inkscape:version="1.0.1 (3bc2e813f5, 2020-09-07)"
   sodipodi:docname="Project Management.svg">
  <defs
     id="defs2" />
  <sodipodi:namedview
     id="base"
     pagecolor="#ffffff"
     bordercolor="#666666"
     borderopacity="1.0"
     inkscape:pageopacity="0.0"
     inkscape:pageshadow="2"
     inkscape:zoom="0.7"
     inkscape:cx="199.21074"
     inkscape:cy="230.79507"
     inkscape:document-units="mm"
     inkscape:current-layer="layer1"
     inkscape:document-rotation="0"
     showgrid="false"
     inkscape:pagecheckerboard="true"
     inkscape:window-width="1920"
     inkscape:window-height="1001"
     inkscape:window-x="-9"
     inkscape:window-y="-9"
     inkscape:window-maximized="1" />
  <metadata
     id="metadata5">
    <rdf:RDF>
      <cc:Work
         rdf:about="">
        <dc:format>image/svg+xml</dc:format>
        <dc:type
           rdf:resource="http://purl.org/dc/dcmitype/StillImage" />
        <dc:title></dc:title>
      </cc:Work>
    </rdf:RDF>
  </metadata>
  <g
     inkscape:label="Layer 1"
     inkscape:groupmode="layer"
     id="layer1">
    <g
       id="g2419"
       transform="translate(-113.39285,-165.52526)">
      <g
         id="Bg_2"
         transform="matrix(0.26458333,0,0,0.26458333,44.223215,87.312501)">
        <rect
           id="XMLID_52_"
           x="261.42856"
           y="295.60727"
           fill="#ffffff"
           width="227.14285"
           height="158.78543"
           style="stroke-width:0.759652" />
      </g>
      <g
         id="Project"
         transform="matrix(0.26458333,0,0,0.26458333,44.223215,87.312501)">
        <g
           id="XMLID_55_" />
        <g
           id="XMLID_336_">
          <path
             id="XMLID_260_"
             fill="#edf0f4"
             d="m 466,338.8 v 0 c 0,6.1 -5,11.1 -11.1,11.1 H 432 c -5.2,0 -9.3,4.2 -9.3,9.3 v 0 c 0,5.1 4.1,9.3 9.3,9.3 l 43.5,0.3 c 6,0 10.9,4.9 10.9,10.9 v 0 c 0,6 -4.9,10.9 -10.9,10.9 h -17 c -10.4,0 -18.8,8.4 -18.8,18.8 v 7.6 l -125.2,-0.5 v 0 c 0,-9.8 -7.9,-17.7 -17.7,-17.7 h -22.2 c -6.6,0 -12,-5.4 -12,-12 v 0 c 0,-6.6 5.4,-12 12,-12 h 37.2 c 6.1,0 11.1,-5 11.1,-11.1 v 0 c 0,-6.1 -5,-11.1 -11.1,-11.1 h -17.6 c -7,0 -12.6,-5.6 -12.6,-12.6 v 0 c 0,-7 5.6,-12.6 12.6,-12.6 h 160.6 c 6.2,0.3 11.2,5.3 11.2,11.4 z" />
          <g
             id="XMLID_776_">
            <path
               id="XMLID_769_"
               fill="#ffffff"
               d="m 439.7,359.3 -0.5,-2.3 c -0.2,-1.6 -1.7,-2.8 -3.4,-2.6 l -34.8,4.5 c -1.6,0.2 -2.8,1.7 -2.6,3.4 l 6.4,49.1 39.5,-12.1 z" />
            <path
               id="XMLID_298_"
               fill="none"
               stroke="#414042"
               stroke-width="1.5"
               stroke-miterlimit="10"
               d="m 439.7,359.3 -0.5,-2.3 c -0.2,-1.6 -1.7,-2.8 -3.4,-2.6 l -23.9,3.1" />
            <path
               id="XMLID_297_"
               fill="#808285"
               d="m 409.6,416.7 h 37.3 c 1,0 1.9,-0.8 1.9,-1.9 v -51.7 c 0,-1 -0.8,-1.9 -1.9,-1.9 h -37.3 c -1,0 -1.9,0.8 -1.9,1.9 v 51.7 c 0,1 0.9,1.9 1.9,1.9 z" />
            <path
               id="XMLID_296_"
               fill="none"
               stroke="#414042"
               stroke-width="1.5"
               stroke-miterlimit="10"
               d="m 445.5,416.7 c 1.8,0 3.3,-1.5 3.3,-3.3 v -48.8 c 0,-1.8 -1.5,-3.3 -3.3,-3.3 h -25.7" />
            <line
               id="XMLID_760_"
               fill="none"
               stroke="#414042"
               stroke-width="1.5"
               stroke-miterlimit="10"
               x1="452.60001"
               y1="367.10001"
               x2="445"
               y2="367.10001" />
            <line
               id="XMLID_759_"
               fill="none"
               stroke="#414042"
               stroke-width="1.5"
               stroke-miterlimit="10"
               x1="452.60001"
               y1="372.39999"
               x2="445"
               y2="372.39999" />
            <line
               id="XMLID_292_"
               fill="none"
               stroke="#414042"
               stroke-width="1.5"
               stroke-miterlimit="10"
               x1="452.60001"
               y1="377.79999"
               x2="445"
               y2="377.79999" />
            <line
               id="XMLID_288_"
               fill="none"
               stroke="#414042"
               stroke-width="1.5"
               stroke-miterlimit="10"
               x1="452.60001"
               y1="383.20001"
               x2="445"
               y2="383.20001" />
            <line
               id="XMLID_763_"
               fill="none"
               stroke="#414042"
               stroke-width="1.5"
               stroke-miterlimit="10"
               x1="452.60001"
               y1="388.5"
               x2="445"
               y2="388.5" />
            <line
               id="XMLID_287_"
               fill="none"
               stroke="#414042"
               stroke-width="1.5"
               stroke-miterlimit="10"
               x1="452.60001"
               y1="393.89999"
               x2="445"
               y2="393.89999" />
            <line
               id="XMLID_285_"
               fill="none"
               stroke="#414042"
               stroke-width="1.5"
               stroke-miterlimit="10"
               x1="452.60001"
               y1="399.70001"
               x2="445.20001"
               y2="399.70001" />
            <line
               id="XMLID_282_"
               fill="none"
               stroke="#414042"
               stroke-width="1.5"
               stroke-miterlimit="10"
               x1="452.60001"
               y1="404.89999"
               x2="445.20001"
               y2="404.89999" />
            <line
               id="XMLID_279_"
               fill="none"
               stroke="#414042"
               stroke-width="1.5"
               stroke-miterlimit="10"
               x1="452.60001"
               y1="410.20001"
               x2="445.20001"
               y2="410.20001" />
            <circle
               id="XMLID_768_"
               fill="#ffffff"
               cx="428.29999"
               cy="383.20001"
               r="9" />
            <circle
               id="XMLID_771_"
               fill="none"
               stroke="#414042"
               stroke-width="1.5"
               stroke-miterlimit="10"
               cx="428.29999"
               cy="383.20001"
               r="9" />
          </g>
          <g
             id="XMLID_567_">
            <path
               id="XMLID_577_"
               fill="#ffb936"
               d="m 321.6,341.2 v 74.7 c 0,0.4 -0.4,0.8 -0.8,0.8 h -10.4 c -0.4,0 -0.8,-0.4 -0.8,-0.8 v -74.7 c 0,-0.4 0.4,-0.8 0.8,-0.8 h 10.4 c 0.4,0 0.8,0.4 0.8,0.8 z" />
            <path
               id="XMLID_262_"
               fill="#ffd586"
               d="m 310.3,416.7 h 4.2 v -76.3 h -4.2 c -0.4,0 -0.7,0.3 -0.7,0.8 v 74.7 c 0,0.4 0.3,0.8 0.7,0.8 z" />
            <path
               id="XMLID_261_"
               fill="none"
               stroke="#414042"
               stroke-width="1.5"
               stroke-miterlimit="10"
               d="m 309.6,415.8 v -74.6 c 0,-0.5 0.4,-0.8 0.8,-0.8 h 10.3 c 0.5,0 0.8,0.4 0.8,0.8 v 6.3" />
            <line
               id="XMLID_575_"
               fill="none"
               stroke="#414042"
               stroke-width="1.5"
               stroke-miterlimit="10"
               x1="309.60001"
               y1="410.5"
               x2="315.10001"
               y2="410.5" />
            <line
               id="XMLID_574_"
               fill="none"
               stroke="#414042"
               stroke-width="1.5"
               stroke-miterlimit="10"
               x1="309.60001"
               y1="402.39999"
               x2="315.10001"
               y2="402.39999" />
            <line
               id="XMLID_573_"
               fill="none"
               stroke="#414042"
               stroke-width="1.5"
               stroke-miterlimit="10"
               x1="309.60001"
               y1="394.39999"
               x2="315.10001"
               y2="394.39999" />
            <line
               id="XMLID_572_"
               fill="none"
               stroke="#414042"
               stroke-width="1.5"
               stroke-miterlimit="10"
               x1="309.60001"
               y1="386.39999"
               x2="315.10001"
               y2="386.39999" />
            <line
               id="XMLID_571_"
               fill="none"
               stroke="#414042"
               stroke-width="1.5"
               stroke-miterlimit="10"
               x1="309.60001"
               y1="378.39999"
               x2="315.10001"
               y2="378.39999" />
            <line
               id="XMLID_570_"
               fill="none"
               stroke="#414042"
               stroke-width="1.5"
               stroke-miterlimit="10"
               x1="309.60001"
               y1="370.39999"
               x2="315.10001"
               y2="370.39999" />
            <line
               id="XMLID_569_"
               fill="none"
               stroke="#414042"
               stroke-width="1.5"
               stroke-miterlimit="10"
               x1="309.60001"
               y1="362.29999"
               x2="315.10001"
               y2="362.29999" />
            <line
               id="XMLID_568_"
               fill="none"
               stroke="#414042"
               stroke-width="1.5"
               stroke-miterlimit="10"
               x1="309.60001"
               y1="354.29999"
               x2="315.10001"
               y2="354.29999" />
            <line
               id="XMLID_258_"
               fill="none"
               stroke="#414042"
               stroke-width="1.5"
               stroke-miterlimit="10"
               x1="309.60001"
               y1="346.39999"
               x2="315.10001"
               y2="346.39999" />
          </g>
          <g
             id="XMLID_392_">
            <line
               id="XMLID_397_"
               fill="none"
               stroke="#414042"
               stroke-width="1.5"
               stroke-linecap="round"
               stroke-miterlimit="10"
               x1="456.10001"
               y1="357"
               x2="460.39999"
               y2="357" />
            <line
               id="XMLID_396_"
               fill="none"
               stroke="#414042"
               stroke-width="1.5"
               stroke-linecap="round"
               stroke-miterlimit="10"
               x1="458.29999"
               y1="359.20001"
               x2="458.29999"
               y2="354.89999" />
          </g>
          <g
             id="XMLID_263_">
            <line
               id="XMLID_265_"
               fill="none"
               stroke="#414042"
               stroke-width="1.5"
               stroke-linecap="round"
               stroke-miterlimit="10"
               x1="350.39999"
               y1="337.29999"
               x2="354.70001"
               y2="337.29999" />
            <line
               id="XMLID_264_"
               fill="none"
               stroke="#414042"
               stroke-width="1.5"
               stroke-linecap="round"
               stroke-miterlimit="10"
               x1="352.60001"
               y1="339.39999"
               x2="352.60001"
               y2="335.20001" />
          </g>
          <g
             id="XMLID_360_">
            <line
               id="XMLID_365_"
               fill="none"
               stroke="#414042"
               stroke-width="1.5"
               stroke-linecap="round"
               stroke-miterlimit="10"
               x1="414.39999"
               y1="326.60001"
               x2="417.39999"
               y2="323.60001" />
            <line
               id="XMLID_364_"
               fill="none"
               stroke="#414042"
               stroke-width="1.5"
               stroke-linecap="round"
               stroke-miterlimit="10"
               x1="417.39999"
               y1="326.60001"
               x2="414.39999"
               y2="323.60001" />
          </g>
          <g
             id="XMLID_266_">
            <line
               id="XMLID_272_"
               fill="none"
               stroke="#414042"
               stroke-width="1.5"
               stroke-linecap="round"
               stroke-miterlimit="10"
               x1="278.60001"
               y1="352.5"
               x2="281.60001"
               y2="349.39999" />
            <line
               id="XMLID_269_"
               fill="none"
               stroke="#414042"
               stroke-width="1.5"
               stroke-linecap="round"
               stroke-miterlimit="10"
               x1="281.60001"
               y1="352.5"
               x2="278.60001"
               y2="349.39999" />
          </g>
          <line
             id="XMLID_322_"
             fill="none"
             stroke="#414042"
             stroke-width="1.5"
             stroke-miterlimit="10"
             x1="337.5"
             y1="318.29999"
             x2="366.89999"
             y2="318.29999" />
          <line
             id="XMLID_171_"
             fill="none"
             stroke="#414042"
             stroke-width="1.5"
             stroke-miterlimit="10"
             x1="389.29999"
             y1="340.39999"
             x2="418.70001"
             y2="340.39999" />
          <line
             id="XMLID_320_"
             fill="none"
             stroke="#414042"
             stroke-width="1.5"
             stroke-miterlimit="10"
             x1="353.29999"
             y1="325.10001"
             x2="407.60001"
             y2="325.10001" />
          <line
             id="XMLID_259_"
             fill="none"
             stroke="#414042"
             stroke-width="1.5"
             stroke-miterlimit="10"
             x1="266.39999"
             y1="363"
             x2="293.89999"
             y2="363" />
          <line
             id="XMLID_333_"
             fill="none"
             stroke="#414042"
             stroke-width="1.5"
             stroke-miterlimit="10"
             x1="456.10001"
             y1="363.70001"
             x2="475.5"
             y2="363.70001" />
          <line
             id="XMLID_318_"
             fill="none"
             stroke="#414042"
             stroke-width="1.5"
             stroke-miterlimit="10"
             x1="371.89999"
             y1="318.29999"
             x2="368.39999"
             y2="318.29999" />
          <path
             id="XMLID_271_"
             fill="#414042"
             d="m 383.4,349.6 c 0,0.7 -0.6,1.3 -1.3,1.3 -0.7,0 -1.3,-0.6 -1.3,-1.3 0,-0.7 0.6,-1.3 1.3,-1.3 0.7,0 1.3,0.6 1.3,1.3 z" />
          <path
             id="XMLID_278_"
             fill="#414042"
             d="m 294.6,385.3 c 0,1 -0.8,1.8 -1.8,1.8 -1,0 -1.8,-0.8 -1.8,-1.8 0,-1 0.8,-1.8 1.8,-1.8 1,0 1.8,0.8 1.8,1.8 z" />
          <path
             id="XMLID_321_"
             fill="#414042"
             d="m 317.4,333.1 c 0,1 -0.8,1.8 -1.8,1.8 -1,0 -1.8,-0.8 -1.8,-1.8 0,-1 0.8,-1.8 1.8,-1.8 1,0 1.8,0.8 1.8,1.8 z" />
          <path
             id="XMLID_325_"
             fill="#414042"
             d="m 462.2,400.4 c 0,1 -0.8,1.8 -1.8,1.8 -1,0 -1.8,-0.8 -1.8,-1.8 0,-1 0.8,-1.8 1.8,-1.8 1,0 1.8,0.8 1.8,1.8 z" />
          <g
             id="XMLID_43_">
            <path
               id="XMLID_172_"
               fill="#ffffff"
               d="m 409.5,416.6 -0.3,-52.9 c 0,-4 -3.6,-7.2 -8.1,-7.2 h -75.8 l 0.3,60.2 z" />
            <path
               id="XMLID_173_"
               fill="none"
               stroke="#414042"
               stroke-width="1.5"
               stroke-miterlimit="10"
               d="m 409.5,416.6 -0.3,-52.9 c 0,-4 -3.6,-7.2 -8.1,-7.2 h -75.8" />
            <path
               id="XMLID_170_"
               fill="#00d4ff"
               d="m 401.6,416.7 h 8.5 v -62.5 c 0,-3.2 -2.9,-5.9 -6.5,-5.9 h -2 z" />
            <path
               id="XMLID_169_"
               fill="none"
               stroke="#414042"
               stroke-width="1.5"
               stroke-miterlimit="10"
               d="m 410,362.7 v -7.8 c 0,-3.6 -2.9,-6.5 -6.5,-6.5 h -2 v 68.3" />
            <path
               id="XMLID_202_"
               fill="#00d4ff"
               d="m 328.3,416.7 h -8.5 v -62.5 c 0,-3.2 2.9,-5.9 6.5,-5.9 h 2 z" />
            <path
               id="XMLID_200_"
               fill="none"
               stroke="#414042"
               stroke-width="1.5"
               stroke-miterlimit="10"
               d="m 319.8,416.7 v -61.8 c 0,-3.6 2.9,-6.5 6.5,-6.5 h 2 v 68.3" />
            <circle
               id="XMLID_167_"
               fill="#ffb936"
               cx="369.60001"
               cy="384.10001"
               r="15" />
            <g
               id="XMLID_159_">
              <g
                 id="XMLID_267_">
                <circle
                   id="XMLID_268_"
                   fill="none"
                   stroke="#414042"
                   stroke-width="1.5"
                   stroke-miterlimit="10"
                   stroke-dasharray="1.9655, 1.9655"
                   cx="362.39999"
                   cy="391.20001"
                   r="15" />
              </g>
            </g>
          </g>
          <g
             id="XMLID_145_">
            <line
               id="XMLID_154_"
               fill="none"
               stroke="#414042"
               stroke-width="1.5"
               stroke-miterlimit="10"
               x1="290.29999"
               y1="416.70001"
               x2="454.20001"
               y2="416.70001" />
            <line
               id="XMLID_147_"
               fill="none"
               stroke="#414042"
               stroke-width="1.5"
               stroke-miterlimit="10"
               x1="285.79999"
               y1="416.70001"
               x2="288.5"
               y2="416.70001" />
            <line
               id="XMLID_146_"
               fill="none"
               stroke="#414042"
               stroke-width="1.5"
               stroke-miterlimit="10"
               x1="455.70001"
               y1="416.70001"
               x2="461.79999"
               y2="416.70001" />
          </g>
          <path
             id="XMLID_342_"
             opacity="0.3"
             fill="#414042"
             d="m 401.6,416.7 v 0 h 8.5 v -0.1 h 0.2 l -0.2,-44.4 v -9.5 h 0.7 v -1.5 L 357,414.9 c -0.4,0.4 -0.5,1 -0.3,1.6 0,0 0.1,0.1 0.1,0.1 h 44 v 0.1 z m -24.5,-8.6 29.7,-29.7 v 29.7 z" />
          <g
             id="XMLID_229_">
            <g
               id="XMLID_203_">
              <path
                 id="XMLID_206_"
                 fill="#ffb936"
                 d="m 417.9,416.7 h -57.3 c -0.6,0 -1,-0.8 -0.5,-1.2 l 56.6,-56.6 c 0.4,-0.4 1.2,-0.1 1.2,0.5 z m -40.1,-7.9 H 410 v -32.2 z" />
            </g>
            <g
               id="XMLID_204_">
              <path
                 id="XMLID_209_"
                 fill="none"
                 stroke="#414042"
                 stroke-width="1.5"
                 stroke-miterlimit="10"
                 d="m 417.9,416.7 h -57.3 c -0.6,0 -1,-0.8 -0.5,-1.2 l 56.6,-56.6 c 0.4,-0.4 1.2,-0.1 1.2,0.5 z m -40.1,-7.9 H 410 v -32.2 z" />
            </g>
            <line
               id="XMLID_218_"
               fill="none"
               stroke="#414042"
               stroke-width="1.5"
               stroke-miterlimit="10"
               x1="368.29999"
               y1="412.89999"
               x2="368.29999"
               y2="416.70001" />
            <line
               id="XMLID_217_"
               fill="none"
               stroke="#414042"
               stroke-width="1.5"
               stroke-miterlimit="10"
               x1="374.5"
               y1="412.89999"
               x2="374.5"
               y2="416.70001" />
            <line
               id="XMLID_220_"
               fill="none"
               stroke="#414042"
               stroke-width="1.5"
               stroke-miterlimit="10"
               x1="380.79999"
               y1="412.89999"
               x2="380.79999"
               y2="416.70001" />
            <line
               id="XMLID_221_"
               fill="none"
               stroke="#414042"
               stroke-width="1.5"
               stroke-miterlimit="10"
               x1="387"
               y1="412.89999"
               x2="387"
               y2="416.70001" />
            <line
               id="XMLID_223_"
               fill="none"
               stroke="#414042"
               stroke-width="1.5"
               stroke-miterlimit="10"
               x1="393.20001"
               y1="412.89999"
               x2="393.20001"
               y2="416.70001" />
            <line
               id="XMLID_224_"
               fill="none"
               stroke="#414042"
               stroke-width="1.5"
               stroke-miterlimit="10"
               x1="399.5"
               y1="412.89999"
               x2="399.5"
               y2="416.70001" />
            <line
               id="XMLID_226_"
               fill="none"
               stroke="#414042"
               stroke-width="1.5"
               stroke-miterlimit="10"
               x1="405.70001"
               y1="412.89999"
               x2="405.70001"
               y2="416.70001" />
            <line
               id="XMLID_227_"
               fill="none"
               stroke="#414042"
               stroke-width="1.5"
               stroke-miterlimit="10"
               x1="411.89999"
               y1="412.89999"
               x2="411.89999"
               y2="416.70001" />
            <line
               id="XMLID_249_"
               fill="none"
               stroke="#414042"
               stroke-width="1.5"
               stroke-miterlimit="10"
               x1="414"
               y1="409.5"
               x2="417.79999"
               y2="409.5" />
            <line
               id="XMLID_242_"
               fill="none"
               stroke="#414042"
               stroke-width="1.5"
               stroke-miterlimit="10"
               x1="414"
               y1="403.29999"
               x2="417.79999"
               y2="403.29999" />
            <line
               id="XMLID_241_"
               fill="none"
               stroke="#414042"
               stroke-width="1.5"
               stroke-miterlimit="10"
               x1="414"
               y1="397"
               x2="417.79999"
               y2="397" />
            <line
               id="XMLID_234_"
               fill="none"
               stroke="#414042"
               stroke-width="1.5"
               stroke-miterlimit="10"
               x1="414"
               y1="390.79999"
               x2="417.79999"
               y2="390.79999" />
            <line
               id="XMLID_233_"
               fill="none"
               stroke="#414042"
               stroke-width="1.5"
               stroke-miterlimit="10"
               x1="414"
               y1="384.5"
               x2="417.79999"
               y2="384.5" />
            <line
               id="XMLID_232_"
               fill="none"
               stroke="#414042"
               stroke-width="1.5"
               stroke-miterlimit="10"
               x1="414"
               y1="378.29999"
               x2="417.79999"
               y2="378.29999" />
            <line
               id="XMLID_231_"
               fill="none"
               stroke="#414042"
               stroke-width="1.5"
               stroke-miterlimit="10"
               x1="414"
               y1="372.10001"
               x2="417.79999"
               y2="372.10001" />
            <line
               id="XMLID_230_"
               fill="none"
               stroke="#414042"
               stroke-width="1.5"
               stroke-miterlimit="10"
               x1="414"
               y1="365.79999"
               x2="417.79999"
               y2="365.79999" />
          </g>
          <g
             id="XMLID_211_">
            <path
               id="XMLID_257_"
               fill="#ffffff"
               d="m 300,416.7 h 4.2 c 0.3,0 0.6,-0.3 0.6,-0.6 v -61 c 0,-0.1 0,-0.2 -0.1,-0.2 l -2.1,-4.6 c -0.2,-0.4 -0.8,-0.4 -1,0 l -2.1,4.6 c 0,0.1 -0.1,0.2 -0.1,0.2 v 61 c 0,0.3 0.3,0.6 0.6,0.6 z" />
            <rect
               id="XMLID_270_"
               x="299.39999"
               y="357"
               fill="#00d4ff"
               width="5.4000001"
               height="53.799999" />
            <path
               id="XMLID_256_"
               fill="none"
               stroke="#414042"
               stroke-width="1.5"
               stroke-miterlimit="10"
               d="m 299.4,416.7 h 5.4 V 355 l -2.4,-5.2 c -0.1,-0.3 -0.5,-0.3 -0.6,0 l -2.4,5.2 z" />
            <line
               id="XMLID_255_"
               fill="none"
               stroke="#414042"
               stroke-width="1.5"
               stroke-miterlimit="10"
               x1="305"
               y1="357"
               x2="299.39999"
               y2="357" />
            <line
               id="XMLID_214_"
               fill="none"
               stroke="#414042"
               stroke-width="1.5"
               stroke-miterlimit="10"
               x1="305.20001"
               y1="410.79999"
               x2="299"
               y2="410.79999" />
          </g>
        </g>
      </g>
    </g>
  </g>
</svg>
