<?xml version="1.0" encoding="UTF-8" standalone="no"?> <svg xmlns:dc="http://purl.org/dc/elements/1.1/" xmlns:cc="http://creativecommons.org/ns#" xmlns:rdf="http://www.w3.org/1999/02/22-rdf-syntax-ns#" xmlns:svg="http://www.w3.org/2000/svg" xmlns="http://www.w3.org/2000/svg" xmlns:sodipodi="http://sodipodi.sourceforge.net/DTD/sodipodi-0.dtd" xmlns:inkscape="http://www.inkscape.org/namespaces/inkscape" width="217.336mm" height="163.93401mm" viewBox="0 0 217.336 163.93401" version="1.1" id="svg7605" inkscape:version="0.92.3 (2405546, 2018-03-11)" sodipodi:docname="quality-assurance.svg"><defs id="defs7599"></defs><metadata id="metadata7602"></metadata><g inkscape:label="Layer 1" inkscape:groupmode="layer" id="layer1" transform="translate(0,-133.066)"><g transform="matrix(3.9115647,0,0,3.9115647,-406.11475,-128.49213)" id="g7597"><rect style="fill:#f5dc26;stroke-width:0.26458332" x="142.63849" y="82.425491" width="3.4131248" height="3.4131248" id="rect4434"></rect><g transform="matrix(0.26458333,0,0,0.26458333,95.225158,55.014655)" id="g4442"><rect style="fill:#43566b" x="148" y="44.799999" width="2.9000001" height="2.9000001" id="rect4436"></rect><rect style="fill:#43566b" x="153.3" y="44.799999" width="2.9000001" height="2.9000001" id="rect4438"></rect><rect style="fill:#43566b" x="158.60001" y="44.799999" width="2.9000001" height="2.9000001" id="rect4440"></rect></g><g transform="matrix(0.26458333,0,0,0.26458333,95.225158,55.014655)" id="g4450"><rect style="fill:#43566b" x="227.89999" y="103.7" width="3.0999999" height="3.0999999" id="rect4444"></rect><rect style="fill:#43566b" x="233.60001" y="103.7" width="3.0999999" height="3.0999999" id="rect4446"></rect><rect style="fill:#43566b" x="239.39999" y="103.7" width="3.0999999" height="3.0999999" id="rect4448"></rect></g><g transform="matrix(0.26458333,0,0,0.26458333,95.225158,55.014655)" id="g4458"><rect style="fill:#43566b" x="210.7" y="126" width="3.0999999" height="3.0999999" id="rect4452"></rect><rect style="fill:#43566b" x="216.39999" y="126" width="3.0999999" height="3.0999999" id="rect4454"></rect><rect style="fill:#43566b" x="222.10001" y="126" width="3.0999999" height="3.0999999" id="rect4456"></rect></g><g transform="matrix(0.26458333,0,0,0.26458333,95.225158,55.014655)" id="g4466"><rect style="fill:#43566b" x="187.3" y="109.2" width="3.0999999" height="3.0999999" id="rect4460"></rect><rect style="fill:#43566b" x="193" y="109.2" width="3.0999999" height="3.0999999" id="rect4462"></rect><rect style="fill:#43566b" x="198.7" y="109.2" width="3.0999999" height="3.0999999" id="rect4464"></rect></g><g transform="matrix(0.26458333,0,0,0.26458333,95.225158,55.014655)" id="g4474"><rect style="fill:#43566b" x="32.5" y="75.800003" width="3.0999999" height="3.0999999" id="rect4468"></rect><rect style="fill:#43566b" x="38.200001" y="75.800003" width="3.0999999" height="3.0999999" id="rect4470"></rect><rect style="fill:#43566b" x="43.900002" y="75.800003" width="3.0999999" height="3.0999999" id="rect4472"></rect></g><g transform="matrix(0.26458333,0,0,0.26458333,95.225158,55.014655)" id="g4482"><rect style="fill:#43566b" x="194.5" y="56.099998" width="3.0999999" height="3.0999999" id="rect4476"></rect><rect style="fill:#43566b" x="200.3" y="56.099998" width="3.0999999" height="3.0999999" id="rect4478"></rect><rect style="fill:#43566b" x="206" y="56.099998" width="3.0999999" height="3.0999999" id="rect4480"></rect></g><g transform="matrix(0.26458333,0,0,0.26458333,95.225158,55.014655)" id="g4490"><rect style="fill:#43566b" x="87.599998" y="49.900002" width="3.0999999" height="3.0999999" id="rect4484"></rect><rect style="fill:#43566b" x="93.400002" y="49.900002" width="3.0999999" height="3.0999999" id="rect4486"></rect><rect style="fill:#43566b" x="99.099998" y="49.900002" width="3.0999999" height="3.0999999" id="rect4488"></rect></g><path style="fill:#ffffff;stroke:#42566b;stroke-width:0.52916664;stroke-miterlimit:10;stroke-dasharray:0.52916666, 0.52916666" inkscape:connector-curvature="0" stroke-miterlimit="10" d="m 151.76662,93.246946 c 0,0.767292 -0.60855,1.375834 -1.37584,1.375834 -0.76729,0 -1.37583,-0.608542 -1.37583,-1.375834 0,-0.767291 0.60854,-1.375833 1.37583,-1.375833 0.76729,0 1.37584,0.608542 1.37584,1.375833 z" id="path4492"></path><g transform="matrix(0.26458333,0,0,0.26458333,95.225158,55.014655)" id="g4500"><polygon style="fill:#ffffff;stroke:#44566b;stroke-width:2;stroke-miterlimit:10" stroke-miterlimit="10" points="56,200.4 102.3,124.7 153.4,200.4 " id="polygon4494"></polygon><polyline style="fill:none;stroke:#43566b;stroke-width:2;stroke-linecap:round;stroke-linejoin:round;stroke-miterlimit:10" stroke-miterlimit="10" points=" 86.3,150.9 96.7,156.9 102.4,150.3 108.7,157.4 113,148.5 125.7,159.5 " id="polyline4496"></polyline><path style="fill:none;stroke:#43566b;stroke-width:2;stroke-linecap:round;stroke-miterlimit:10" inkscape:connector-curvature="0" stroke-miterlimit="10" d="m 99.3,141.1 c -0.7,1.3 -2.1,2.1 -3,1.8 -0.9,-0.3 -1,-1.6 -0.3,-2.9 0.7,-1.3 2.1,-2.1 3,-1.8 0.9,0.4 1.1,1.6 0.3,2.9 z" id="path4498"></path></g><g transform="matrix(0.26458333,0,0,0.26458333,95.225158,55.014655)" id="g4514"><g id="g4508"><polygon style="fill:#24abc2;fill-opacity:1;stroke:#44566b;stroke-width:2;stroke-miterlimit:10" stroke-miterlimit="10" points="162.2,100.2 213.2,200.4 115.9,200.4 " id="polygon4502"></polygon><polyline style="fill:none;stroke:#43566b;stroke-width:2;stroke-linecap:round;stroke-linejoin:round;stroke-miterlimit:10" stroke-miterlimit="10" points=" 146.1,134.9 156.6,142.8 162.2,129.6 169.4,138.8 171,129.6 185.6,146.2 " id="polyline4504"></polyline><path style="fill:none;stroke:#43566b;stroke-width:2;stroke-linecap:round;stroke-miterlimit:10" inkscape:connector-curvature="0" stroke-miterlimit="10" d="m 159.2,122 c -0.7,1.7 -2.1,2.8 -3,2.4 -0.9,-0.4 -1,-2.1 -0.3,-3.8 0.7,-1.7 2.1,-2.8 3,-2.4 0.9,0.3 1.1,2 0.3,3.8 z" id="path4506"></path></g><polygon style="fill:#e86126;stroke:#44566b;stroke-width:2;stroke-miterlimit:10" stroke-miterlimit="10" points="184.6,81.7 194.5,72.2 162.4,72.2 162.4,91.3 194.5,91.3 " id="polygon4510"></polygon><line style="fill:none;stroke:#43566b;stroke-width:2;stroke-linecap:round;stroke-miterlimit:10" stroke-miterlimit="10" x1="162.39999" y1="100.2" x2="162.39999" y2="72.199997" id="line4512"></line></g><g transform="matrix(0.26458333,0,0,0.26458333,95.225158,55.014655)" id="g4530"><line style="fill:#ffffff" x1="71.599998" y1="150.39999" x2="94.800003" y2="115" id="line4516"></line><g id="g4528"><line style="fill:none;stroke:#43566b;stroke-width:2;stroke-linecap:square;stroke-miterlimit:10" stroke-miterlimit="10" x1="71.599998" y1="150.39999" x2="72.099998" y2="149.60001" id="line4518"></line><line style="fill:none;stroke:#43566b;stroke-width:2;stroke-linecap:square;stroke-miterlimit:10;stroke-dasharray:2.0048, 2.0048" stroke-miterlimit="10" x1="73.199997" y1="147.89999" x2="92.5" y2="118.6" id="line4520"></line><line style="fill:none;stroke:#43566b;stroke-width:2;stroke-linecap:square;stroke-miterlimit:10" stroke-miterlimit="10" x1="93" y1="117.8" x2="93.599998" y2="116.9" id="line4522"></line><g id="g4526"><polygon style="fill:#43566b" points="94.2,122.1 93.3,117.4 88.6,118.4 90.2,116 94.8,115 95.8,119.7 " id="polygon4524"></polygon></g></g></g><rect style="fill:#f5dc26;stroke-width:0.26458332" x="150.15266" y="77.107361" width="3.4131248" height="3.4131248" id="rect4532"></rect><g transform="matrix(0.26458333,0,0,0.26458333,95.225158,55.014655)" id="g4540"><line style="fill:none;stroke:#42566b;stroke-width:2;stroke-miterlimit:10;stroke-dasharray:2, 2" stroke-miterlimit="10" x1="233.89999" y1="148" x2="233.89999" y2="203.2" id="line4534"></line><g id="g4538"><path style="fill:#42566b" inkscape:connector-curvature="0" d="m 233.9,143 c -1,2.8 -2.8,6.3 -4.7,8.5 l 4.7,-1.7 4.7,1.7 c -1.9,-2.2 -3.7,-5.7 -4.7,-8.5 z" id="path4536"></path></g></g><g transform="matrix(0.26458333,0,0,0.26458333,95.225158,55.014655)" id="g4550"><rect style="fill:#42566b" x="68.199997" y="111.9" width="5.0999999" height="1.7" id="rect4542"></rect><rect style="fill:#42566b" x="75.099998" y="104.9" width="1.7" height="5.0999999" id="rect4544"></rect><rect style="fill:#42566b" x="75.099998" y="115.5" width="1.7" height="5.0999999" id="rect4546"></rect><rect style="fill:#42566b" x="78.800003" y="111.9" width="5.0999999" height="1.7" id="rect4548"></rect></g><rect style="fill:#f5dc26;stroke-width:0.26458332" x="108.03099" y="88.272781" width="5.1329165" height="5.1329165" id="rect4552"></rect><g transform="matrix(0.26458333,0,0,0.26458333,95.225158,55.014655)" id="g4576"><g id="g4574"><rect style="fill:#ffffff" x="37.700001" y="136.60001" width="15.8" height="15.8" id="rect4554"></rect><g id="g4572"><polyline style="fill:none;stroke:#42566b;stroke-width:2;stroke-miterlimit:10" stroke-miterlimit="10" points="53.6,151.4 53.6,152.4 52.6,152.4 " id="polyline4556"></polyline><line style="fill:none;stroke:#42566b;stroke-width:2;stroke-miterlimit:10;stroke-dasharray:1.9759, 1.9759" stroke-miterlimit="10" x1="50.599998" y1="152.39999" x2="39.700001" y2="152.39999" id="line4558"></line><polyline style="fill:none;stroke:#42566b;stroke-width:2;stroke-miterlimit:10" stroke-miterlimit="10" points="38.7,152.4 37.7,152.4 37.7,151.4 " id="polyline4560"></polyline><line style="fill:none;stroke:#42566b;stroke-width:2;stroke-miterlimit:10;stroke-dasharray:1.9759, 1.9759" stroke-miterlimit="10" x1="37.700001" y1="149.39999" x2="37.700001" y2="138.60001" id="line4562"></line><polyline style="fill:none;stroke:#42566b;stroke-width:2;stroke-miterlimit:10" stroke-miterlimit="10" points="37.7,137.6 37.7,136.6 38.7,136.6 " id="polyline4564"></polyline><line style="fill:none;stroke:#42566b;stroke-width:2;stroke-miterlimit:10;stroke-dasharray:1.9759, 1.9759" stroke-miterlimit="10" x1="40.700001" y1="136.60001" x2="51.599998" y2="136.60001" id="line4566"></line><polyline style="fill:none;stroke:#42566b;stroke-width:2;stroke-miterlimit:10" stroke-miterlimit="10" points="52.6,136.6 53.6,136.6 53.6,137.6 " id="polyline4568"></polyline><line style="fill:none;stroke:#42566b;stroke-width:2;stroke-miterlimit:10;stroke-dasharray:1.9759, 1.9759" stroke-miterlimit="10" x1="53.599998" y1="139.5" x2="53.599998" y2="150.39999" id="line4570"></line></g></g></g><path style="fill:#ffffff;stroke:#42566b;stroke-width:0.52916664;stroke-miterlimit:10;stroke-dasharray:0.52916666, 0.52916666" inkscape:connector-curvature="0" stroke-miterlimit="10" d="m 108.00453,82.71653 c 0,0.714375 -0.58208,1.296458 -1.29646,1.296458 -0.71437,0 -1.29645,-0.582083 -1.29645,-1.296458 0,-0.714375 0.58208,-1.296459 1.29645,-1.296459 0.71438,0 1.29646,0.582084 1.29646,1.296459 z" id="path4578"></path><g transform="matrix(0.26458333,0,0,0.26458333,95.225158,55.014655)" id="g4638"><g id="g4636"><g id="g4606"><g id="g4596"></g><g id="g4604"><g id="g4602"></g></g></g><g id="g4634"><line style="fill:none;stroke:#43566b;stroke-width:2;stroke-miterlimit:10" stroke-miterlimit="10" x1="145.10001" y1="121.3" x2="146.3" y2="132.60001" id="line4622"></line></g></g></g><polygon transform="matrix(0.26458333,0,0,0.26458333,95.225158,55.014655)" style="fill:#77c04b;stroke:#44566b;stroke-width:2;stroke-miterlimit:10" stroke-miterlimit="10" points="162.5,200.5 207.5,200.5 207.5,180.1 162.5,180.1 162.5,162.6 122.1,162.6 122.1,180.1 77.1,180.1 77.1,200.5 122.1,200.5 " id="polygon4640"></polygon><g transform="matrix(0.26458333,0,0,0.26458333,95.225158,55.014655)" id="g4644"><path style="fill:#ffffff" inkscape:connector-curvature="0" d="m 142,181.7 v -8.9 c -0.4,0.1 -1.1,0.1 -1.5,0.1 v -1.6 c 1,-0.1 1.6,-0.5 2.1,-1 h 1.7 v 11.5 H 142 Z" id="path4642"></path></g><g transform="matrix(0.26458333,0,0,0.26458333,95.225158,55.014655)" id="g4648"><path style="fill:#ffffff" inkscape:connector-curvature="0" d="m 95,195.2 v -0.1 c 0,-2.2 0.9,-3.7 3.7,-5.8 1.3,-1 1.7,-1.4 1.7,-2.4 0,-1 -0.5,-1.6 -1.5,-1.6 -1.1,0 -1.6,0.8 -1.7,1.9 H 95 c 0.1,-1.9 1.2,-3.7 4,-3.7 2.5,0 3.8,1.4 3.8,3.3 0,1.6 -0.7,2.5 -2.7,3.9 -1.4,1 -2.1,1.8 -2.3,2.5 h 5.2 l -0.3,1.9 H 95 Z" id="path4646"></path></g><g transform="matrix(0.26458333,0,0,0.26458333,95.225158,55.014655)" id="g4652"><path style="fill:#ffffff" inkscape:connector-curvature="0" d="m 184.5,186.7 c 0.1,-1.5 1.3,-3.1 3.8,-3.1 2.5,0 3.7,1.3 3.7,3 0,1.4 -1,2.1 -1.5,2.3 v 0 c 1,0.3 2,1.2 2,2.8 0,1.9 -1.2,3.6 -4.2,3.6 -2.7,0 -3.9,-1.6 -4,-3.2 h 2.3 c 0.1,0.9 0.7,1.5 1.7,1.5 1.2,0 1.7,-0.7 1.7,-1.8 0,-1.3 -0.8,-1.8 -2,-1.8 h -0.8 v -1.9 h 0.7 c 1.1,0 1.8,-0.3 1.8,-1.4 0,-0.9 -0.5,-1.4 -1.4,-1.4 -1.1,0 -1.4,0.7 -1.5,1.4 z" id="path4650"></path></g><path style="fill:#f5dc26;stroke:#44566b;stroke-width:0.52916664;stroke-miterlimit:10;stroke-dasharray:0.79374999, 0.52916666" inkscape:connector-curvature="0" stroke-miterlimit="10" d="m 122.47724,76.419446 c 0.15875,1.42875 -0.87312,2.69875 -2.27542,2.8575 -1.42875,0.15875 -2.69875,-0.873125 -2.8575,-2.275416 -0.15875,-1.42875 0.87313,-2.69875 2.27542,-2.8575 1.42875,-0.15875 2.69875,0.846666 2.8575,2.275416 z" id="path4654"></path><g transform="matrix(0.35343623,0,0,0.35343623,7.5634602,52.063151)" id="g2623"><g id="g2617"><path id="path2607" d="m 369.7,90.2 c 0,6.7 -5.4,12.1 -12.1,12.1 h -5.4 c -6.7,0 -12.1,-5.4 -12.1,-12.1 V 62.4 h 29.5 v 27.8 z" stroke-miterlimit="10" inkscape:connector-curvature="0" style="fill:#ffcc0a;stroke:#44566b;stroke-width:2;stroke-miterlimit:10"></path><rect id="rect2609" height="4.4000001" width="38.099998" stroke-miterlimit="10" y="58" x="335.89999" style="fill:#ffcc0a;stroke:#44566b;stroke-width:2;stroke-miterlimit:10"></rect><path id="path2611" d="m 340.2,68.4 h -6.4 c -1.2,0 -2.3,0.6 -3.1,1.5 -0.7,1 -0.9,2.2 -0.6,3.4 l 2.4,8.3 c 1,3.4 4.1,5.7 7.6,5.7" stroke-miterlimit="10" inkscape:connector-curvature="0" style="fill:none;stroke:#44566b;stroke-width:2;stroke-miterlimit:10"></path><path id="path2613" d="m 369.2,68.4 h 6.4 c 1.2,0 2.3,0.6 3.1,1.5 0.7,1 0.9,2.2 0.6,3.4 l -2.4,8.3 c -1,3.4 -4.1,5.7 -7.6,5.7" stroke-miterlimit="10" inkscape:connector-curvature="0" style="fill:none;stroke:#44566b;stroke-width:2;stroke-miterlimit:10"></path><line id="line2615" y2="89.400002" x2="345.79999" y1="68.400002" x1="345.79999" stroke-miterlimit="10" style="fill:none;stroke:#ffffff;stroke-width:2;stroke-linecap:round;stroke-miterlimit:10"></line></g><polygon id="polygon2619" points="359.9,102.3 357.8,126.5 351.6,126.5 349.5,102.3 " stroke-miterlimit="10" style="fill:#ffcc0a;stroke:#44566b;stroke-width:2;stroke-miterlimit:10"></polygon><path id="path2621" d="m 365.7,131.2 h -21.9 v -2.6 c 0,-2.6 2.1,-4.7 4.7,-4.7 h 12.4 c 2.6,0 4.7,2.1 4.7,4.7 v 2.6 z" stroke-miterlimit="10" inkscape:connector-curvature="0" style="fill:#ffcc0a;stroke:#44566b;stroke-width:2;stroke-miterlimit:10"></path></g><g transform="matrix(0.26458333,0,0,0.26458333,95.225158,55.014655)" id="g4668"><g id="g4658"><path style="fill:#e96126;stroke:#43566b;stroke-width:2;stroke-miterlimit:10" inkscape:connector-curvature="0" stroke-miterlimit="10" d="m 111.8,176.7 c -8,1.5 -35.6,6.9 -43.7,8.5 L 74.9,174 64.5,166 c 8,-1.5 38.6,-6.9 46.6,-8.5 z" id="path4656"></path></g><g id="g4662"><path style="fill:#e96126;stroke:#43566b;stroke-width:2;stroke-miterlimit:10" inkscape:connector-curvature="0" stroke-miterlimit="10" d="m 174.8,164.5 c 8,-1.5 40.9,-7.4 48.9,-8.9 l -10.4,-7.9 6.8,-11.2 c -8,1.5 -38.5,7.4 -46.5,8.9 z" id="path4660"></path></g><g id="g4666"><polygon style="fill:#e96126;stroke:#43566b;stroke-width:2;stroke-miterlimit:10" stroke-miterlimit="10" points="92.4,171.4 99.2,160.2 88.8,152.3 151.5,140.4 172.1,136.5 192.7,132.6 186.7,143.6 196.3,151.7 175.7,155.6 155.1,159.5 " id="polygon4664"></polygon></g></g></g></g></svg> 