<?xml version="1.0" encoding="UTF-8" standalone="no"?> <svg xmlns:dc="http://purl.org/dc/elements/1.1/" xmlns:cc="http://creativecommons.org/ns#" xmlns:rdf="http://www.w3.org/1999/02/22-rdf-syntax-ns#" xmlns:svg="http://www.w3.org/2000/svg" xmlns="http://www.w3.org/2000/svg" xmlns:sodipodi="http://sodipodi.sourceforge.net/DTD/sodipodi-0.dtd" xmlns:inkscape="http://www.inkscape.org/namespaces/inkscape" width="210mm" height="176mm" viewBox="0 0 210 176" version="1.1" id="svg3111" inkscape:version="0.92.3 (2405546, 2018-03-11)" sodipodi:docname="sample and quotation.svg"><defs id="defs3105"></defs><metadata id="metadata3108"></metadata><g inkscape:label="Layer 1" inkscape:groupmode="layer" id="layer1" transform="translate(0,-121)"><g transform="matrix(1.0079014,0,0,1.0079014,-260.31416,83.331869)" id="g1868"><g id="g1190"><path d="m 418.1,117.1 c 9.3,9.5 24.6,9.7 34.1,0.4 9.5,-9.3 9.7,-24.6 0.4,-34.1 -9.3,-9.5 -24.6,-9.7 -34.1,-0.4 -9.5,9.3 -9.7,24.6 -0.4,34.1 z" id="path1152" inkscape:connector-curvature="0" style="opacity:0.1;fill:#ffffff"></path><g id="g1166"><g id="g1164"><g id="g1162"><g id="g1156"><path d="m 406.5,100.1 c 0.1,-15.9 13.2,-28.7 29.1,-28.6 15.9,0.1 28.7,13.2 28.6,29.1 -0.1,14.6 -11.1,26.6 -25.2,28.4 l -0.2,23.7 -6.5,-0.1 0.2,-23.5 c -14.7,-1.6 -26.1,-14 -26,-29 z m 12.1,16.4 c 4.2,4.3 10,7 16.5,7.1 12.8,0.1 23.3,-10.2 23.5,-23.1 0.1,-12.9 -10.3,-23.4 -23.1,-23.5 -12.8,-0.1 -23.4,10.3 -23.5,23.1 0,6.4 2.5,12.2 6.6,16.4 z" id="path1154" inkscape:connector-curvature="0" style="fill:#ffffff"></path></g><g id="g1160"><path stroke-miterlimit="10" d="m 406.5,100.1 c 0.1,-15.9 13.2,-28.7 29.1,-28.6 15.9,0.1 28.7,13.2 28.6,29.1 -0.1,14.6 -11.1,26.6 -25.2,28.4 l -0.2,23.7 -6.5,-0.1 0.2,-23.5 c -14.7,-1.6 -26.1,-14 -26,-29 z m 12.1,16.4 c 4.2,4.3 10,7 16.5,7.1 12.8,0.1 23.3,-10.2 23.5,-23.1 0.1,-12.9 -10.3,-23.4 -23.1,-23.5 -12.8,-0.1 -23.4,10.3 -23.5,23.1 0,6.4 2.5,12.2 6.6,16.4 z" id="path1158" inkscape:connector-curvature="0" style="fill:none;stroke:#44566b;stroke-width:2;stroke-miterlimit:10"></path></g></g></g></g><polygon stroke-miterlimit="10" points="447.6,146.7 443.5,146.7 443.5,207 427.2,207 427.2,146.7 423.1,146.7 423.1,139.3 447.6,139.3 " id="polygon1168" style="fill:#009fd9;stroke:#44566b;stroke-width:2;stroke-miterlimit:10"></polygon><g id="g1172"><rect x="423.10001" y="203.3" stroke-miterlimit="10" width="24.5" height="7.4000001" id="rect1170" style="fill:#ffffff;stroke:#43566b;stroke-width:2;stroke-miterlimit:10"></rect></g><g id="g1188"><g id="g1186"><g id="g1176"><rect x="430" y="172.60001" width="10.7" height="1.2" id="rect1174" style="fill:#ffffff"></rect></g><g id="g1180"><rect x="430" y="175.3" width="10.7" height="1.2" id="rect1178" style="fill:#ffffff"></rect></g><g id="g1184"><rect x="430" y="178" width="10.7" height="1.2" id="rect1182" style="fill:#ffffff"></rect></g></g></g></g><rect x="276.20001" y="88.599998" width="18.299999" height="18.299999" id="rect1192" style="fill:#f5dc26"></rect><g id="g1302"><g id="g1300"><rect x="382.70001" y="156.60001" stroke-miterlimit="10" width="79.699997" height="54.099998" id="rect1194" style="fill:#ffffff;stroke:#44566b;stroke-width:2;stroke-miterlimit:10"></rect><g id="g1290"><g id="g1198"><rect x="391.10001" y="166.2" stroke-miterlimit="10" width="8.3000002" height="6.8000002" id="rect1196" style="fill:#ffffff;stroke:#44566b;stroke-width:2;stroke-miterlimit:10"></rect></g><g id="g1202"><rect x="404.70001" y="166.2" stroke-miterlimit="10" width="8.3000002" height="6.8000002" id="rect1200" style="fill:#f16526;stroke:#44566b;stroke-width:2;stroke-miterlimit:10"></rect></g><g id="g1206"><rect x="418.39999" y="166.2" stroke-miterlimit="10" width="8.3000002" height="6.8000002" id="rect1204" style="fill:#ffffff;stroke:#44566b;stroke-width:2;stroke-miterlimit:10"></rect></g><g id="g1210"><rect x="432.10001" y="166.2" stroke-miterlimit="10" width="8.3000002" height="6.8000002" id="rect1208" style="fill:#ffffff;stroke:#44566b;stroke-width:2;stroke-miterlimit:10"></rect></g><g id="g1214"><rect x="445.70001" y="166.2" stroke-miterlimit="10" width="8.3000002" height="6.8000002" id="rect1212" style="fill:#ffffff;stroke:#44566b;stroke-width:2;stroke-miterlimit:10"></rect></g><g id="g1218"><rect x="391.10001" y="176.5" stroke-miterlimit="10" width="8.3000002" height="6.8000002" id="rect1216" style="fill:#ffffff;stroke:#44566b;stroke-width:2;stroke-miterlimit:10"></rect></g><g id="g1222"><rect x="404.70001" y="176.5" stroke-miterlimit="10" width="8.3000002" height="6.8000002" id="rect1220" style="fill:#ffffff;stroke:#44566b;stroke-width:2;stroke-miterlimit:10"></rect></g><g id="g1226"><rect x="418.39999" y="176.5" stroke-miterlimit="10" width="8.3000002" height="6.8000002" id="rect1224" style="fill:#ffffff;stroke:#44566b;stroke-width:2;stroke-miterlimit:10"></rect></g><g id="g1236"><g id="g1234"><g id="g1232"><rect x="432.10001" y="176.5" width="8.3000002" height="6.8000002" id="rect1228" style="fill:#f16526"></rect><rect x="432.10001" y="176.5" stroke-miterlimit="10" width="8.3000002" height="6.8000002" id="rect1230" style="fill:none;stroke:#44566b;stroke-width:2;stroke-miterlimit:10"></rect></g></g></g><g id="g1240"><rect x="445.70001" y="176.5" stroke-miterlimit="10" width="8.3000002" height="6.8000002" id="rect1238" style="fill:#ffffff;stroke:#44566b;stroke-width:2;stroke-miterlimit:10"></rect></g><g id="g1244"><rect x="391.10001" y="186.8" stroke-miterlimit="10" width="8.3000002" height="6.8000002" id="rect1242" style="fill:#ffffff;stroke:#44566b;stroke-width:2;stroke-miterlimit:10"></rect></g><g id="g1248"><rect x="404.70001" y="186.8" stroke-miterlimit="10" width="8.3000002" height="6.8000002" id="rect1246" style="fill:#ffffff;stroke:#44566b;stroke-width:2;stroke-miterlimit:10"></rect></g><g id="g1258"><g id="g1256"><g id="g1254"><rect x="418.39999" y="186.8" width="8.3000002" height="6.8000002" id="rect1250" style="fill:#f16526"></rect><rect x="418.39999" y="186.8" stroke-miterlimit="10" width="8.3000002" height="6.8000002" id="rect1252" style="fill:none;stroke:#44566b;stroke-width:2;stroke-miterlimit:10"></rect></g></g></g><g id="g1264"><g id="g1262"><rect x="432.10001" y="186.8" stroke-miterlimit="10" width="8.3000002" height="6.8000002" id="rect1260" style="fill:#f16526;stroke:#44566b;stroke-width:2;stroke-miterlimit:10"></rect></g></g><g id="g1268"><rect x="445.70001" y="186.8" stroke-miterlimit="10" width="8.3000002" height="6.8000002" id="rect1266" style="fill:#ffffff;stroke:#44566b;stroke-width:2;stroke-miterlimit:10"></rect></g><g id="g1272"><rect x="391.10001" y="197" stroke-miterlimit="10" width="8.3000002" height="6.8000002" id="rect1270" style="fill:#ffffff;stroke:#44566b;stroke-width:2;stroke-miterlimit:10"></rect></g><g id="g1276"><rect x="404.70001" y="197" stroke-miterlimit="10" width="8.3000002" height="6.8000002" id="rect1274" style="fill:#ffffff;stroke:#44566b;stroke-width:2;stroke-miterlimit:10"></rect></g><g id="g1280"><rect x="418.39999" y="197" stroke-miterlimit="10" width="8.3000002" height="6.8000002" id="rect1278" style="fill:#ffffff;stroke:#44566b;stroke-width:2;stroke-miterlimit:10"></rect></g><g id="g1284"><rect x="432.10001" y="197" stroke-miterlimit="10" width="8.3000002" height="6.8000002" id="rect1282" style="fill:#ffffff;stroke:#44566b;stroke-width:2;stroke-miterlimit:10"></rect></g><g id="g1288"><rect x="445.70001" y="197" stroke-miterlimit="10" width="8.3000002" height="6.8000002" id="rect1286" style="fill:#ffffff;stroke:#44566b;stroke-width:2;stroke-miterlimit:10"></rect></g></g><g id="g1294"><path stroke-miterlimit="10" d="m 391.1,163.2 c -1.4,0 -2.6,-1.1 -2.6,-2.6 v -8.4 c 0,-1.4 1.1,-2.6 2.6,-2.6 1.4,0 2.6,1.1 2.6,2.6 v 8.4 c -0.1,1.5 -1.2,2.6 -2.6,2.6 z" id="path1292" inkscape:connector-curvature="0" style="fill:#ffffff;stroke:#44566b;stroke-width:2;stroke-miterlimit:10"></path></g><g id="g1298"><path stroke-miterlimit="10" d="m 454,163.2 c -1.4,0 -2.6,-1.1 -2.6,-2.6 v -8.4 c 0,-1.4 1.1,-2.6 2.6,-2.6 1.4,0 2.6,1.1 2.6,2.6 v 8.4 c 0,1.5 -1.1,2.6 -2.6,2.6 z" id="path1296" inkscape:connector-curvature="0" style="fill:#ffffff;stroke:#44566b;stroke-width:2;stroke-miterlimit:10"></path></g></g></g><rect x="329.5" y="86.099998" width="13.5" height="13.5" id="rect1304" style="fill:#f5dc26"></rect><g id="g1328"><g id="g1326"><rect x="310.5" y="70.400002" width="14.9" height="14.9" id="rect1306" style="fill:#ffffff"></rect><g id="g1324"><polyline stroke-miterlimit="10" points="325.4,84.3 325.4,85.3 324.4,85.3 " id="polyline1308" style="fill:none;stroke:#42566b;stroke-width:2;stroke-miterlimit:10"></polyline><line stroke-miterlimit="10" x1="322.60001" y1="85.300003" x2="312.5" y2="85.300003" id="line1310" style="fill:none;stroke:#42566b;stroke-width:2;stroke-miterlimit:10;stroke-dasharray:1.8425, 1.8425"></line><polyline stroke-miterlimit="10" points="311.5,85.3 310.5,85.3 310.5,84.3 " id="polyline1312" style="fill:none;stroke:#42566b;stroke-width:2;stroke-miterlimit:10"></polyline><line stroke-miterlimit="10" x1="310.5" y1="82.5" x2="310.5" y2="72.400002" id="line1314" style="fill:none;stroke:#42566b;stroke-width:2;stroke-miterlimit:10;stroke-dasharray:1.8425, 1.8425"></line><polyline stroke-miterlimit="10" points="310.5,71.4 310.5,70.4 311.5,70.4 " id="polyline1316" style="fill:none;stroke:#42566b;stroke-width:2;stroke-miterlimit:10"></polyline><line stroke-miterlimit="10" x1="313.39999" y1="70.400002" x2="323.5" y2="70.400002" id="line1318" style="fill:none;stroke:#42566b;stroke-width:2;stroke-miterlimit:10;stroke-dasharray:1.8425, 1.8425"></line><polyline stroke-miterlimit="10" points="324.4,70.4 325.4,70.4 325.4,71.4 " id="polyline1320" style="fill:none;stroke:#42566b;stroke-width:2;stroke-miterlimit:10"></polyline><line stroke-miterlimit="10" x1="325.39999" y1="73.300003" x2="325.39999" y2="83.400002" id="line1322" style="fill:none;stroke:#42566b;stroke-width:2;stroke-miterlimit:10;stroke-dasharray:1.8425, 1.8425"></line></g></g></g><g id="g1352"><g id="g1350"><rect x="377.60001" y="120.1" width="14.9" height="14.9" id="rect1330" style="fill:#ffffff"></rect><g id="g1348"><polyline stroke-miterlimit="10" points="392.5,134 392.5,135 391.5,135 " id="polyline1332" style="fill:none;stroke:#42566b;stroke-width:2;stroke-miterlimit:10"></polyline><line stroke-miterlimit="10" x1="389.70001" y1="135" x2="379.5" y2="135" id="line1334" style="fill:none;stroke:#42566b;stroke-width:2;stroke-miterlimit:10;stroke-dasharray:1.8425, 1.8425"></line><polyline stroke-miterlimit="10" points="378.6,135 377.6,135 377.6,134 " id="polyline1336" style="fill:none;stroke:#42566b;stroke-width:2;stroke-miterlimit:10"></polyline><line stroke-miterlimit="10" x1="377.60001" y1="132.10001" x2="377.60001" y2="122" id="line1338" style="fill:none;stroke:#42566b;stroke-width:2;stroke-miterlimit:10;stroke-dasharray:1.8425, 1.8425"></line><polyline stroke-miterlimit="10" points="377.6,121.1 377.6,120.1 378.6,120.1 " id="polyline1340" style="fill:none;stroke:#42566b;stroke-width:2;stroke-miterlimit:10"></polyline><line stroke-miterlimit="10" x1="380.5" y1="120.1" x2="390.60001" y2="120.1" id="line1342" style="fill:none;stroke:#42566b;stroke-width:2;stroke-miterlimit:10;stroke-dasharray:1.8425, 1.8425"></line><polyline stroke-miterlimit="10" points="391.5,120.1 392.5,120.1 392.5,121.1 " id="polyline1344" style="fill:none;stroke:#42566b;stroke-width:2;stroke-miterlimit:10"></polyline><line stroke-miterlimit="10" x1="392.5" y1="122.9" x2="392.5" y2="133" id="line1346" style="fill:none;stroke:#42566b;stroke-width:2;stroke-miterlimit:10;stroke-dasharray:1.8425, 1.8425"></line></g></g></g><rect x="294.79999" y="62.400002" transform="rotate(-90,303.081,66.9112)" stroke-miterlimit="10" width="16.6" height="8.8999996" id="rect1354" style="fill:#ffffff;stroke:#42566b;stroke-width:2;stroke-miterlimit:10"></rect><rect x="298.60001" y="66.900002" stroke-miterlimit="10" width="16.6" height="8.8999996" id="rect1356" style="fill:#ffffff;stroke:#42566b;stroke-width:2;stroke-miterlimit:10"></rect><g id="g1364"><rect x="401" y="143.39999" width="2.8" height="2.8" id="rect1358" style="fill:#43566b"></rect><rect x="406.10001" y="143.39999" width="2.8" height="2.8" id="rect1360" style="fill:#43566b"></rect><rect x="411.29999" y="143.39999" width="2.8" height="2.8" id="rect1362" style="fill:#43566b"></rect></g><circle stroke-miterlimit="10" cx="435.29999" cy="100.3" r="9.8000002" id="circle1366" style="fill:#ffffff;stroke:#42566b;stroke-width:2;stroke-miterlimit:10;stroke-dasharray:2, 1"></circle><circle stroke-miterlimit="10" cx="267.20001" cy="83.5" r="6.5" id="circle1368" style="fill:#ffffff;stroke:#42566b;stroke-width:2;stroke-miterlimit:10;stroke-dasharray:2, 2"></circle><path stroke-miterlimit="10" d="m 347.2,58.9 c 0,3.6 -2.9,6.5 -6.5,6.5 -3.6,0 -6.5,-2.9 -6.5,-6.5 0,-3.6 2.9,-6.5 6.5,-6.5 3.6,0 6.5,2.9 6.5,6.5 z" id="path1370" inkscape:connector-curvature="0" style="fill:#009fd9;stroke:#44566b;stroke-width:2;stroke-miterlimit:10;stroke-dasharray:2, 2"></path><g id="g1388"><g id="g1384"><g id="g1374"><circle transform="matrix(0.7071,-0.7071,0.7071,0.7071,69.3261,287.3544)" stroke-miterlimit="10" cx="381.5" cy="60" id="ellipse1372" r="21.5" style="fill:#ffffff;stroke:#43566b;stroke-width:2;stroke-miterlimit:10"></circle></g><g id="g1382"><g id="g1380"><g id="g1378"><circle stroke-miterlimit="10" cx="381.5" cy="60" r="17" id="circle1376" style="fill:none;stroke:#43566b;stroke-width:2;stroke-linecap:round;stroke-miterlimit:10;stroke-dasharray:0, 5.0971"></circle></g></g></g></g><polyline stroke-miterlimit="10" points=" 381.5,51.8 381.5,60 391.7,65.3 " id="polyline1386" style="fill:none;stroke:#24acc3;stroke-width:2;stroke-linecap:round;stroke-linejoin:round;stroke-miterlimit:10"></polyline></g><g id="g1648"><rect x="286.10001" y="97.699997" stroke-miterlimit="10" width="77.599998" height="112.7" id="rect1390" style="fill:#ffffff;stroke:#43566b;stroke-width:2;stroke-miterlimit:10"></rect><g id="g1396"><g id="g1394"><path d="m 303.3,117.1 h -8.6 v -8.6 h 8.6 z m -7.9,-0.6 h 7.3 v -7.3 h -7.3 z" id="path1392" inkscape:connector-curvature="0" style="fill:#3e6584"></path></g></g><g id="g1402"><g id="g1400"><rect x="298.70001" y="107.2" transform="matrix(0.7052,-0.709,0.709,0.7052,8.1724,245.2827)" width="0.69999999" height="11.2" id="rect1398" style="fill:#3e6584"></rect></g></g><g id="g1408"><g id="g1406"><rect x="293.39999" y="112.5" transform="matrix(0.7057,-0.7086,0.7086,0.7057,8.0821,245.0844)" width="11.2" height="0.69999999" id="rect1404" style="fill:#3e6584"></rect></g></g><g id="g1414"><g id="g1412"><rect x="308.20001" y="110.7" transform="matrix(1,-0.00283702,0.00283702,1,-0.3147,0.9278)" width="37.299999" height="1.3" id="rect1410" style="fill:#3e6584"></rect></g></g><g id="g1420"><g id="g1418"><polygon points="336.2,114.2 336.2,115.5 308.2,115.6 308.2,114.3 " id="polygon1416" style="fill:#3e6584"></polygon></g></g><g id="g1426"><g id="g1424"><polygon points="354.6,190 354.6,190.3 295.3,190.4 295.3,190.2 " id="polygon1422" style="fill:#839fb7"></polygon></g></g><g id="g1432"><g id="g1430"><polygon points="354.6,196.7 354.6,197.3 339.8,197.4 339.8,196.7 " id="polygon1428" style="fill:#3e6584"></polygon></g></g><g id="g1438"><g id="g1436"><polygon points="298.4,190.2 302.7,177.5 307.1,190.1 " id="polygon1434" style="fill:#16a5bc"></polygon></g></g><g id="g1444"><g id="g1442"><polygon points="302.8,190.1 307.1,180.6 311.4,190.1 " id="polygon1440" style="fill:#93bc46"></polygon></g></g><g id="g1450"><g id="g1448"><polygon points="319.6,190.1 323.9,177.5 328.2,190.1 " id="polygon1446" style="fill:#16a5bc"></polygon></g></g><g id="g1456"><g id="g1454"><polygon points="323.9,190.1 328.3,173.7 332.5,190.1 " id="polygon1452" style="fill:#93bc46"></polygon></g></g><g id="g1462"><g id="g1460"><polygon points="340.7,190 344.1,183.4 349.4,190 " id="polygon1458" style="fill:#16a5bc"></polygon></g></g><g id="g1468"><g id="g1466"><polygon points="345,190 350,175.6 353.7,190 " id="polygon1464" style="fill:#93bc46"></polygon></g></g><g id="g1474"><g id="g1472"><polygon points="354.6,199.5 354.6,200.1 342.4,200.1 342.4,199.5 " id="polygon1470" style="fill:#3e6584"></polygon></g></g><g id="g1478"><polygon points="324.8,125.5 324.8,126.2 343,126.2 343,125.5 " id="polygon1476" style="fill:#3e6584"></polygon></g><g id="g1482"><rect x="313.89999" y="125.6" transform="matrix(1,-0.0025962,0.0025962,1,-0.3258,0.8255)" width="7.8000002" height="0.69999999" id="rect1480" style="fill:#3e6584"></rect></g><g id="g1486"><polygon points="346,125.5 346,126.1 354.4,126.1 354.4,125.5 " id="polygon1484" style="fill:#3e6584"></polygon></g><g id="g1490"><polygon points="300.1,125.6 300.1,126.3 310.9,126.2 310.9,125.6 " id="polygon1488" style="fill:#3e6584"></polygon></g><g id="g1494"><rect x="308.39999" y="128.2" transform="matrix(1,-0.00444849,0.00444849,1,-0.5685,1.4262)" width="23.700001" height="0.69999999" id="rect1492" style="fill:#3e6584"></rect></g><g id="g1498"><polygon points="295.1,128.2 295.1,128.9 305.4,128.9 305.4,128.2 " id="polygon1496" style="fill:#3e6584"></polygon></g><g id="g1502"><rect x="335.20001" y="128.10001" transform="matrix(1,-0.00290474,0.00290474,1,-0.3716,1.0022)" width="19.200001" height="0.69999999" id="rect1500" style="fill:#3e6584"></rect></g><g id="g1506"><rect x="345.20001" y="130.7" transform="matrix(1,-0.00366914,0.00366914,1,-0.4785,1.2845)" width="9.1999998" height="0.69999999" id="rect1504" style="fill:#3e6584"></rect></g><g id="g1510"><rect x="295.10001" y="130.89999" transform="matrix(1,-0.00305622,0.00305622,1,-0.3995,0.9183)" width="10.3" height="0.69999999" id="rect1508" style="fill:#3e6584"></rect></g><g id="g1514"><rect x="313.60001" y="125.7" transform="matrix(0.0012253,-1,1,0.0012253,182.3679,444.8774)" width="0.69999999" height="10.9" id="rect1512" style="fill:#3e6584"></rect></g><g id="g1518"><rect x="322.39999" y="130.8" transform="matrix(1,-0.0036613,0.0036613,1,-0.4777,1.2175)" width="19.799999" height="0.69999999" id="rect1516" style="fill:#3e6584"></rect></g><g id="g1522"><rect x="345.20001" y="133.3" transform="matrix(1,-0.00290252,0.00290252,1,-0.3865,1.016)" width="9.1999998" height="0.69999999" id="rect1520" style="fill:#3e6584"></rect></g><g id="g1526"><rect x="304.79999" y="133.39999" transform="matrix(1,-0.0018357,0.0018357,1,-0.245,0.5804)" width="22.5" height="0.69999999" id="rect1524" style="fill:#3e6584"></rect></g><g id="g1530"><rect x="330.29999" y="133.39999" transform="matrix(1,-0.0036697,0.0036697,1,-0.4884,1.2349)" width="11.8" height="0.69999999" id="rect1528" style="fill:#3e6584"></rect></g><g id="g1534"><polygon points="295.1,133.5 295.1,134.1 301.8,134.1 301.8,133.5 " id="polygon1532" style="fill:#3e6584"></polygon></g><g id="g1538"><polygon points="336.8,136.6 354.5,136.6 354.5,135.9 336.8,136 " id="polygon1536" style="fill:#3e6584"></polygon></g><g id="g1542"><rect x="295.10001" y="136.10001" transform="matrix(1,-0.0077789,0.0077789,1,-1.052,2.3579)" width="14.9" height="0.69999999" id="rect1540" style="fill:#3e6584"></rect></g><g id="g1546"><polygon points="313.1,136.1 313.1,136.7 333.7,136.7 333.7,136 " id="polygon1544" style="fill:#3e6584"></polygon></g><g id="g1550"><polygon points="315.7,138.7 295.1,138.7 295.1,139.4 315.7,139.3 " id="polygon1548" style="fill:#3e6584"></polygon></g><g id="g1596"><g id="g1554"><rect x="338.39999" y="162.2" transform="matrix(1,-0.00282277,0.00282277,1,-0.4573,0.9786)" width="16.200001" height="0.69999999" id="rect1552" style="fill:#3e6584"></rect></g><g id="g1558"><rect x="300.20001" y="162.3" transform="matrix(1,-0.00655074,0.00655074,1,-1.0585,2.028)" width="17.700001" height="0.69999999" id="rect1556" style="fill:#3e6584"></rect></g><g id="g1562"><rect x="321" y="162.2" transform="matrix(1,-0.00519632,0.00519632,1,-0.8402,1.7074)" width="14.4" height="0.69999999" id="rect1560" style="fill:#3e6584"></rect></g><g id="g1566"><polygon points="317.9,164.9 308.5,164.9 308.5,165.5 317.9,165.5 " id="polygon1564" style="fill:#3e6584"></polygon></g><g id="g1570"><rect x="295.20001" y="164.89999" width="10.3" height="0.69999999" id="rect1568" style="fill:#3e6584"></rect></g><g id="g1574"><rect x="321" y="164.8" transform="matrix(1,-0.00305622,0.00305622,1,-0.5033,0.9962)" width="9.5" height="0.69999999" id="rect1572" style="fill:#3e6584"></rect></g><g id="g1578"><rect x="333.5" y="164.8" transform="matrix(1,-0.00213675,0.00213675,1,-0.352,0.7354)" width="21.1" height="0.69999999" id="rect1576" style="fill:#3e6584"></rect></g><g id="g1582"><rect x="308.5" y="167.5" transform="matrix(1,-0.00106919,0.00106919,1,-0.1792,0.3485)" width="34.5" height="0.69999999" id="rect1580" style="fill:#3e6584"></rect></g><g id="g1586"><rect x="346.20001" y="167.39999" transform="matrix(1,-0.00167785,0.00167785,1,-0.2809,0.5881)" width="8.3999996" height="0.69999999" id="rect1584" style="fill:#3e6584"></rect></g><g id="g1590"><rect x="295.20001" y="167.5" transform="matrix(1,-0.00320218,0.00320218,1,-0.536,0.9627)" width="10.3" height="0.69999999" id="rect1588" style="fill:#3e6584"></rect></g><g id="g1594"><rect x="295.20001" y="170.10001" transform="matrix(1,-0.0030194,0.0030194,1,-0.5134,0.9077)" width="10.3" height="0.69999999" id="rect1592" style="fill:#3e6584"></rect></g></g><g id="g1646"><g id="g1600"><path d="M 306,156 H 294.9 V 144.9 H 306 Z m -10.5,-0.6 h 9.8 v -9.8 h -9.8 z" id="path1598" inkscape:connector-curvature="0" style="fill:#3e6584"></path></g><g id="g1604"><polygon points="305.9,155.4 305.4,155.9 294.9,145.5 295.4,145 " id="polygon1602" style="fill:#3e6584"></polygon></g><g id="g1608"><rect x="293" y="150.10001" transform="matrix(0.7059,-0.7083,0.7083,0.7059,-18.2245,257.0267)" width="14.8" height="0.69999999" id="rect1606" style="fill:#3e6584"></rect></g><g id="g1612"><path d="m 322.5,155.9 h -11.1 v -11.1 h 11.1 z m -10.4,-0.6 h 9.8 v -9.8 h -9.8 z" id="path1610" inkscape:connector-curvature="0" style="fill:#3e6584"></path></g><g id="g1616"><polygon points="322.4,155.4 321.9,155.8 311.5,145.4 311.9,145 " id="polygon1614" style="fill:#3e6584"></polygon></g><g id="g1620"><rect x="309.60001" y="150.10001" transform="matrix(0.7032,-0.711,0.711,0.7032,-12.8832,269.9635)" width="14.8" height="0.69999999" id="rect1618" style="fill:#3e6584"></rect></g><g id="g1624"><path d="M 339,155.9 H 327.9 V 144.8 H 339 Z m -10.4,-0.6 h 9.8 v -9.8 h -9.8 z" id="path1622" inkscape:connector-curvature="0" style="fill:#3e6584"></path></g><g id="g1628"><polygon points="338.9,155.3 338.5,155.8 328,145.4 328.5,144.9 " id="polygon1626" style="fill:#3e6584"></polygon></g><g id="g1632"><rect x="326.10001" y="150" transform="matrix(0.7047,-0.7095,0.7095,0.7047,-8.2189,280.9833)" width="14.8" height="0.69999999" id="rect1630" style="fill:#3e6584"></rect></g><g id="g1636"><path d="m 355.6,155.8 h -11.1 v -11.1 h 11.1 z m -10.5,-0.6 h 9.8 v -9.8 h -9.8 z" id="path1634" inkscape:connector-curvature="0" style="fill:#3e6584"></path></g><g id="g1640"><polygon points="355.5,155.3 355,155.8 344.5,145.4 345,144.9 " id="polygon1638" style="fill:#3e6584"></polygon></g><g id="g1644"><polygon points="355.4,145.3 345,155.8 344.6,155.3 355,144.9 " id="polygon1642" style="fill:#3e6584"></polygon></g></g></g><g id="g1726"><g id="g1724"><path stroke-miterlimit="10" d="m 275.2,123 v 17.4 6.6 c 0,6.5 4,12.3 10.1,14.5 0.2,0.1 0.4,0.1 0.5,0.2 v 5.5 c -0.2,0.1 -0.4,0.1 -0.5,0.2 -6.1,2.2 -10.1,8 -10.1,14.5 v 6.6 17.5 h 30.4 V 188.6 182 c 0,-6.5 -4,-12.3 -10.1,-14.5 -0.1,-0.1 -0.3,-0.1 -0.4,-0.1 v -5.6 c 0.1,0 0.3,-0.1 0.4,-0.1 6.1,-2.2 10.1,-8 10.1,-14.5 V 140.6 123 Z" id="path1650" inkscape:connector-curvature="0" style="fill:#009fd9;stroke:#44566b;stroke-width:2;stroke-miterlimit:10"></path><rect x="271.29999" y="118.3" stroke-miterlimit="10" width="38.099998" height="4.6999998" id="rect1652" style="fill:#009fd9;stroke:#44566b;stroke-width:2;stroke-miterlimit:10"></rect><rect x="271.29999" y="206" stroke-miterlimit="10" width="38.099998" height="4.6999998" id="rect1654" style="fill:#009fd9;stroke:#44566b;stroke-width:2;stroke-miterlimit:10"></rect><g id="g1688"><g id="g1662"><path d="m 285.8,145.9 c 0,0.8 -0.7,1.5 -1.5,1.5 -0.8,0 -1.5,-0.7 -1.5,-1.5 0,-0.8 0.7,-1.5 1.5,-1.5 0.8,0 1.5,0.7 1.5,1.5 z" id="path1656" inkscape:connector-curvature="0" style="fill:#ffffff"></path><path d="m 291.4,145.9 c 0,0.8 -0.7,1.5 -1.5,1.5 -0.8,0 -1.5,-0.7 -1.5,-1.5 0,-0.8 0.7,-1.5 1.5,-1.5 0.8,0 1.5,0.7 1.5,1.5 z" id="path1658" inkscape:connector-curvature="0" style="fill:#ffffff"></path><path d="m 297,145.9 c 0,0.8 -0.7,1.5 -1.5,1.5 -0.8,0 -1.5,-0.7 -1.5,-1.5 0,-0.8 0.7,-1.5 1.5,-1.5 0.9,0 1.5,0.7 1.5,1.5 z" id="path1660" inkscape:connector-curvature="0" style="fill:#ffffff"></path></g><g id="g1666"><path d="m 291.4,155.9 c 0,0.8 -0.7,1.5 -1.5,1.5 -0.8,0 -1.5,-0.7 -1.5,-1.5 0,-0.8 0.7,-1.5 1.5,-1.5 0.8,0 1.5,0.7 1.5,1.5 z" id="path1664" inkscape:connector-curvature="0" style="fill:#ffffff"></path></g><g id="g1676"><path d="m 299.3,140.9 c 0,0.8 -0.7,1.5 -1.5,1.5 -0.8,0 -1.5,-0.7 -1.5,-1.5 0,-0.8 0.7,-1.5 1.5,-1.5 0.8,0 1.5,0.6 1.5,1.5 z" id="path1668" inkscape:connector-curvature="0" style="fill:#ffffff"></path><path d="m 283.5,140.9 c 0,0.8 -0.7,1.5 -1.5,1.5 -0.8,0 -1.5,-0.7 -1.5,-1.5 0,-0.8 0.7,-1.5 1.5,-1.5 0.8,0 1.5,0.6 1.5,1.5 z" id="path1670" inkscape:connector-curvature="0" style="fill:#ffffff"></path><path d="m 288.8,140.9 c 0,0.8 -0.7,1.5 -1.5,1.5 -0.8,0 -1.5,-0.7 -1.5,-1.5 0,-0.8 0.7,-1.5 1.5,-1.5 0.8,0 1.5,0.6 1.5,1.5 z" id="path1672" inkscape:connector-curvature="0" style="fill:#ffffff"></path><path d="m 294,140.9 c 0,0.8 -0.7,1.5 -1.5,1.5 -0.8,0 -1.5,-0.7 -1.5,-1.5 0,-0.8 0.7,-1.5 1.5,-1.5 0.9,0 1.5,0.6 1.5,1.5 z" id="path1674" inkscape:connector-curvature="0" style="fill:#ffffff"></path></g><g id="g1686"><path d="m 299.3,150.9 c 0,0.8 -0.7,1.5 -1.5,1.5 -0.8,0 -1.5,-0.7 -1.5,-1.5 0,-0.8 0.7,-1.5 1.5,-1.5 0.8,0 1.5,0.7 1.5,1.5 z" id="path1678" inkscape:connector-curvature="0" style="fill:#ffffff"></path><path d="m 283.5,150.9 c 0,0.8 -0.7,1.5 -1.5,1.5 -0.8,0 -1.5,-0.7 -1.5,-1.5 0,-0.8 0.7,-1.5 1.5,-1.5 0.8,0 1.5,0.7 1.5,1.5 z" id="path1680" inkscape:connector-curvature="0" style="fill:#ffffff"></path><path d="m 288.8,150.9 c 0,0.8 -0.7,1.5 -1.5,1.5 -0.8,0 -1.5,-0.7 -1.5,-1.5 0,-0.8 0.7,-1.5 1.5,-1.5 0.8,0 1.5,0.7 1.5,1.5 z" id="path1682" inkscape:connector-curvature="0" style="fill:#ffffff"></path><path d="m 294,150.9 c 0,0.8 -0.7,1.5 -1.5,1.5 -0.8,0 -1.5,-0.7 -1.5,-1.5 0,-0.8 0.7,-1.5 1.5,-1.5 0.9,0 1.5,0.7 1.5,1.5 z" id="path1684" inkscape:connector-curvature="0" style="fill:#ffffff"></path></g></g><g id="g1722"><g id="g1696"><path d="m 285.8,196.8 c 0,-0.8 -0.7,-1.5 -1.5,-1.5 -0.8,0 -1.5,0.7 -1.5,1.5 0,0.8 0.7,1.5 1.5,1.5 0.8,0 1.5,-0.7 1.5,-1.5 z" id="path1690" inkscape:connector-curvature="0" style="fill:#ffffff"></path><path d="m 291.4,196.8 c 0,-0.8 -0.7,-1.5 -1.5,-1.5 -0.8,0 -1.5,0.7 -1.5,1.5 0,0.8 0.7,1.5 1.5,1.5 0.8,0 1.5,-0.7 1.5,-1.5 z" id="path1692" inkscape:connector-curvature="0" style="fill:#ffffff"></path><path d="m 297,196.8 c 0,-0.8 -0.7,-1.5 -1.5,-1.5 -0.8,0 -1.5,0.7 -1.5,1.5 0,0.8 0.7,1.5 1.5,1.5 0.9,0 1.5,-0.7 1.5,-1.5 z" id="path1694" inkscape:connector-curvature="0" style="fill:#ffffff"></path></g><g id="g1700"><path d="m 291.4,186.8 c 0,-0.8 -0.7,-1.5 -1.5,-1.5 -0.8,0 -1.5,0.7 -1.5,1.5 0,0.8 0.7,1.5 1.5,1.5 0.8,0 1.5,-0.7 1.5,-1.5 z" id="path1698" inkscape:connector-curvature="0" style="fill:#ffffff"></path></g><g id="g1710"><path d="m 299.3,201.8 c 0,-0.8 -0.7,-1.5 -1.5,-1.5 -0.8,0 -1.5,0.7 -1.5,1.5 0,0.8 0.7,1.5 1.5,1.5 0.8,0 1.5,-0.7 1.5,-1.5 z" id="path1702" inkscape:connector-curvature="0" style="fill:#ffffff"></path><path d="m 283.5,201.8 c 0,-0.8 -0.7,-1.5 -1.5,-1.5 -0.8,0 -1.5,0.7 -1.5,1.5 0,0.8 0.7,1.5 1.5,1.5 0.8,0 1.5,-0.7 1.5,-1.5 z" id="path1704" inkscape:connector-curvature="0" style="fill:#ffffff"></path><path d="m 288.8,201.8 c 0,-0.8 -0.7,-1.5 -1.5,-1.5 -0.8,0 -1.5,0.7 -1.5,1.5 0,0.8 0.7,1.5 1.5,1.5 0.8,0 1.5,-0.7 1.5,-1.5 z" id="path1706" inkscape:connector-curvature="0" style="fill:#ffffff"></path><path d="m 294,201.8 c 0,-0.8 -0.7,-1.5 -1.5,-1.5 -0.8,0 -1.5,0.7 -1.5,1.5 0,0.8 0.7,1.5 1.5,1.5 0.9,0 1.5,-0.7 1.5,-1.5 z" id="path1708" inkscape:connector-curvature="0" style="fill:#ffffff"></path></g><g id="g1720"><path d="m 299.3,191.8 c 0,-0.8 -0.7,-1.5 -1.5,-1.5 -0.8,0 -1.5,0.7 -1.5,1.5 0,0.8 0.7,1.5 1.5,1.5 0.8,0 1.5,-0.7 1.5,-1.5 z" id="path1712" inkscape:connector-curvature="0" style="fill:#ffffff"></path><path d="m 283.5,191.8 c 0,-0.8 -0.7,-1.5 -1.5,-1.5 -0.8,0 -1.5,0.7 -1.5,1.5 0,0.8 0.7,1.5 1.5,1.5 0.8,0 1.5,-0.7 1.5,-1.5 z" id="path1714" inkscape:connector-curvature="0" style="fill:#ffffff"></path><path d="m 288.8,191.8 c 0,-0.8 -0.7,-1.5 -1.5,-1.5 -0.8,0 -1.5,0.7 -1.5,1.5 0,0.8 0.7,1.5 1.5,1.5 0.8,0 1.5,-0.7 1.5,-1.5 z" id="path1716" inkscape:connector-curvature="0" style="fill:#ffffff"></path><path d="m 294,191.8 c 0,-0.8 -0.7,-1.5 -1.5,-1.5 -0.8,0 -1.5,0.7 -1.5,1.5 0,0.8 0.7,1.5 1.5,1.5 0.9,0 1.5,-0.7 1.5,-1.5 z" id="path1718" inkscape:connector-curvature="0" style="fill:#ffffff"></path></g></g></g></g><g id="g1866"><path stroke-miterlimit="10" d="m 395.2,106.5 c 1.8,2.5 1.2,6 -1.3,7.9 l -32,23 c -2.5,1.8 -6,1.2 -7.9,-1.3 v 0 c -1.8,-2.5 -1.2,-6 1.3,-7.9 l 32,-23 c 2.5,-1.8 6.1,-1.2 7.9,1.3 z" id="path1728" inkscape:connector-curvature="0" style="fill:#ffffff;stroke:#42566b;stroke-width:2;stroke-miterlimit:10"></path><path stroke-miterlimit="10" d="m 407.7,112.1 c 1.8,2.5 1.2,6 -1.3,7.9 l -32,23 c -2.5,1.8 -6,1.2 -7.9,-1.3 v 0 c -1.8,-2.5 -1.2,-6 1.3,-7.9 l 32,-23 c 2.6,-1.8 6.1,-1.2 7.9,1.3 z" id="path1730" inkscape:connector-curvature="0" style="fill:#ffffff;stroke:#42566b;stroke-width:2;stroke-miterlimit:10"></path><path stroke-miterlimit="10" d="m 404.9,129 c 1.8,2.5 1.2,6 -1.3,7.9 l -32,23 c -2.5,1.8 -6,1.2 -7.9,-1.3 v 0 c -1.8,-2.5 -1.2,-6 1.3,-7.9 l 32,-23 c 2.6,-1.8 6.1,-1.2 7.9,1.3 z" id="path1732" inkscape:connector-curvature="0" style="fill:#ffffff;stroke:#42566b;stroke-width:2;stroke-miterlimit:10"></path><path stroke-miterlimit="10" d="m 402.1,146.4 c 1.8,2.5 1.2,6 -1.3,7.9 l -32,23 c -2.5,1.8 -6,1.2 -7.9,-1.3 v 0 c -1.8,-2.5 -1.2,-6 1.3,-7.9 l 32,-23 c 2.6,-1.8 6.1,-1.2 7.9,1.3 z" id="path1734" inkscape:connector-curvature="0" style="fill:#ffffff;stroke:#42566b;stroke-width:2;stroke-miterlimit:10"></path><g id="g1740"><path stroke-miterlimit="10" d="m 391.7,185.2 c 0,2.1 -1.7,3.9 -3.9,3.9 h -50.1 c -2.1,0 -3.9,-1.7 -3.9,-3.9 v -89 c 0,-2.1 1.7,-3.9 3.9,-3.9 h 50.1 c 2.1,0 3.9,1.7 3.9,3.9 z" id="path1736" inkscape:connector-curvature="0" style="fill:#ffffff;stroke:#42566b;stroke-width:2;stroke-miterlimit:10"></path><rect x="339.79999" y="103.5" width="45.900002" height="73" id="rect1738" style="fill:#77c04b"></rect></g><circle transform="matrix(0.2298,-0.9732,0.9732,0.2298,134.4947,468.0289)" stroke-miterlimit="10" cx="362.89999" cy="149" id="ellipse1742" r="8" style="fill:#009fd9;stroke:#44566b;stroke-width:2;stroke-miterlimit:10;stroke-dasharray:2, 2"></circle><g id="g1774"><g id="g1752"><g id="g1746"><path d="m 349.7,119.3 c -1.3,0 -2.4,-1.1 -2.4,-2.4 0,-1.3 1.1,-2.4 2.4,-2.4 1.3,0 2.4,1.1 2.4,2.4 -0.1,1.3 -1.1,2.4 -2.4,2.4 z m 0,-4.2 c -1,0 -1.8,0.8 -1.8,1.8 0,1 0.8,1.8 1.8,1.8 1,0 1.8,-0.8 1.8,-1.8 0,-1 -0.8,-1.8 -1.8,-1.8 z" id="path1744" inkscape:connector-curvature="0" style="fill:#f6f6f6"></path></g><g id="g1750"><path d="m 353.2,124.1 h -6.8 v -0.3 c 0,-2.4 1.5,-4.4 3.4,-4.4 1.9,0 3.4,2 3.4,4.4 z m -6.3,-0.5 h 5.8 c -0.1,-2 -1.4,-3.6 -2.9,-3.6 -1.5,0 -2.8,1.6 -2.9,3.6 z" id="path1748" inkscape:connector-curvature="0" style="fill:#f6f6f6"></path></g></g><g id="g1762"><g id="g1756"><path d="m 362.7,119.3 c -1.3,0 -2.4,-1.1 -2.4,-2.4 0,-1.3 1.1,-2.4 2.4,-2.4 1.3,0 2.4,1.1 2.4,2.4 0,1.3 -1.1,2.4 -2.4,2.4 z m 0,-4.2 c -1,0 -1.8,0.8 -1.8,1.8 0,1 0.8,1.8 1.8,1.8 1,0 1.8,-0.8 1.8,-1.8 0.1,-1 -0.8,-1.8 -1.8,-1.8 z" id="path1754" inkscape:connector-curvature="0" style="fill:#f6f6f6"></path></g><g id="g1760"><path d="m 366.3,124.1 h -6.8 v -0.3 c 0,-2.4 1.5,-4.4 3.4,-4.4 1.9,0 3.4,2 3.4,4.4 z m -6.3,-0.5 h 5.8 c -0.1,-2 -1.4,-3.6 -2.9,-3.6 -1.6,0 -2.8,1.6 -2.9,3.6 z" id="path1758" inkscape:connector-curvature="0" style="fill:#f6f6f6"></path></g></g><g id="g1772"><g id="g1766"><path d="m 375.7,119.3 c -1.3,0 -2.4,-1.1 -2.4,-2.4 0,-1.3 1.1,-2.4 2.4,-2.4 1.3,0 2.4,1.1 2.4,2.4 0,1.3 -1.1,2.4 -2.4,2.4 z m 0,-4.2 c -1,0 -1.8,0.8 -1.8,1.8 0,1 0.8,1.8 1.8,1.8 1,0 1.8,-0.8 1.8,-1.8 0.1,-1 -0.7,-1.8 -1.8,-1.8 z" id="path1764" inkscape:connector-curvature="0" style="fill:#f6f6f6"></path></g><g id="g1770"><path d="m 379.3,124.1 h -6.8 v -0.3 c 0,-2.4 1.5,-4.4 3.4,-4.4 1.9,0 3.4,2 3.4,4.4 z m -6.3,-0.5 h 5.8 c -0.1,-2 -1.4,-3.6 -2.9,-3.6 -1.5,0 -2.8,1.6 -2.9,3.6 z" id="path1768" inkscape:connector-curvature="0" style="fill:#f6f6f6"></path></g></g></g><g id="g1806"><g id="g1784"><g id="g1778"><path d="m 349.7,133.9 c -1.3,0 -2.4,-1.1 -2.4,-2.4 0,-1.3 1.1,-2.4 2.4,-2.4 1.3,0 2.4,1.1 2.4,2.4 -0.1,1.4 -1.1,2.4 -2.4,2.4 z m 0,-4.2 c -1,0 -1.8,0.8 -1.8,1.8 0,1 0.8,1.8 1.8,1.8 1,0 1.8,-0.8 1.8,-1.8 0,-0.9 -0.8,-1.8 -1.8,-1.8 z" id="path1776" inkscape:connector-curvature="0" style="fill:#f6f6f6"></path></g><g id="g1782"><path d="m 353.2,138.7 h -6.8 v -0.3 c 0,-2.4 1.5,-4.4 3.4,-4.4 1.9,0 3.4,2 3.4,4.4 z m -6.3,-0.5 h 5.8 c -0.1,-2 -1.4,-3.6 -2.9,-3.6 -1.5,0 -2.8,1.6 -2.9,3.6 z" id="path1780" inkscape:connector-curvature="0" style="fill:#f6f6f6"></path></g></g><g id="g1794"><g id="g1788"><path d="m 362.7,133.9 c -1.3,0 -2.4,-1.1 -2.4,-2.4 0,-1.3 1.1,-2.4 2.4,-2.4 1.3,0 2.4,1.1 2.4,2.4 0,1.4 -1.1,2.4 -2.4,2.4 z m 0,-4.2 c -1,0 -1.8,0.8 -1.8,1.8 0,1 0.8,1.8 1.8,1.8 1,0 1.8,-0.8 1.8,-1.8 0.1,-0.9 -0.8,-1.8 -1.8,-1.8 z" id="path1786" inkscape:connector-curvature="0" style="fill:#f6f6f6"></path></g><g id="g1792"><path d="m 366.3,138.7 h -6.8 v -0.3 c 0,-2.4 1.5,-4.4 3.4,-4.4 1.9,0 3.4,2 3.4,4.4 z m -6.3,-0.5 h 5.8 c -0.1,-2 -1.4,-3.6 -2.9,-3.6 -1.6,0 -2.8,1.6 -2.9,3.6 z" id="path1790" inkscape:connector-curvature="0" style="fill:#f6f6f6"></path></g></g><g id="g1804"><g id="g1798"><path d="m 375.7,133.9 c -1.3,0 -2.4,-1.1 -2.4,-2.4 0,-1.3 1.1,-2.4 2.4,-2.4 1.3,0 2.4,1.1 2.4,2.4 0,1.4 -1.1,2.4 -2.4,2.4 z m 0,-4.2 c -1,0 -1.8,0.8 -1.8,1.8 0,1 0.8,1.8 1.8,1.8 1,0 1.8,-0.8 1.8,-1.8 0.1,-0.9 -0.7,-1.8 -1.8,-1.8 z" id="path1796" inkscape:connector-curvature="0" style="fill:#f6f6f6"></path></g><g id="g1802"><path d="m 379.3,138.7 h -6.8 v -0.3 c 0,-2.4 1.5,-4.4 3.4,-4.4 1.9,0 3.4,2 3.4,4.4 z m -6.3,-0.5 h 5.8 c -0.1,-2 -1.4,-3.6 -2.9,-3.6 -1.5,0 -2.8,1.6 -2.9,3.6 z" id="path1800" inkscape:connector-curvature="0" style="fill:#f6f6f6"></path></g></g></g><g id="g1838"><g id="g1816"><g id="g1810"><path d="m 349.7,148.6 c -1.3,0 -2.4,-1.1 -2.4,-2.4 0,-1.3 1.1,-2.4 2.4,-2.4 1.3,0 2.4,1.1 2.4,2.4 -0.1,1.3 -1.1,2.4 -2.4,2.4 z m 0,-4.2 c -1,0 -1.8,0.8 -1.8,1.8 0,1 0.8,1.8 1.8,1.8 1,0 1.8,-0.8 1.8,-1.8 0,-1 -0.8,-1.8 -1.8,-1.8 z" id="path1808" inkscape:connector-curvature="0" style="fill:#f6f6f6"></path></g><g id="g1814"><path d="m 353.2,153.3 h -6.8 V 153 c 0,-2.4 1.5,-4.4 3.4,-4.4 1.9,0 3.4,2 3.4,4.4 z m -6.3,-0.5 h 5.8 c -0.1,-2 -1.4,-3.6 -2.9,-3.6 -1.5,0 -2.8,1.6 -2.9,3.6 z" id="path1812" inkscape:connector-curvature="0" style="fill:#f6f6f6"></path></g></g><g id="g1826"><g id="g1820"><path d="m 362.7,148.6 c -1.3,0 -2.4,-1.1 -2.4,-2.4 0,-1.3 1.1,-2.4 2.4,-2.4 1.3,0 2.4,1.1 2.4,2.4 0,1.3 -1.1,2.4 -2.4,2.4 z m 0,-4.2 c -1,0 -1.8,0.8 -1.8,1.8 0,1 0.8,1.8 1.8,1.8 1,0 1.8,-0.8 1.8,-1.8 0.1,-1 -0.8,-1.8 -1.8,-1.8 z" id="path1818" inkscape:connector-curvature="0" style="fill:#f6f6f6"></path></g><g id="g1824"><path d="m 366.3,153.3 h -6.8 V 153 c 0,-2.4 1.5,-4.4 3.4,-4.4 1.9,0 3.4,2 3.4,4.4 z m -6.3,-0.5 h 5.8 c -0.1,-2 -1.4,-3.6 -2.9,-3.6 -1.6,0 -2.8,1.6 -2.9,3.6 z" id="path1822" inkscape:connector-curvature="0" style="fill:#f6f6f6"></path></g></g><g id="g1836"><g id="g1830"><path d="m 375.7,148.6 c -1.3,0 -2.4,-1.1 -2.4,-2.4 0,-1.3 1.1,-2.4 2.4,-2.4 1.3,0 2.4,1.1 2.4,2.4 0,1.3 -1.1,2.4 -2.4,2.4 z m 0,-4.2 c -1,0 -1.8,0.8 -1.8,1.8 0,1 0.8,1.8 1.8,1.8 1,0 1.8,-0.8 1.8,-1.8 0.1,-1 -0.7,-1.8 -1.8,-1.8 z" id="path1828" inkscape:connector-curvature="0" style="fill:#f6f6f6"></path></g><g id="g1834"><path d="m 379.3,153.3 h -6.8 V 153 c 0,-2.4 1.5,-4.4 3.4,-4.4 1.9,0 3.4,2 3.4,4.4 z m -6.3,-0.5 h 5.8 c -0.1,-2 -1.4,-3.6 -2.9,-3.6 -1.5,0 -2.8,1.6 -2.9,3.6 z" id="path1832" inkscape:connector-curvature="0" style="fill:#f6f6f6"></path></g></g></g><g id="g1852"><rect x="346.39999" y="160.89999" width="32.900002" height="6.3000002" id="rect1840" style="fill:#42566b"></rect><g id="g1850"><path d="m 359,162.6 h 1.8 v 0.4 h -1.2 v 0.8 h 1.1 v 0.4 h -1.1 v 1.2 H 359 Z" id="path1842" inkscape:connector-curvature="0" style="fill:#ffffff"></path><path d="m 361.2,162.6 c 0,-0.2 0.1,-0.3 0.3,-0.3 0.2,0 0.3,0.1 0.3,0.3 0,0.2 -0.1,0.3 -0.3,0.3 -0.2,0 -0.3,-0.1 -0.3,-0.3 z m 0,0.7 h 0.5 v 2.2 h -0.5 z" id="path1844" inkscape:connector-curvature="0" style="fill:#ffffff"></path><path d="m 362.4,163.3 h 0.4 v 0.3 0 c 0.2,-0.2 0.4,-0.3 0.7,-0.3 0.5,0 0.7,0.3 0.7,0.9 v 1.4 h -0.5 v -1.3 c 0,-0.4 -0.1,-0.5 -0.3,-0.5 -0.2,0 -0.3,0.1 -0.5,0.3 v 1.5 h -0.5 z" id="path1846" inkscape:connector-curvature="0" style="fill:#ffffff"></path><path d="m 365.7,163.2 c 0.2,0 0.4,0.1 0.6,0.2 v -0.4 -0.8 h 0.5 v 3.1 h -0.4 v -0.2 0 c -0.2,0.2 -0.4,0.3 -0.6,0.3 -0.5,0 -0.9,-0.4 -0.9,-1.1 -0.1,-0.6 0.3,-1.1 0.8,-1.1 z m 0.1,1.9 c 0.2,0 0.3,-0.1 0.5,-0.2 v -1 c -0.2,-0.1 -0.3,-0.2 -0.4,-0.2 -0.3,0 -0.5,0.3 -0.5,0.7 -0.1,0.4 0.1,0.7 0.4,0.7 z" id="path1848" inkscape:connector-curvature="0" style="fill:#ffffff"></path></g></g><g id="g1862"><g id="g1860"><g id="g1858"><path d="m 393.6,210.7 36.4,0.1 -3.5,-9.2 c -0.7,-3.3 -2.7,-6.4 -2.7,-9.7 0,-2.4 1.7,-4.9 1.7,-10.2 0,-2.6 -0.5,-5.1 -1.4,-7.7 l -12.2,-19.4 c -1,-1.6 -3.7,-1.8 -5.9,-0.4 l -0.7,0.5 c -2.3,1.4 -3.3,3.9 -2.3,5.5 l 8.3,13.2 -0.5,-0.1 -12.2,-19.3 c -1,-1.6 -3.7,-1.8 -5.9,-0.4 l -0.7,0.5 c -2.3,1.4 -3.3,3.9 -2.3,5.5 l 6.8,10.8 -0.3,-0.1 -8.3,-13.2 c -1,-1.6 -3.7,-1.8 -5.9,-0.4 l -0.7,0.5 c -2.3,1.4 -3.3,3.9 -2.3,5.5 l 7.5,12 -0.3,0.2 -16,-25.6 c -1,-1.6 -3.7,-1.8 -5.9,-0.4 l -0.7,0.5 c -2.3,1.4 -3.3,3.9 -2.3,5.5 l 18.7,30 c 0,0 2.1,5.2 -4.2,0.5 v 0 l -10.1,-7.6 c -1.6,-1 -4.1,-0.1 -5.5,2.2 l -0.5,0.7 c -1.4,2.2 -1.3,4.9 0.3,6 15,10.7 33.6,25.7 33.6,24 z" id="path1854" inkscape:connector-curvature="0" style="fill:#ffffff"></path><path stroke-miterlimit="10" d="m 393.6,210.7 36.4,0.1 -3.5,-9.2 c -0.7,-3.3 -2.7,-6.4 -2.7,-9.7 0,-2.4 1.7,-4.9 1.7,-10.2 0,-2.6 -0.5,-5.1 -1.4,-7.7 l -12.2,-19.4 c -1,-1.6 -3.7,-1.8 -5.9,-0.4 l -0.7,0.5 c -2.3,1.4 -3.3,3.9 -2.3,5.5 l 8.3,13.2 -0.5,-0.1 -12.2,-19.3 c -1,-1.6 -3.7,-1.8 -5.9,-0.4 l -0.7,0.5 c -2.3,1.4 -3.3,3.9 -2.3,5.5 l 6.8,10.8 -0.3,-0.1 -8.3,-13.2 c -1,-1.6 -3.7,-1.8 -5.9,-0.4 l -0.7,0.5 c -2.3,1.4 -3.3,3.9 -2.3,5.5 l 7.5,12 -0.3,0.2 -16,-25.6 c -1,-1.6 -3.7,-1.8 -5.9,-0.4 l -0.7,0.5 c -2.3,1.4 -3.3,3.9 -2.3,5.5 l 18.7,30 c 0,0 2.1,5.2 -4.2,0.5 v 0 l -10.1,-7.6 c -1.6,-1 -4.1,-0.1 -5.5,2.2 l -0.5,0.7 c -1.4,2.2 -1.3,4.9 0.3,6 15,10.7 33.6,25.7 33.6,24 z" id="path1856" inkscape:connector-curvature="0" style="fill:none;stroke:#42566b;stroke-width:2;stroke-miterlimit:10"></path></g></g></g><path stroke-miterlimit="10" d="m 356.5,115.1 c -1.1,-3 -4.4,-4.6 -7.3,-3.5 l -10.6,4.3 c -2.4,0.6 -3.8,1.3 -4.8,2 -1,0.7 -1.4,1.2 -1.7,1.6 L 320.9,134 c -0.9,1.2 -1.5,2.7 -1.6,4.2 l -1.4,21.7 -41.7,50.7 40.7,-0.2 17.4,-23.3 c -0.3,-0.6 -0.5,-1.2 -0.5,-1.9 v -17.3 c 3.5,-3.8 4.6,-10.4 4.6,-16.5 0,-3.7 -1,-13.1 -3.9,-16.6 1.7,-2.4 6,-7 6,-7 l 12.8,-5.2 c 2.9,-1.1 4.3,-4.5 3.2,-7.5 z" id="path1864" inkscape:connector-curvature="0" style="fill:#ffffff;stroke:#42566b;stroke-width:2;stroke-miterlimit:10"></path></g></g></g></svg> 